# Blender v3.6.0 OBJ File: 'AllModules_Unreal.blend'
# www.blender.org
mtllib Door_Frame_SquareTall.mtl
o Door_Frame_SquareTall_Cube.002
v -2.421874 0.000000 0.253425
v -2.421874 5.000000 0.253425
v 0.000000 5.000000 0.253425
v -1.366102 0.000000 0.175866
v 0.000000 4.338295 0.175866
v -1.366102 3.996935 0.175866
v -1.024743 4.338295 0.175866
v -2.421874 4.415903 0.253425
v 0.000000 4.562488 0.253425
v -1.606645 0.000000 0.253425
v -1.182727 4.562488 0.253425
v -1.606645 4.121325 0.253425
v -2.421874 0.000000 0.000000
v -2.421874 5.000000 0.000000
v 0.000000 5.000000 0.000000
v -1.366102 3.996935 0.000000
v -2.421874 4.415902 0.000000
v 0.000000 4.338295 0.000000
v 0.000000 4.526458 0.175866
v -1.564747 0.000000 0.175866
v -1.169138 4.526458 0.175866
v -1.564747 4.121325 0.175866
v -1.366102 0.000000 0.000000
v -1.024743 4.338295 0.000000
v -1.878652 5.000000 0.253425
v -0.912884 4.338295 0.175866
v -1.009969 4.562488 0.253425
v -0.912884 4.338295 0.000000
v -1.878652 5.000000 0.000000
v -0.912884 4.526458 0.175866
v -0.859825 4.581341 0.244950
v -0.859825 4.431621 0.203369
v -0.649745 4.581341 0.244950
v -0.649745 4.431621 0.203369
v -0.859825 4.431621 0.170451
v -0.859825 4.581341 0.170451
v -0.649745 4.581341 0.170451
v -0.649745 4.431621 0.170451
v -1.225121 0.000000 0.222119
v -1.225121 0.000000 0.000000
v -1.594680 0.000000 0.222119
v -1.594680 0.000000 0.000000
v -1.225121 0.251884 0.000000
v -1.225121 0.251884 0.222119
v -1.594680 0.660984 0.000000
v -1.594680 0.660984 0.222119
v 0.000000 -0.013425 0.201216
v 0.000000 -0.013425 0.000000
v -1.296173 -0.013425 0.201216
v -1.296173 -0.013425 0.000000
v 0.000000 0.057456 0.000000
v 0.000000 0.057456 0.176171
v -1.296173 0.057456 0.000000
v -1.296173 0.057456 0.176171
v 2.421874 0.000000 0.253425
v 2.421874 5.000000 0.253425
v 1.366102 0.000000 0.175866
v 1.366102 3.996935 0.175866
v 1.024743 4.338295 0.175866
v 2.421874 4.415903 0.253425
v 1.606645 0.000000 0.253425
v 1.182727 4.562488 0.253425
v 1.606645 4.121325 0.253425
v 2.421874 0.000000 0.000000
v 2.421874 5.000000 0.000000
v 1.366102 3.996935 0.000000
v 2.421874 4.415902 0.000000
v 1.564747 0.000000 0.175866
v 1.169138 4.526458 0.175866
v 1.564747 4.121325 0.175866
v 1.366102 0.000000 0.000000
v 1.024743 4.338295 0.000000
v 1.878652 5.000000 0.253425
v 0.912884 4.338295 0.175866
v 1.009969 4.562488 0.253425
v 0.912884 4.338295 0.000000
v 1.878652 5.000000 0.000000
v 0.912884 4.526458 0.175866
v 0.859825 4.581341 0.244950
v 0.859825 4.431621 0.203369
v 0.649745 4.581341 0.244950
v 0.649745 4.431621 0.203369
v 0.859825 4.431621 0.170451
v 0.859825 4.581341 0.170451
v 0.649745 4.581341 0.170451
v 0.649745 4.431621 0.170451
v 1.225121 0.000000 0.222119
v 1.225121 0.000000 0.000000
v 1.594680 0.000000 0.222119
v 1.594680 0.000000 0.000000
v 1.225121 0.251884 0.000000
v 1.225121 0.251884 0.222119
v 1.594680 0.660984 0.000000
v 1.594680 0.660984 0.222119
v 1.296173 -0.013425 0.201216
v 1.296173 -0.013425 0.000000
v 1.296173 0.057456 0.000000
v 1.296173 0.057456 0.176171
v -2.421874 0.000000 -0.253425
v -2.421874 5.000000 -0.253425
v 0.000000 5.000000 -0.253425
v -1.366102 0.000000 -0.175866
v 0.000000 4.338295 -0.175866
v -1.366102 3.996935 -0.175866
v -1.024743 4.338295 -0.175866
v -2.421874 4.415903 -0.253425
v 0.000000 4.562488 -0.253425
v -1.606645 0.000000 -0.253425
v -1.182727 4.562488 -0.253425
v -1.606645 4.121325 -0.253425
v 0.000000 4.526458 -0.175866
v -1.564747 0.000000 -0.175866
v -1.169138 4.526458 -0.175866
v -1.564747 4.121325 -0.175866
v -1.878652 5.000000 -0.253425
v -0.912884 4.338295 -0.175866
v -1.009969 4.562488 -0.253425
v -0.912884 4.526458 -0.175866
v -0.859825 4.581341 -0.244950
v -0.859825 4.431621 -0.203369
v -0.649745 4.581341 -0.244950
v -0.649745 4.431621 -0.203369
v -0.859825 4.431621 -0.170451
v -0.859825 4.581341 -0.170451
v -0.649745 4.581341 -0.170451
v -0.649745 4.431621 -0.170451
v -1.225121 0.000000 -0.222119
v -1.594680 0.000000 -0.222119
v -1.225121 0.251884 -0.222119
v -1.594680 0.660984 -0.222119
v 0.000000 -0.013425 -0.201216
v -1.296173 -0.013425 -0.201216
v 0.000000 0.057456 -0.176171
v -1.296173 0.057456 -0.176171
v 2.421874 0.000000 -0.253425
v 2.421874 5.000000 -0.253425
v 1.366102 0.000000 -0.175866
v 1.366102 3.996935 -0.175866
v 1.024743 4.338295 -0.175866
v 2.421874 4.415903 -0.253425
v 1.606645 0.000000 -0.253425
v 1.182727 4.562488 -0.253425
v 1.606645 4.121325 -0.253425
v 1.564747 0.000000 -0.175866
v 1.169138 4.526458 -0.175866
v 1.564747 4.121325 -0.175866
v 1.878652 5.000000 -0.253425
v 0.912884 4.338295 -0.175866
v 1.009969 4.562488 -0.253425
v 0.912884 4.526458 -0.175866
v 0.859825 4.581341 -0.244950
v 0.859825 4.431621 -0.203369
v 0.649745 4.581341 -0.244950
v 0.649745 4.431621 -0.203369
v 0.859825 4.431621 -0.170451
v 0.859825 4.581341 -0.170451
v 0.649745 4.581341 -0.170451
v 0.649745 4.431621 -0.170451
v 1.225121 0.000000 -0.222119
v 1.594680 0.000000 -0.222119
v 1.225121 0.251884 -0.222119
v 1.594680 0.660984 -0.222119
v 1.296173 -0.013425 -0.201216
v 1.296173 0.057456 -0.176171
vt 0.904937 0.126699
vt 0.999173 0.126699
vt 0.999173 0.001699
vt 0.904938 0.001699
vt 0.447249 0.705272
vt 0.416213 0.705272
vt 0.416213 0.658339
vt 0.447249 0.658339
vt 0.336263 0.705272
vt 0.336263 0.658339
vt 0.643183 0.126699
vt 0.643183 0.001699
vt 0.687002 0.001699
vt 0.687002 0.126699
vt 0.688313 0.409567
vt 0.714050 0.480793
vt 0.246062 0.480793
vt 0.246062 0.409567
vt 1.307690 0.965688
vt 1.307690 0.998205
vt -0.468604 0.998205
vt -0.468604 0.965688
vt 0.765082 0.480793
vt 0.726857 0.372530
vt 0.765082 0.433332
vt 0.726857 0.357436
vt 0.968896 0.550052
vt 0.881193 0.550052
vt 0.881193 0.511044
vt 0.968896 0.511044
vt 0.155063 0.550052
vt 0.155063 0.511044
vt 0.311903 0.001699
vt 0.311903 0.126699
vt 0.996089 0.550052
vt 0.996089 0.511044
vt -0.268916 0.705272
vt -0.268916 0.658339
vt 1.542357 0.998205
vt 1.542357 0.965688
vt 1.634148 0.998205
vt 1.634148 0.965688
vt 2.166004 0.998205
vt 2.166004 0.965688
vt 1.155062 0.550052
vt 1.155063 0.511044
vt 0.765082 0.269196
vt 0.726857 0.269196
vt 0.628688 0.705272
vt 0.628688 0.658339
vt 0.354020 0.126699
vt 0.354020 0.001699
vt 0.565207 0.132683
vt 0.434627 0.132683
vt 0.434627 0.085749
vt 0.565207 0.085749
vt 0.565207 0.132683
vt 0.565207 0.085749
vt 0.434627 0.085749
vt 0.434627 0.132683
vt 0.000000 0.000000
vt 0.000000 0.000000
vt 0.000000 0.000000
vt 0.000000 0.000000
vt 0.052943 0.181362
vt 0.024033 0.181362
vt 0.024033 0.368958
vt 0.052943 0.368958
vt 0.357971 0.216161
vt 0.433756 0.216161
vt 0.433756 0.267815
vt 0.357971 0.351709
vt 0.479307 0.216161
vt 0.479307 0.267815
vt 0.000000 0.000000
vt 0.000000 0.000000
vt 0.000000 0.000000
vt 0.000000 0.000000
vt 0.000000 0.000000
vt 0.000000 0.000000
vt 0.763194 0.536348
vt 0.763194 0.508353
vt 0.236978 0.508353
vt 0.236978 0.536348
vt 0.274606 0.101019
vt 0.274606 0.088914
vt 0.726200 0.088914
vt 0.726200 0.101019
vt 0.904937 0.126699
vt 0.904938 0.001699
vt 0.999173 0.001699
vt 0.999173 0.126699
vt 0.447249 0.705272
vt 0.447249 0.658339
vt 0.416213 0.658339
vt 0.416213 0.705272
vt 0.336263 0.658339
vt 0.336263 0.705272
vt 0.643183 0.126699
vt 0.687002 0.126699
vt 0.687002 0.001699
vt 0.643183 0.001699
vt 0.688313 0.409567
vt 0.246062 0.409567
vt 0.246062 0.480793
vt 0.714050 0.480793
vt 1.307690 0.965688
vt -0.468604 0.965688
vt -0.468604 0.998205
vt 1.307690 0.998205
vt 0.765082 0.480793
vt 0.726857 0.372530
vt 0.765082 0.433332
vt 0.726857 0.357436
vt 0.968896 0.550052
vt 0.968896 0.511044
vt 0.881193 0.511044
vt 0.881193 0.550052
vt 0.155063 0.511044
vt 0.155063 0.550052
vt 0.311903 0.001699
vt 0.311903 0.126699
vt 0.996089 0.550052
vt 0.996089 0.511044
vt -0.268916 0.658339
vt -0.268916 0.705272
vt 1.542357 0.998205
vt 1.542357 0.965688
vt 1.634148 0.998205
vt 1.634148 0.965688
vt 0.565207 0.132683
vt 0.565207 0.085749
vt 0.434627 0.085749
vt 0.434627 0.132683
vt 0.565207 0.132683
vt 0.434627 0.132683
vt 0.434627 0.085749
vt 0.565207 0.085749
vt 0.000000 0.000000
vt 0.000000 0.000000
vt 0.000000 0.000000
vt 0.000000 0.000000
vt 0.052943 0.181362
vt 0.052943 0.368958
vt 0.024033 0.368958
vt 0.024033 0.181362
vt 0.357971 0.216161
vt 0.357971 0.351709
vt 0.433756 0.267815
vt 0.433756 0.216161
vt 0.479307 0.267815
vt 0.479307 0.216161
vt 0.000000 0.000000
vt 0.000000 0.000000
vt 0.000000 0.000000
vt 0.000000 0.000000
vt 0.236978 0.536348
vt 0.236978 0.508353
vt 0.726200 0.101019
vt 0.726200 0.088914
vt 0.904938 0.001699
vt 0.999173 0.001699
vt 0.447249 0.705272
vt 0.447249 0.658339
vt 0.416213 0.658339
vt 0.416213 0.705272
vt 0.336263 0.658339
vt 0.336263 0.705272
vt 0.687002 0.001699
vt 0.643183 0.001699
vt 0.688313 0.409567
vt 0.246062 0.409567
vt 0.246062 0.480793
vt 0.714050 0.480793
vt 1.307690 0.965688
vt -0.468604 0.965688
vt -0.468604 0.998205
vt 1.307690 0.998205
vt 0.765082 0.480793
vt 0.726857 0.372530
vt 0.765082 0.433332
vt 0.726857 0.357436
vt 0.968896 0.550052
vt 0.881193 0.550052
vt 0.155063 0.550052
vt 0.311903 0.001699
vt 0.996089 0.550052
vt -0.268916 0.658339
vt -0.268916 0.705272
vt 1.542357 0.998205
vt 1.542357 0.965688
vt 1.634148 0.998205
vt 1.634148 0.965688
vt 2.166004 0.998205
vt 2.166004 0.965688
vt 1.155062 0.550052
vt 0.765082 0.269196
vt 0.726857 0.269196
vt 0.628688 0.705272
vt 0.628688 0.658339
vt 0.354020 0.001699
vt 0.565207 0.132683
vt 0.565207 0.085749
vt 0.434627 0.085749
vt 0.434627 0.132683
vt 0.565207 0.132683
vt 0.434627 0.132683
vt 0.434627 0.085749
vt 0.565207 0.085749
vt 0.000000 0.000000
vt 0.000000 0.000000
vt 0.052943 0.181362
vt 0.052943 0.368958
vt 0.357971 0.216161
vt 0.357971 0.351709
vt 0.433756 0.267815
vt 0.433756 0.216161
vt 0.000000 0.000000
vt 0.000000 0.000000
vt 0.000000 0.000000
vt 0.763194 0.536348
vt 0.236978 0.536348
vt 0.274606 0.101019
vt 0.726200 0.101019
vt 0.726200 0.088914
vt 0.274606 0.088914
vt 0.999173 0.001699
vt 0.904938 0.001699
vt 0.447249 0.705272
vt 0.416213 0.705272
vt 0.416213 0.658339
vt 0.447249 0.658339
vt 0.336263 0.705272
vt 0.336263 0.658339
vt 0.643183 0.001699
vt 0.687002 0.001699
vt 0.688313 0.409567
vt 0.714050 0.480793
vt 0.246062 0.480793
vt 0.246062 0.409567
vt 1.307690 0.965688
vt 1.307690 0.998205
vt -0.468604 0.998205
vt -0.468604 0.965688
vt 0.765082 0.480793
vt 0.726857 0.372530
vt 0.765082 0.433332
vt 0.726857 0.357436
vt 0.968896 0.550052
vt 0.881193 0.550052
vt 0.155063 0.550052
vt 0.311903 0.001699
vt 0.996089 0.550052
vt -0.268916 0.705272
vt -0.268916 0.658339
vt 1.542357 0.998205
vt 1.542357 0.965688
vt 1.634148 0.998205
vt 1.634148 0.965688
vt 0.565207 0.132683
vt 0.434627 0.132683
vt 0.434627 0.085749
vt 0.565207 0.085749
vt 0.565207 0.132683
vt 0.565207 0.085749
vt 0.434627 0.085749
vt 0.434627 0.132683
vt 0.000000 0.000000
vt 0.000000 0.000000
vt 0.052943 0.181362
vt 0.052943 0.368958
vt 0.357971 0.216161
vt 0.433756 0.216161
vt 0.433756 0.267815
vt 0.357971 0.351709
vt 0.000000 0.000000
vt 0.000000 0.000000
vt 0.236978 0.536348
vt 0.726200 0.088914
vt 0.726200 0.101019
vn 0.0000 1.0000 0.0000
vn 0.0000 0.0000 1.0000
vn -1.0000 0.0000 0.0000
vn 0.8798 0.0000 0.4753
vn 0.7071 -0.7071 0.0000
vn 1.0000 0.0000 0.0000
vn 0.0000 -1.0000 0.0000
vn 0.6627 -0.6417 0.3861
vn 0.0000 -0.9069 0.4213
vn 0.0000 -0.2676 0.9635
vn 0.0000 0.0000 -1.0000
vn 0.7421 0.6703 0.0000
vn 0.0000 0.3332 0.9429
vn -0.8798 0.0000 0.4753
vn -0.7071 -0.7071 0.0000
vn -0.6627 -0.6417 0.3861
vn -0.7421 0.6703 0.0000
vn 0.8798 0.0000 -0.4753
vn 0.6627 -0.6417 -0.3861
vn 0.0000 -0.9069 -0.4213
vn 0.0000 -0.2676 -0.9635
vn 0.0000 0.3332 -0.9429
vn -0.8798 0.0000 -0.4753
vn -0.6627 -0.6417 -0.3861
usemtl MI_Trim_01
s off
f 29/1/1 14/2/1 2/3/1 25/4/1
f 30/5/2 21/6/2 7/7/2 26/8/2
f 21/6/2 22/9/2 6/10/2 7/7/2
f 17/11/3 8/12/3 2/13/3 14/14/3
f 12/15/2 8/16/2 1/17/2 10/18/2
f 22/19/4 12/20/4 10/21/4 20/22/4
f 2/23/2 8/16/2 12/15/2 11/24/2
f 25/25/2 2/23/2 11/24/2 27/26/2
f 7/27/5 6/28/5 16/29/5 24/30/5
f 6/28/6 4/31/6 23/32/6 16/29/6
f 1/33/3 8/12/3 17/11/3 13/34/3
f 26/35/7 7/27/7 24/30/7 28/36/7
f 6/10/2 22/9/2 20/37/2 4/38/2
f 11/39/8 12/20/8 22/19/8 21/40/8
f 27/41/9 11/39/9 21/40/9 30/42/9
f 9/43/9 27/41/9 30/42/9 19/44/9
f 5/45/7 26/35/7 28/36/7 18/46/7
f 3/47/2 25/25/2 27/26/2 9/48/2
f 19/49/2 30/5/2 26/8/2 5/50/2
f 15/51/1 29/1/1 25/4/1 3/52/1
f 32/53/10 34/54/10 33/55/10 31/56/10
f 35/57/11 36/58/11 37/59/11 38/60/11
f 31/56/3 36/58/3 35/57/3 32/53/3
f 34/54/6 38/60/6 37/59/6 33/55/6
f 33/55/1 37/59/1 36/58/1 31/56/1
f 32/53/7 35/57/7 38/60/7 34/54/7
f 39/61/7 41/62/7 42/63/7 40/64/7
f 44/65/12 43/66/12 45/67/12 46/68/12
f 41/69/2 39/70/2 44/71/2 46/72/2
f 39/70/6 40/73/6 43/74/6 44/71/6
f 42/63/3 41/62/3 46/75/3 45/76/3
f 47/77/7 49/78/7 50/79/7 48/80/7
f 52/81/1 51/82/1 53/83/1 54/84/1
f 47/85/13 52/86/13 54/87/13 49/88/13
f 77/89/1 73/90/1 56/91/1 65/92/1
f 78/93/2 74/94/2 59/95/2 69/96/2
f 69/96/2 59/95/2 58/97/2 70/98/2
f 67/99/6 65/100/6 56/101/6 60/102/6
f 63/103/2 61/104/2 55/105/2 60/106/2
f 70/107/14 68/108/14 61/109/14 63/110/14
f 56/111/2 62/112/2 63/103/2 60/106/2
f 73/113/2 75/114/2 62/112/2 56/111/2
f 59/115/15 72/116/15 66/117/15 58/118/15
f 58/118/3 66/117/3 71/119/3 57/120/3
f 55/121/6 64/122/6 67/99/6 60/102/6
f 74/123/7 76/124/7 72/116/7 59/115/7
f 58/97/2 57/125/2 68/126/2 70/98/2
f 62/127/16 69/128/16 70/107/16 63/110/16
f 75/129/9 78/130/9 69/128/9 62/127/9
f 9/43/9 19/44/9 78/130/9 75/129/9
f 5/45/7 18/46/7 76/124/7 74/123/7
f 3/47/2 9/48/2 75/114/2 73/113/2
f 19/49/2 5/50/2 74/94/2 78/93/2
f 15/51/1 3/52/1 73/90/1 77/89/1
f 80/131/10 79/132/10 81/133/10 82/134/10
f 83/135/11 86/136/11 85/137/11 84/138/11
f 79/132/6 80/131/6 83/135/6 84/138/6
f 82/134/3 81/133/3 85/137/3 86/136/3
f 81/133/1 79/132/1 84/138/1 85/137/1
f 80/131/7 82/134/7 86/136/7 83/135/7
f 87/139/7 88/140/7 90/141/7 89/142/7
f 92/143/17 94/144/17 93/145/17 91/146/17
f 89/147/2 94/148/2 92/149/2 87/150/2
f 87/150/3 92/149/3 91/151/3 88/152/3
f 90/141/6 93/153/6 94/154/6 89/142/6
f 47/77/7 48/80/7 96/155/7 95/156/7
f 52/81/1 98/157/1 97/158/1 51/82/1
f 47/85/13 95/159/13 98/160/13 52/86/13
f 29/1/1 115/161/1 100/162/1 14/2/1
f 118/163/11 116/164/11 105/165/11 113/166/11
f 113/166/11 105/165/11 104/167/11 114/168/11
f 17/11/3 14/14/3 100/169/3 106/170/3
f 110/171/11 108/172/11 99/173/11 106/174/11
f 114/175/18 112/176/18 108/177/18 110/178/18
f 100/179/11 109/180/11 110/171/11 106/174/11
f 115/181/11 117/182/11 109/180/11 100/179/11
f 105/183/5 24/30/5 16/29/5 104/184/5
f 104/184/6 16/29/6 23/32/6 102/185/6
f 99/186/3 13/34/3 17/11/3 106/170/3
f 116/187/7 28/36/7 24/30/7 105/183/7
f 104/167/11 102/188/11 112/189/11 114/168/11
f 109/190/19 113/191/19 114/175/19 110/178/19
f 117/192/20 118/193/20 113/191/20 109/190/20
f 107/194/20 111/195/20 118/193/20 117/192/20
f 103/196/7 18/46/7 28/36/7 116/187/7
f 101/197/11 107/198/11 117/182/11 115/181/11
f 111/199/11 103/200/11 116/164/11 118/163/11
f 15/51/1 101/201/1 115/161/1 29/1/1
f 120/202/21 119/203/21 121/204/21 122/205/21
f 123/206/2 126/207/2 125/208/2 124/209/2
f 119/203/3 120/202/3 123/206/3 124/209/3
f 122/205/6 121/204/6 125/208/6 126/207/6
f 121/204/1 119/203/1 124/209/1 125/208/1
f 120/202/7 122/205/7 126/207/7 123/206/7
f 127/210/7 40/64/7 42/63/7 128/211/7
f 129/212/12 130/213/12 45/67/12 43/66/12
f 128/214/11 130/215/11 129/216/11 127/217/11
f 127/217/6 129/216/6 43/74/6 40/73/6
f 42/63/3 45/76/3 130/218/3 128/211/3
f 131/219/7 48/80/7 50/79/7 132/220/7
f 133/221/1 134/222/1 53/83/1 51/82/1
f 131/223/22 132/224/22 134/225/22 133/226/22
f 77/89/1 65/92/1 136/227/1 147/228/1
f 150/229/11 145/230/11 139/231/11 148/232/11
f 145/230/11 146/233/11 138/234/11 139/231/11
f 67/99/6 140/235/6 136/236/6 65/100/6
f 143/237/11 140/238/11 135/239/11 141/240/11
f 146/241/23 143/242/23 141/243/23 144/244/23
f 136/245/11 140/238/11 143/237/11 142/246/11
f 147/247/11 136/245/11 142/246/11 149/248/11
f 139/249/15 138/250/15 66/117/15 72/116/15
f 138/250/3 137/251/3 71/119/3 66/117/3
f 135/252/6 140/235/6 67/99/6 64/122/6
f 148/253/7 139/249/7 72/116/7 76/124/7
f 138/234/11 146/233/11 144/254/11 137/255/11
f 142/256/24 143/242/24 146/241/24 145/257/24
f 149/258/20 142/256/20 145/257/20 150/259/20
f 107/194/20 149/258/20 150/259/20 111/195/20
f 103/196/7 148/253/7 76/124/7 18/46/7
f 101/197/11 147/247/11 149/248/11 107/198/11
f 111/199/11 150/229/11 148/232/11 103/200/11
f 15/51/1 77/89/1 147/228/1 101/201/1
f 152/260/21 154/261/21 153/262/21 151/263/21
f 155/264/2 156/265/2 157/266/2 158/267/2
f 151/263/6 156/265/6 155/264/6 152/260/6
f 154/261/3 158/267/3 157/266/3 153/262/3
f 153/262/1 157/266/1 156/265/1 151/263/1
f 152/260/7 155/264/7 158/267/7 154/261/7
f 159/268/7 160/269/7 90/141/7 88/140/7
f 161/270/17 91/146/17 93/145/17 162/271/17
f 160/272/11 159/273/11 161/274/11 162/275/11
f 159/273/3 88/152/3 91/151/3 161/274/3
f 90/141/6 160/269/6 162/276/6 93/153/6
f 131/219/7 163/277/7 96/155/7 48/80/7
f 133/221/1 51/82/1 97/158/1 164/278/1
f 131/223/22 133/226/22 164/279/22 163/280/22
