# Blender v3.6.0 OBJ File: 'AllModules_Unreal.blend'
# www.blender.org
mtllib Door_Frame_Square_Blocked.mtl
o Door_Frame_Square_Blocked_Cube.213
v -2.426725 5.000000 0.253425
v 0.000000 5.000000 0.253425
v -2.426725 5.000000 0.000000
v 0.000000 5.000000 0.000000
v -2.426725 5.000000 -0.253425
v 0.000000 5.000000 -0.253425
v -2.426725 2.500000 0.000000
v -2.426725 2.500000 -0.253425
v -2.426725 2.500000 0.253425
v 0.000000 2.500000 -0.253425
v 0.000000 2.500000 0.253425
v 2.426725 5.000000 0.253425
v 2.426725 5.000000 0.000000
v 2.426725 5.000000 -0.253425
v 2.426725 2.500000 0.000000
v 2.426725 2.500000 -0.253425
v 2.426725 2.500000 0.253425
v -2.426725 0.000000 0.253425
v 0.000000 0.000000 0.253425
v -2.426725 0.000000 0.000000
v 0.000000 0.000000 0.000000
v -2.426725 0.000000 -0.253425
v 0.000000 0.000000 -0.253425
v 2.426725 0.000000 0.253425
v 2.426725 0.000000 0.000000
v 2.426725 0.000000 -0.253425
vt 0.354020 0.126699
vt 0.354020 0.001699
vt 0.999173 0.001699
vt 0.999173 0.126699
vt 0.596556 0.126699
vt 0.596556 0.001699
vt 0.687002 0.001699
vt 0.687002 0.126699
vt 0.999173 0.001699
vt 0.354020 0.001699
vt 0.417433 0.478727
vt 0.777551 0.478727
vt 0.777551 0.203819
vt 0.417433 0.203819
vt 0.596556 0.001699
vt 0.687002 0.001699
vt 0.417433 0.478727
vt 0.417433 0.203819
vt 0.777551 0.203819
vt 0.777551 0.478727
vt 0.999173 0.126699
vt 0.999173 0.001699
vt 0.596556 0.126699
vt 0.687002 0.126699
vt 0.687002 0.001699
vt 0.596556 0.001699
vt 0.999173 0.001699
vt 0.417433 0.478727
vt 0.777551 0.478727
vt 0.596556 0.001699
vt 0.687002 0.001699
vt 0.417433 0.478727
vt 0.777551 0.478727
vt 0.354020 0.126699
vt 0.999173 0.126699
vt 0.999173 0.001699
vt 0.354020 0.001699
vt 0.687002 0.126699
vt 0.687002 0.001699
vt 0.354020 0.001699
vt 0.999173 0.001699
vt 0.132348 0.203819
vt 0.132348 0.478727
vt 0.687002 0.001699
vt 0.132348 0.478727
vt 0.132348 0.203819
vt 0.999173 0.001699
vt 0.999173 0.126699
vt 0.687002 0.001699
vt 0.687002 0.126699
vt 0.999173 0.001699
vt 0.132348 0.478727
vt 0.687002 0.001699
vt 0.132348 0.478727
vn 0.0000 1.0000 0.0000
vn -1.0000 0.0000 0.0000
vn 0.0000 0.0000 -1.0000
vn 0.0000 0.0000 1.0000
vn 1.0000 0.0000 0.0000
vn 0.0000 -1.0000 0.0000
usemtl MI_Trim_01
s off
f 4/1/1 6/2/1 5/3/1 3/4/1
f 7/5/2 9/6/2 1/7/2 3/8/2
f 4/1/1 3/4/1 1/9/1 2/10/1
f 8/11/3 5/12/3 6/13/3 10/14/3
f 8/15/2 7/5/2 3/8/2 5/16/2
f 9/17/4 11/18/4 2/19/4 1/20/4
f 4/1/1 13/21/1 14/22/1 6/2/1
f 15/23/5 13/24/5 12/25/5 17/26/5
f 4/1/1 2/10/1 12/27/1 13/21/1
f 16/28/3 10/14/3 6/13/3 14/29/3
f 16/30/5 14/31/5 13/24/5 15/23/5
f 17/32/4 12/33/4 2/19/4 11/18/4
f 21/34/6 20/35/6 22/36/6 23/37/6
f 7/5/2 20/38/2 18/39/2 9/6/2
f 21/34/6 19/40/6 18/41/6 20/35/6
f 8/11/3 10/14/3 23/42/3 22/43/3
f 8/15/2 22/44/2 20/38/2 7/5/2
f 9/17/4 18/45/4 19/46/4 11/18/4
f 21/34/6 23/37/6 26/47/6 25/48/6
f 15/23/5 17/26/5 24/49/5 25/50/5
f 21/34/6 25/48/6 24/51/6 19/40/6
f 16/28/3 26/52/3 23/42/3 10/14/3
f 16/30/5 15/23/5 25/50/5 26/53/5
f 17/32/4 11/18/4 19/46/4 24/54/4
