# Blender v3.6.0 OBJ File: 'AllModules_Unreal.blend'
# www.blender.org
mtllib Door_Metal.mtl
o Door_Metal_Cube.037
v -2.105721 0.000000 0.101602
v -2.105721 4.048902 0.101602
v -2.105721 0.000000 0.000000
v 0.000000 0.000000 0.000000
v -2.105721 4.048902 0.000000
v 0.000000 4.048902 0.000000
v 0.000000 0.000000 0.090524
v -0.011078 0.000000 0.101602
v -0.011078 4.048902 0.101602
v 0.000000 4.048902 0.090524
v -0.240978 0.000000 0.101602
v -0.240978 4.048902 0.101602
v -2.105721 0.000000 -0.101602
v -2.105721 4.048902 -0.101602
v 0.000000 0.000000 -0.090524
v -0.011078 0.000000 -0.101602
v -0.011078 4.048902 -0.101602
v 0.000000 4.048902 -0.090524
v -0.240978 0.000000 -0.101602
v -0.240978 4.048902 -0.101602
vt 0.161794 0.538671
vt 0.161794 0.595452
vt 0.535014 0.595452
vt 0.535014 0.538671
vt 0.144202 0.525146
vt 1.188312 0.525149
vt 1.188312 0.528006
vt 0.144202 0.528003
vt 0.161794 0.538671
vt 0.535014 0.538671
vt 0.535014 0.595452
vt 0.161794 0.595452
vt 0.144202 0.525146
vt 0.144202 0.528003
vt 1.188312 0.528006
vt 1.188312 0.525149
vt 0.636101 0.376336
vt 0.636101 0.406948
vt 0.068540 0.406948
vt -0.001433 0.406948
vt -0.004805 0.406948
vt -0.004804 0.376336
vt -0.002527 0.376336
vt 0.638379 0.376336
vt 0.638379 0.406948
vt 0.635007 0.406948
vt 0.565034 0.406948
vt -0.002527 0.406948
vt -0.157715 0.406948
vt -0.157715 0.376336
vt 1.094295 0.376336
vt 1.094295 0.406948
vt -0.193269 0.938110
vt -0.193269 0.409359
vt 0.954803 0.409359
vt 0.954803 0.938110
vt -0.004805 0.406948
vt -0.001433 0.406948
vt 0.068540 0.406948
vt 0.636101 0.406948
vt -0.002527 0.406948
vt 0.565034 0.406948
vt 0.635007 0.406948
vt 0.638379 0.406948
vt -0.157715 0.406948
vt 1.094295 0.406948
vt -0.193269 0.938110
vt 0.954803 0.938110
vt 0.954803 0.409359
vt -0.193269 0.409359
vn 0.0000 0.0000 1.0000
vn 0.7071 0.0000 0.7071
vn 0.0000 0.0000 -1.0000
vn 0.7071 0.0000 -0.7071
vn 0.0000 1.0000 -0.0000
vn 0.0000 -1.0000 0.0000
vn 1.0000 0.0000 0.0000
usemtl MI_Trim_01
s off
f 11/1/1 8/2/1 9/3/1 12/4/1
f 7/5/2 10/6/2 9/7/2 8/8/2
f 19/9/3 20/10/3 17/11/3 16/12/3
f 15/13/4 16/14/4 17/15/4 18/16/4
usemtl MI_Trim_02
f 5/17/5 2/18/5 12/19/5 9/20/5 10/21/5 6/22/5
f 3/23/6 4/24/6 7/25/6 8/26/6 11/27/6 1/28/6
f 7/29/7 4/30/7 6/31/7 10/32/7
f 1/33/1 11/34/1 12/35/1 2/36/1
f 5/17/5 6/22/5 18/37/5 17/38/5 20/39/5 14/40/5
f 3/23/6 13/41/6 19/42/6 16/43/6 15/44/6 4/24/6
f 15/45/7 18/46/7 6/31/7 4/30/7
f 13/47/3 14/48/3 20/49/3 19/50/3
