# Blender v3.6.0 OBJ File: 'AllModules_Unreal.blend'
# www.blender.org
mtllib Door_Frame_A.mtl
o Door_Frame_A_Cube.004
v -2.105721 -0.024865 0.346677
v -2.105721 -0.024865 -0.403460
v -2.105721 -0.033701 -0.403460
v -2.105721 -0.033701 0.346677
v 0.000000 -0.033701 -0.403460
v 0.000000 -0.024865 -0.403460
v 0.000000 -0.024865 0.346677
v 0.000000 -0.033701 0.346677
v -2.105721 0.037217 0.275272
v 0.000000 0.037217 0.275272
v -2.105721 0.037217 -0.275272
v 0.000000 0.037217 -0.275272
v 2.105721 -0.024865 0.346677
v 2.105721 -0.024865 -0.403460
v 2.105721 -0.033701 -0.403460
v 2.105721 -0.033701 0.346677
v 2.105721 0.037217 0.275272
v 2.105721 0.037217 -0.275272
v -1.760395 -0.118961 0.459722
v -1.630375 0.088941 -0.447413
v -1.880787 0.741978 0.459722
v 0.000000 3.834151 0.459721
v -1.630375 0.088941 0.459722
v -1.880984 -0.098999 0.459722
v -1.760395 -0.118961 -0.447413
v 0.000000 3.834151 -0.447413
v -1.880787 0.741978 -0.447413
v -1.873106 -0.092805 -0.447413
v -1.650642 0.116524 -0.335280
v -1.892842 0.747683 0.347588
v -1.650642 0.116524 0.347588
v -1.892842 0.747683 -0.335279
v -1.506537 0.352158 -0.335280
v -1.759107 1.003894 -0.335279
v -1.506537 0.352158 0.347588
v -1.759107 1.003894 0.347588
v -0.392967 3.834151 0.459721
v -0.442455 3.892175 -0.447413
v -0.392967 3.834151 -0.447413
v -1.821265 0.561159 -0.335279
v -1.821265 0.561159 0.347588
v -1.684466 0.811289 -0.335279
v -1.684466 0.811289 0.347588
v -0.442455 3.892467 0.459721
v 0.000000 3.892175 0.459721
v -1.749572 0.104727 0.459722
v -1.999984 0.757765 0.459722
v -2.435321 -0.098999 0.459722
v -2.435321 4.562099 0.459722
v -2.435321 0.411026 0.459722
v -2.435321 0.767886 0.459722
v -2.435321 5.039759 0.459722
v 0.000000 5.039759 0.459721
v -2.435321 3.902590 0.459722
v 0.000000 4.562099 0.459721
v 0.000000 3.892175 -0.447413
v -1.749572 0.104728 -0.447413
v -1.999984 0.757765 -0.447413
v -2.435321 -0.098999 -0.447413
v -2.435321 4.562099 -0.447413
v -2.435321 0.411026 -0.447413
v -2.435321 0.767886 -0.447413
v -2.435321 5.039759 -0.447413
v 0.000000 5.039759 -0.447413
v -2.435321 3.902590 -0.447413
v 0.000000 4.562099 -0.447413
v 1.760395 -0.118961 0.459722
v 1.630375 0.088941 -0.447413
v 1.880787 0.741978 0.459722
v 1.630375 0.088941 0.459722
v 1.880984 -0.098999 0.459722
v 1.760395 -0.118961 -0.447413
v 1.880787 0.741978 -0.447413
v 1.873106 -0.092805 -0.447413
v 1.650642 0.116524 -0.335280
v 1.892842 0.747683 0.347588
v 1.650642 0.116524 0.347588
v 1.892842 0.747683 -0.335279
v 1.506537 0.352158 -0.335280
v 1.759107 1.003894 -0.335279
v 1.506537 0.352158 0.347588
v 1.759107 1.003894 0.347588
v 0.392967 3.834151 0.459721
v 0.442455 3.892175 -0.447413
v 0.392967 3.834151 -0.447413
v 1.821265 0.561159 -0.335279
v 1.821265 0.561159 0.347588
v 1.684466 0.811289 -0.335279
v 1.684466 0.811289 0.347588
v 0.442455 3.892467 0.459721
v 1.749572 0.104727 0.459722
v 1.999984 0.757765 0.459722
v 2.435323 -0.098999 0.459722
v 2.435323 4.562099 0.459722
v 2.435323 0.411026 0.459722
v 2.435323 0.767886 0.459722
v 2.435323 5.039759 0.459722
v 2.435323 3.902590 0.459722
v 1.749572 0.104728 -0.447413
v 1.999984 0.757765 -0.447413
v 2.435323 -0.098999 -0.447413
v 2.435323 4.562099 -0.447413
v 2.435323 0.411026 -0.447413
v 2.435323 0.767886 -0.447413
v 2.435323 5.039759 -0.447413
v 2.435323 3.902590 -0.447413
v -0.693621 4.833722 0.463688
v -0.693621 3.967652 0.463688
v 0.693621 4.833720 0.463688
v 0.693621 3.967654 0.463688
v -0.693621 4.833722 -0.463688
v -0.693621 3.967652 -0.463688
v 0.693621 4.833720 -0.463688
v 0.693621 3.967654 -0.463688
v -1.136877 2.288064 0.459721
v -1.136877 2.288064 -0.447413
v -2.435321 2.335238 0.459722
v -2.435321 2.335238 -0.447413
v -1.221219 2.325116 0.459722
v -1.221219 2.324970 -0.447413
v 1.136877 2.288064 0.459721
v 1.136877 2.288064 -0.447413
v 2.435323 2.335238 0.459722
v 2.435323 2.335238 -0.447413
v 1.221219 2.325116 0.459722
v 1.221219 2.324970 -0.447413
vt 0.167623 0.530645
vt 0.167623 0.530645
vt 0.545297 0.530645
vt 0.545297 0.530645
vt 0.167623 0.537049
vt 0.545297 0.537049
vt 0.167623 0.597916
vt 0.545297 0.597916
vt 0.167623 0.597916
vt 0.545297 0.597916
vt 0.167623 0.586421
vt 0.545297 0.586421
vt 0.167623 0.530645
vt 0.167623 0.530645
vt 0.167623 0.537049
vt 0.167623 0.597916
vt 0.167623 0.597916
vt 0.167623 0.586421
vt 0.115798 0.658622
vt 0.115798 0.609657
vt -0.041670 0.609657
vt -0.041670 0.658622
vt 0.201862 0.609657
vt 0.201862 0.658622
vt 0.357307 0.658622
vt 0.357307 0.609657
vt 0.034794 0.609657
vt 0.034794 0.658622
vt 0.100022 0.626643
vt 0.100022 0.650171
vt 0.036270 0.650171
vt 0.036270 0.626643
vt 0.083593 0.605661
vt 0.036923 0.653080
vt 0.000180 0.653080
vt 0.048650 0.606056
vt 0.000509 0.626643
vt 0.000509 0.650171
vt 0.083593 0.605661
vt 0.036923 0.653080
vt 0.124513 0.653080
vt 0.166888 0.604719
vt -0.064786 0.609657
vt -0.064786 0.658622
vt 0.048650 0.606056
vt 0.000180 0.653080
vt 0.166888 0.604719
vt 0.124513 0.653080
vt 0.126767 0.626643
vt 0.126767 0.650171
vt 0.115798 0.658622
vt -0.041670 0.658622
vt -0.041670 0.609657
vt 0.115798 0.609657
vt 0.201862 0.609657
vt 0.357307 0.609657
vt 0.357307 0.658622
vt 0.201862 0.658622
vt 0.034794 0.609657
vt 0.034794 0.658622
vt 0.100022 0.626643
vt 0.036270 0.626643
vt 0.036270 0.650171
vt 0.100022 0.650171
vt 0.083593 0.605661
vt 0.048650 0.606056
vt 0.000180 0.653080
vt 0.036923 0.653080
vt 0.000509 0.626643
vt 0.000509 0.650171
vt 0.083593 0.605661
vt 0.166888 0.604719
vt 0.124513 0.653080
vt 0.036923 0.653080
vt 0.048650 0.606056
vt 0.000180 0.653080
vt 0.166888 0.604719
vt 0.124513 0.653080
vt 0.126767 0.626643
vt 0.126767 0.650171
vt -0.122673 0.609657
vt -0.122673 0.658622
vt -0.122673 0.658622
vt -0.122673 0.609657
vt 1.042832 1.000393
vt 0.754289 1.000393
vt 0.745236 0.965504
vt 1.041400 0.965504
vt 1.042832 1.000393
vt 1.041400 0.965504
vt 0.745236 0.965504
vt 0.754289 1.000393
vt 0.584872 0.965504
vt 0.593924 1.000393
vt 0.389519 0.965504
vt 0.394830 1.000393
vt 0.593924 1.000393
vt 0.584872 0.965504
vt 0.394830 1.000393
vt 0.389519 0.965504
vt 1.360981 1.000393
vt 1.331375 1.000393
vt 1.337563 0.965504
vt 1.367170 0.965504
vt 1.360981 1.000393
vt 1.367170 0.965504
vt 1.337563 0.965504
vt 1.331374 1.000393
vt 0.503688 0.420792
vt 0.477887 0.363152
vt 0.520849 0.363152
vt 0.520588 0.410055
vt 0.448642 0.400720
vt 0.447826 0.363152
vt 0.116223 0.361925
vt 0.116223 0.575477
vt 0.074486 0.575477
vt 0.074486 0.361925
vt 0.310804 0.363152
vt 0.311688 0.468768
vt 0.173850 0.362984
vt 0.174735 0.536816
vt 0.174735 0.575477
vt 0.503688 0.420792
vt 0.520588 0.410055
vt 0.520849 0.363152
vt 0.477887 0.363152
vt 0.448642 0.400720
vt 0.447826 0.363152
vt 0.116223 0.361925
vt 0.074486 0.361925
vt 0.074486 0.575477
vt 0.116223 0.575477
vt 0.310804 0.362984
vt 0.311688 0.468768
vt 0.447758 0.362984
vt 0.174735 0.536816
vt 0.173850 0.362984
vt 0.174735 0.575477
vt 1.042832 1.000393
vt 1.041400 0.965504
vt 0.745236 0.965504
vt 0.754289 1.000393
vt 1.042832 1.000393
vt 0.754289 1.000393
vt 0.745236 0.965504
vt 1.041400 0.965504
vt 0.593924 1.000393
vt 0.584872 0.965504
vt 0.394830 1.000393
vt 0.389519 0.965504
vt 0.584872 0.965504
vt 0.593924 1.000393
vt 0.389519 0.965504
vt 0.394830 1.000393
vt 1.337563 0.965504
vt 1.331375 1.000393
vt 1.331374 1.000393
vt 1.337563 0.965504
vt 0.503688 0.420792
vt 0.520588 0.410055
vt 0.520849 0.363152
vt 0.477887 0.363152
vt 0.448642 0.400720
vt 0.447826 0.363152
vt 0.116223 0.361925
vt 0.074486 0.361925
vt 0.310804 0.362984
vt 0.311688 0.468768
vt 0.447758 0.362984
vt 0.174735 0.536816
vt 0.173850 0.362984
vt 0.503688 0.420792
vt 0.477887 0.363152
vt 0.520849 0.363152
vt 0.520588 0.410055
vt 0.448642 0.400720
vt 0.447826 0.363152
vt 0.116223 0.361925
vt 0.074486 0.361925
vt 0.310804 0.362984
vt 0.447758 0.362984
vt 0.311688 0.468768
vt 0.173850 0.362984
vt 0.174735 0.536816
vt 0.251105 0.752592
vt 0.352942 0.752592
vt 0.352942 0.937838
vt 0.251105 0.937838
vt 0.498692 0.752592
vt 0.498692 0.937838
vt 1.138832 0.752592
vt 1.778972 0.752592
vt 1.778972 0.937838
vt 1.138832 0.937838
vt 2.048375 0.752592
vt 2.048375 0.937838
vt 2.243462 0.752592
vt 2.243462 0.937838
vt 1.246543 0.937838
vt 0.248369 0.937838
vt 0.248369 0.752592
vt 1.246543 0.752592
vt -0.749804 0.937838
vt -0.749804 0.752592
vt 2.243667 0.937838
vt 2.048580 0.937838
vt 2.048580 0.752592
vt 2.243667 0.752592
vt 1.779176 0.937838
vt 1.779176 0.752592
vt 1.139037 0.937838
vt 0.498897 0.937838
vt 0.498897 0.752591
vt 1.139037 0.752592
vt 0.353147 0.937838
vt 0.353147 0.752591
vt 0.251309 0.937838
vt 0.251309 0.752591
vt 0.173850 0.363152
vt 0.799616 0.579130
vt 0.799616 0.490855
vt 0.941012 0.490855
vt 0.941012 0.579130
vt 0.799616 0.579130
vt 0.941012 0.579130
vt 0.941012 0.490855
vt 0.799616 0.490855
vn 0.0000 0.0000 -1.0000
vn 0.0000 0.7095 0.7047
vn 0.0000 -1.0000 0.0000
vn 0.0000 0.0000 1.0000
vn 0.0000 1.0000 0.0000
vn 0.0000 0.8750 -0.4841
vn 0.9011 -0.4336 0.0000
vn 0.8479 -0.5302 0.0000
vn 0.9337 0.3580 0.0000
vn 0.9324 0.3613 0.0000
vn 0.8531 -0.5217 0.0000
vn -0.9011 -0.4336 0.0000
vn -0.8479 -0.5302 0.0000
vn -0.9337 0.3580 0.0000
vn -0.9324 0.3613 0.0000
vn -0.8531 -0.5217 0.0000
vn 1.0000 0.0000 0.0000
vn -1.0000 0.0000 0.0000
usemtl MI_Trim_01
s off
f 4/1/1 1/2/1 7/3/1 8/4/1
f 9/5/2 4/1/2 8/4/2 10/6/2
f 1/2/3 2/7/3 6/8/3 7/3/3
f 2/7/4 3/9/4 5/10/4 6/8/4
f 11/11/5 9/5/5 10/6/5 12/12/5
f 3/9/6 11/11/6 12/12/6 5/10/6
f 16/13/1 8/4/1 7/3/1 13/14/1
f 17/15/2 10/6/2 8/4/2 16/13/2
f 13/14/3 7/3/3 6/8/3 14/16/3
f 14/16/4 6/8/4 5/10/4 15/17/4
f 18/18/5 12/12/5 10/6/5 17/15/5
f 15/17/6 5/10/6 12/12/6 18/18/6
f 115/19/7 116/20/7 39/21/7 37/22/7
f 20/23/8 23/24/8 19/25/8 25/26/8
f 27/27/9 21/28/9 23/24/9 20/23/9
f 42/29/10 43/30/10 35/31/10 33/32/10
f 41/33/4 43/34/4 36/35/4 30/36/4
f 29/37/11 33/32/11 35/31/11 31/38/11
f 40/39/1 42/40/1 33/41/1 29/42/1
f 26/43/3 22/44/3 37/22/3 39/21/3
f 32/45/1 34/46/1 42/40/1 40/39/1
f 31/47/4 35/48/4 43/34/4 41/33/4
f 34/49/10 36/50/10 43/30/10 42/29/10
f 121/51/12 83/52/12 85/53/12 122/54/12
f 68/55/13 72/56/13 67/57/13 70/58/13
f 73/59/14 68/55/14 70/58/14 69/60/14
f 88/61/15 79/62/15 81/63/15 89/64/15
f 87/65/4 76/66/4 82/67/4 89/68/4
f 75/69/16 77/70/16 81/63/16 79/62/16
f 86/71/1 75/72/1 79/73/1 88/74/1
f 26/43/3 85/53/3 83/52/3 22/44/3
f 78/75/1 86/71/1 88/74/1 80/76/1
f 77/77/4 87/65/4 89/68/4 81/78/4
f 80/79/15 88/61/15 89/64/15 82/80/15
f 21/28/7 27/27/7 116/81/7 115/82/7
f 69/60/12 121/83/12 122/84/12 73/59/12
usemtl MI_Trim_02
f 116/85/1 27/86/1 58/87/1 120/88/1
f 115/89/4 119/90/4 47/91/4 21/92/4
f 21/92/4 47/91/4 46/93/4 23/94/4
f 23/94/4 46/93/4 24/95/4 19/96/4
f 27/86/1 20/97/1 57/98/1 58/87/1
f 20/97/1 25/99/1 28/100/1 57/98/1
f 26/101/1 39/102/1 38/103/1 56/104/1
f 22/105/4 45/106/4 44/107/4 37/108/4
f 46/109/4 50/110/4 48/111/4 24/112/4
f 47/113/4 51/114/4 50/110/4 46/109/4
f 49/115/4 55/116/4 53/117/4 52/118/4
f 117/119/4 51/114/4 47/113/4 119/120/4
f 55/116/4 49/115/4 54/121/4 44/122/4
f 55/116/4 44/122/4 45/123/4
f 57/124/1 28/125/1 59/126/1 61/127/1
f 58/128/1 57/124/1 61/127/1 62/129/1
f 60/130/1 63/131/1 64/132/1 66/133/1
f 118/134/1 120/135/1 58/128/1 62/136/1
f 66/133/1 38/137/1 65/138/1 60/130/1
f 66/133/1 56/139/1 38/137/1
f 122/140/1 126/141/1 100/142/1 73/143/1
f 121/144/4 69/145/4 92/146/4 125/147/4
f 69/145/4 70/148/4 91/149/4 92/146/4
f 70/148/4 67/150/4 71/151/4 91/149/4
f 73/143/1 100/142/1 99/152/1 68/153/1
f 68/153/1 99/152/1 74/154/1 72/155/1
f 26/101/1 56/104/1 84/156/1 85/157/1
f 22/105/4 83/158/4 90/159/4 45/106/4
f 91/160/4 71/161/4 93/162/4 95/163/4
f 92/164/4 91/160/4 95/163/4 96/165/4
f 94/166/4 97/167/4 53/117/4 55/116/4
f 123/168/4 125/169/4 92/164/4 96/170/4
f 55/116/4 90/171/4 98/172/4 94/166/4
f 55/116/4 45/123/4 90/171/4
f 99/173/1 103/174/1 101/175/1 74/176/1
f 100/177/1 104/178/1 103/174/1 99/173/1
f 102/179/1 66/133/1 64/132/1 105/180/1
f 124/181/1 104/182/1 100/177/1 126/183/1
f 66/133/1 102/179/1 106/184/1 84/185/1
f 66/133/1 84/185/1 56/139/1
f 101/186/17 103/187/17 95/188/17 93/189/17
f 103/187/17 104/190/17 96/191/17 95/188/17
f 124/192/17 106/193/17 98/194/17 123/195/17
f 106/193/17 102/196/17 94/197/17 98/194/17
f 102/196/17 105/198/17 97/199/17 94/197/17
f 105/200/5 64/201/5 53/202/5 97/203/5
f 64/201/5 63/204/5 52/205/5 53/202/5
f 63/206/18 60/207/18 49/208/18 52/209/18
f 60/207/18 65/210/18 54/211/18 49/208/18
f 118/212/18 62/213/18 51/214/18 117/215/18
f 62/213/18 61/216/18 50/217/18 51/214/18
f 61/216/18 59/218/18 48/219/18 50/217/18
f 65/210/18 118/212/18 117/215/18 54/211/18
f 65/138/1 38/137/1 120/135/1 118/134/1
f 54/220/4 117/119/4 119/120/4 44/122/4
f 37/108/4 44/107/4 119/90/4 115/89/4
f 39/102/1 116/85/1 120/88/1 38/103/1
f 104/190/17 124/192/17 123/195/17 96/191/17
f 106/184/1 124/181/1 126/183/1 84/185/1
f 98/172/4 90/171/4 125/169/4 123/168/4
f 83/158/4 121/144/4 125/147/4 90/159/4
f 85/157/1 84/156/1 126/141/1 122/140/1
usemtl M_Decal_White
f 107/221/4 108/222/4 110/223/4 109/224/4
f 111/225/1 113/226/1 114/227/1 112/228/1
