# Blender v3.6.0 OBJ File: 'AllModules_Unreal.blend'
# www.blender.org
mtllib Platform_Squares_Curve.mtl
o Platform_Squares_Curve_Plane.084
v -2.000000 0.000000 2.000000
v -1.991436 0.000000 1.738387
v -1.965780 0.000000 1.477895
v -1.923141 0.000000 1.219638
v -1.863703 0.000000 0.964723
v -1.787721 0.000000 0.714241
v -1.695519 0.000000 0.469265
v -1.587492 0.000000 0.230844
v -1.464103 0.000000 -0.000002
v -1.325879 0.000000 -0.222283
v 2.000000 0.000000 1.999998
v -1.173414 0.000000 -0.435048
v -1.007360 0.000000 -0.637386
v -0.828428 0.000000 -0.828430
v -0.637384 0.000000 -1.007362
v -0.435046 0.000000 -1.173417
v -0.222281 0.000000 -1.325882
v 0.000000 0.000000 -1.464105
v 0.230846 0.000000 -1.587495
v 0.469267 0.000000 -1.695522
v 0.714243 0.000000 -1.787725
v 0.964725 0.000000 -1.863708
v 1.219640 0.000000 -1.923146
v 1.477897 0.000000 -1.965784
v 1.738390 0.000000 -1.991441
v 2.000002 0.000000 -2.000005
v 0.001012 0.000000 2.000000
v 0.005292 0.000000 1.869260
v 0.018113 0.000000 1.739079
v 0.039422 0.000000 1.610016
v 0.069125 0.000000 1.482623
v 0.107098 0.000000 1.357445
v 0.153175 0.000000 1.235019
v 0.207162 0.000000 1.115869
v 0.268825 0.000000 1.000504
v 0.337902 0.000000 0.889420
v 0.414096 0.000000 0.783091
v 0.497081 0.000000 0.681973
v 0.586502 0.000000 0.586499
v 0.681976 0.000000 0.497078
v 0.783093 0.000000 0.414093
v 0.889422 0.000000 0.337899
v 1.000506 0.000000 0.268822
v 1.115871 0.000000 0.207159
v 1.235021 0.000000 0.153172
v 1.357447 0.000000 0.107094
v 1.482625 0.000000 0.069122
v 1.610018 0.000000 0.039418
v 1.739082 0.000000 0.018110
v 1.869262 0.000000 0.005288
v 2.000002 0.000000 0.001008
vt 0.499820 0.716339
vt 0.499820 0.697491
vt 0.260826 0.697491
vt 0.260826 0.716339
vt 0.499820 0.679581
vt 0.260826 0.679581
vt 0.499820 0.661671
vt 0.260826 0.661671
vt 0.499254 0.701397
vt 0.269274 0.691557
vt 0.499254 0.691557
vt 0.269274 0.681716
vt 0.499254 0.681716
vt 0.499820 0.643760
vt 0.260826 0.643760
vt 0.269274 0.671876
vt 0.499254 0.671876
vt 0.499820 0.625850
vt 0.260826 0.625850
vt 0.269274 0.662035
vt 0.499254 0.662035
vt 0.499820 0.607939
vt 0.260826 0.607939
vt 0.269274 0.652195
vt 0.499254 0.652195
vt 0.499820 0.590029
vt 0.260826 0.590029
vt 0.499254 0.642354
vt 0.269274 0.632514
vt 0.499254 0.632514
vt 0.269274 0.642354
vt 0.269274 0.622673
vt 0.499254 0.622673
vt 0.499820 0.572118
vt 0.260826 0.572118
vt 0.269274 0.612833
vt 0.499254 0.612833
vt 0.499820 0.554208
vt 0.260826 0.554208
vt 0.269274 0.602992
vt 0.499254 0.602992
vt 0.499820 0.536297
vt 0.260826 0.536297
vt 0.269274 0.593152
vt 0.499254 0.593152
vt 0.499820 0.518387
vt 0.260826 0.518387
vt 0.500120 0.704140
vt 0.500120 0.686690
vt 0.261126 0.686690
vt 0.261126 0.704140
vt 0.499820 0.500779
vt 0.260826 0.500779
vt 0.500120 0.668282
vt 0.261126 0.668282
vt 0.269274 0.583311
vt 0.499254 0.583311
vt 0.269274 0.573471
vt 0.499254 0.573471
vt 0.500120 0.649874
vt 0.261126 0.649874
vt 0.269274 0.563630
vt 0.499254 0.563630
vt 0.500120 0.631466
vt 0.261126 0.631466
vt 0.269274 0.553790
vt 0.499254 0.553790
vt 0.500120 0.613058
vt 0.261126 0.613058
vt 0.269274 0.543949
vt 0.499254 0.543949
vt 0.500120 0.594650
vt 0.261126 0.594651
vt 0.269274 0.524268
vt 0.499254 0.524268
vt 0.499254 0.534109
vt 0.269274 0.534109
vt 0.269274 0.514428
vt 0.499254 0.514428
vt 0.500120 0.576243
vt 0.261126 0.576243
vt 0.269274 0.504587
vt 0.499254 0.504587
vt 0.500120 0.557835
vt 0.261126 0.557835
vt 0.269274 0.494747
vt 0.499254 0.494747
vt 0.500120 0.539427
vt 0.261126 0.539427
vt 0.269274 0.484906
vt 0.499254 0.484906
vt 0.500120 0.521019
vt 0.261126 0.521019
vt 0.500120 0.502611
vt 0.261126 0.502611
vt 0.499254 0.721078
vt 0.269274 0.711238
vt 0.499254 0.711238
vt 0.269274 0.701397
vt 0.500120 0.483894
vt 0.261126 0.483894
vn 0.0000 1.0000 0.0000
usemtl MI_Trim_02_Floor
s off
f 27/1/1 28/2/1 2/3/1 1/4/1
f 28/2/1 29/5/1 3/6/1 2/3/1
f 3/6/1 29/5/1 30/7/1 4/8/1
f 29/9/1 11/10/1 30/11/1
f 30/11/1 11/12/1 31/13/1
f 4/8/1 30/7/1 31/14/1 5/15/1
f 31/13/1 11/16/1 32/17/1
f 31/14/1 32/18/1 6/19/1 5/15/1
f 32/17/1 11/20/1 33/21/1
f 32/18/1 33/22/1 7/23/1 6/19/1
f 33/21/1 11/24/1 34/25/1
f 33/22/1 34/26/1 8/27/1 7/23/1
f 35/28/1 11/29/1 36/30/1
f 34/25/1 11/31/1 35/28/1
f 36/30/1 11/32/1 37/33/1
f 35/34/1 9/35/1 8/27/1 34/26/1
f 37/33/1 11/36/1 38/37/1
f 36/38/1 10/39/1 9/35/1 35/34/1
f 38/37/1 11/40/1 39/41/1
f 37/42/1 12/43/1 10/39/1 36/38/1
f 11/44/1 40/45/1 39/41/1
f 38/46/1 13/47/1 12/43/1 37/42/1
f 39/48/1 40/49/1 15/50/1 14/51/1
f 39/52/1 14/53/1 13/47/1 38/46/1
f 15/50/1 40/49/1 41/54/1 16/55/1
f 11/56/1 41/57/1 40/45/1
f 11/58/1 42/59/1 41/57/1
f 16/55/1 41/54/1 42/60/1 17/61/1
f 11/62/1 43/63/1 42/59/1
f 42/60/1 43/64/1 18/65/1 17/61/1
f 11/66/1 44/67/1 43/63/1
f 43/64/1 44/68/1 19/69/1 18/65/1
f 11/70/1 45/71/1 44/67/1
f 44/68/1 45/72/1 20/73/1 19/69/1
f 11/74/1 47/75/1 46/76/1
f 11/77/1 46/76/1 45/71/1
f 11/78/1 48/79/1 47/75/1
f 46/80/1 21/81/1 20/73/1 45/72/1
f 11/82/1 49/83/1 48/79/1
f 47/84/1 22/85/1 21/81/1 46/80/1
f 11/86/1 50/87/1 49/83/1
f 48/88/1 23/89/1 22/85/1 47/84/1
f 11/90/1 51/91/1 50/87/1
f 49/92/1 24/93/1 23/89/1 48/88/1
f 50/94/1 25/95/1 24/93/1 49/92/1
f 27/96/1 11/97/1 28/98/1
f 28/98/1 11/99/1 29/9/1
f 50/94/1 51/100/1 26/101/1 25/95/1
