# Blender v3.6.0 OBJ File: 'AllModules_Unreal.blend'
# www.blender.org
mtllib Platform_3Plates.mtl
o Platform_3Plates_Plane.102
v 0.000000 0.000000 0.000000
v -2.000000 0.000000 0.000001
v -1.999999 0.000000 2.000000
v 0.000000 0.000000 1.999999
v -2.000001 0.000000 -1.999999
v 0.000000 0.000000 -2.000000
v -0.589982 0.000000 2.000000
v -0.589983 0.000000 0.000000
v -0.589984 0.000000 -2.000000
v 2.000000 0.000000 0.000001
v 1.999999 0.000000 2.000000
v 2.000001 0.000000 -1.999999
v 0.589982 0.000000 2.000000
v 0.589983 0.000000 0.000000
v 0.589984 0.000000 -2.000000
vt 0.500516 0.681505
vt 0.500516 0.831468
vt 0.000516 0.831469
vt 0.000516 0.681505
vt -0.499484 0.681504
vt -0.499484 0.831468
vt 1.000000 0.998133
vt 0.500000 0.998133
vt 0.500000 0.663991
vt 1.000000 0.663991
vt 0.000000 0.998133
vt 0.000000 0.663991
vt 0.500516 0.981432
vt 0.000516 0.981433
vt -0.499484 0.981433
vt 1.000000 0.663991
vt 1.000000 0.998133
vt 0.500000 0.998133
vt 0.500000 0.663991
vt 0.000000 0.663991
vt 0.000000 0.998133
vn 0.0000 1.0000 0.0000
usemtl MI_Trim_01
s off
f 7/1/1 4/2/1 1/3/1 8/4/1
f 9/5/1 8/4/1 1/3/1 6/6/1
f 5/7/1 2/8/1 8/9/1 9/10/1
f 3/11/1 7/12/1 8/9/1 2/8/1
f 13/13/1 14/14/1 1/3/1 4/2/1
f 15/15/1 6/6/1 1/3/1 14/14/1
f 12/16/1 15/17/1 14/18/1 10/19/1
f 11/20/1 10/19/1 14/18/1 13/21/1
