# Blender v3.6.0 OBJ File: 'AllModules_Unreal.blend'
# www.blender.org
mtllib Platform_DarkPlates_Curves.mtl
o Platform_DarkPlates_Curves_Plane.194
v -2.000000 0.000000 2.000000
v -1.991436 0.000000 1.738387
v -1.965780 0.000000 1.477895
v -1.923141 0.000000 1.219638
v -1.863703 0.000000 0.964723
v -1.787721 0.000000 0.714241
v -1.695519 0.000000 0.469265
v -1.587492 0.000000 0.230844
v -1.464103 0.000000 -0.000002
v -1.325879 0.000000 -0.222283
v -1.173414 0.000000 -0.435048
v -1.007360 0.000000 -0.637386
v -0.828428 0.000000 -0.828430
v -0.637384 0.000000 -1.007362
v -0.435046 0.000000 -1.173417
v -0.222281 0.000000 -1.325882
v 0.000000 0.000000 -1.464105
v 0.230846 0.000000 -1.587495
v 0.469267 0.000000 -1.695522
v 0.714243 0.000000 -1.787725
v 0.964725 0.000000 -1.863708
v 1.219640 0.000000 -1.923146
v 1.477897 0.000000 -1.965784
v 1.738390 0.000000 -1.991441
v 2.000002 0.000000 -2.000005
v -0.590025 0.000000 2.000000
v -0.584479 0.000000 1.830604
v -0.567867 0.000000 1.661934
v -0.540258 0.000000 1.494711
v -0.501772 0.000000 1.329652
v -0.452573 0.000000 1.167463
v -0.392871 0.000000 1.008839
v -0.322923 0.000000 0.854460
v -0.243028 0.000000 0.704986
v -0.153527 0.000000 0.561058
v -0.054805 0.000000 0.423291
v 0.052716 0.000000 0.292276
v 0.168576 0.000000 0.168574
v 0.292278 0.000000 0.052714
v 0.423293 0.000000 -0.054807
v 0.561060 0.000000 -0.153530
v 0.704988 0.000000 -0.243030
v 0.854462 0.000000 -0.322926
v 1.008841 0.000000 -0.392874
v 1.167465 0.000000 -0.452576
v 1.329654 0.000000 -0.501776
v 1.494713 0.000000 -0.540262
v 1.661936 0.000000 -0.567871
v 1.830606 0.000000 -0.584483
v 2.000002 0.000000 -0.590029
v 0.001012 0.000000 2.000000
v 0.005292 0.000000 1.869260
v 0.018113 0.000000 1.739079
v 0.039422 0.000000 1.610016
v 0.069125 0.000000 1.482623
v 0.107098 0.000000 1.357445
v 0.153175 0.000000 1.235019
v 0.207162 0.000000 1.115869
v 0.268825 0.000000 1.000504
v 0.337902 0.000000 0.889420
v 0.414096 0.000000 0.783091
v 0.497081 0.000000 0.681973
v 0.586502 0.000000 0.586500
v 0.681975 0.000000 0.497078
v 0.783093 0.000000 0.414093
v 0.889422 0.000000 0.337899
v 1.000506 0.000000 0.268822
v 1.115871 0.000000 0.207159
v 1.235021 0.000000 0.153172
v 1.357447 0.000000 0.107094
v 1.482625 0.000000 0.069122
v 1.610018 0.000000 0.039418
v 1.739081 0.000000 0.018110
v 1.869262 0.000000 0.005288
v 2.000002 0.000000 0.001008
v 0.589484 0.000000 2.000000
v 0.592504 0.000000 1.907747
v 0.601551 0.000000 1.815890
v 0.616587 0.000000 1.724821
v 0.637546 0.000000 1.634931
v 0.664340 0.000000 1.546603
v 0.696853 0.000000 1.460218
v 0.734947 0.000000 1.376143
v 0.778457 0.000000 1.294740
v 0.827199 0.000000 1.216358
v 0.880962 0.000000 1.141331
v 0.939518 0.000000 1.069980
v 1.002615 0.000000 1.002612
v 1.069982 0.000000 0.939516
v 1.141333 0.000000 0.880960
v 1.216360 0.000000 0.827196
v 1.294742 0.000000 0.778455
v 1.376145 0.000000 0.734944
v 1.460220 0.000000 0.696850
v 1.546605 0.000000 0.664337
v 2.000001 0.000000 2.000000
v 1.634933 0.000000 0.637543
v 1.724823 0.000000 0.616583
v 1.815892 0.000000 0.601548
v 1.907749 0.000000 0.592501
v 2.000001 0.000000 0.589481
vt 0.038926 0.468075
vt 0.099797 0.468075
vt 0.099797 0.096100
vt 0.038926 0.096100
vt 0.157641 0.468075
vt 0.157641 0.096100
vt 0.273327 0.468075
vt 0.331171 0.468075
vt 0.331171 0.096100
vt 0.273327 0.096100
vt 0.389014 0.468075
vt 0.389014 0.096100
vt 0.446857 0.468075
vt 0.446857 0.096100
vt 0.504701 0.468075
vt 0.504701 0.096100
vt 0.562544 0.468075
vt 0.562544 0.096100
vt 0.620388 0.468075
vt 0.620388 0.096100
vt 0.678231 0.468075
vt 0.678231 0.096100
vt 0.250574 0.468738
vt 0.308448 0.468738
vt 0.308448 0.096762
vt 0.250574 0.096762
vt 0.735096 0.468075
vt 0.735096 0.096100
vt 0.430550 0.468738
vt 0.491600 0.468738
vt 0.491600 0.096762
vt 0.430550 0.096762
vt 0.552651 0.468738
vt 0.552651 0.096762
vt 0.613702 0.468738
vt 0.613702 0.096762
vt 0.674752 0.468738
vt 0.674752 0.096762
vt 0.735803 0.468738
vt 0.735803 0.096762
vt 0.796854 0.468738
vt 0.796854 0.096762
vt 0.792148 0.286572
vt 0.792148 0.158993
vt 0.819252 0.158993
vt 0.819252 0.286572
vt 0.857905 0.468738
vt 0.857905 0.096762
vt 0.918955 0.468738
vt 0.918955 0.096762
vt 0.981032 0.468738
vt 0.981032 0.096762
vt 0.792148 0.413599
vt 0.819252 0.413599
vt 0.369499 0.096762
vt 0.369499 0.468738
vt 0.215484 0.096100
vt 0.215484 0.468075
vt 0.765044 0.286572
vt 0.765044 0.158993
vt 0.683731 0.286572
vt 0.683731 0.158993
vt 0.710835 0.158993
vt 0.710835 0.286572
vt 0.656627 0.286572
vt 0.656627 0.158993
vt 0.629523 0.286572
vt 0.629523 0.158993
vt 0.602419 0.286572
vt 0.602419 0.158993
vt 0.575315 0.286572
vt 0.575315 0.158993
vt 0.548211 0.286572
vt 0.548211 0.158993
vt 0.521106 0.286572
vt 0.521106 0.158993
vt 0.494002 0.286572
vt 0.494002 0.158993
vt 0.466898 0.286572
vt 0.466898 0.158993
vt 0.385585 0.286572
vt 0.385585 0.158993
vt 0.412690 0.158993
vt 0.412690 0.286572
vt 0.358481 0.286572
vt 0.358481 0.158993
vt 0.331377 0.286572
vt 0.331377 0.158993
vt 0.304273 0.286572
vt 0.304273 0.158993
vt 0.277169 0.286572
vt 0.277169 0.158993
vt 0.250065 0.286572
vt 0.250065 0.158993
vt 0.222960 0.286572
vt 0.222960 0.158993
vt 0.195856 0.286572
vt 0.195856 0.158993
vt 0.168752 0.286572
vt 0.168752 0.158993
vt 0.439794 0.158993
vt 0.439794 0.286572
vt 0.737940 0.158993
vt 0.737940 0.286572
vt 0.654614 0.474596
vt 0.654614 0.096285
vt 0.667385 0.096285
vt 0.765044 0.413599
vt 0.641843 0.474596
vt 0.641843 0.096285
vt 0.683731 0.413599
vt 0.710835 0.413599
vt 0.603532 0.474596
vt 0.603532 0.096285
vt 0.616302 0.096285
vt 0.656627 0.413599
vt 0.590761 0.474596
vt 0.590761 0.096285
vt 0.629523 0.413599
vt 0.577990 0.474596
vt 0.577990 0.096285
vt 0.602419 0.413599
vt 0.565220 0.474596
vt 0.565220 0.096285
vt 0.575315 0.413599
vt 0.552449 0.474596
vt 0.552449 0.096285
vt 0.548211 0.413599
vt 0.539679 0.474596
vt 0.539679 0.096285
vt 0.521106 0.413599
vt 0.526908 0.474596
vt 0.526908 0.096285
vt 0.494002 0.413599
vt 0.514138 0.474596
vt 0.514138 0.096285
vt 0.466898 0.413599
vt 0.501367 0.474596
vt 0.501367 0.096285
vt 0.385585 0.413599
vt 0.412690 0.413599
vt 0.463055 0.474596
vt 0.463055 0.096285
vt 0.475826 0.096285
vt 0.358481 0.413599
vt 0.450285 0.474596
vt 0.450285 0.096285
vt 0.331377 0.413599
vt 0.437514 0.474596
vt 0.437514 0.096285
vt 0.304273 0.413599
vt 0.424744 0.474596
vt 0.424744 0.096285
vt 0.277169 0.413599
vt 0.411973 0.474596
vt 0.411973 0.096285
vt 0.250065 0.413599
vt 0.399202 0.474596
vt 0.399202 0.096285
vt 0.222960 0.413599
vt 0.386432 0.474596
vt 0.386432 0.096285
vt 0.195856 0.413599
vt 0.373661 0.474596
vt 0.373661 0.096285
vt 0.168752 0.413599
vt 0.360891 0.474596
vt 0.360891 0.096285
vt 0.439794 0.413599
vt 0.475826 0.474596
vt 0.488596 0.096285
vt 0.488596 0.474596
vt 0.737940 0.413599
vt 0.616302 0.474596
vt 0.629073 0.096285
vt 0.629073 0.474596
vn 0.0000 1.0000 0.0000
usemtl MI_Trim_01
s off
f 26/1/1 27/2/1 2/3/1 1/4/1
f 27/2/1 28/5/1 3/6/1 2/3/1
f 30/7/1 31/8/1 6/9/1 5/10/1
f 31/8/1 32/11/1 7/12/1 6/9/1
f 32/11/1 33/13/1 8/14/1 7/12/1
f 34/15/1 9/16/1 8/14/1 33/13/1
f 35/17/1 10/18/1 9/16/1 34/15/1
f 36/19/1 11/20/1 10/18/1 35/17/1
f 37/21/1 12/22/1 11/20/1 36/19/1
f 38/23/1 39/24/1 14/25/1 13/26/1
f 38/27/1 13/28/1 12/22/1 37/21/1
f 41/29/1 42/30/1 17/31/1 16/32/1
f 42/30/1 43/33/1 18/34/1 17/31/1
f 43/33/1 44/35/1 19/36/1 18/34/1
f 45/37/1 20/38/1 19/36/1 44/35/1
f 46/39/1 21/40/1 20/38/1 45/37/1
f 47/41/1 22/42/1 21/40/1 46/39/1
f 52/43/1 27/44/1 26/45/1 51/46/1
f 48/47/1 23/48/1 22/42/1 47/41/1
f 49/49/1 24/50/1 23/48/1 48/47/1
f 49/49/1 50/51/1 25/52/1 24/50/1
f 77/53/1 52/43/1 51/46/1 76/54/1
f 15/55/1 40/56/1 41/29/1 16/32/1
f 14/25/1 39/24/1 40/56/1 15/55/1
f 4/57/1 29/58/1 30/7/1 5/10/1
f 3/6/1 28/5/1 29/58/1 4/57/1
f 53/59/1 28/60/1 27/44/1 52/43/1
f 56/61/1 31/62/1 30/63/1 55/64/1
f 57/65/1 32/66/1 31/62/1 56/61/1
f 58/67/1 33/68/1 32/66/1 57/65/1
f 59/69/1 34/70/1 33/68/1 58/67/1
f 60/71/1 35/72/1 34/70/1 59/69/1
f 61/73/1 36/74/1 35/72/1 60/71/1
f 62/75/1 37/76/1 36/74/1 61/73/1
f 63/77/1 38/78/1 37/76/1 62/75/1
f 64/79/1 39/80/1 38/78/1 63/77/1
f 67/81/1 42/82/1 41/83/1 66/84/1
f 68/85/1 43/86/1 42/82/1 67/81/1
f 69/87/1 44/88/1 43/86/1 68/85/1
f 70/89/1 45/90/1 44/88/1 69/87/1
f 71/91/1 46/92/1 45/90/1 70/89/1
f 72/93/1 47/94/1 46/92/1 71/91/1
f 73/95/1 48/96/1 47/94/1 72/93/1
f 74/97/1 49/98/1 48/96/1 73/95/1
f 75/99/1 50/100/1 49/98/1 74/97/1
f 40/101/1 65/102/1 66/84/1 41/83/1
f 39/80/1 64/79/1 65/102/1 40/101/1
f 29/103/1 54/104/1 55/64/1 30/63/1
f 28/60/1 53/59/1 54/104/1 29/103/1
f 96/105/1 77/106/1 76/107/1
f 78/108/1 53/59/1 52/43/1 77/53/1
f 96/109/1 78/110/1 77/106/1
f 81/111/1 56/61/1 55/64/1 80/112/1
f 96/113/1 81/114/1 80/115/1
f 82/116/1 57/65/1 56/61/1 81/111/1
f 96/117/1 82/118/1 81/114/1
f 83/119/1 58/67/1 57/65/1 82/116/1
f 96/120/1 83/121/1 82/118/1
f 84/122/1 59/69/1 58/67/1 83/119/1
f 96/123/1 84/124/1 83/121/1
f 85/125/1 60/71/1 59/69/1 84/122/1
f 96/126/1 85/127/1 84/124/1
f 86/128/1 61/73/1 60/71/1 85/125/1
f 96/129/1 86/130/1 85/127/1
f 87/131/1 62/75/1 61/73/1 86/128/1
f 96/132/1 87/133/1 86/130/1
f 88/134/1 63/77/1 62/75/1 87/131/1
f 96/135/1 88/136/1 87/133/1
f 89/137/1 64/79/1 63/77/1 88/134/1
f 96/138/1 89/139/1 88/136/1
f 92/140/1 67/81/1 66/84/1 91/141/1
f 96/142/1 92/143/1 91/144/1
f 93/145/1 68/85/1 67/81/1 92/140/1
f 96/146/1 93/147/1 92/143/1
f 94/148/1 69/87/1 68/85/1 93/145/1
f 96/149/1 94/150/1 93/147/1
f 95/151/1 70/89/1 69/87/1 94/148/1
f 96/152/1 95/153/1 94/150/1
f 97/154/1 71/91/1 70/89/1 95/151/1
f 96/155/1 97/156/1 95/153/1
f 98/157/1 72/93/1 71/91/1 97/154/1
f 96/158/1 98/159/1 97/156/1
f 99/160/1 73/95/1 72/93/1 98/157/1
f 96/161/1 99/162/1 98/159/1
f 100/163/1 74/97/1 73/95/1 99/160/1
f 96/164/1 100/165/1 99/162/1
f 101/166/1 75/99/1 74/97/1 100/163/1
f 96/167/1 101/168/1 100/165/1
f 91/141/1 66/84/1 65/102/1 90/169/1
f 96/170/1 91/144/1 90/171/1
f 90/169/1 65/102/1 64/79/1 89/137/1
f 96/172/1 90/171/1 89/139/1
f 80/112/1 55/64/1 54/104/1 79/173/1
f 96/174/1 80/115/1 79/175/1
f 79/173/1 54/104/1 53/59/1 78/108/1
f 96/176/1 79/175/1 78/110/1
