# Blender v3.6.0 OBJ File: 'AllModules_Unreal.blend'
# www.blender.org
mtllib Platform_Ramp_2Short.mtl
o Platform_Ramp_2Short_Cube.010
v 1.000000 0.000000 1.500000
v 0.999852 1.000000 0.000000
v 1.000000 0.841451 0.000000
v 1.000000 0.000000 0.000000
v 1.000000 0.000000 1.262177
v -1.000000 0.000000 1.500000
v -1.000148 1.000000 0.000000
v -1.000000 0.841451 0.000000
v -1.000000 0.000000 0.000000
v -1.000000 0.000000 1.262177
v 1.000000 0.000000 1.401389
v 0.999990 0.065740 1.401389
v -1.000010 0.065740 1.401389
v -0.878032 0.520402 0.722038
v -0.878033 0.464384 0.805658
v -0.552193 0.520402 0.722037
v -0.552191 0.464384 0.805658
v 0.878031 0.520402 0.722038
v 0.878033 0.464384 0.805658
v 0.552192 0.520402 0.722037
v 0.552191 0.464384 0.805658
v 0.069517 0.084151 1.378197
v -0.069517 0.084151 1.378197
v 0.069517 0.202701 1.200481
v -0.069517 0.202702 1.200479
v -1.000000 0.000000 1.401389
vt 0.665543 0.528103
vt 0.316742 0.528103
vt 0.309190 0.516775
vt 0.333178 0.500783
vt 0.647330 0.500783
vt 0.322684 0.861836
vt 0.254884 0.907239
vt 0.254580 0.760136
vt 0.665543 0.528103
vt 0.647330 0.500783
vt 0.333178 0.500783
vt 0.309190 0.516775
vt 0.316742 0.528103
vt 0.322684 0.861836
vt 0.254580 0.760136
vt 0.254884 0.907239
vt 0.256553 0.482027
vt 0.256553 0.082594
vt 0.702852 0.082594
vt 0.702852 0.482027
vt 0.288347 0.172486
vt 0.735494 0.172485
vt 0.735494 0.360612
vt 0.288347 0.360612
vt 0.288380 0.396059
vt 0.735527 0.396059
vt 0.984360 0.999850
vt 0.015640 0.999850
vt 0.015640 0.938138
vt 0.984360 0.938139
vt 0.516806 1.000027
vt 0.475073 1.000027
vt 0.516806 0.937427
vt 0.475073 1.000027
vt 0.516806 1.000027
vt 0.516806 0.937427
vt 0.975160 0.636939
vt 0.975159 0.698312
vt 0.776470 0.698312
vt 0.776469 0.636939
vt 0.975160 0.636939
vt 0.776469 0.636939
vt 0.776470 0.698312
vt 0.975159 0.698312
vt 0.606259 0.135532
vt 0.606259 0.057430
vt 0.726264 0.057430
vt 0.726265 0.135532
vn 1.0000 0.0005 0.0003
vn 1.0000 0.0000 0.0000
vn -1.0000 -0.0005 -0.0003
vn -1.0000 0.0000 0.0000
vn 0.0000 0.8321 0.5547
vn 0.0000 0.0000 -1.0000
vn 1.0000 0.0001 0.0000
vn -1.0000 -0.0001 0.0000
vn 0.0000 0.8308 0.5566
vn -0.0000 0.8319 0.5549
usemtl MI_Trim_01_Floor
s off
f 2/1/1 12/2/1 11/3/1 5/4/1 3/5/1
f 4/6/2 3/7/2 5/8/2
f 7/9/3 8/10/3 10/11/3 26/12/3 13/13/3
f 9/14/4 10/15/4 8/16/4
f 2/17/5 7/18/5 13/19/5 12/20/5
f 4/21/6 9/22/6 8/23/6 3/24/6
f 2/25/6 3/24/6 8/23/6 7/26/6
usemtl MI_Trim_02
f 12/27/5 13/28/5 6/29/5 1/30/5
f 11/31/7 12/32/7 1/33/7
f 13/34/8 26/35/8 6/36/8
usemtl MI_Decal_Grey
f 17/37/9 16/38/9 14/39/9 15/40/9
f 21/41/9 19/42/9 18/43/9 20/44/9
f 23/45/10 22/46/10 24/47/10 25/48/10
