# Blender v3.6.0 OBJ File: 'AllModules_Unreal.blend'
# www.blender.org
mtllib Platform_Ramp_4.mtl
o Platform_Ramp_4_Cube.057
v -1.000074 0.000000 3.684859
v -1.000074 0.000000 2.000000
v -1.000074 1.000000 1.684859
v -1.000074 0.000000 4.000000
v -1.000074 0.000000 3.900552
v -1.000074 1.000000 2.000000
v -1.000074 1.841451 0.000000
v -1.000074 1.000000 0.000000
v -1.000074 0.000000 0.000000
v -0.999936 0.048772 3.900553
v -1.000074 2.000000 0.000000
v 0.000000 0.000000 0.000000
v 0.000000 2.000000 0.000000
v 0.000000 1.841451 0.000000
v 0.000000 1.000000 0.000000
v 0.000000 1.000000 2.000000
v 0.000000 0.000000 4.000000
v 0.000000 0.048772 3.900553
v 1.000074 0.000000 3.684859
v 1.000074 0.000000 2.000000
v 1.000074 1.000000 1.684859
v 1.000074 0.000000 4.000000
v 1.000074 0.000000 3.900552
v 1.000074 1.000000 2.000000
v 1.000074 1.841451 0.000000
v 1.000074 1.000000 0.000000
v 1.000074 0.000000 0.000000
v 0.999936 0.048772 3.900553
v 1.000074 2.000000 0.000000
v -0.877958 0.614181 2.775893
v -0.877959 0.568545 2.865601
v -0.552119 0.614181 2.775892
v -0.552117 0.568545 2.865601
v -0.877958 1.614181 0.775893
v -0.877959 1.568545 0.865601
v -0.552119 1.614181 0.775892
v -0.552117 1.568545 0.865601
v 0.877958 0.614181 2.775893
v 0.877959 0.568545 2.865601
v 0.552119 0.614181 2.775892
v 0.552117 0.568545 2.865601
v 0.877958 1.614181 0.775893
v 0.877959 1.568545 0.865601
v 0.552119 1.614181 0.775892
v 0.552117 1.568545 0.865601
v 0.069591 0.071517 3.858323
v -0.069444 0.071517 3.858323
v 0.069591 0.166401 3.666923
v -0.069444 0.166402 3.666921
v 0.069591 1.072526 1.857822
v -0.069444 1.072526 1.857822
v 0.069591 1.169407 1.667424
v -0.069444 1.169408 1.667422
vt 0.290906 0.901433
vt 0.258921 0.837390
vt 0.258921 0.917406
vt 0.314592 0.500270
vt 0.328200 0.527485
vt 0.689622 0.527317
vt 0.743716 0.500270
vt 0.290950 0.806428
vt 0.258965 0.742385
vt 0.349063 0.500270
vt 0.294633 0.527485
vt 0.726421 0.527485
vt 0.763675 0.508858
vt 0.759463 0.500434
vt 0.282328 0.879045
vt 0.323167 0.858112
vt 0.282328 0.776433
vt 0.292838 0.282310
vt 0.292838 0.082594
vt 0.702852 0.082594
vt 0.702852 0.282311
vt 0.256553 0.282310
vt 0.256553 0.082594
vt 0.702852 0.082594
vt 0.702852 0.282311
vt 0.511920 0.172485
vt 0.735494 0.172485
vt 0.735494 0.360612
vt 0.511920 0.360612
vt 0.511953 0.396059
vt 0.735527 0.396059
vt 0.733014 0.360132
vt 0.512441 0.360132
vt 0.512441 0.175432
vt 0.733014 0.175432
vt 0.290906 0.901433
vt 0.258921 0.917406
vt 0.258921 0.837390
vt 0.314592 0.500270
vt 0.743716 0.500270
vt 0.689622 0.527317
vt 0.328200 0.527485
vt 0.290950 0.806428
vt 0.258965 0.742385
vt 0.349063 0.500270
vt 0.759463 0.500434
vt 0.763675 0.508858
vt 0.726421 0.527485
vt 0.294633 0.527485
vt 0.282328 0.879045
vt 0.282328 0.776433
vt 0.323167 0.858112
vt 0.702852 0.082594
vt 0.292838 0.082594
vt 0.702852 0.082594
vt 0.256553 0.082594
vt 0.735494 0.360612
vt 0.735494 0.172485
vt 0.735527 0.396059
vt 0.733014 0.360132
vt 0.733014 0.175432
vt 0.516806 1.000027
vt 0.516806 0.937427
vt 0.475073 1.000027
vt 0.500000 0.999850
vt 0.015640 0.999850
vt 0.015640 0.938138
vt 0.500000 0.938138
vt 0.516806 1.000027
vt 0.475073 1.000027
vt 0.516806 0.937427
vt 0.015640 0.938138
vt 0.015640 0.999850
vt 0.975160 0.636939
vt 0.975159 0.698312
vt 0.776470 0.698312
vt 0.776469 0.636939
vt 0.975160 0.636939
vt 0.975159 0.698312
vt 0.776470 0.698312
vt 0.776469 0.636939
vt 0.975160 0.636939
vt 0.776469 0.636939
vt 0.776470 0.698312
vt 0.975159 0.698312
vt 0.975160 0.636939
vt 0.776469 0.636939
vt 0.776470 0.698312
vt 0.975159 0.698312
vt 0.606259 0.135532
vt 0.606259 0.057430
vt 0.726264 0.057430
vt 0.726265 0.135532
vt 0.606259 0.135532
vt 0.606259 0.057430
vt 0.726264 0.057430
vt 0.726265 0.135532
vn -1.0000 -0.0000 0.0000
vn -1.0000 0.0004 0.0002
vn -1.0000 0.0016 0.0001
vn -1.0000 0.0013 0.0001
vn 0.0000 0.8943 0.4474
vn 0.0000 0.8961 0.4440
vn 0.0000 0.8960 0.4440
vn 0.0000 0.8944 0.4472
vn 0.0000 0.0000 -1.0000
vn 1.0000 -0.0000 0.0000
vn 1.0000 0.0004 0.0002
vn 1.0000 0.0013 0.0001
vn 1.0000 0.0016 0.0001
vn -1.0000 0.0028 0.0000
vn 0.0000 0.8978 0.4403
vn 1.0000 0.0028 0.0000
vn 0.0000 0.8913 0.4534
vn 0.0000 0.8960 0.4442
vn -0.0000 0.8913 0.4535
usemtl MI_Trim_01_Floor
s 1
f 8/1/1 3/2/1 7/3/1
f 11/4/1 7/5/1 3/6/1 6/7/2
f 2/8/1 1/9/2 3/2/1
f 6/10/2 3/11/1 1/12/2 5/13/3 10/14/4
f 2/8/1 3/2/1 8/1/1
f 8/15/1 9/16/1 2/17/1
f 16/18/5 6/19/5 10/20/6 18/21/7
f 13/22/8 11/23/8 6/24/5 16/25/5
f 15/26/9 8/27/9 7/28/9 14/29/9
f 13/30/9 14/29/9 7/28/9 11/31/9
f 8/32/9 15/33/9 12/34/9 9/35/9
f 26/36/10 25/37/10 21/38/10
f 29/39/10 24/40/11 21/41/10 25/42/10
f 20/43/10 21/38/10 19/44/11
f 24/45/11 28/46/12 23/47/13 19/48/11 21/49/10
f 20/43/10 26/36/10 21/38/10
f 26/50/10 20/51/10 27/52/10
f 16/18/5 18/21/7 28/53/6 24/54/5
f 13/22/8 16/25/5 24/55/5 29/56/8
f 15/26/9 14/29/9 25/57/9 26/58/9
f 13/30/9 29/59/9 25/57/9 14/29/9
f 26/60/9 27/61/9 12/34/9 15/33/9
usemtl MI_Trim_02
f 5/62/3 4/63/14 10/64/4
f 18/65/7 10/66/6 4/67/15 17/68/15
f 23/69/13 28/70/12 22/71/16
f 18/65/7 17/68/15 22/72/15 28/73/6
usemtl MI_Decal_Grey
f 33/74/17 32/75/17 30/76/17 31/77/17
f 37/78/17 36/79/17 34/80/17 35/81/17
f 41/82/17 39/83/17 38/84/17 40/85/17
f 45/86/17 43/87/17 42/88/17 44/89/17
f 47/90/18 46/91/18 48/92/18 49/93/18
f 51/94/19 50/95/19 52/96/19 53/97/19
