# Blender v3.6.0 OBJ File: 'AllModules_Unreal.blend'
# www.blender.org
mtllib Platform_Metal.mtl
o Platform_Metal_Plane.129
v 0.000000 0.000000 0.000000
v -2.000000 0.000000 0.000000
v -2.000000 0.000000 2.000000
v 0.000000 0.000000 2.000000
v 2.000000 0.000000 0.000000
v 2.000000 0.000000 2.000000
v -2.000000 0.000000 -2.000000
v 0.000000 0.000000 -2.000000
v 2.000000 0.000000 -2.000000
vt 0.355118 0.488586
vt 0.661058 0.488586
vt 0.661058 0.788649
vt 0.355118 0.788649
vt 0.355118 0.488586
vt 0.355118 0.788649
vt 0.355118 0.488586
vt 0.661058 0.488586
vt 0.355118 0.488586
vn 0.0000 1.0000 0.0000
usemtl MI_Trim_02
s off
f 3/1/1 4/2/1 1/3/1 2/4/1
f 6/5/1 5/6/1 1/3/1 4/2/1
f 7/7/1 2/4/1 1/3/1 8/8/1
f 9/9/1 8/8/1 1/3/1 5/6/1
