# Blender v3.6.0 OBJ File: 'AllModules_Unreal.blend'
# www.blender.org
mtllib Platform_Simple.mtl
o Platform_Simple_Plane.077
v 0.000000 0.000000 0.000000
v -2.000000 0.000000 0.000000
v -2.000000 0.000000 2.000000
v 0.000000 0.000000 2.000000
v -2.000000 0.000000 -2.000000
v 0.000000 0.000000 -2.000000
v 2.000000 0.000000 0.000000
v 2.000000 0.000000 2.000000
v 2.000000 0.000000 -2.000000
vt 0.223982 0.334621
vt 0.223982 0.036456
vt 0.522147 0.036456
vt 0.522147 0.334621
vt 0.820312 0.334621
vt 0.820312 0.036456
vt 0.223982 0.334621
vt 0.522147 0.334621
vt 0.820312 0.334621
vn 0.0000 1.0000 0.0000
usemtl MI_Trim_03
s off
f 3/1/1 4/2/1 1/3/1 2/4/1
f 5/5/1 2/4/1 1/3/1 6/6/1
f 8/7/1 7/8/1 1/3/1 4/2/1
f 9/9/1 6/6/1 1/3/1 7/8/1
