# Blender v3.6.0 OBJ File: 'AllModules_Unreal.blend'
# www.blender.org
mtllib Platform_Metal_Curve.mtl
o Platform_Metal_Curve_Plane.130
v -2.000000 0.000000 2.000000
v -1.991436 0.000000 1.738387
v -1.965780 0.000000 1.477895
v -1.923141 0.000000 1.219638
v -1.863703 0.000000 0.964723
v -1.787721 0.000000 0.714241
v -1.695519 0.000000 0.469265
v -1.587492 0.000000 0.230844
v -1.464103 0.000000 -0.000002
v -1.325879 0.000000 -0.222283
v 2.000000 0.000000 1.999998
v -1.173414 0.000000 -0.435048
v -1.007360 0.000000 -0.637386
v -0.828428 0.000000 -0.828430
v -0.637384 0.000000 -1.007362
v -0.435046 0.000000 -1.173417
v -0.222281 0.000000 -1.325882
v 0.000000 0.000000 -1.464105
v 0.230846 0.000000 -1.587495
v 0.469267 0.000000 -1.695522
v 0.714243 0.000000 -1.787725
v 0.964725 0.000000 -1.863708
v 1.219640 0.000000 -1.923146
v 1.477897 0.000000 -1.965784
v 1.738390 0.000000 -1.991441
v 2.000002 0.000000 -2.000005
v 0.001012 0.000000 2.000000
v 0.005292 0.000000 1.869260
v 0.018113 0.000000 1.739079
v 0.039422 0.000000 1.610016
v 0.069125 0.000000 1.482623
v 0.107098 0.000000 1.357445
v 0.153175 0.000000 1.235019
v 0.207162 0.000000 1.115869
v 0.268825 0.000000 1.000504
v 0.337902 0.000000 0.889420
v 0.414096 0.000000 0.783091
v 0.497081 0.000000 0.681973
v 0.586502 0.000000 0.586499
v 0.681976 0.000000 0.497078
v 0.783093 0.000000 0.414093
v 0.889422 0.000000 0.337899
v 1.000506 0.000000 0.268822
v 1.115871 0.000000 0.207159
v 1.235021 0.000000 0.153172
v 1.357447 0.000000 0.107094
v 1.482625 0.000000 0.069122
v 1.610018 0.000000 0.039418
v 1.739082 0.000000 0.018110
v 1.869262 0.000000 0.005288
v 2.000002 0.000000 0.001008
vt 0.664861 0.736557
vt 0.664861 0.695860
vt 0.351910 0.695860
vt 0.351910 0.736557
vt 0.664861 0.655192
vt 0.351910 0.655192
vt 0.664861 0.614525
vt 0.351910 0.614525
vt 0.647276 0.512016
vt 0.367819 0.520284
vt 0.647276 0.520284
vt 0.367819 0.528551
vt 0.647276 0.528551
vt 0.664861 0.573858
vt 0.351910 0.573858
vt 0.367819 0.536819
vt 0.647276 0.536819
vt 0.664861 0.533190
vt 0.351910 0.533190
vt 0.367819 0.545086
vt 0.647276 0.545086
vt 0.664861 0.492462
vt 0.351910 0.492462
vt 0.367819 0.553354
vt 0.647276 0.553354
vt 0.664861 0.736557
vt 0.664861 0.695816
vt 0.351910 0.695816
vt 0.351910 0.736557
vt 0.647276 0.561621
vt 0.367819 0.569889
vt 0.647276 0.569889
vt 0.367819 0.561621
vt 0.367819 0.578157
vt 0.647276 0.578157
vt 0.664861 0.655148
vt 0.351910 0.655148
vt 0.367819 0.586424
vt 0.647276 0.586424
vt 0.664861 0.614481
vt 0.351910 0.614481
vt 0.367819 0.594692
vt 0.647276 0.594692
vt 0.664861 0.573814
vt 0.351910 0.573814
vt 0.367819 0.602959
vt 0.647276 0.602959
vt 0.664861 0.533147
vt 0.351910 0.533147
vt 0.664861 0.736553
vt 0.664861 0.695965
vt 0.351910 0.695965
vt 0.351910 0.736553
vt 0.664861 0.492462
vt 0.351910 0.492462
vt 0.664861 0.655236
vt 0.351910 0.655236
vt 0.367819 0.611227
vt 0.647276 0.611227
vt 0.367819 0.619494
vt 0.647276 0.619494
vt 0.664861 0.614508
vt 0.351910 0.614508
vt 0.367819 0.627762
vt 0.647276 0.627762
vt 0.664861 0.573779
vt 0.351910 0.573779
vt 0.367819 0.636030
vt 0.647276 0.636030
vt 0.664861 0.533050
vt 0.351910 0.533050
vt 0.367819 0.644297
vt 0.647276 0.644297
vt 0.664861 0.492457
vt 0.351910 0.492457
vt 0.367819 0.660832
vt 0.647276 0.660832
vt 0.647276 0.652565
vt 0.367819 0.652565
vt 0.367819 0.669100
vt 0.647276 0.669100
vt 0.664861 0.695860
vt 0.351910 0.695860
vt 0.351910 0.736557
vt 0.664861 0.736557
vt 0.367819 0.677368
vt 0.647276 0.677368
vt 0.664861 0.655192
vt 0.351910 0.655192
vt 0.367819 0.685635
vt 0.647276 0.685635
vt 0.664861 0.614525
vt 0.351910 0.614525
vt 0.367819 0.693903
vt 0.647276 0.693903
vt 0.664861 0.573858
vt 0.351910 0.573858
vt 0.664861 0.533190
vt 0.351910 0.533190
vt 0.647276 0.495481
vt 0.367819 0.503748
vt 0.647276 0.503748
vt 0.367819 0.512016
vt 0.664861 0.492462
vt 0.351910 0.492462
vn 0.0000 1.0000 0.0000
usemtl MI_Trim_02
s off
f 27/1/1 28/2/1 2/3/1 1/4/1
f 28/2/1 29/5/1 3/6/1 2/3/1
f 3/6/1 29/5/1 30/7/1 4/8/1
f 29/9/1 11/10/1 30/11/1
f 30/11/1 11/12/1 31/13/1
f 4/8/1 30/7/1 31/14/1 5/15/1
f 31/13/1 11/16/1 32/17/1
f 31/14/1 32/18/1 6/19/1 5/15/1
f 32/17/1 11/20/1 33/21/1
f 32/18/1 33/22/1 7/23/1 6/19/1
f 33/21/1 11/24/1 34/25/1
f 33/26/1 34/27/1 8/28/1 7/29/1
f 35/30/1 11/31/1 36/32/1
f 34/25/1 11/33/1 35/30/1
f 36/32/1 11/34/1 37/35/1
f 35/36/1 9/37/1 8/28/1 34/27/1
f 37/35/1 11/38/1 38/39/1
f 36/40/1 10/41/1 9/37/1 35/36/1
f 38/39/1 11/42/1 39/43/1
f 37/44/1 12/45/1 10/41/1 36/40/1
f 11/46/1 40/47/1 39/43/1
f 38/48/1 13/49/1 12/45/1 37/44/1
f 39/50/1 40/51/1 15/52/1 14/53/1
f 39/54/1 14/55/1 13/49/1 38/48/1
f 15/52/1 40/51/1 41/56/1 16/57/1
f 11/58/1 41/59/1 40/47/1
f 11/60/1 42/61/1 41/59/1
f 16/57/1 41/56/1 42/62/1 17/63/1
f 11/64/1 43/65/1 42/61/1
f 42/62/1 43/66/1 18/67/1 17/63/1
f 11/68/1 44/69/1 43/65/1
f 43/66/1 44/70/1 19/71/1 18/67/1
f 11/72/1 45/73/1 44/69/1
f 44/70/1 45/74/1 20/75/1 19/71/1
f 11/76/1 47/77/1 46/78/1
f 11/79/1 46/78/1 45/73/1
f 11/80/1 48/81/1 47/77/1
f 46/82/1 21/83/1 20/84/1 45/85/1
f 11/86/1 49/87/1 48/81/1
f 47/88/1 22/89/1 21/83/1 46/82/1
f 11/90/1 50/91/1 49/87/1
f 48/92/1 23/93/1 22/89/1 47/88/1
f 11/94/1 51/95/1 50/91/1
f 49/96/1 24/97/1 23/93/1 48/92/1
f 50/98/1 25/99/1 24/97/1 49/96/1
f 27/100/1 11/101/1 28/102/1
f 28/102/1 11/103/1 29/9/1
f 50/98/1 51/104/1 26/105/1 25/99/1
