# Blender v3.6.0 OBJ File: 'AllModules_Unreal.blend'
# www.blender.org
mtllib Platform_CenterPlate.mtl
o Platform_CenterPlate_Plane.184
v -1.400000 -0.000000 2.000000
v -1.400000 -0.000000 -2.000000
v -1.081095 -0.000000 2.000000
v 1.400000 -0.000000 2.000000
v 1.400000 -0.000000 -2.000000
v 1.081095 -0.000000 2.000000
v -1.081095 -0.000000 -1.999999
v 1.081095 -0.000000 -1.999999
v -2.000000 -0.000000 2.000000
v -2.000000 -0.000000 -2.000000
v 2.000000 -0.000000 2.000000
v 2.000000 -0.000000 -2.000000
vt 0.996492 0.659156
vt 0.003508 0.659156
vt 0.003508 0.590518
vt 0.996492 0.590518
vt 0.996492 0.659156
vt 0.996492 0.590518
vt 0.003508 0.590518
vt 0.003508 0.659156
vt 1.000000 0.067410
vt 1.000000 0.498808
vt 0.000000 0.498808
vt -0.000000 0.067411
vt 1.000000 0.753848
vt 0.000000 0.753848
vt 0.000000 0.491727
vt 1.000000 0.491727
vt -0.000000 0.491727
vt 1.000000 0.491727
vt 1.000000 0.753848
vt 0.000000 0.753848
vn 0.0000 1.0000 -0.0000
usemtl MI_Trim_01
s 1
f 3/1/1 7/2/1 2/3/1 1/4/1
f 6/5/1 4/6/1 5/7/1 8/8/1
f 3/9/1 6/10/1 8/11/1 7/12/1
usemtl MI_Trim_02
f 1/13/1 2/14/1 10/15/1 9/16/1
f 5/17/1 4/18/1 11/19/1 12/20/1
