# Blender v3.6.0 OBJ File: 'AllModules_Unreal.blend'
# www.blender.org
mtllib Platform_Simple2_Curve.mtl
o Platform_Simple2_Curve_Plane.140
v -2.000000 0.000000 2.000000
v -1.991436 0.000000 1.738387
v -1.965780 0.000000 1.477895
v -1.923141 0.000000 1.219638
v -1.863703 0.000000 0.964723
v -1.787721 0.000000 0.714241
v -1.695519 0.000000 0.469265
v -1.587492 0.000000 0.230844
v -1.464103 0.000000 -0.000002
v -1.325879 0.000000 -0.222283
v 2.000000 0.000000 1.999998
v -1.173414 0.000000 -0.435048
v -1.007360 0.000000 -0.637386
v -0.828428 0.000000 -0.828430
v -0.637384 0.000000 -1.007362
v -0.435046 0.000000 -1.173417
v -0.222281 0.000000 -1.325882
v 0.000000 0.000000 -1.464105
v 0.230846 0.000000 -1.587495
v 0.469267 0.000000 -1.695522
v 0.714243 0.000000 -1.787725
v 0.964725 0.000000 -1.863708
v 1.219640 0.000000 -1.923146
v 1.477897 0.000000 -1.965784
v 1.738390 0.000000 -1.991441
v 2.000002 0.000000 -2.000005
v 0.001012 0.000000 2.000000
v 0.005292 0.000000 1.869260
v 0.018113 0.000000 1.739079
v 0.039422 0.000000 1.610016
v 0.069125 0.000000 1.482623
v 0.107098 0.000000 1.357445
v 0.153175 0.000000 1.235019
v 0.207162 0.000000 1.115869
v 0.268825 0.000000 1.000504
v 0.337902 0.000000 0.889420
v 0.414096 0.000000 0.783091
v 0.497081 0.000000 0.681973
v 0.586502 0.000000 0.586499
v 0.681976 0.000000 0.497078
v 0.783093 0.000000 0.414093
v 0.889422 0.000000 0.337899
v 1.000506 0.000000 0.268822
v 1.115871 0.000000 0.207159
v 1.235021 0.000000 0.153172
v 1.357447 0.000000 0.107094
v 1.482625 0.000000 0.069122
v 1.610018 0.000000 0.039418
v 1.739082 0.000000 0.018110
v 1.869262 0.000000 0.005288
v 2.000002 0.000000 0.001008
vt 0.249943 0.307632
vt 0.282316 0.307632
vt 0.282316 0.012290
vt 0.249943 0.012290
vt 0.313079 0.307632
vt 0.313079 0.012290
vt 0.343841 0.307632
vt 0.343841 0.012290
vt 0.302710 0.306933
vt 0.322158 0.022730
vt 0.322158 0.306933
vt 0.341605 0.022730
vt 0.341605 0.306933
vt 0.374604 0.307632
vt 0.374604 0.012290
vt 0.361052 0.022730
vt 0.361052 0.306933
vt 0.405367 0.307632
vt 0.405367 0.012290
vt 0.380500 0.022730
vt 0.380500 0.306933
vt 0.436130 0.307632
vt 0.436130 0.012290
vt 0.399948 0.022730
vt 0.399948 0.306933
vt 0.466892 0.307632
vt 0.466892 0.012290
vt 0.419395 0.306933
vt 0.438843 0.022730
vt 0.438843 0.306933
vt 0.419395 0.022730
vt 0.458290 0.022730
vt 0.458290 0.306933
vt 0.497655 0.307632
vt 0.497655 0.012290
vt 0.477738 0.022730
vt 0.477738 0.306933
vt 0.528418 0.307632
vt 0.528418 0.012290
vt 0.497185 0.022730
vt 0.497185 0.306933
vt 0.559181 0.307632
vt 0.559181 0.012290
vt 0.516633 0.022730
vt 0.516633 0.306933
vt 0.589944 0.307632
vt 0.589944 0.012290
vt 0.316621 0.308003
vt 0.351294 0.308003
vt 0.351294 0.012661
vt 0.316621 0.012661
vt 0.620186 0.307632
vt 0.620186 0.012290
vt 0.387871 0.308003
vt 0.387871 0.012661
vt 0.536080 0.022730
vt 0.536080 0.306933
vt 0.555528 0.022730
vt 0.555528 0.306933
vt 0.424447 0.308003
vt 0.424447 0.012661
vt 0.574975 0.022730
vt 0.574975 0.306933
vt 0.461024 0.308003
vt 0.461024 0.012661
vt 0.594423 0.022730
vt 0.594423 0.306933
vt 0.497600 0.308003
vt 0.497600 0.012661
vt 0.613870 0.022730
vt 0.613870 0.306933
vt 0.534177 0.308003
vt 0.534177 0.012661
vt 0.652765 0.022730
vt 0.652765 0.306933
vt 0.633318 0.306933
vt 0.633318 0.022730
vt 0.672213 0.022730
vt 0.672213 0.306933
vt 0.570753 0.308003
vt 0.570753 0.012661
vt 0.691660 0.022730
vt 0.691660 0.306933
vt 0.607330 0.308003
vt 0.607330 0.012661
vt 0.711108 0.022730
vt 0.711108 0.306933
vt 0.643906 0.308003
vt 0.643906 0.012661
vt 0.730556 0.022730
vt 0.730556 0.306933
vt 0.680483 0.308003
vt 0.680483 0.012661
vt 0.717059 0.308003
vt 0.717059 0.012661
vt 0.263815 0.306933
vt 0.283262 0.022730
vt 0.283262 0.306933
vt 0.302710 0.022730
vt 0.754251 0.308003
vt 0.754251 0.012661
vn 0.0000 1.0000 0.0000
usemtl MI_Trim_03
s off
f 27/1/1 28/2/1 2/3/1 1/4/1
f 28/2/1 29/5/1 3/6/1 2/3/1
f 3/6/1 29/5/1 30/7/1 4/8/1
f 29/9/1 11/10/1 30/11/1
f 30/11/1 11/12/1 31/13/1
f 4/8/1 30/7/1 31/14/1 5/15/1
f 31/13/1 11/16/1 32/17/1
f 31/14/1 32/18/1 6/19/1 5/15/1
f 32/17/1 11/20/1 33/21/1
f 32/18/1 33/22/1 7/23/1 6/19/1
f 33/21/1 11/24/1 34/25/1
f 33/22/1 34/26/1 8/27/1 7/23/1
f 35/28/1 11/29/1 36/30/1
f 34/25/1 11/31/1 35/28/1
f 36/30/1 11/32/1 37/33/1
f 35/34/1 9/35/1 8/27/1 34/26/1
f 37/33/1 11/36/1 38/37/1
f 36/38/1 10/39/1 9/35/1 35/34/1
f 38/37/1 11/40/1 39/41/1
f 37/42/1 12/43/1 10/39/1 36/38/1
f 11/44/1 40/45/1 39/41/1
f 38/46/1 13/47/1 12/43/1 37/42/1
f 39/48/1 40/49/1 15/50/1 14/51/1
f 39/52/1 14/53/1 13/47/1 38/46/1
f 15/50/1 40/49/1 41/54/1 16/55/1
f 11/56/1 41/57/1 40/45/1
f 11/58/1 42/59/1 41/57/1
f 16/55/1 41/54/1 42/60/1 17/61/1
f 11/62/1 43/63/1 42/59/1
f 42/60/1 43/64/1 18/65/1 17/61/1
f 11/66/1 44/67/1 43/63/1
f 43/64/1 44/68/1 19/69/1 18/65/1
f 11/70/1 45/71/1 44/67/1
f 44/68/1 45/72/1 20/73/1 19/69/1
f 11/74/1 47/75/1 46/76/1
f 11/77/1 46/76/1 45/71/1
f 11/78/1 48/79/1 47/75/1
f 46/80/1 21/81/1 20/73/1 45/72/1
f 11/82/1 49/83/1 48/79/1
f 47/84/1 22/85/1 21/81/1 46/80/1
f 11/86/1 50/87/1 49/83/1
f 48/88/1 23/89/1 22/85/1 47/84/1
f 11/90/1 51/91/1 50/87/1
f 49/92/1 24/93/1 23/89/1 48/88/1
f 50/94/1 25/95/1 24/93/1 49/92/1
f 27/96/1 11/97/1 28/98/1
f 28/98/1 11/99/1 29/9/1
f 50/94/1 51/100/1 26/101/1 25/95/1
