# Blender v3.6.0 OBJ File: 'AllModules_Unreal.blend'
# www.blender.org
mtllib Platform_Squares.mtl
o Platform_Squares_Plane.120
v -2.000000 0.000000 2.000000
v 0.000000 0.000000 2.000000
v -2.000000 0.000000 0.000000
v 0.000000 0.000000 0.000000
v 2.000000 0.000000 2.000000
v 2.000000 0.000000 0.000000
v -2.000000 0.000000 -2.000000
v 0.000000 0.000000 -2.000000
v 2.000000 0.000000 -2.000000
v -1.881668 0.000000 0.000000
v -1.881668 0.000000 1.881668
v 0.000000 0.000000 1.881668
v 1.881668 0.000000 0.000000
v 1.881668 0.000000 1.881668
v -1.881668 0.000000 -1.881668
v 0.000000 0.000000 -1.881668
v 1.881668 0.000000 -1.881668
vt 0.238485 0.487622
vt 0.499623 0.487622
vt 0.499623 0.743743
vt 0.238485 0.743743
vt 0.238485 0.487622
vt 0.238485 0.743743
vt 0.238485 0.487622
vt 0.499623 0.487622
vt 0.238485 0.487622
vt -0.481310 0.938138
vt 0.500000 0.938138
vt 0.500000 0.999850
vt -0.543022 0.999850
vt 0.500000 0.938138
vt 1.481306 0.938138
vt 1.543018 0.999850
vt 0.500000 0.999850
vt 0.500000 0.938138
vt 1.481306 0.938138
vt 1.543017 0.999850
vt 0.500000 0.999850
vt -0.481306 0.938139
vt -0.543018 0.999850
vt 1.481310 0.938138
vt 1.543022 0.999850
vt -0.481309 0.938138
vt 0.500000 0.938138
vt 0.500000 0.999850
vt -0.543021 0.999850
vt -0.481306 0.938139
vt -0.543017 0.999850
vt 1.481309 0.938138
vt 1.543021 0.999850
vn 0.0000 1.0000 0.0000
usemtl MI_Trim_02_Floor
s off
f 11/1/1 12/2/1 4/3/1 10/4/1
f 14/5/1 13/6/1 4/3/1 12/2/1
f 15/7/1 10/4/1 4/3/1 16/8/1
f 17/9/1 16/8/1 4/3/1 13/6/1
f 11/10/1 10/11/1 3/12/1 1/13/1
f 12/14/1 11/15/1 1/16/1 2/17/1
f 13/18/1 14/19/1 5/20/1 6/21/1
f 14/22/1 12/14/1 2/17/1 5/23/1
f 10/11/1 15/24/1 7/25/1 3/12/1
f 15/26/1 16/27/1 8/28/1 7/29/1
f 17/30/1 13/18/1 6/21/1 9/31/1
f 16/27/1 17/32/1 9/33/1 8/28/1
