# Blender v3.6.0 OBJ File: 'AllModules_Unreal.blend'
# www.blender.org
mtllib Platform_Simple2.mtl
o Platform_Simple2_Plane.133
v 0.000000 0.000000 0.000000
v -2.000000 0.000000 0.000000
v -2.000000 0.000000 2.000000
v 0.000000 0.000000 2.000000
v 2.000000 0.000000 0.000000
v 2.000000 0.000000 2.000000
v -2.000000 0.000000 -2.000000
v 0.000000 0.000000 -2.000000
v 2.000000 0.000000 -2.000000
vt 0.749946 0.023266
vt 0.749946 0.306729
vt 0.421404 0.306729
vt 0.421404 0.023266
vt 0.749946 0.023266
vt 0.421404 0.023266
vt 0.749946 0.023266
vt 0.749946 0.306729
vt 0.749946 0.023266
vn 0.0000 1.0000 0.0000
usemtl MI_Trim_03
s off
f 3/1/1 4/2/1 1/3/1 2/4/1
f 6/5/1 5/6/1 1/3/1 4/2/1
f 7/7/1 2/4/1 1/3/1 8/8/1
f 9/9/1 8/8/1 1/3/1 5/6/1
