# Blender v3.6.0 OBJ File: 'AllModules_Unreal.blend'
# www.blender.org
mtllib Decal_Line_90_Round_Large.mtl
o Decal_Line_90_Round_Large_Plane.057
v -0.072000 0.000000 3.000000
v 0.072000 0.000000 3.000000
v -0.045719 0.000000 2.599023
v 0.097049 0.000000 2.617819
v 0.032676 0.000000 2.204908
v 0.171769 0.000000 2.242177
v 0.161842 0.000000 1.824396
v 0.294881 0.000000 1.879503
v 0.339570 0.000000 1.463999
v 0.464278 0.000000 1.536000
v 0.562818 0.000000 1.129884
v 0.677061 0.000000 1.217546
v 0.827768 0.000000 0.827767
v 0.929591 0.000000 0.929590
v 1.129885 0.000000 0.562817
v 1.217547 0.000000 0.677060
v 1.464000 0.000000 0.339568
v 1.536000 0.000000 0.464276
v 1.824397 0.000000 0.161840
v 1.879503 0.000000 0.294879
v 2.204908 0.000000 0.032674
v 2.242178 0.000000 0.171768
v 2.599024 0.000000 -0.045721
v 2.617820 0.000000 0.097048
v 3.000001 0.000000 -0.072002
v 3.000001 0.000000 0.071998
vt 0.000000 0.000000
vt 0.000000 0.000000
vt 0.000000 0.000000
vt 0.000000 0.000000
vt 0.000000 0.000000
vt 0.000000 0.000000
vt 0.000000 0.000000
vt 0.000000 0.000000
vt 0.000000 0.000000
vt 0.000000 0.000000
vt 0.000000 0.000000
vt 0.000000 0.000000
vt 0.000000 0.000000
vt 0.000000 0.000000
vt 0.000000 0.000000
vt 0.000000 0.000000
vt 0.000000 0.000000
vt 0.000000 0.000000
vt 0.000000 0.000000
vt 0.000000 0.000000
vt 0.000000 0.000000
vt 0.000000 0.000000
vt 0.000000 0.000000
vt 0.000000 0.000000
vt 0.000000 0.000000
vt 0.000000 0.000000
vn 0.0000 1.0000 0.0000
usemtl MI_Decal_Line
s off
f 1/1/1 2/2/1 4/3/1 3/4/1
f 3/4/1 4/3/1 6/5/1 5/6/1
f 5/6/1 6/5/1 8/7/1 7/8/1
f 7/8/1 8/7/1 10/9/1 9/10/1
f 9/10/1 10/9/1 12/11/1 11/12/1
f 11/12/1 12/11/1 14/13/1 13/14/1
f 13/14/1 14/13/1 16/15/1 15/16/1
f 15/16/1 16/15/1 18/17/1 17/18/1
f 17/18/1 18/17/1 20/19/1 19/20/1
f 19/20/1 20/19/1 22/21/1 21/22/1
f 21/22/1 22/21/1 24/23/1 23/24/1
f 23/24/1 24/23/1 26/25/1 25/26/1
