# Blender v3.6.0 OBJ File: 'AllModules_Unreal.blend'
# www.blender.org
mtllib Decal_Line_Bend1_L.mtl
o Decal_Line_Bend1_L_Plane.253
v 0.072000 0.000000 2.000000
v -0.072000 0.000000 2.000000
v -1.928000 0.000000 -2.000000
v -2.072000 0.000000 -2.000000
v -1.785184 0.000000 -0.857184
v -1.928000 0.000000 -1.233666
v -1.839837 0.000000 -0.929624
v -1.886170 0.000000 -1.026609
v -1.917129 0.000000 -1.133374
v 0.072000 0.000000 1.233665
v -0.070816 0.000000 0.857184
v 0.061129 0.000000 1.133374
v 0.030170 0.000000 1.026609
v -0.016163 0.000000 0.929624
v -0.214816 0.000000 0.948787
v -0.072000 0.000000 1.325269
v -0.160163 0.000000 1.021227
v -0.113830 0.000000 1.118212
v -0.082871 0.000000 1.224978
v -2.072000 0.000000 -1.142062
v -1.929184 0.000000 -0.765581
v -2.061129 0.000000 -1.041771
v -2.030170 0.000000 -0.935006
v -1.983838 0.000000 -0.838021
vt 0.382039 0.344114
vt 0.351954 0.363252
vt 0.710120 0.721418
vt 0.740205 0.702280
vt 0.322117 0.124494
vt 0.322117 0.284597
vt 0.352202 0.265459
vt 0.352202 0.124494
vt 0.370620 0.328980
vt 0.340536 0.348117
vt 0.352202 0.314277
vt 0.330856 0.327855
vt 0.354473 0.286412
vt 0.324388 0.305550
vt 0.770042 0.780935
vt 0.767771 0.759982
vt 0.737686 0.779119
vt 0.739958 0.800072
vt 0.761303 0.737676
vt 0.739958 0.751255
vt 0.751623 0.717414
vt 0.721539 0.736552
vt 0.739958 0.960175
vt 0.770042 0.960175
vn 0.0000 1.0000 0.0000
usemtl MI_Decal_Line
s off
f 15/1/1 11/2/1 5/3/1 21/4/1
f 1/5/1 10/6/1 16/7/1 2/8/1
f 15/1/1 17/9/1 14/10/1 11/2/1
f 17/9/1 18/11/1 13/12/1 14/10/1
f 18/11/1 19/13/1 12/14/1 13/12/1
f 19/13/1 16/7/1 10/6/1 12/14/1
f 20/15/1 22/16/1 9/17/1 6/18/1
f 22/16/1 23/19/1 8/20/1 9/17/1
f 23/19/1 24/21/1 7/22/1 8/20/1
f 24/21/1 21/4/1 5/3/1 7/22/1
f 6/18/1 3/23/1 4/24/1 20/15/1
