{
	"asset":{
		"generator":"Khronos glTF Blender I/O v4.0.44",
		"version":"2.0"
	},
	"extensionsUsed":[
		"KHR_materials_specular",
		"KHR_materials_ior"
	],
	"scene":0,
	"scenes":[
		{
			"name":"Scene",
			"nodes":[
				5
			]
		}
	],
	"nodes":[
		{
			"name":"Chest_Top",
			"translation":[
				0,
				0.4155474603176117,
				-0.36449527740478516
			]
		},
		{
			"children":[
				0
			],
			"name":"Chest_Bottom",
			"rotation":[
				0,
				-1.1920928955078125e-07,
				0,
				1
			]
		},
		{
			"children":[
				1
			],
			"name":"Root",
			"rotation":[
				0,
				1.1920928955078125e-07,
				0,
				1
			]
		},
		{
			"mesh":0,
			"name":"Prop_Chest",
			"skin":0
		},
		{
			"mesh":1,
			"name":"Prop_Chest_Top",
			"skin":0
		},
		{
			"children":[
				3,
				4,
				2
			],
			"name":"Chest_Armature"
		}
	],
	"animations":[
		{
			"channels":[
				{
					"sampler":0,
					"target":{
						"node":2,
						"path":"translation"
					}
				},
				{
					"sampler":1,
					"target":{
						"node":2,
						"path":"rotation"
					}
				},
				{
					"sampler":2,
					"target":{
						"node":2,
						"path":"scale"
					}
				},
				{
					"sampler":3,
					"target":{
						"node":1,
						"path":"translation"
					}
				},
				{
					"sampler":4,
					"target":{
						"node":1,
						"path":"rotation"
					}
				},
				{
					"sampler":5,
					"target":{
						"node":1,
						"path":"scale"
					}
				},
				{
					"sampler":6,
					"target":{
						"node":0,
						"path":"translation"
					}
				},
				{
					"sampler":7,
					"target":{
						"node":0,
						"path":"rotation"
					}
				},
				{
					"sampler":8,
					"target":{
						"node":0,
						"path":"scale"
					}
				}
			],
			"name":"Chest_Close",
			"samplers":[
				{
					"input":25,
					"interpolation":"STEP",
					"output":26
				},
				{
					"input":25,
					"interpolation":"STEP",
					"output":27
				},
				{
					"input":25,
					"interpolation":"STEP",
					"output":28
				},
				{
					"input":29,
					"interpolation":"LINEAR",
					"output":30
				},
				{
					"input":29,
					"interpolation":"LINEAR",
					"output":31
				},
				{
					"input":25,
					"interpolation":"STEP",
					"output":32
				},
				{
					"input":25,
					"interpolation":"STEP",
					"output":33
				},
				{
					"input":29,
					"interpolation":"LINEAR",
					"output":34
				},
				{
					"input":25,
					"interpolation":"STEP",
					"output":35
				}
			]
		},
		{
			"channels":[
				{
					"sampler":0,
					"target":{
						"node":2,
						"path":"translation"
					}
				},
				{
					"sampler":1,
					"target":{
						"node":2,
						"path":"rotation"
					}
				},
				{
					"sampler":2,
					"target":{
						"node":2,
						"path":"scale"
					}
				},
				{
					"sampler":3,
					"target":{
						"node":1,
						"path":"translation"
					}
				},
				{
					"sampler":4,
					"target":{
						"node":1,
						"path":"rotation"
					}
				},
				{
					"sampler":5,
					"target":{
						"node":1,
						"path":"scale"
					}
				},
				{
					"sampler":6,
					"target":{
						"node":0,
						"path":"translation"
					}
				},
				{
					"sampler":7,
					"target":{
						"node":0,
						"path":"rotation"
					}
				},
				{
					"sampler":8,
					"target":{
						"node":0,
						"path":"scale"
					}
				}
			],
			"name":"Chest_Idle_Closed",
			"samplers":[
				{
					"input":36,
					"interpolation":"STEP",
					"output":37
				},
				{
					"input":36,
					"interpolation":"STEP",
					"output":38
				},
				{
					"input":36,
					"interpolation":"STEP",
					"output":39
				},
				{
					"input":36,
					"interpolation":"STEP",
					"output":40
				},
				{
					"input":36,
					"interpolation":"STEP",
					"output":41
				},
				{
					"input":36,
					"interpolation":"STEP",
					"output":42
				},
				{
					"input":36,
					"interpolation":"STEP",
					"output":43
				},
				{
					"input":36,
					"interpolation":"STEP",
					"output":44
				},
				{
					"input":36,
					"interpolation":"STEP",
					"output":45
				}
			]
		},
		{
			"channels":[
				{
					"sampler":0,
					"target":{
						"node":2,
						"path":"translation"
					}
				},
				{
					"sampler":1,
					"target":{
						"node":2,
						"path":"rotation"
					}
				},
				{
					"sampler":2,
					"target":{
						"node":2,
						"path":"scale"
					}
				},
				{
					"sampler":3,
					"target":{
						"node":1,
						"path":"translation"
					}
				},
				{
					"sampler":4,
					"target":{
						"node":1,
						"path":"rotation"
					}
				},
				{
					"sampler":5,
					"target":{
						"node":1,
						"path":"scale"
					}
				},
				{
					"sampler":6,
					"target":{
						"node":0,
						"path":"translation"
					}
				},
				{
					"sampler":7,
					"target":{
						"node":0,
						"path":"rotation"
					}
				},
				{
					"sampler":8,
					"target":{
						"node":0,
						"path":"scale"
					}
				}
			],
			"name":"Chest_Idle_Open",
			"samplers":[
				{
					"input":36,
					"interpolation":"STEP",
					"output":46
				},
				{
					"input":36,
					"interpolation":"STEP",
					"output":47
				},
				{
					"input":36,
					"interpolation":"STEP",
					"output":48
				},
				{
					"input":36,
					"interpolation":"STEP",
					"output":49
				},
				{
					"input":36,
					"interpolation":"STEP",
					"output":50
				},
				{
					"input":36,
					"interpolation":"STEP",
					"output":51
				},
				{
					"input":36,
					"interpolation":"STEP",
					"output":52
				},
				{
					"input":36,
					"interpolation":"STEP",
					"output":53
				},
				{
					"input":36,
					"interpolation":"STEP",
					"output":54
				}
			]
		},
		{
			"channels":[
				{
					"sampler":0,
					"target":{
						"node":2,
						"path":"translation"
					}
				},
				{
					"sampler":1,
					"target":{
						"node":2,
						"path":"rotation"
					}
				},
				{
					"sampler":2,
					"target":{
						"node":2,
						"path":"scale"
					}
				},
				{
					"sampler":3,
					"target":{
						"node":1,
						"path":"translation"
					}
				},
				{
					"sampler":4,
					"target":{
						"node":1,
						"path":"rotation"
					}
				},
				{
					"sampler":5,
					"target":{
						"node":1,
						"path":"scale"
					}
				},
				{
					"sampler":6,
					"target":{
						"node":0,
						"path":"translation"
					}
				},
				{
					"sampler":7,
					"target":{
						"node":0,
						"path":"rotation"
					}
				},
				{
					"sampler":8,
					"target":{
						"node":0,
						"path":"scale"
					}
				}
			],
			"name":"Chest_Open",
			"samplers":[
				{
					"input":55,
					"interpolation":"STEP",
					"output":56
				},
				{
					"input":55,
					"interpolation":"STEP",
					"output":57
				},
				{
					"input":55,
					"interpolation":"STEP",
					"output":58
				},
				{
					"input":59,
					"interpolation":"LINEAR",
					"output":60
				},
				{
					"input":59,
					"interpolation":"LINEAR",
					"output":61
				},
				{
					"input":55,
					"interpolation":"STEP",
					"output":62
				},
				{
					"input":55,
					"interpolation":"STEP",
					"output":63
				},
				{
					"input":59,
					"interpolation":"LINEAR",
					"output":64
				},
				{
					"input":55,
					"interpolation":"STEP",
					"output":65
				}
			]
		}
	],
	"materials":[
		{
			"doubleSided":true,
			"name":"MI_Trim_02",
			"normalTexture":{
				"index":0
			},
			"pbrMetallicRoughness":{
				"baseColorTexture":{
					"index":1
				},
				"metallicRoughnessTexture":{
					"index":2
				}
			}
		},
		{
			"doubleSided":true,
			"extensions":{
				"KHR_materials_specular":{
					"specularFactor":0
				},
				"KHR_materials_ior":{
					"ior":1.4500000476837158
				}
			},
			"name":"MI_Trim_01",
			"normalTexture":{
				"index":3
			},
			"pbrMetallicRoughness":{
				"baseColorTexture":{
					"index":4
				},
				"metallicRoughnessTexture":{
					"index":5
				}
			}
		}
	],
	"meshes":[
		{
			"name":"Cube.016",
			"primitives":[
				{
					"attributes":{
						"POSITION":0,
						"NORMAL":1,
						"TEXCOORD_0":2,
						"JOINTS_0":3,
						"WEIGHTS_0":4
					},
					"indices":5,
					"material":0
				},
				{
					"attributes":{
						"POSITION":6,
						"NORMAL":7,
						"TEXCOORD_0":8,
						"JOINTS_0":9,
						"WEIGHTS_0":10
					},
					"indices":11,
					"material":1
				}
			]
		},
		{
			"name":"Cube.001",
			"primitives":[
				{
					"attributes":{
						"POSITION":13,
						"NORMAL":14,
						"TEXCOORD_0":15,
						"JOINTS_0":16,
						"WEIGHTS_0":17
					},
					"indices":18,
					"material":0
				},
				{
					"attributes":{
						"POSITION":19,
						"NORMAL":20,
						"TEXCOORD_0":21,
						"JOINTS_0":22,
						"WEIGHTS_0":23
					},
					"indices":24,
					"material":1
				}
			]
		}
	],
	"textures":[
		{
			"sampler":0,
			"source":0
		},
		{
			"sampler":0,
			"source":1
		},
		{
			"sampler":0,
			"source":2
		},
		{
			"sampler":0,
			"source":3
		},
		{
			"sampler":0,
			"source":4
		},
		{
			"sampler":0,
			"source":5
		}
	],
	"images":[
		{
			"mimeType":"image/png",
			"name":"T_Trim_02_Normal",
			"uri":"T_Trim_02_Normal.png"
		},
		{
			"mimeType":"image/png",
			"name":"T_Trim_02_BaseColor_Red",
			"uri":"T_Trim_02_BaseColor_Red.png"
		},
		{
			"mimeType":"image/png",
			"name":"T_Trim_02_ORM",
			"uri":"T_Trim_02_ORM.png"
		},
		{
			"mimeType":"image/png",
			"name":"T_Trim_01_Normal",
			"uri":"T_Trim_01_Normal.png"
		},
		{
			"mimeType":"image/png",
			"name":"T_Trim_01_BaseColor_Red",
			"uri":"T_Trim_01_BaseColor_Red.png"
		},
		{
			"mimeType":"image/png",
			"name":"T_Trim_01_ORM",
			"uri":"T_Trim_01_ORM.png"
		}
	],
	"skins":[
		{
			"inverseBindMatrices":12,
			"joints":[
				2,
				1,
				0
			],
			"name":"Chest_Armature"
		}
	],
	"accessors":[
		{
			"bufferView":0,
			"componentType":5126,
			"count":216,
			"max":[
				0.7514093518257141,
				0.7322261929512024,
				0.36449527740478516
			],
			"min":[
				-0.7514093518257141,
				0.003235679818317294,
				-0.36449527740478516
			],
			"type":"VEC3"
		},
		{
			"bufferView":1,
			"componentType":5126,
			"count":216,
			"type":"VEC3"
		},
		{
			"bufferView":2,
			"componentType":5126,
			"count":216,
			"type":"VEC2"
		},
		{
			"bufferView":3,
			"componentType":5121,
			"count":216,
			"type":"VEC4"
		},
		{
			"bufferView":4,
			"componentType":5126,
			"count":216,
			"type":"VEC4"
		},
		{
			"bufferView":5,
			"componentType":5123,
			"count":384,
			"type":"SCALAR"
		},
		{
			"bufferView":6,
			"componentType":5126,
			"count":198,
			"max":[
				0.7451001405715942,
				0.7322261929512024,
				0.36449527740478516
			],
			"min":[
				-0.7451001405715942,
				0.003235679818317294,
				-0.36449527740478516
			],
			"type":"VEC3"
		},
		{
			"bufferView":7,
			"componentType":5126,
			"count":198,
			"type":"VEC3"
		},
		{
			"bufferView":8,
			"componentType":5126,
			"count":198,
			"type":"VEC2"
		},
		{
			"bufferView":9,
			"componentType":5121,
			"count":198,
			"type":"VEC4"
		},
		{
			"bufferView":10,
			"componentType":5126,
			"count":198,
			"type":"VEC4"
		},
		{
			"bufferView":11,
			"componentType":5123,
			"count":324,
			"type":"SCALAR"
		},
		{
			"bufferView":12,
			"componentType":5126,
			"count":3,
			"type":"MAT4"
		},
		{
			"bufferView":13,
			"componentType":5126,
			"count":64,
			"max":[
				0.7273240685462952,
				0.7322261929512024,
				0.36449527740478516
			],
			"min":[
				-0.7273240685462952,
				0.4146871268749237,
				-0.36449527740478516
			],
			"type":"VEC3"
		},
		{
			"bufferView":14,
			"componentType":5126,
			"count":64,
			"type":"VEC3"
		},
		{
			"bufferView":15,
			"componentType":5126,
			"count":64,
			"type":"VEC2"
		},
		{
			"bufferView":16,
			"componentType":5121,
			"count":64,
			"type":"VEC4"
		},
		{
			"bufferView":17,
			"componentType":5126,
			"count":64,
			"type":"VEC4"
		},
		{
			"bufferView":18,
			"componentType":5123,
			"count":144,
			"type":"SCALAR"
		},
		{
			"bufferView":19,
			"componentType":5126,
			"count":80,
			"max":[
				0.7273240685462952,
				0.7322261929512024,
				0.3885376453399658
			],
			"min":[
				-0.7273240685462952,
				0.4405530095100403,
				-0.36449527740478516
			],
			"type":"VEC3"
		},
		{
			"bufferView":20,
			"componentType":5126,
			"count":80,
			"type":"VEC3"
		},
		{
			"bufferView":21,
			"componentType":5126,
			"count":80,
			"type":"VEC2"
		},
		{
			"bufferView":22,
			"componentType":5121,
			"count":80,
			"type":"VEC4"
		},
		{
			"bufferView":23,
			"componentType":5126,
			"count":80,
			"type":"VEC4"
		},
		{
			"bufferView":24,
			"componentType":5123,
			"count":120,
			"type":"SCALAR"
		},
		{
			"bufferView":25,
			"componentType":5126,
			"count":2,
			"max":[
				0.5
			],
			"min":[
				0.03333333333333333
			],
			"type":"SCALAR"
		},
		{
			"bufferView":26,
			"componentType":5126,
			"count":2,
			"type":"VEC3"
		},
		{
			"bufferView":27,
			"componentType":5126,
			"count":2,
			"type":"VEC4"
		},
		{
			"bufferView":28,
			"componentType":5126,
			"count":2,
			"type":"VEC3"
		},
		{
			"bufferView":29,
			"componentType":5126,
			"count":15,
			"max":[
				0.5
			],
			"min":[
				0.03333333333333333
			],
			"type":"SCALAR"
		},
		{
			"bufferView":30,
			"componentType":5126,
			"count":15,
			"type":"VEC3"
		},
		{
			"bufferView":31,
			"componentType":5126,
			"count":15,
			"type":"VEC4"
		},
		{
			"bufferView":32,
			"componentType":5126,
			"count":2,
			"type":"VEC3"
		},
		{
			"bufferView":33,
			"componentType":5126,
			"count":2,
			"type":"VEC3"
		},
		{
			"bufferView":34,
			"componentType":5126,
			"count":15,
			"type":"VEC4"
		},
		{
			"bufferView":35,
			"componentType":5126,
			"count":2,
			"type":"VEC3"
		},
		{
			"bufferView":36,
			"componentType":5126,
			"count":2,
			"max":[
				0.3333333333333333
			],
			"min":[
				0
			],
			"type":"SCALAR"
		},
		{
			"bufferView":37,
			"componentType":5126,
			"count":2,
			"type":"VEC3"
		},
		{
			"bufferView":38,
			"componentType":5126,
			"count":2,
			"type":"VEC4"
		},
		{
			"bufferView":39,
			"componentType":5126,
			"count":2,
			"type":"VEC3"
		},
		{
			"bufferView":40,
			"componentType":5126,
			"count":2,
			"type":"VEC3"
		},
		{
			"bufferView":41,
			"componentType":5126,
			"count":2,
			"type":"VEC4"
		},
		{
			"bufferView":42,
			"componentType":5126,
			"count":2,
			"type":"VEC3"
		},
		{
			"bufferView":43,
			"componentType":5126,
			"count":2,
			"type":"VEC3"
		},
		{
			"bufferView":44,
			"componentType":5126,
			"count":2,
			"type":"VEC4"
		},
		{
			"bufferView":45,
			"componentType":5126,
			"count":2,
			"type":"VEC3"
		},
		{
			"bufferView":46,
			"componentType":5126,
			"count":2,
			"type":"VEC3"
		},
		{
			"bufferView":47,
			"componentType":5126,
			"count":2,
			"type":"VEC4"
		},
		{
			"bufferView":48,
			"componentType":5126,
			"count":2,
			"type":"VEC3"
		},
		{
			"bufferView":49,
			"componentType":5126,
			"count":2,
			"type":"VEC3"
		},
		{
			"bufferView":50,
			"componentType":5126,
			"count":2,
			"type":"VEC4"
		},
		{
			"bufferView":51,
			"componentType":5126,
			"count":2,
			"type":"VEC3"
		},
		{
			"bufferView":52,
			"componentType":5126,
			"count":2,
			"type":"VEC3"
		},
		{
			"bufferView":53,
			"componentType":5126,
			"count":2,
			"type":"VEC4"
		},
		{
			"bufferView":54,
			"componentType":5126,
			"count":2,
			"type":"VEC3"
		},
		{
			"bufferView":55,
			"componentType":5126,
			"count":2,
			"max":[
				0.6333333333333333
			],
			"min":[
				0
			],
			"type":"SCALAR"
		},
		{
			"bufferView":56,
			"componentType":5126,
			"count":2,
			"type":"VEC3"
		},
		{
			"bufferView":57,
			"componentType":5126,
			"count":2,
			"type":"VEC4"
		},
		{
			"bufferView":58,
			"componentType":5126,
			"count":2,
			"type":"VEC3"
		},
		{
			"bufferView":59,
			"componentType":5126,
			"count":20,
			"max":[
				0.6333333333333333
			],
			"min":[
				0
			],
			"type":"SCALAR"
		},
		{
			"bufferView":60,
			"componentType":5126,
			"count":20,
			"type":"VEC3"
		},
		{
			"bufferView":61,
			"componentType":5126,
			"count":20,
			"type":"VEC4"
		},
		{
			"bufferView":62,
			"componentType":5126,
			"count":2,
			"type":"VEC3"
		},
		{
			"bufferView":63,
			"componentType":5126,
			"count":2,
			"type":"VEC3"
		},
		{
			"bufferView":64,
			"componentType":5126,
			"count":20,
			"type":"VEC4"
		},
		{
			"bufferView":65,
			"componentType":5126,
			"count":2,
			"type":"VEC3"
		}
	],
	"bufferViews":[
		{
			"buffer":0,
			"byteLength":2592,
			"byteOffset":0,
			"target":34962
		},
		{
			"buffer":0,
			"byteLength":2592,
			"byteOffset":2592,
			"target":34962
		},
		{
			"buffer":0,
			"byteLength":1728,
			"byteOffset":5184,
			"target":34962
		},
		{
			"buffer":0,
			"byteLength":864,
			"byteOffset":6912,
			"target":34962
		},
		{
			"buffer":0,
			"byteLength":3456,
			"byteOffset":7776,
			"target":34962
		},
		{
			"buffer":0,
			"byteLength":768,
			"byteOffset":11232,
			"target":34963
		},
		{
			"buffer":0,
			"byteLength":2376,
			"byteOffset":12000,
			"target":34962
		},
		{
			"buffer":0,
			"byteLength":2376,
			"byteOffset":14376,
			"target":34962
		},
		{
			"buffer":0,
			"byteLength":1584,
			"byteOffset":16752,
			"target":34962
		},
		{
			"buffer":0,
			"byteLength":792,
			"byteOffset":18336,
			"target":34962
		},
		{
			"buffer":0,
			"byteLength":3168,
			"byteOffset":19128,
			"target":34962
		},
		{
			"buffer":0,
			"byteLength":648,
			"byteOffset":22296,
			"target":34963
		},
		{
			"buffer":0,
			"byteLength":192,
			"byteOffset":22944
		},
		{
			"buffer":0,
			"byteLength":768,
			"byteOffset":23136,
			"target":34962
		},
		{
			"buffer":0,
			"byteLength":768,
			"byteOffset":23904,
			"target":34962
		},
		{
			"buffer":0,
			"byteLength":512,
			"byteOffset":24672,
			"target":34962
		},
		{
			"buffer":0,
			"byteLength":256,
			"byteOffset":25184,
			"target":34962
		},
		{
			"buffer":0,
			"byteLength":1024,
			"byteOffset":25440,
			"target":34962
		},
		{
			"buffer":0,
			"byteLength":288,
			"byteOffset":26464,
			"target":34963
		},
		{
			"buffer":0,
			"byteLength":960,
			"byteOffset":26752,
			"target":34962
		},
		{
			"buffer":0,
			"byteLength":960,
			"byteOffset":27712,
			"target":34962
		},
		{
			"buffer":0,
			"byteLength":640,
			"byteOffset":28672,
			"target":34962
		},
		{
			"buffer":0,
			"byteLength":320,
			"byteOffset":29312,
			"target":34962
		},
		{
			"buffer":0,
			"byteLength":1280,
			"byteOffset":29632,
			"target":34962
		},
		{
			"buffer":0,
			"byteLength":240,
			"byteOffset":30912,
			"target":34963
		},
		{
			"buffer":0,
			"byteLength":8,
			"byteOffset":31152
		},
		{
			"buffer":0,
			"byteLength":24,
			"byteOffset":31160
		},
		{
			"buffer":0,
			"byteLength":32,
			"byteOffset":31184
		},
		{
			"buffer":0,
			"byteLength":24,
			"byteOffset":31216
		},
		{
			"buffer":0,
			"byteLength":60,
			"byteOffset":31240
		},
		{
			"buffer":0,
			"byteLength":180,
			"byteOffset":31300
		},
		{
			"buffer":0,
			"byteLength":240,
			"byteOffset":31480
		},
		{
			"buffer":0,
			"byteLength":24,
			"byteOffset":31720
		},
		{
			"buffer":0,
			"byteLength":24,
			"byteOffset":31744
		},
		{
			"buffer":0,
			"byteLength":240,
			"byteOffset":31768
		},
		{
			"buffer":0,
			"byteLength":24,
			"byteOffset":32008
		},
		{
			"buffer":0,
			"byteLength":8,
			"byteOffset":32032
		},
		{
			"buffer":0,
			"byteLength":24,
			"byteOffset":32040
		},
		{
			"buffer":0,
			"byteLength":32,
			"byteOffset":32064
		},
		{
			"buffer":0,
			"byteLength":24,
			"byteOffset":32096
		},
		{
			"buffer":0,
			"byteLength":24,
			"byteOffset":32120
		},
		{
			"buffer":0,
			"byteLength":32,
			"byteOffset":32144
		},
		{
			"buffer":0,
			"byteLength":24,
			"byteOffset":32176
		},
		{
			"buffer":0,
			"byteLength":24,
			"byteOffset":32200
		},
		{
			"buffer":0,
			"byteLength":32,
			"byteOffset":32224
		},
		{
			"buffer":0,
			"byteLength":24,
			"byteOffset":32256
		},
		{
			"buffer":0,
			"byteLength":24,
			"byteOffset":32280
		},
		{
			"buffer":0,
			"byteLength":32,
			"byteOffset":32304
		},
		{
			"buffer":0,
			"byteLength":24,
			"byteOffset":32336
		},
		{
			"buffer":0,
			"byteLength":24,
			"byteOffset":32360
		},
		{
			"buffer":0,
			"byteLength":32,
			"byteOffset":32384
		},
		{
			"buffer":0,
			"byteLength":24,
			"byteOffset":32416
		},
		{
			"buffer":0,
			"byteLength":24,
			"byteOffset":32440
		},
		{
			"buffer":0,
			"byteLength":32,
			"byteOffset":32464
		},
		{
			"buffer":0,
			"byteLength":24,
			"byteOffset":32496
		},
		{
			"buffer":0,
			"byteLength":8,
			"byteOffset":32520
		},
		{
			"buffer":0,
			"byteLength":24,
			"byteOffset":32528
		},
		{
			"buffer":0,
			"byteLength":32,
			"byteOffset":32552
		},
		{
			"buffer":0,
			"byteLength":24,
			"byteOffset":32584
		},
		{
			"buffer":0,
			"byteLength":80,
			"byteOffset":32608
		},
		{
			"buffer":0,
			"byteLength":240,
			"byteOffset":32688
		},
		{
			"buffer":0,
			"byteLength":320,
			"byteOffset":32928
		},
		{
			"buffer":0,
			"byteLength":24,
			"byteOffset":33248
		},
		{
			"buffer":0,
			"byteLength":24,
			"byteOffset":33272
		},
		{
			"buffer":0,
			"byteLength":320,
			"byteOffset":33296
		},
		{
			"buffer":0,
			"byteLength":24,
			"byteOffset":33616
		}
	],
	"samplers":[
		{
			"magFilter":9729,
			"minFilter":9987
		}
	],
	"buffers":[
		{
			"byteLength":33640,
			"uri":"Prop_Chest.bin"
		}
	]
}
