{
	"asset":{
		"generator":"Khronos glTF Blender I/O v4.0.44",
		"version":"2.0"
	},
	"scene":0,
	"scenes":[
		{
			"name":"Scene",
			"nodes":[
				0
			]
		}
	],
	"nodes":[
		{
			"mesh":0,
			"name":"Prop_Rail_Incline_Short_L"
		}
	],
	"materials":[
		{
			"doubleSided":true,
			"name":"MI_Trim_02_Rails",
			"normalTexture":{
				"index":0
			},
			"pbrMetallicRoughness":{
				"baseColorTexture":{
					"index":1
				},
				"metallicRoughnessTexture":{
					"index":2
				}
			}
		}
	],
	"meshes":[
		{
			"name":"Cylinder.046",
			"primitives":[
				{
					"attributes":{
						"POSITION":0,
						"NORMAL":1,
						"TEXCOORD_0":2
					},
					"indices":3,
					"material":0
				}
			]
		}
	],
	"textures":[
		{
			"sampler":0,
			"source":0
		},
		{
			"sampler":0,
			"source":1
		},
		{
			"sampler":0,
			"source":2
		}
	],
	"images":[
		{
			"mimeType":"image/png",
			"name":"T_Trim_02_Normal",
			"uri":"T_Trim_02_Normal.png"
		},
		{
			"mimeType":"image/png",
			"name":"T_Trim_02_BaseColor_Red",
			"uri":"T_Trim_02_BaseColor_Red.png"
		},
		{
			"mimeType":"image/png",
			"name":"T_Trim_02_ORM",
			"uri":"T_Trim_02_ORM.png"
		}
	],
	"accessors":[
		{
			"bufferView":0,
			"componentType":5126,
			"count":417,
			"max":[
				0.028294818475842476,
				1.7013635635375977,
				1.9347994327545166
			],
			"min":[
				-0.22624468803405762,
				0.0029671192169189453,
				0.043796658515930176
			],
			"type":"VEC3"
		},
		{
			"bufferView":1,
			"componentType":5126,
			"count":417,
			"type":"VEC3"
		},
		{
			"bufferView":2,
			"componentType":5126,
			"count":417,
			"type":"VEC2"
		},
		{
			"bufferView":3,
			"componentType":5123,
			"count":1836,
			"type":"SCALAR"
		}
	],
	"bufferViews":[
		{
			"buffer":0,
			"byteLength":5004,
			"byteOffset":0,
			"target":34962
		},
		{
			"buffer":0,
			"byteLength":5004,
			"byteOffset":5004,
			"target":34962
		},
		{
			"buffer":0,
			"byteLength":3336,
			"byteOffset":10008,
			"target":34962
		},
		{
			"buffer":0,
			"byteLength":3672,
			"byteOffset":13344,
			"target":34963
		}
	],
	"samplers":[
		{
			"magFilter":9729,
			"minFilter":9987
		}
	],
	"buffers":[
		{
			"byteLength":17016,
			"uri":"Prop_Rail_Incline_Short_L.bin"
		}
	]
}
