# Blender v3.6.0 OBJ File: 'AllModules_Unreal.blend'
# www.blender.org
mtllib Prop_Light_Wide.mtl
o Prop_Light_Wide_Cube.046
v -0.752049 -0.069737 0.125407
v -0.717819 -0.123905 0.099572
v -0.531498 -0.069737 0.125407
v -0.565729 -0.123905 0.099572
v -0.531498 -0.093096 0.174384
v -0.752049 -0.093096 0.174384
v -0.717819 -0.147264 0.148549
v -0.565729 -0.147264 0.148549
v -0.531498 0.019803 0.173682
v -0.752049 0.019803 0.173682
v -0.531498 0.019803 0.222660
v -0.752049 0.019803 0.222660
v -0.752049 -0.069737 -0.125407
v -0.717819 -0.123905 -0.099572
v -0.531498 -0.069737 -0.125407
v -0.565729 -0.123905 -0.099572
v -0.531498 -0.093096 -0.174384
v -0.752049 -0.093096 -0.174384
v -0.717819 -0.147264 -0.148550
v -0.565729 -0.147264 -0.148550
v -0.531498 0.019803 -0.173682
v -0.752049 0.019803 -0.173682
v -0.531498 0.019803 -0.222660
v -0.752049 0.019803 -0.222660
v -1.143736 0.011413 -0.201842
v -1.143736 -0.124868 -0.139189
v -1.143736 0.011413 0.201842
v -1.143736 -0.124868 0.139189
v -1.133906 0.034225 -0.220287
v -1.133906 -0.147680 -0.151908
v -1.133906 0.034225 0.220287
v -1.133906 -0.147680 0.151908
v -1.320244 0.034225 0.220287
v -1.320244 0.034225 -0.220287
v -1.320244 -0.147680 -0.151908
v -1.320244 -0.147680 0.151908
v -1.143736 0.011413 0.119610
v -1.143736 -0.124868 0.082482
v -1.143736 0.011413 -0.134168
v -1.143736 -0.124868 -0.092521
v -1.143736 -0.081100 -0.086005
v -1.143736 -0.081100 0.075966
v -0.852107 0.011413 0.201842
v -0.905911 0.011413 0.201842
v -0.905911 -0.124868 -0.139189
v -0.852107 -0.124868 -0.139189
v -0.905911 -0.124868 0.139189
v -0.852107 -0.124868 0.139189
v -0.852107 0.011413 0.119610
v -0.905911 0.011413 0.119610
v -0.905911 0.011413 -0.134168
v -0.852107 0.011413 -0.134168
v -0.852107 0.011413 -0.201842
v -0.905911 0.011413 -0.201842
v -0.852107 -0.124868 0.107375
v -0.905911 -0.124868 0.082482
v -0.852107 -0.081100 -0.109044
v -0.905911 -0.081100 -0.086005
v -0.852107 -0.081100 0.099005
v -0.905911 -0.081100 0.075966
v -0.905911 -0.124868 -0.092521
v -0.852107 -0.124868 -0.117414
v 0.000000 -0.081100 -0.109044
v 0.000000 -0.081100 0.099005
v 0.000000 0.011413 -0.134168
v 0.000000 -0.124868 0.107375
v 0.000000 -0.124868 -0.117414
v 0.000000 -0.124868 -0.139189
v 0.000000 0.011413 -0.201842
v 0.000000 -0.124868 0.139189
v 0.000000 0.011413 0.119610
v 0.000000 0.011413 0.201842
v -1.157003 -0.054195 0.015206
v 0.000000 -0.054195 0.015206
v -1.157003 -0.075605 0.020943
v 0.000000 -0.075605 0.020943
v -1.157003 -0.091278 0.036617
v 0.000000 -0.091278 0.036617
v -1.157002 -0.097015 0.058027
v 0.000000 -0.097015 0.058027
v -1.157003 -0.091278 0.079437
v 0.000000 -0.091278 0.079437
v -1.157002 -0.075605 0.095110
v 0.000000 -0.075605 0.095110
v -1.157002 -0.054195 0.100847
v 0.000000 -0.054195 0.100847
v -1.157002 -0.032785 0.095110
v 0.000000 -0.032785 0.095110
v -1.157003 -0.017111 0.079437
v 0.000000 -0.017111 0.079437
v -1.157002 -0.011375 0.058027
v 0.000000 -0.011375 0.058027
v -1.157003 -0.017111 0.036617
v 0.000000 -0.017111 0.036617
v -1.157003 -0.032785 0.020943
v 0.000000 -0.032785 0.020943
v -1.157003 -0.054195 -0.098676
v 0.000000 -0.054195 -0.098676
v -1.157003 -0.075605 -0.092939
v 0.000000 -0.075605 -0.092939
v -1.157003 -0.091278 -0.077266
v 0.000000 -0.091278 -0.077266
v -1.157002 -0.097015 -0.055856
v 0.000000 -0.097015 -0.055856
v -1.157003 -0.091278 -0.034446
v 0.000000 -0.091278 -0.034446
v -1.157002 -0.075605 -0.018772
v 0.000000 -0.075605 -0.018772
v -1.157002 -0.054195 -0.013035
v 0.000000 -0.054195 -0.013035
v -1.157002 -0.032785 -0.018772
v 0.000000 -0.032785 -0.018772
v -1.157003 -0.017111 -0.034446
v 0.000000 -0.017111 -0.034446
v -1.157002 -0.011375 -0.055856
v 0.000000 -0.011375 -0.055856
v -1.157003 -0.017111 -0.077266
v 0.000000 -0.017111 -0.077266
v -1.157003 -0.032785 -0.092939
v 0.000000 -0.032785 -0.092939
v 0.752049 -0.069737 0.125407
v 0.717819 -0.123905 0.099572
v 0.531498 -0.069737 0.125407
v 0.565729 -0.123905 0.099572
v 0.531498 -0.093096 0.174384
v 0.752049 -0.093096 0.174384
v 0.717819 -0.147264 0.148549
v 0.565729 -0.147264 0.148549
v 0.531498 0.019803 0.173682
v 0.752049 0.019803 0.173682
v 0.531498 0.019803 0.222660
v 0.752049 0.019803 0.222660
v 0.752049 -0.069737 -0.125407
v 0.717819 -0.123905 -0.099572
v 0.531498 -0.069737 -0.125407
v 0.565729 -0.123905 -0.099572
v 0.531498 -0.093096 -0.174384
v 0.752049 -0.093096 -0.174384
v 0.717819 -0.147264 -0.148550
v 0.565729 -0.147264 -0.148550
v 0.531498 0.019803 -0.173682
v 0.752049 0.019803 -0.173682
v 0.531498 0.019803 -0.222660
v 0.752049 0.019803 -0.222660
v 1.143736 0.011413 -0.201842
v 1.143736 -0.124868 -0.139189
v 1.143736 0.011413 0.201842
v 1.143736 -0.124868 0.139189
v 1.133906 0.034225 -0.220287
v 1.133906 -0.147680 -0.151908
v 1.133906 0.034225 0.220287
v 1.133906 -0.147680 0.151908
v 1.320244 0.034225 0.220287
v 1.320244 0.034225 -0.220287
v 1.320244 -0.147680 -0.151908
v 1.320244 -0.147680 0.151908
v 1.143736 0.011413 0.119610
v 1.143736 -0.124868 0.082482
v 1.143736 0.011413 -0.134168
v 1.143736 -0.124868 -0.092521
v 1.143736 -0.081100 -0.086005
v 1.143736 -0.081100 0.075966
v 0.852107 0.011413 0.201842
v 0.905911 0.011413 0.201842
v 0.905911 -0.124868 -0.139189
v 0.852107 -0.124868 -0.139189
v 0.905911 -0.124868 0.139189
v 0.852107 -0.124868 0.139189
v 0.852107 0.011413 0.119610
v 0.905911 0.011413 0.119610
v 0.905911 0.011413 -0.134168
v 0.852107 0.011413 -0.134168
v 0.852107 0.011413 -0.201842
v 0.905911 0.011413 -0.201842
v 0.852107 -0.124868 0.107375
v 0.905911 -0.124868 0.082482
v 0.852107 -0.081100 -0.109044
v 0.905911 -0.081100 -0.086005
v 0.852107 -0.081100 0.099005
v 0.905911 -0.081100 0.075966
v 0.905911 -0.124868 -0.092521
v 0.852107 -0.124868 -0.117414
v 1.157003 -0.054195 0.015206
v 1.157003 -0.075605 0.020943
v 1.157003 -0.091278 0.036617
v 1.157002 -0.097015 0.058027
v 1.157003 -0.091278 0.079437
v 1.157002 -0.075605 0.095110
v 1.157002 -0.054195 0.100847
v 1.157002 -0.032785 0.095110
v 1.157003 -0.017111 0.079437
v 1.157002 -0.011375 0.058027
v 1.157003 -0.017111 0.036617
v 1.157003 -0.032785 0.020943
v 1.157003 -0.054195 -0.098676
v 1.157003 -0.075605 -0.092939
v 1.157003 -0.091278 -0.077266
v 1.157002 -0.097015 -0.055856
v 1.157003 -0.091278 -0.034446
v 1.157002 -0.075605 -0.018772
v 1.157002 -0.054195 -0.013035
v 1.157002 -0.032785 -0.018772
v 1.157003 -0.017111 -0.034446
v 1.157002 -0.011375 -0.055856
v 1.157003 -0.017111 -0.077266
v 1.157003 -0.032785 -0.092939
vt 0.450256 0.263174
vt 0.450256 0.219153
vt 0.462235 0.225985
vt 0.462235 0.256342
vt 0.474213 0.263174
vt 0.462235 0.256342
vt 0.462235 0.225985
vt 0.474213 0.219153
vt 0.460310 0.307196
vt 0.460748 0.320346
vt 0.449972 0.320364
vt 0.449534 0.307214
vt 0.494389 0.320346
vt 0.494826 0.307196
vt 0.505602 0.307214
vt 0.505165 0.320364
vt 0.539243 0.337553
vt 0.539243 0.307196
vt 0.550074 0.307196
vt 0.550074 0.337553
vt 0.460310 0.342226
vt 0.449534 0.342244
vt 0.438704 0.307196
vt 0.438704 0.351218
vt 0.427873 0.351218
vt 0.427873 0.307196
vt 0.496597 0.219153
vt 0.496597 0.263174
vt 0.427873 0.263174
vt 0.427873 0.219153
vt 0.505602 0.342244
vt 0.494826 0.342226
vt 0.513991 0.263174
vt 0.523300 0.270007
vt 0.523300 0.300364
vt 0.513991 0.307196
vt 0.540694 0.263174
vt 0.540694 0.219153
vt 0.550003 0.225985
vt 0.550003 0.256342
vt 0.472399 0.307196
vt 0.483175 0.307214
vt 0.482738 0.320364
vt 0.471962 0.320347
vt 0.539243 0.320346
vt 0.528467 0.320364
vt 0.528030 0.307214
vt 0.538806 0.307196
vt 0.566836 0.249510
vt 0.558420 0.249510
vt 0.558420 0.219153
vt 0.566836 0.219153
vt 0.483175 0.342244
vt 0.472399 0.342226
vt 0.550003 0.219153
vt 0.558420 0.219153
vt 0.558420 0.263174
vt 0.550003 0.263174
vt 0.523300 0.263174
vt 0.523300 0.219153
vt 0.496597 0.307196
vt 0.496597 0.263174
vt 0.538806 0.342226
vt 0.528030 0.342244
vt 0.619239 0.206781
vt 0.619239 0.206781
vt 0.619239 0.206781
vt 0.619239 0.206781
vt 0.375000 0.000000
vt 0.375000 0.250000
vt 0.625000 0.250000
vt 0.625000 0.000000
vt 0.735710 0.890653
vt 0.696888 0.876060
vt 0.696888 0.811221
vt 0.735710 0.796628
vt 0.578015 0.659755
vt 0.677735 0.659755
vt 0.677735 0.703532
vt 0.578015 0.703532
vt 0.322396 0.659755
vt 0.422115 0.659755
vt 0.422115 0.703532
vt 0.322396 0.703532
vt 0.410817 0.533272
vt 0.505177 0.533272
vt 0.505177 0.573182
vt 0.410817 0.573182
vt 0.655712 0.320058
vt 0.582985 0.320058
vt 0.582985 0.236014
vt 0.655712 0.236014
vt 0.582985 0.213602
vt 0.655712 0.213602
vt 0.649821 0.206781
vt 0.743064 0.206781
vt 0.743064 0.357645
vt 0.649821 0.357645
vt 0.619239 0.357645
vt 0.619239 0.357645
vt 0.619239 0.357645
vt 0.619239 0.357645
vt 0.649821 0.357645
vt 0.743064 0.357645
vt 0.743064 0.397876
vt 0.649821 0.397876
vt 0.743064 0.121172
vt 0.743064 0.157896
vt 0.649821 0.157896
vt 0.649821 0.121172
vt 0.649821 0.206781
vt 0.743064 0.206781
vt 0.619239 0.157896
vt 0.619239 0.157896
vt 0.649821 0.460483
vt 0.743064 0.460483
vt 0.619239 0.121172
vt 0.559132 0.236014
vt 0.559132 0.213602
vt 0.559132 0.347291
vt 0.559132 0.320058
vt 0.582985 0.347291
vt 0.619239 0.397876
vt 0.619239 0.460483
vt 0.655712 0.347291
vt 0.619239 0.397876
vt 0.619239 0.460483
vt 0.619239 0.121172
vt 0.559132 0.236014
vt 0.559132 0.213602
vt 0.559132 0.320058
vt 0.559132 0.347291
vt 0.450256 0.263174
vt 0.462235 0.256342
vt 0.462235 0.225985
vt 0.450256 0.219153
vt 0.474213 0.263174
vt 0.474213 0.219153
vt 0.462235 0.225985
vt 0.462235 0.256342
vt 0.460310 0.307196
vt 0.449534 0.307214
vt 0.449972 0.320364
vt 0.460748 0.320346
vt 0.494389 0.320346
vt 0.505165 0.320364
vt 0.505602 0.307214
vt 0.494826 0.307196
vt 0.539243 0.337553
vt 0.550074 0.337553
vt 0.550074 0.307196
vt 0.539243 0.307196
vt 0.449534 0.342244
vt 0.460310 0.342226
vt 0.438704 0.307196
vt 0.427873 0.307196
vt 0.427873 0.351218
vt 0.438704 0.351218
vt 0.496597 0.263174
vt 0.496597 0.219153
vt 0.427873 0.219153
vt 0.427873 0.263174
vt 0.494826 0.342226
vt 0.505602 0.342244
vt 0.513991 0.263174
vt 0.513991 0.307196
vt 0.523300 0.300364
vt 0.523300 0.270007
vt 0.540694 0.263174
vt 0.550003 0.256342
vt 0.550003 0.225985
vt 0.540694 0.219153
vt 0.472399 0.307196
vt 0.471962 0.320347
vt 0.482738 0.320364
vt 0.483175 0.307214
vt 0.539243 0.320346
vt 0.538806 0.307196
vt 0.528030 0.307214
vt 0.528467 0.320364
vt 0.566836 0.249510
vt 0.566836 0.219153
vt 0.558420 0.219153
vt 0.558420 0.249510
vt 0.472399 0.342226
vt 0.483175 0.342244
vt 0.550003 0.219153
vt 0.550003 0.263174
vt 0.558420 0.263174
vt 0.558420 0.219153
vt 0.523300 0.219153
vt 0.523300 0.263174
vt 0.496597 0.263174
vt 0.496597 0.307196
vt 0.528030 0.342244
vt 0.538806 0.342226
vt 0.619239 0.206781
vt 0.619239 0.206781
vt 0.375000 0.000000
vt 0.625000 0.000000
vt 0.625000 0.250000
vt 0.375000 0.250000
vt 0.735710 0.890653
vt 0.735710 0.796628
vt 0.696888 0.811221
vt 0.696888 0.876060
vt 0.578015 0.659755
vt 0.578015 0.703532
vt 0.677735 0.703532
vt 0.677735 0.659755
vt 0.322396 0.659755
vt 0.322396 0.703532
vt 0.422115 0.703532
vt 0.422115 0.659755
vt 0.410817 0.533272
vt 0.410817 0.573182
vt 0.505177 0.573182
vt 0.505177 0.533272
vt 0.655712 0.320058
vt 0.655712 0.236014
vt 0.582985 0.236014
vt 0.582985 0.320058
vt 0.655712 0.213602
vt 0.582985 0.213602
vt 0.649821 0.206781
vt 0.649821 0.357645
vt 0.743064 0.357645
vt 0.743064 0.206781
vt 0.619239 0.357645
vt 0.619239 0.357645
vt 0.649821 0.357645
vt 0.649821 0.397876
vt 0.743064 0.397876
vt 0.743064 0.357645
vt 0.743064 0.121172
vt 0.649821 0.121172
vt 0.649821 0.157896
vt 0.743064 0.157896
vt 0.649821 0.206781
vt 0.743064 0.206781
vt 0.619239 0.157896
vt 0.649821 0.460483
vt 0.743064 0.460483
vt 0.619239 0.121172
vt 0.559132 0.236014
vt 0.559132 0.213602
vt 0.559132 0.347291
vt 0.582985 0.347291
vt 0.559132 0.320058
vt 0.619239 0.397876
vt 0.619239 0.460483
vt 0.655712 0.347291
vt 1.000000 0.500000
vt 1.000000 1.000000
vt 0.916667 1.000000
vt 0.916667 0.500000
vt 0.833333 1.000000
vt 0.833333 0.500000
vt 0.750000 1.000000
vt 0.750000 0.500000
vt 0.666667 1.000000
vt 0.666667 0.500000
vt 0.583333 1.000000
vt 0.583333 0.500000
vt 0.500000 1.000000
vt 0.500000 0.500000
vt 0.416667 1.000000
vt 0.416667 0.500000
vt 0.333333 1.000000
vt 0.333333 0.500000
vt 0.250000 1.000000
vt 0.250000 0.500000
vt 0.166667 1.000000
vt 0.166667 0.500000
vt 0.083333 1.000000
vt 0.083333 0.500000
vt 0.000000 1.000000
vt 0.000000 0.500000
vt 1.000000 0.500000
vt 1.000000 1.000000
vt 0.916667 1.000000
vt 0.916667 0.500000
vt 0.833333 1.000000
vt 0.833333 0.500000
vt 0.750000 1.000000
vt 0.750000 0.500000
vt 0.666667 1.000000
vt 0.666667 0.500000
vt 0.583333 1.000000
vt 0.583333 0.500000
vt 0.500000 1.000000
vt 0.500000 0.500000
vt 0.416667 1.000000
vt 0.416667 0.500000
vt 0.333333 1.000000
vt 0.333333 0.500000
vt 0.250000 1.000000
vt 0.250000 0.500000
vt 0.166667 1.000000
vt 0.166667 0.500000
vt 0.083333 1.000000
vt 0.083333 0.500000
vt 0.000000 1.000000
vt 0.000000 0.500000
vt 1.000000 0.500000
vt 0.916667 0.500000
vt 0.833333 0.500000
vt 0.750000 0.500000
vt 0.666667 0.500000
vt 0.583333 0.500000
vt 0.500000 0.500000
vt 0.416667 0.500000
vt 0.333333 0.500000
vt 0.250000 0.500000
vt 0.166667 0.500000
vt 0.083333 0.500000
vt 0.000000 0.500000
vt 1.000000 0.500000
vt 0.916667 0.500000
vt 0.833333 0.500000
vt 0.750000 0.500000
vt 0.666667 0.500000
vt 0.583333 0.500000
vt 0.500000 0.500000
vt 0.416667 0.500000
vt 0.333333 0.500000
vt 0.250000 0.500000
vt 0.166667 0.500000
vt 0.083333 0.500000
vt 0.000000 0.500000
vn -0.0000 0.4305 -0.9026
vn 0.0000 -0.4305 0.9026
vn 0.8686 -0.4472 -0.2133
vn -0.8686 -0.4472 -0.2133
vn -0.0000 -0.9026 -0.4305
vn 1.0000 0.0000 0.0000
vn 0.0000 1.0000 0.0000
vn 0.0000 -0.3932 0.9195
vn -0.0000 0.4746 -0.8802
vn -1.0000 0.0000 0.0000
vn -0.0000 0.4305 0.9026
vn -0.0000 -0.4305 -0.9026
vn 0.8686 -0.4472 0.2133
vn -0.8686 -0.4472 0.2133
vn -0.0000 -0.9026 0.4305
vn 0.0000 -0.3932 -0.9195
vn -0.0000 0.4746 0.8802
vn 0.0000 -0.1878 -0.9822
vn 0.0000 -0.3519 0.9361
vn 0.0000 -0.3519 -0.9361
vn 0.0000 -1.0000 -0.0000
vn 0.0000 -0.1878 0.9822
vn 0.0000 -0.4177 0.9086
vn 0.0000 -0.1473 0.9891
vn 0.0000 -0.1473 -0.9891
vn 0.0000 -0.4177 -0.9086
vn 0.4021 -0.1535 0.9026
vn 0.4021 -0.1535 -0.9026
vn -0.4021 -0.1535 0.9026
vn -0.4021 -0.1535 -0.9026
vn -0.0000 0.0000 -1.0000
vn 0.0000 -0.5000 -0.8660
vn -0.0000 -0.8660 -0.5000
vn -0.0000 -0.8660 0.5000
vn 0.0000 -0.5000 0.8660
vn 0.0000 -0.0000 1.0000
vn 0.0000 0.5000 0.8660
vn -0.0000 0.8660 0.5000
vn -0.0000 0.8660 -0.5000
vn -0.0000 0.5000 -0.8660
usemtl MI_Trim_01
s off
f 1/1/1 3/2/1 4/3/1 2/4/1
f 6/5/2 7/6/2 8/7/2 5/8/2
f 4/9/3 3/10/3 5/11/3 8/12/3
f 1/13/4 2/14/4 7/15/4 6/16/4
f 2/17/5 4/18/5 8/19/5 7/20/5
f 5/11/6 3/10/6 9/21/6 11/22/6
f 9/23/7 10/24/7 12/25/7 11/26/7
f 6/5/8 5/8/8 11/27/8 12/28/8
f 3/2/9 1/1/9 10/29/9 9/30/9
f 1/13/10 6/16/10 12/31/10 10/32/10
f 13/33/11 14/34/11 16/35/11 15/36/11
f 18/37/12 17/38/12 20/39/12 19/40/12
f 16/41/13 20/42/13 17/43/13 15/44/13
f 13/45/14 18/46/14 19/47/14 14/48/14
f 14/49/15 19/50/15 20/51/15 16/52/15
f 17/43/6 23/53/6 21/54/6 15/44/6
f 21/55/7 23/56/7 24/57/7 22/58/7
f 18/37/16 24/59/16 23/60/16 17/38/16
f 15/36/17 21/61/17 22/62/17 13/33/17
f 13/45/10 22/63/10 24/64/10 18/46/10
f 59/65/18 64/66/18 66/67/18 55/68/18
f 29/69/6 31/70/6 32/71/6 30/72/6
f 34/73/10 35/74/10 36/75/10 33/76/10
f 32/77/19 31/78/19 33/79/19 36/80/19
f 29/81/20 30/82/20 35/83/20 34/84/20
f 30/82/21 32/77/21 36/80/21 35/83/21
f 31/85/7 29/86/7 34/87/7 33/88/7
f 37/89/7 50/90/7 51/91/7 39/92/7
f 39/92/7 51/91/7 54/93/7 25/94/7
f 60/95/21 42/96/21 41/97/21 58/98/21
f 57/99/22 62/100/22 67/101/22 63/102/22
f 61/103/21 40/104/21 26/105/21 45/106/21
f 27/107/23 28/108/23 47/109/23 44/110/23
f 40/104/24 61/103/24 58/98/24 41/97/24
f 56/111/25 38/112/25 42/96/25 60/95/25
f 47/109/21 28/108/21 38/112/21 56/111/21
f 55/68/21 66/67/21 70/113/21 48/114/21
f 54/115/26 45/106/26 26/105/26 25/116/26
f 48/114/23 43/117/23 44/110/23 47/109/23
f 52/118/7 53/119/7 54/93/7 51/91/7
f 43/120/7 49/121/7 50/90/7 44/122/7
f 62/100/27 57/99/27 58/98/27 61/103/27
f 60/95/21 58/98/21 57/99/21 59/65/21
f 56/111/28 60/95/28 59/65/28 55/68/28
f 49/121/7 52/118/7 51/91/7 50/90/7
f 47/109/21 56/111/21 55/68/21 48/114/21
f 61/103/21 45/106/21 46/123/21 62/100/21
f 45/106/26 54/115/26 53/124/26 46/123/26
f 27/125/7 44/122/7 50/90/7 37/89/7
f 46/123/21 68/126/21 67/101/21 62/100/21
f 53/124/26 69/127/26 68/126/26 46/123/26
f 43/117/23 48/114/23 70/113/23 72/128/23
f 53/119/7 52/118/7 65/129/7 69/130/7
f 57/99/21 63/102/21 64/66/21 59/65/21
f 65/129/7 52/118/7 49/121/7 71/131/7
f 71/131/7 49/121/7 43/120/7 72/132/7
f 121/133/1 122/134/1 124/135/1 123/136/1
f 126/137/2 125/138/2 128/139/2 127/140/2
f 124/141/4 128/142/4 125/143/4 123/144/4
f 121/145/3 126/146/3 127/147/3 122/148/3
f 122/149/5 127/150/5 128/151/5 124/152/5
f 125/143/10 131/153/10 129/154/10 123/144/10
f 129/155/7 131/156/7 132/157/7 130/158/7
f 126/137/8 132/159/8 131/160/8 125/138/8
f 123/136/9 129/161/9 130/162/9 121/133/9
f 121/145/6 130/163/6 132/164/6 126/146/6
f 133/165/11 135/166/11 136/167/11 134/168/11
f 138/169/12 139/170/12 140/171/12 137/172/12
f 136/173/14 135/174/14 137/175/14 140/176/14
f 133/177/13 134/178/13 139/179/13 138/180/13
f 134/181/15 136/182/15 140/183/15 139/184/15
f 137/175/10 135/174/10 141/185/10 143/186/10
f 141/187/7 142/188/7 144/189/7 143/190/7
f 138/169/16 137/172/16 143/191/16 144/192/16
f 135/166/17 133/165/17 142/193/17 141/194/17
f 133/177/6 138/180/6 144/195/6 142/196/6
f 179/197/18 175/198/18 66/67/18 64/66/18
f 149/199/10 150/200/10 152/201/10 151/202/10
f 154/203/6 153/204/6 156/205/6 155/206/6
f 152/207/19 156/208/19 153/209/19 151/210/19
f 149/211/20 154/212/20 155/213/20 150/214/20
f 150/214/21 155/213/21 156/208/21 152/207/21
f 151/215/7 153/216/7 154/217/7 149/218/7
f 157/219/7 159/220/7 171/221/7 170/222/7
f 159/220/7 145/223/7 174/224/7 171/221/7
f 180/225/21 178/226/21 161/227/21 162/228/21
f 177/229/22 63/102/22 67/101/22 182/230/22
f 181/231/21 165/232/21 146/233/21 160/234/21
f 147/235/23 164/236/23 167/237/23 148/238/23
f 160/234/24 161/227/24 178/226/24 181/231/24
f 176/239/25 180/225/25 162/228/25 158/240/25
f 167/237/21 176/239/21 158/240/21 148/238/21
f 175/198/21 168/241/21 70/113/21 66/67/21
f 174/242/26 145/243/26 146/233/26 165/232/26
f 168/241/23 167/237/23 164/236/23 163/244/23
f 172/245/7 171/221/7 174/224/7 173/246/7
f 163/247/7 164/248/7 170/222/7 169/249/7
f 182/230/29 181/231/29 178/226/29 177/229/29
f 180/225/21 179/197/21 177/229/21 178/226/21
f 176/239/30 175/198/30 179/197/30 180/225/30
f 169/249/7 170/222/7 171/221/7 172/245/7
f 167/237/21 168/241/21 175/198/21 176/239/21
f 181/231/21 182/230/21 166/250/21 165/232/21
f 165/232/26 166/250/26 173/251/26 174/242/26
f 147/252/7 157/219/7 170/222/7 164/248/7
f 166/250/21 182/230/21 67/101/21 68/126/21
f 173/251/26 166/250/26 68/126/26 69/127/26
f 163/244/23 72/128/23 70/113/23 168/241/23
f 173/246/7 69/130/7 65/129/7 172/245/7
f 177/229/21 179/197/21 64/66/21 63/102/21
f 65/129/7 71/131/7 169/249/7 172/245/7
f 71/131/7 72/132/7 163/247/7 169/249/7
usemtl M_Light
s 1
f 73/253/31 74/254/31 76/255/32 75/256/32
f 75/256/32 76/255/32 78/257/33 77/258/33
f 77/258/33 78/257/33 80/259/21 79/260/21
f 79/260/21 80/259/21 82/261/34 81/262/34
f 81/262/34 82/261/34 84/263/35 83/264/35
f 83/264/35 84/263/35 86/265/36 85/266/36
f 85/266/36 86/265/36 88/267/37 87/268/37
f 87/268/37 88/267/37 90/269/38 89/270/38
f 89/270/38 90/269/38 92/271/7 91/272/7
f 91/272/7 92/271/7 94/273/39 93/274/39
f 93/274/39 94/273/39 96/275/40 95/276/40
f 95/276/40 96/275/40 74/277/31 73/278/31
f 97/279/31 98/280/31 100/281/32 99/282/32
f 99/282/32 100/281/32 102/283/33 101/284/33
f 101/284/33 102/283/33 104/285/21 103/286/21
f 103/286/21 104/285/21 106/287/34 105/288/34
f 105/288/34 106/287/34 108/289/35 107/290/35
f 107/290/35 108/289/35 110/291/36 109/292/36
f 109/292/36 110/291/36 112/293/37 111/294/37
f 111/294/37 112/293/37 114/295/38 113/296/38
f 113/296/38 114/295/38 116/297/7 115/298/7
f 115/298/7 116/297/7 118/299/39 117/300/39
f 117/300/39 118/299/39 120/301/40 119/302/40
f 119/302/40 120/301/40 98/303/31 97/304/31
f 183/305/31 184/306/32 76/255/32 74/254/31
f 184/306/32 185/307/33 78/257/33 76/255/32
f 185/307/33 186/308/21 80/259/21 78/257/33
f 186/308/21 187/309/34 82/261/34 80/259/21
f 187/309/34 188/310/35 84/263/35 82/261/34
f 188/310/35 189/311/36 86/265/36 84/263/35
f 189/311/36 190/312/37 88/267/37 86/265/36
f 190/312/37 191/313/38 90/269/38 88/267/37
f 191/313/38 192/314/7 92/271/7 90/269/38
f 192/314/7 193/315/39 94/273/39 92/271/7
f 193/315/39 194/316/40 96/275/40 94/273/39
f 194/316/40 183/317/31 74/277/31 96/275/40
f 195/318/31 196/319/32 100/281/32 98/280/31
f 196/319/32 197/320/33 102/283/33 100/281/32
f 197/320/33 198/321/21 104/285/21 102/283/33
f 198/321/21 199/322/34 106/287/34 104/285/21
f 199/322/34 200/323/35 108/289/35 106/287/34
f 200/323/35 201/324/36 110/291/36 108/289/35
f 201/324/36 202/325/37 112/293/37 110/291/36
f 202/325/37 203/326/38 114/295/38 112/293/37
f 203/326/38 204/327/7 116/297/7 114/295/38
f 204/327/7 205/328/39 118/299/39 116/297/7
f 205/328/39 206/329/40 120/301/40 118/299/39
f 206/329/40 195/330/31 98/303/31 120/301/40
