# Blender v3.6.0 OBJ File: 'AllModules_Unreal.blend'
# www.blender.org
mtllib Prop_Chest.mtl
o Prop_Chest_Cube.016
v -0.745100 0.003236 0.358186
v -0.745100 0.009545 0.364495
v -0.751409 0.009545 0.358186
v -0.745100 0.005084 0.362647
v -0.748743 0.005902 0.361829
v -0.749562 0.009545 0.362647
v -0.749562 0.005084 0.358186
v -0.745100 0.725917 0.364495
v -0.745100 0.732226 0.358186
v -0.751409 0.725917 0.358186
v -0.745100 0.730378 0.362647
v -0.748743 0.729559 0.361829
v -0.749562 0.730378 0.358186
v -0.749562 0.725917 0.362647
v -0.745100 0.003236 -0.358186
v -0.751409 0.009545 -0.358186
v -0.745100 0.009545 -0.364495
v -0.749562 0.005084 -0.358186
v -0.748743 0.005902 -0.361829
v -0.749562 0.009545 -0.362647
v -0.745100 0.005084 -0.362647
v -0.745100 0.732226 -0.358186
v -0.745100 0.725917 -0.364495
v -0.751409 0.725917 -0.358186
v -0.745100 0.730378 -0.362647
v -0.748743 0.729559 -0.361829
v -0.749562 0.725917 -0.362647
v -0.749562 0.730378 -0.358186
v 0.745100 0.003236 0.358186
v 0.751409 0.009545 0.358186
v 0.745100 0.009545 0.364495
v 0.749562 0.005084 0.358186
v 0.748743 0.005902 0.361829
v 0.749562 0.009545 0.362647
v 0.745100 0.005084 0.362647
v 0.745100 0.732226 0.358186
v 0.745100 0.725917 0.364495
v 0.751409 0.725917 0.358186
v 0.745100 0.730378 0.362647
v 0.748743 0.729559 0.361829
v 0.749562 0.725917 0.362647
v 0.749562 0.730378 0.358186
v 0.745100 0.003236 -0.358186
v 0.745100 0.009545 -0.364495
v 0.751409 0.009545 -0.358186
v 0.745100 0.005084 -0.362647
v 0.748743 0.005902 -0.361829
v 0.749562 0.009545 -0.362647
v 0.749562 0.005084 -0.358186
v 0.745100 0.732226 -0.358186
v 0.751409 0.725917 -0.358186
v 0.745100 0.725917 -0.364495
v 0.749562 0.730378 -0.358186
v 0.748743 0.729559 -0.361829
v 0.749562 0.725917 -0.362647
v 0.745100 0.730378 -0.362647
v -0.745100 0.415547 0.364495
v -0.745100 0.497948 0.364495
v -0.749562 0.415547 0.362647
v -0.749562 0.497948 0.362647
v -0.751409 0.497948 0.358186
v -0.751409 0.415547 0.358186
v -0.745100 0.497948 -0.364495
v -0.745100 0.415547 -0.364495
v -0.749562 0.497948 -0.362647
v -0.749562 0.415547 -0.362647
v -0.751409 0.415547 -0.358186
v -0.751409 0.497948 -0.358186
v 0.751409 0.497948 -0.358186
v 0.751409 0.415547 -0.358186
v 0.749562 0.497948 -0.362647
v 0.749562 0.415547 -0.362647
v 0.745100 0.415547 -0.364495
v 0.745100 0.497948 -0.364495
v 0.745100 0.497948 0.364495
v 0.745100 0.415547 0.364495
v 0.749562 0.497948 0.362647
v 0.749562 0.415547 0.362647
v 0.751409 0.415547 0.358186
v 0.751409 0.497948 0.358186
v -0.727324 0.003236 -0.358186
v 0.727324 0.003236 -0.358186
v 0.727324 0.005084 -0.362647
v -0.727324 0.005084 -0.362647
v -0.727324 0.009545 -0.364495
v 0.727324 0.009545 -0.364495
v -0.727324 0.732226 -0.358186
v 0.727324 0.732226 -0.358186
v -0.727324 0.730378 -0.362647
v 0.727324 0.730378 -0.362647
v 0.727324 0.725917 -0.364495
v -0.727324 0.725917 -0.364495
v 0.727324 0.003236 0.358186
v -0.727324 0.003236 0.358186
v -0.727324 0.005084 0.362647
v 0.727324 0.005084 0.362647
v 0.727324 0.009545 0.364495
v -0.727324 0.009545 0.364495
v 0.727324 0.732226 0.358186
v -0.727324 0.732226 0.358186
v 0.727324 0.730378 0.362647
v -0.727324 0.730378 0.362647
v 0.727324 0.725917 0.364495
v -0.727324 0.725917 0.364495
v -0.727324 0.497948 -0.364495
v 0.727324 0.497948 -0.364495
v 0.667598 0.415547 -0.317340
v -0.667598 0.415547 -0.317340
v 0.727324 0.497948 0.364495
v -0.727324 0.497948 0.364495
v -0.667598 0.415547 0.317340
v 0.667598 0.415547 0.317340
v -0.727324 0.415547 0.364495
v 0.727324 0.415547 0.364495
v 0.727324 0.415547 -0.364495
v -0.727324 0.415547 -0.364495
v -0.667598 0.051130 0.317340
v 0.667598 0.051130 0.317340
v 0.667598 0.051130 -0.317340
v -0.667598 0.051130 -0.317340
v -0.727324 0.732226 -0.358186
v 0.727324 0.732226 -0.358186
v -0.727324 0.730378 -0.362647
v 0.727324 0.730378 -0.362647
v 0.727324 0.725917 -0.364495
v -0.727324 0.725917 -0.364495
v 0.727324 0.732226 0.358186
v -0.727324 0.732226 0.358186
v 0.727324 0.730378 0.362647
v -0.727324 0.730378 0.362647
v 0.727324 0.725917 0.364495
v -0.727324 0.725917 0.364495
v -0.727324 0.448943 -0.364495
v 0.727324 0.448943 -0.364495
v 0.727324 0.415547 -0.364495
v -0.727324 0.415547 -0.364495
v 0.727324 0.448943 0.364495
v -0.727324 0.448943 0.364495
v -0.727324 0.415547 0.364495
v 0.727324 0.415547 0.364495
v -0.111829 0.514025 0.388538
v -0.111829 0.590291 0.388538
v -0.127422 0.509072 0.361322
v -0.127422 0.595244 0.361322
v 0.111829 0.514025 0.388538
v 0.111829 0.590291 0.388538
v 0.127422 0.509072 0.361322
v 0.127422 0.595244 0.361322
v -0.727324 0.702426 -0.325453
v 0.727324 0.702426 -0.325453
v -0.727324 0.700747 -0.329507
v 0.727324 0.700747 -0.329507
v 0.727324 0.696693 -0.331186
v -0.727324 0.696693 -0.331186
v 0.727324 0.702426 0.325453
v -0.727324 0.702426 0.325453
v 0.727324 0.700747 0.329507
v -0.727324 0.700747 0.329507
v 0.727324 0.696693 0.331186
v -0.727324 0.696693 0.331186
v -0.727324 0.440553 -0.331186
v 0.727324 0.440553 -0.331186
v 0.727324 0.414687 -0.331186
v -0.727324 0.414687 -0.331186
v 0.727324 0.440553 0.331186
v -0.727324 0.440553 0.331186
v -0.727324 0.414687 0.331186
v 0.727324 0.414687 0.331186
vt 0.772440 0.145864
vt 0.772440 0.264433
vt 0.774283 0.264433
vt 0.774283 0.145864
vt 0.983493 0.355074
vt 0.983493 0.288498
vt 0.985336 0.288498
vt 0.985336 0.355074
vt 0.774283 0.355074
vt 0.774283 0.288498
vt 0.772440 0.288498
vt 0.772440 0.355074
vt 0.774283 0.145864
vt 0.774283 0.144021
vt 0.772959 0.144281
vt 0.772440 0.145864
vt 0.774283 0.145864
vt 0.774283 0.144021
vt 0.774283 0.355074
vt 0.774283 0.356917
vt 0.773219 0.356917
vt 0.772440 0.355074
vt 0.774283 0.145864
vt 0.772440 0.145864
vt 0.772440 0.144800
vt 0.774283 0.144021
vt 0.774283 0.355074
vt 0.772440 0.356138
vt 0.774283 0.356917
vt 0.774283 0.355074
vt 0.772440 0.355074
vt 0.772440 0.356138
vt 0.774283 0.356917
vt 0.983493 0.145864
vt 0.985336 0.145864
vt 0.985336 0.144800
vt 0.983493 0.144021
vt 0.774283 0.145864
vt 0.774283 0.144021
vt 0.773219 0.144021
vt 0.772440 0.145864
vt 0.774283 0.355074
vt 0.774283 0.356917
vt 0.773219 0.356917
vt 0.772440 0.355074
vt 0.772440 0.356138
vt 0.983493 0.355074
vt 0.983493 0.356917
vt 0.984557 0.356917
vt 0.985336 0.355074
vt 0.983493 0.145864
vt 0.985336 0.145864
vt 0.985336 0.144800
vt 0.983493 0.144021
vt 0.774283 0.145864
vt 0.772440 0.145864
vt 0.772440 0.144800
vt 0.774283 0.144021
vt 0.983493 0.145864
vt 0.984557 0.144021
vt 0.985336 0.145864
vt 0.983493 0.145864
vt 0.983493 0.144021
vt 0.984557 0.144021
vt 0.985336 0.145864
vt 0.983493 0.355074
vt 0.985336 0.355074
vt 0.985336 0.356138
vt 0.983493 0.356917
vt 0.774283 0.355074
vt 0.774283 0.356917
vt 0.773219 0.356917
vt 0.772440 0.355074
vt 0.983493 0.355074
vt 0.983493 0.356917
vt 0.984557 0.356917
vt 0.985336 0.355074
vt 0.983493 0.145864
vt 0.985336 0.145864
vt 0.985336 0.144800
vt 0.983493 0.144021
vt 0.983493 0.145864
vt 0.983493 0.144021
vt 0.984557 0.144021
vt 0.983493 0.355074
vt 0.985336 0.355074
vt 0.985076 0.356397
vt 0.983493 0.356917
vt 0.983493 0.356917
vt 0.983493 0.355074
vt 0.983493 0.264433
vt 0.983493 0.264433
vt 0.774283 0.264433
vt 0.774283 0.288498
vt 0.983493 0.264433
vt 0.985336 0.264433
vt 0.983493 0.288498
vt 0.985336 0.288498
vt 0.772440 0.264433
vt 0.772440 0.288498
vt 0.985336 0.264433
vt 0.983493 0.264433
vt 0.983493 0.288498
vt 0.985336 0.264433
vt 0.985336 0.288498
vt 0.983493 0.288498
vt 0.772440 0.288498
vt 0.774283 0.288498
vt 0.151619 0.409819
vt 0.143105 0.409819
vt 0.143105 0.368013
vt 0.151619 0.368013
vt 0.774283 0.264433
vt 0.772440 0.264433
vt 0.774283 0.264433
vt 0.774283 0.288498
vt 0.856895 0.409819
vt 0.848381 0.409819
vt 0.848381 0.368013
vt 0.856895 0.368013
vt 0.848381 0.368013
vt 0.848381 0.409819
vt 0.151619 0.409819
vt 0.151619 0.368013
vt 0.151619 0.409819
vt 0.151619 0.368013
vt 0.848381 0.368013
vt 0.848381 0.409819
vt 0.848381 0.368013
vt 0.151619 0.368013
vt 0.151619 0.409819
vt 0.848381 0.409819
vt 0.151619 0.409819
vt 0.848381 0.409819
vt 0.848381 0.368013
vt 0.151619 0.368013
vt -0.718451 0.938138
vt -0.718451 0.999850
vt -0.570415 0.999850
vt -0.570415 0.938138
vt 0.997226 0.938138
vt 0.997226 0.999850
vt 1.003930 0.999850
vt 1.003930 0.938138
vt 1.143502 0.938138
vt 1.143502 0.999850
vt 1.152178 0.999850
vt 1.152178 0.938138
vt -0.152179 0.938138
vt -0.152179 0.999850
vt -0.143503 0.999850
vt -0.143503 0.938138
vt 1.570414 0.938138
vt 1.570414 0.999850
vt 1.718451 0.999850
vt 1.718451 0.938138
vt -0.003930 0.938138
vt -0.003930 0.999850
vt 0.002774 0.999850
vt 0.002774 0.938138
vt 1.160854 0.938138
vt 1.160854 0.999850
vt 1.010634 0.938138
vt 1.010634 0.999850
vt 1.327096 0.999850
vt 1.327096 0.938138
vt 1.847050 0.999850
vt 1.847050 0.938138
vt -0.847050 0.938138
vt -0.847050 0.999850
vt -0.327096 0.938138
vt -0.327096 0.999850
vt -0.010633 0.999850
vt -0.010633 0.938138
vt -0.160855 0.999850
vt -0.160855 0.938138
vt -0.441482 0.938138
vt -0.441482 0.999850
vt 1.441482 0.999850
vt 1.441482 0.938138
vt -0.847048 0.938138
vt -0.847048 0.999850
vt 1.847048 0.999850
vt 1.847048 0.938138
vt 0.244189 0.950463
vt 0.250296 0.950463
vt 0.250296 0.952599
vt 0.244189 0.952599
vt 0.244189 0.707974
vt 0.244189 0.845404
vt 0.250296 0.845404
vt 0.250296 0.707974
vt 0.756086 0.845405
vt 0.756086 0.707974
vt 0.749980 0.707974
vt 0.749980 0.845405
vt 0.749980 0.707974
vt 0.756086 0.707974
vt 0.756086 0.705839
vt 0.749980 0.705839
vt 0.749980 0.950463
vt 0.756086 0.950463
vt 0.749980 0.707974
vt 0.749980 0.845404
vt 0.756087 0.845404
vt 0.756086 0.707974
vt 0.244189 0.768521
vt 0.250296 0.768521
vt 0.143403 0.350209
vt 0.143403 0.427376
vt 0.151529 0.427376
vt 0.151529 0.350209
vt 0.244189 0.707974
vt 0.250296 0.707974
vt 0.250296 0.705839
vt 0.244189 0.705839
vt 0.250296 0.845405
vt 0.250296 0.707974
vt 0.244189 0.707974
vt 0.244189 0.845405
vt 0.756086 0.707974
vt 0.749980 0.707974
vt 0.749980 0.705839
vt 0.756086 0.705839
vt 0.756086 0.950463
vt 0.756086 0.873296
vt 0.749980 0.873296
vt 0.749980 0.950463
vt 0.756086 0.705839
vt 0.749980 0.705839
vt 0.342323 0.778169
vt 0.350838 0.778169
vt 0.350838 0.819975
vt 0.342323 0.819975
vt 0.658928 0.847505
vt 0.667442 0.847505
vt 0.667442 0.889311
vt 0.658928 0.889311
vt 0.250296 0.950463
vt 0.250296 0.873297
vt 0.244189 0.873297
vt 0.244189 0.950463
vt 0.749980 0.952599
vt 0.756086 0.952599
vt 0.250296 0.952599
vt 0.244189 0.952599
vt 0.244189 0.950463
vt 0.250296 0.950463
vt 0.756086 0.952599
vt 0.749980 0.952599
vt 0.749980 0.950463
vt 0.756086 0.950463
vt 0.756086 0.707974
vt 0.749980 0.707974
vt 0.250295 0.707974
vt 0.244189 0.707974
vt 0.749980 0.952599
vt 0.756086 0.952599
vt 0.756087 0.950463
vt 0.749980 0.950463
vt 0.250296 0.950463
vt 0.244189 0.950463
vt 0.250296 0.705839
vt 0.244189 0.705839
vt 0.250295 0.950463
vt 0.244189 0.950463
vt 0.244189 0.952599
vt 0.250296 0.952599
vt 0.848874 0.349115
vt 0.848874 0.426282
vt 0.856386 0.426282
vt 0.856386 0.349115
vt 0.250296 0.707974
vt 0.244189 0.707974
vt 0.244189 0.705839
vt 0.250296 0.705839
vt 0.756086 0.950463
vt 0.749980 0.950463
vt 0.749980 0.768521
vt 0.756086 0.768521
vt 0.749980 0.887963
vt 0.749980 0.745084
vt 0.250296 0.745084
vt 0.250295 0.887963
vt 0.749980 0.742948
vt 0.749980 0.745084
vt 0.250295 0.745084
vt 0.250296 0.742948
vt 0.250296 0.742948
vt 0.250296 0.745084
vt 0.749980 0.745084
vt 0.749980 0.742948
vt 0.250296 0.890099
vt 0.749980 0.890099
vt 0.749980 0.768855
vt 0.749980 0.886836
vt 0.250296 0.886836
vt 0.250296 0.768855
vt 0.625459 0.343276
vt 0.358217 0.343276
vt 0.358217 0.343276
vt 0.625459 0.343276
vt 0.632370 0.209333
vt 0.648291 0.209333
vt 0.648291 0.350187
vt 0.632370 0.350187
vt 0.692339 0.209333
vt 0.692339 0.350187
vt 0.291338 0.209333
vt 0.335386 0.209333
vt 0.335386 0.350187
vt 0.291338 0.350187
vt 0.351307 0.209333
vt 0.351307 0.350187
vt 0.625459 0.216244
vt 0.358217 0.216244
vt 0.358217 0.216244
vt 0.625459 0.216244
vt 0.250296 0.873297
vt 0.250296 0.950463
vt 0.749980 0.950463
vt 0.749980 0.873296
vt 0.250296 0.952599
vt 0.250296 0.950463
vt 0.749980 0.950463
vt 0.749980 0.952599
vt 0.250296 0.707974
vt 0.250296 0.705839
vt 0.749980 0.705839
vt 0.749980 0.707974
vt 0.749980 0.952599
vt 0.749980 0.950463
vt 0.250295 0.950463
vt 0.250296 0.952599
vt 0.749980 0.886010
vt 0.749980 0.888146
vt 0.250296 0.888146
vt 0.250296 0.886010
vt 0.749980 0.814389
vt 0.749980 0.891556
vt 0.250295 0.891556
vt 0.250296 0.814389
vt 0.250296 0.768521
vt 0.749980 0.768521
vt 0.203355 0.033101
vt 0.203355 0.057661
vt 0.196789 0.059256
vt 0.196789 0.031506
vt 0.304093 0.059256
vt 0.304093 0.031506
vt 0.297528 0.057661
vt 0.297528 0.033101
vt 0.250296 0.873297
vt 0.749980 0.873296
vt 0.749980 0.950463
vt 0.250296 0.950463
vt 0.250296 0.952599
vt 0.749980 0.952599
vt 0.749980 0.950463
vt 0.250296 0.950463
vt 0.250296 0.707974
vt 0.749980 0.707974
vt 0.749980 0.705839
vt 0.250296 0.705839
vt 0.749980 0.952599
vt 0.250296 0.952599
vt 0.250295 0.950463
vt 0.749980 0.950463
vt 0.749980 0.886010
vt 0.250296 0.886010
vt 0.250296 0.888146
vt 0.749980 0.888146
vt 0.749980 0.873296
vt 0.250296 0.873296
vt 0.250295 0.950463
vt 0.749980 0.950463
vt 0.749980 0.768521
vt 0.250296 0.768521
vn -0.9239 0.0000 0.3826
vn 0.9239 0.0000 -0.3826
vn -0.3827 0.0000 -0.9239
vn -0.3251 -0.8881 0.3250
vn -0.3251 -0.3250 0.8881
vn -0.8881 -0.3250 0.3250
vn -0.3251 0.3250 0.8881
vn -0.3251 0.8881 0.3250
vn -0.8881 0.3250 0.3250
vn -0.3251 -0.8881 -0.3251
vn -0.8881 -0.3250 -0.3250
vn -0.3251 -0.3251 -0.8881
vn -0.3251 0.8881 -0.3250
vn -0.3251 0.3250 -0.8881
vn -0.8881 0.3250 -0.3250
vn 0.3251 -0.8881 0.3251
vn 0.8881 -0.3250 0.3250
vn 0.3251 -0.3251 0.8881
vn 0.3251 0.8881 0.3251
vn 0.3251 0.3251 0.8881
vn 0.8881 0.3250 0.3250
vn 0.3251 -0.8881 -0.3251
vn 0.3251 -0.3251 -0.8881
vn 0.8881 -0.3250 -0.3250
vn 0.3251 0.8881 -0.3251
vn 0.8881 0.3250 -0.3250
vn 0.3251 0.3251 -0.8881
vn -0.3827 -0.9239 0.0000
vn -0.9239 -0.3826 0.0000
vn -1.0000 0.0000 0.0000
vn -0.3827 0.9239 0.0000
vn -0.9239 0.3826 0.0000
vn 1.0000 0.0000 0.0000
vn 0.3827 0.0000 0.9239
vn 0.3827 -0.9239 0.0000
vn 0.9239 -0.3826 0.0000
vn 0.3827 0.9239 0.0000
vn 0.9239 0.3826 0.0000
vn 0.9239 0.0000 0.3826
vn 0.3827 0.0000 -0.9239
vn -0.9239 0.0000 -0.3826
vn 0.0000 0.0000 -1.0000
vn -0.3827 0.0000 0.9239
vn 0.0000 0.0000 1.0000
vn -0.0000 -0.9997 0.0258
vn 0.0000 -0.9997 -0.0258
vn 0.0000 0.9239 -0.3827
vn 0.0000 -0.9239 0.3827
vn 0.0000 -1.0000 0.0000
vn 0.0000 1.0000 0.0000
vn 0.0000 0.9239 0.3827
vn 0.0000 -0.3827 -0.9239
vn 0.0000 -0.9239 -0.3827
vn 0.0000 0.3827 0.9239
vn 0.0000 -0.3827 0.9239
vn 0.0000 0.3827 -0.9239
vn -0.8677 0.0000 0.4971
vn 0.8677 0.0000 0.4971
vn 0.0000 -0.9838 0.1790
vn 0.0000 0.9838 0.1791
usemtl MI_Trim_02
s off
f 6/1/1 59/2/1 62/3/1 3/4/1
f 51/5/2 69/6/2 71/7/2 55/8/2
f 23/9/3 63/10/3 65/11/3 27/12/3
f 1/13/4 4/14/4 5/15/4 7/16/4
f 2/17/5 6/1/5 5/15/5 4/14/5
f 3/4/6 7/18/6 5/15/6 6/1/6
f 8/19/7 11/20/7 12/21/7 14/22/7
f 9/23/8 13/24/8 12/25/8 11/26/8
f 10/27/9 14/22/9 12/28/9 13/29/9
f 15/30/10 18/31/10 19/32/10 21/33/10
f 16/34/11 20/35/11 19/36/11 18/37/11
f 17/38/12 21/39/12 19/40/12 20/41/12
f 22/42/13 25/43/13 26/44/13 28/45/13
f 23/9/14 27/12/14 26/46/14 25/43/14
f 24/47/15 28/48/15 26/49/15 27/50/15
f 29/51/16 32/52/16 33/53/16 35/54/16
f 30/55/17 34/56/17 33/57/17 32/58/17
f 31/59/18 35/54/18 33/60/18 34/61/18
f 36/62/19 39/63/19 40/64/19 42/65/19
f 37/66/20 41/67/20 40/68/20 39/69/20
f 38/70/21 42/71/21 40/72/21 41/73/21
f 43/74/22 46/75/22 47/76/22 49/77/22
f 44/78/23 48/79/23 47/80/23 46/81/23
f 45/82/24 49/83/24 47/84/24 48/79/24
f 50/85/25 53/86/25 54/87/25 56/88/25
f 51/5/26 55/8/26 54/87/26 53/89/26
f 52/90/27 56/88/27 54/87/27 55/8/27
f 15/30/28 1/13/28 7/16/28 18/31/28
f 18/37/29 7/18/29 3/4/29 16/34/29
f 3/4/30 62/3/30 67/91/30 16/34/30
f 9/23/31 22/42/31 28/45/31 13/24/31
f 13/29/32 28/48/32 24/47/32 10/27/32
f 45/82/33 70/92/33 79/93/33 30/55/33
f 69/6/33 51/5/33 38/70/33 80/94/33
f 76/95/34 31/59/34 34/61/34 78/96/34
f 29/51/35 43/74/35 49/77/35 32/52/35
f 32/58/36 49/83/36 45/82/36 30/55/36
f 50/85/37 36/62/37 42/65/37 53/86/37
f 53/89/38 42/71/38 38/70/38 51/5/38
f 37/66/34 75/97/34 77/98/34 41/67/34
f 78/99/39 34/56/39 30/55/39 79/93/39
f 41/73/39 77/100/39 80/94/39 38/70/39
f 72/101/40 48/79/40 44/78/40 73/102/40
f 55/8/40 71/7/40 74/103/40 52/90/40
f 66/104/41 20/35/41 16/34/41 67/91/41
f 27/50/41 65/105/41 68/106/41 24/47/41
f 60/107/1 14/22/1 10/27/1 61/108/1
f 106/109/42 74/110/42 73/111/42 115/112/42
f 64/113/3 17/38/3 20/41/3 66/114/3
f 61/108/30 10/27/30 24/47/30 68/106/30
f 70/92/2 45/82/2 48/79/2 72/101/2
f 2/17/43 57/115/43 59/2/43 6/1/43
f 78/99/39 79/93/39 80/94/39 77/100/39
f 76/95/34 78/96/34 77/98/34 75/97/34
f 72/101/40 73/102/40 74/103/40 71/7/40
f 70/92/2 72/101/2 71/7/2 69/6/2
f 66/104/41 67/91/41 68/106/41 65/105/41
f 64/113/3 66/114/3 65/11/3 63/10/3
f 60/107/1 61/108/1 62/3/1 59/2/1
f 58/116/43 60/107/43 59/2/43 57/115/43
f 63/117/42 105/118/42 116/119/42 64/120/42
f 61/108/30 68/106/30 67/91/30 62/3/30
f 69/6/33 80/94/33 79/93/33 70/92/33
f 58/116/43 8/19/43 14/22/43 60/107/43
f 138/121/44 139/122/44 140/123/44 137/124/44
f 134/125/42 135/126/42 136/127/42 133/128/42
f 166/129/42 165/130/42 168/131/42 167/132/42
f 162/133/44 161/134/44 164/135/44 163/136/44
f 136/137/30 164/138/30 161/139/30 133/140/30
f 122/141/33 150/142/33 152/143/33 124/144/33
f 128/145/30 156/146/30 158/147/30 130/148/30
f 123/149/30 151/150/30 149/151/30 121/152/30
f 138/153/30 166/154/30 167/155/30 139/156/30
f 129/157/33 157/158/33 155/159/33 127/160/33
f 132/161/30 160/162/30 166/154/30 138/153/30
f 125/163/33 153/164/33 162/165/33 134/166/33
f 139/167/45 167/168/45 168/169/45 140/170/45
f 137/171/33 165/172/33 159/173/33 131/174/33
f 133/140/30 161/139/30 154/175/30 126/176/30
f 140/177/33 168/178/33 165/172/33 137/171/33
f 124/144/33 152/143/33 153/164/33 125/163/33
f 121/152/30 149/151/30 156/146/30 128/145/30
f 130/148/30 158/147/30 160/162/30 132/161/30
f 127/160/33 155/159/33 150/142/33 122/141/33
f 134/166/33 162/165/33 163/179/33 135/180/33
f 126/176/30 154/175/30 151/150/30 123/149/30
f 131/174/33 159/173/33 157/158/33 129/157/33
f 135/181/46 163/182/46 164/183/46 136/184/46
usemtl MI_Trim_01
f 22/185/47 87/186/47 89/187/47 25/188/47
f 17/189/42 64/190/42 116/191/42 85/192/42
f 31/193/44 76/194/44 114/195/44 97/196/44
f 93/197/48 29/198/48 35/199/48 96/200/48
f 82/201/49 43/202/49 29/198/49 93/197/49
f 86/203/42 115/204/42 73/205/42 44/206/42
f 87/186/50 22/185/50 9/207/50 100/208/50
f 63/209/42 23/210/42 92/211/42 105/212/42
f 1/213/48 94/214/48 95/215/48 4/216/48
f 98/217/44 113/218/44 57/219/44 2/220/44
f 36/221/51 99/222/51 101/223/51 39/224/51
f 75/225/44 37/226/44 103/227/44 109/228/44
f 46/229/52 83/230/52 86/203/52 44/206/52
f 75/231/44 109/232/44 114/233/44 76/234/44
f 110/235/44 58/236/44 57/237/44 113/238/44
f 110/239/44 104/240/44 8/241/44 58/242/44
f 43/202/53 82/201/53 83/243/53 46/244/53
f 102/245/54 11/246/54 8/247/54 104/248/54
f 39/249/54 101/250/54 103/251/54 37/252/54
f 96/200/55 35/199/55 31/253/55 97/254/55
f 4/216/55 95/215/55 98/255/55 2/256/55
f 90/257/56 56/258/56 52/259/56 91/260/56
f 25/188/56 89/187/56 92/261/56 23/262/56
f 84/263/52 21/264/52 17/189/52 85/192/52
f 81/265/53 15/266/53 21/267/53 84/268/53
f 106/269/42 91/270/42 52/271/42 74/272/42
f 100/273/51 9/274/51 11/275/51 102/276/51
f 50/277/50 88/278/50 99/279/50 36/280/50
f 88/278/47 50/277/47 56/258/47 90/257/47
f 82/281/49 93/282/49 94/283/49 81/284/49
f 96/285/55 97/286/55 98/287/55 95/288/55
f 93/282/48 96/285/48 95/288/48 94/283/48
f 84/289/52 85/290/52 86/291/52 83/292/52
f 81/284/53 84/293/53 83/294/53 82/281/53
f 113/218/44 98/217/44 97/196/44 114/195/44
f 115/295/42 86/296/42 85/297/42 116/298/42
f 15/266/49 81/265/49 94/214/49 1/213/49
f 111/299/42 112/300/42 118/301/42 117/302/42
f 116/303/33 105/304/33 110/305/33 113/306/33
f 105/304/33 92/307/33 104/308/33 110/305/33
f 92/261/33 89/187/33 102/245/33 104/248/33
f 89/187/33 87/186/33 100/273/33 102/276/33
f 88/278/30 90/257/30 101/223/30 99/222/30
f 90/257/30 91/260/30 103/251/30 101/250/30
f 91/309/30 106/310/30 109/311/30 103/312/30
f 106/310/30 115/313/30 114/314/30 109/311/30
f 112/300/50 111/299/50 113/306/50 114/314/50
f 108/315/50 107/316/50 115/313/50 116/303/50
f 111/299/50 108/315/50 116/303/50 113/306/50
f 107/316/50 112/300/50 114/314/50 115/313/50
f 117/302/50 118/301/50 119/317/50 120/318/50
f 112/300/30 107/316/30 119/317/30 118/301/30
f 107/316/44 108/315/44 120/318/44 119/317/44
f 108/315/33 111/299/33 117/302/33 120/318/33
f 132/319/44 138/320/44 137/321/44 131/322/44
f 130/323/54 132/324/54 131/325/54 129/326/54
f 128/327/51 130/328/51 129/329/51 127/330/51
f 124/331/56 125/332/56 126/333/56 123/334/56
f 122/335/47 124/336/47 123/337/47 121/338/47
f 125/339/42 134/340/42 133/341/42 126/342/42
f 121/338/50 128/343/50 127/344/50 122/335/50
f 141/345/57 142/346/57 144/347/57 143/348/57
f 143/348/42 144/347/42 148/349/42 147/350/42
f 147/350/58 148/349/58 146/351/58 145/352/58
f 145/352/44 146/351/44 142/346/44 141/345/44
f 143/348/59 147/350/59 145/352/59 141/345/59
f 148/349/60 144/347/60 142/346/60 146/351/60
f 160/353/42 159/354/42 165/355/42 166/356/42
f 158/357/52 157/358/52 159/359/52 160/360/52
f 156/361/53 155/362/53 157/363/53 158/364/53
f 152/365/55 151/366/55 154/367/55 153/368/55
f 150/369/48 149/370/48 151/371/48 152/372/48
f 153/373/44 154/374/44 161/375/44 162/376/44
f 149/370/49 150/369/49 155/377/49 156/378/49
