{
	"asset":{
		"generator":"Khronos glTF Blender I/O v4.0.44",
		"version":"2.0"
	},
	"extensionsUsed":[
		"KHR_materials_specular",
		"KHR_materials_ior"
	],
	"scene":0,
	"scenes":[
		{
			"name":"Scene",
			"nodes":[
				0
			]
		}
	],
	"nodes":[
		{
			"mesh":0,
			"name":"Prop_AccessPoint"
		}
	],
	"materials":[
		{
			"doubleSided":true,
			"name":"M_Decal_Screen",
			"pbrMetallicRoughness":{
				"baseColorTexture":{
					"index":0
				},
				"metallicFactor":0,
				"roughnessFactor":0.5
			}
		},
		{
			"doubleSided":true,
			"extensions":{
				"KHR_materials_specular":{
					"specularFactor":0
				},
				"KHR_materials_ior":{
					"ior":1.4500000476837158
				}
			},
			"name":"MI_Trim_01",
			"normalTexture":{
				"index":1
			},
			"pbrMetallicRoughness":{
				"baseColorTexture":{
					"index":2
				},
				"metallicRoughnessTexture":{
					"index":3
				}
			}
		},
		{
			"doubleSided":true,
			"name":"M_Black",
			"pbrMetallicRoughness":{
				"baseColorFactor":[
					0.0057737254537642,
					0.0057737254537642,
					0.0057737254537642,
					1
				],
				"metallicFactor":0,
				"roughnessFactor":0.5
			}
		},
		{
			"doubleSided":true,
			"name":"M_LightFade_Red",
			"pbrMetallicRoughness":{
				"baseColorFactor":[
					0.800000011920929,
					0.800000011920929,
					0.800000011920929,
					1
				],
				"metallicFactor":0,
				"roughnessFactor":0.5
			}
		}
	],
	"meshes":[
		{
			"name":"Plane.136",
			"primitives":[
				{
					"attributes":{
						"COLOR_0":0,
						"POSITION":1,
						"NORMAL":2,
						"TEXCOORD_0":3
					},
					"indices":4,
					"material":0
				},
				{
					"attributes":{
						"COLOR_0":5,
						"POSITION":6,
						"NORMAL":7,
						"TEXCOORD_0":8
					},
					"indices":9,
					"material":1
				},
				{
					"attributes":{
						"COLOR_0":10,
						"POSITION":11,
						"NORMAL":12,
						"TEXCOORD_0":13
					},
					"indices":14,
					"material":2
				},
				{
					"attributes":{
						"COLOR_0":15,
						"POSITION":16,
						"NORMAL":17,
						"TEXCOORD_0":18
					},
					"indices":19,
					"material":3
				}
			]
		}
	],
	"textures":[
		{
			"sampler":0,
			"source":0
		},
		{
			"sampler":0,
			"source":1
		},
		{
			"sampler":0,
			"source":2
		},
		{
			"sampler":0,
			"source":3
		}
	],
	"images":[
		{
			"mimeType":"image/png",
			"name":"T_Decals",
			"uri":"T_Decals.png"
		},
		{
			"mimeType":"image/png",
			"name":"T_Trim_01_Normal",
			"uri":"T_Trim_01_Normal.png"
		},
		{
			"mimeType":"image/png",
			"name":"T_Trim_01_BaseColor_Red",
			"uri":"T_Trim_01_BaseColor_Red.png"
		},
		{
			"mimeType":"image/png",
			"name":"T_Trim_01_ORM",
			"uri":"T_Trim_01_ORM.png"
		}
	],
	"accessors":[
		{
			"bufferView":0,
			"componentType":5123,
			"count":256,
			"normalized":true,
			"type":"VEC4"
		},
		{
			"bufferView":1,
			"componentType":5126,
			"count":256,
			"max":[
				0.13552112877368927,
				1.4897878170013428,
				0.5478195548057556
			],
			"min":[
				-0.13552115857601166,
				1.1762800216674805,
				0.2343115210533142
			],
			"type":"VEC3"
		},
		{
			"bufferView":2,
			"componentType":5126,
			"count":256,
			"type":"VEC3"
		},
		{
			"bufferView":3,
			"componentType":5126,
			"count":256,
			"type":"VEC2"
		},
		{
			"bufferView":4,
			"componentType":5123,
			"count":702,
			"type":"SCALAR"
		},
		{
			"bufferView":5,
			"componentType":5123,
			"count":328,
			"normalized":true,
			"type":"VEC4"
		},
		{
			"bufferView":6,
			"componentType":5126,
			"count":328,
			"max":[
				0.2205847054719925,
				1.494570016860962,
				0.5526018142700195
			],
			"min":[
				-0.22058458626270294,
				1.111771821975708,
				-0.6572960615158081
			],
			"type":"VEC3"
		},
		{
			"bufferView":7,
			"componentType":5126,
			"count":328,
			"type":"VEC3"
		},
		{
			"bufferView":8,
			"componentType":5126,
			"count":328,
			"type":"VEC2"
		},
		{
			"bufferView":9,
			"componentType":5123,
			"count":1008,
			"type":"SCALAR"
		},
		{
			"bufferView":10,
			"componentType":5123,
			"count":102,
			"normalized":true,
			"type":"VEC4"
		},
		{
			"bufferView":11,
			"componentType":5126,
			"count":102,
			"max":[
				0.14370359480381012,
				1.494570016860962,
				0.5526018142700195
			],
			"min":[
				-0.1437036097049713,
				1.1714977025985718,
				0.22952929139137268
			],
			"type":"VEC3"
		},
		{
			"bufferView":12,
			"componentType":5126,
			"count":102,
			"type":"VEC3"
		},
		{
			"bufferView":13,
			"componentType":5126,
			"count":102,
			"type":"VEC2"
		},
		{
			"bufferView":14,
			"componentType":5123,
			"count":300,
			"type":"SCALAR"
		},
		{
			"bufferView":15,
			"componentType":5123,
			"count":68,
			"normalized":true,
			"type":"VEC4"
		},
		{
			"bufferView":16,
			"componentType":5126,
			"count":68,
			"max":[
				0.1745052933692932,
				1.5796658992767334,
				0.6389661431312561
			],
			"min":[
				-0.1745053231716156,
				1.1816967725753784,
				0.23972854018211365
			],
			"type":"VEC3"
		},
		{
			"bufferView":17,
			"componentType":5126,
			"count":68,
			"type":"VEC3"
		},
		{
			"bufferView":18,
			"componentType":5126,
			"count":68,
			"type":"VEC2"
		},
		{
			"bufferView":19,
			"componentType":5123,
			"count":204,
			"type":"SCALAR"
		}
	],
	"bufferViews":[
		{
			"buffer":0,
			"byteLength":2048,
			"byteOffset":0,
			"target":34962
		},
		{
			"buffer":0,
			"byteLength":3072,
			"byteOffset":2048,
			"target":34962
		},
		{
			"buffer":0,
			"byteLength":3072,
			"byteOffset":5120,
			"target":34962
		},
		{
			"buffer":0,
			"byteLength":2048,
			"byteOffset":8192,
			"target":34962
		},
		{
			"buffer":0,
			"byteLength":1404,
			"byteOffset":10240,
			"target":34963
		},
		{
			"buffer":0,
			"byteLength":2624,
			"byteOffset":11644,
			"target":34962
		},
		{
			"buffer":0,
			"byteLength":3936,
			"byteOffset":14268,
			"target":34962
		},
		{
			"buffer":0,
			"byteLength":3936,
			"byteOffset":18204,
			"target":34962
		},
		{
			"buffer":0,
			"byteLength":2624,
			"byteOffset":22140,
			"target":34962
		},
		{
			"buffer":0,
			"byteLength":2016,
			"byteOffset":24764,
			"target":34963
		},
		{
			"buffer":0,
			"byteLength":816,
			"byteOffset":26780,
			"target":34962
		},
		{
			"buffer":0,
			"byteLength":1224,
			"byteOffset":27596,
			"target":34962
		},
		{
			"buffer":0,
			"byteLength":1224,
			"byteOffset":28820,
			"target":34962
		},
		{
			"buffer":0,
			"byteLength":816,
			"byteOffset":30044,
			"target":34962
		},
		{
			"buffer":0,
			"byteLength":600,
			"byteOffset":30860,
			"target":34963
		},
		{
			"buffer":0,
			"byteLength":544,
			"byteOffset":31460,
			"target":34962
		},
		{
			"buffer":0,
			"byteLength":816,
			"byteOffset":32004,
			"target":34962
		},
		{
			"buffer":0,
			"byteLength":816,
			"byteOffset":32820,
			"target":34962
		},
		{
			"buffer":0,
			"byteLength":544,
			"byteOffset":33636,
			"target":34962
		},
		{
			"buffer":0,
			"byteLength":408,
			"byteOffset":34180,
			"target":34963
		}
	],
	"samplers":[
		{
			"magFilter":9729,
			"minFilter":9987
		}
	],
	"buffers":[
		{
			"byteLength":34588,
			"uri":"Prop_AccessPoint.bin"
		}
	]
}
