{
	"asset":{
		"generator":"Khronos glTF Blender I/O v4.0.44",
		"version":"2.0"
	},
	"extensionsUsed":[
		"KHR_materials_specular",
		"KHR_materials_ior"
	],
	"scene":0,
	"scenes":[
		{
			"name":"Scene",
			"nodes":[
				0
			]
		}
	],
	"nodes":[
		{
			"mesh":0,
			"name":"Column_Pipes"
		}
	],
	"materials":[
		{
			"doubleSided":true,
			"extensions":{
				"KHR_materials_specular":{
					"specularFactor":0
				},
				"KHR_materials_ior":{
					"ior":1.4500000476837158
				}
			},
			"name":"MI_Trim_01",
			"normalTexture":{
				"index":0
			},
			"pbrMetallicRoughness":{
				"baseColorTexture":{
					"index":1
				},
				"metallicRoughnessTexture":{
					"index":2
				}
			}
		},
		{
			"doubleSided":true,
			"name":"MI_Trim_02",
			"normalTexture":{
				"index":3
			},
			"pbrMetallicRoughness":{
				"baseColorTexture":{
					"index":4
				},
				"metallicRoughnessTexture":{
					"index":5
				}
			}
		},
		{
			"doubleSided":true,
			"extensions":{
				"KHR_materials_specular":{
					"specularFactor":0
				},
				"KHR_materials_ior":{
					"ior":1.4500000476837158
				}
			},
			"name":"MI_PaddedWall",
			"normalTexture":{
				"index":6
			},
			"pbrMetallicRoughness":{
				"baseColorTexture":{
					"index":7
				},
				"metallicRoughnessTexture":{
					"index":8
				}
			}
		}
	],
	"meshes":[
		{
			"name":"Cylinder.032",
			"primitives":[
				{
					"attributes":{
						"POSITION":0,
						"NORMAL":1,
						"TEXCOORD_0":2
					},
					"indices":3,
					"material":0
				},
				{
					"attributes":{
						"POSITION":4,
						"NORMAL":5,
						"TEXCOORD_0":6
					},
					"indices":7,
					"material":1
				},
				{
					"attributes":{
						"POSITION":8,
						"NORMAL":9,
						"TEXCOORD_0":10
					},
					"indices":11,
					"material":2
				}
			]
		}
	],
	"textures":[
		{
			"sampler":0,
			"source":0
		},
		{
			"sampler":0,
			"source":1
		},
		{
			"sampler":0,
			"source":2
		},
		{
			"sampler":0,
			"source":3
		},
		{
			"sampler":0,
			"source":4
		},
		{
			"sampler":0,
			"source":5
		},
		{
			"sampler":0,
			"source":6
		},
		{
			"sampler":0,
			"source":7
		},
		{
			"sampler":0,
			"source":8
		}
	],
	"images":[
		{
			"mimeType":"image/png",
			"name":"T_Trim_01_Normal",
			"uri":"T_Trim_01_Normal.png"
		},
		{
			"mimeType":"image/png",
			"name":"T_Trim_01_BaseColor_Red",
			"uri":"T_Trim_01_BaseColor_Red.png"
		},
		{
			"mimeType":"image/png",
			"name":"T_Trim_01_ORM",
			"uri":"T_Trim_01_ORM.png"
		},
		{
			"mimeType":"image/png",
			"name":"T_Trim_02_Normal",
			"uri":"T_Trim_02_Normal.png"
		},
		{
			"mimeType":"image/png",
			"name":"T_Trim_02_BaseColor_Red",
			"uri":"T_Trim_02_BaseColor_Red.png"
		},
		{
			"mimeType":"image/png",
			"name":"T_Trim_02_ORM",
			"uri":"T_Trim_02_ORM.png"
		},
		{
			"mimeType":"image/png",
			"name":"T_PaddedWall_Normal",
			"uri":"T_PaddedWall_Normal.png"
		},
		{
			"mimeType":"image/png",
			"name":"T_PaddedWall_BaseColor",
			"uri":"T_PaddedWall_BaseColor.png"
		},
		{
			"mimeType":"image/png",
			"name":"T_PaddedWall_ORM",
			"uri":"T_PaddedWall_ORM.png"
		}
	],
	"accessors":[
		{
			"bufferView":0,
			"componentType":5126,
			"count":1180,
			"max":[
				0.37672102451324463,
				5,
				0.36075523495674133
			],
			"min":[
				-0.37672102451324463,
				-2.384185791015625e-07,
				-0.36075523495674133
			],
			"type":"VEC3"
		},
		{
			"bufferView":1,
			"componentType":5126,
			"count":1180,
			"type":"VEC3"
		},
		{
			"bufferView":2,
			"componentType":5126,
			"count":1180,
			"type":"VEC2"
		},
		{
			"bufferView":3,
			"componentType":5123,
			"count":3456,
			"type":"SCALAR"
		},
		{
			"bufferView":4,
			"componentType":5126,
			"count":3184,
			"max":[
				0.43731409311294556,
				5,
				0.43731409311294556
			],
			"min":[
				-0.43731409311294556,
				-1.9416149791128142e-16,
				-0.43731409311294556
			],
			"type":"VEC3"
		},
		{
			"bufferView":5,
			"componentType":5126,
			"count":3184,
			"type":"VEC3"
		},
		{
			"bufferView":6,
			"componentType":5126,
			"count":3184,
			"type":"VEC2"
		},
		{
			"bufferView":7,
			"componentType":5123,
			"count":8976,
			"type":"SCALAR"
		},
		{
			"bufferView":8,
			"componentType":5126,
			"count":2176,
			"max":[
				0.43731409311294556,
				5,
				0.43731409311294556
			],
			"min":[
				-0.43731409311294556,
				-1.9416149791128142e-16,
				-0.43731409311294556
			],
			"type":"VEC3"
		},
		{
			"bufferView":9,
			"componentType":5126,
			"count":2176,
			"type":"VEC3"
		},
		{
			"bufferView":10,
			"componentType":5126,
			"count":2176,
			"type":"VEC2"
		},
		{
			"bufferView":11,
			"componentType":5123,
			"count":7008,
			"type":"SCALAR"
		}
	],
	"bufferViews":[
		{
			"buffer":0,
			"byteLength":14160,
			"byteOffset":0,
			"target":34962
		},
		{
			"buffer":0,
			"byteLength":14160,
			"byteOffset":14160,
			"target":34962
		},
		{
			"buffer":0,
			"byteLength":9440,
			"byteOffset":28320,
			"target":34962
		},
		{
			"buffer":0,
			"byteLength":6912,
			"byteOffset":37760,
			"target":34963
		},
		{
			"buffer":0,
			"byteLength":38208,
			"byteOffset":44672,
			"target":34962
		},
		{
			"buffer":0,
			"byteLength":38208,
			"byteOffset":82880,
			"target":34962
		},
		{
			"buffer":0,
			"byteLength":25472,
			"byteOffset":121088,
			"target":34962
		},
		{
			"buffer":0,
			"byteLength":17952,
			"byteOffset":146560,
			"target":34963
		},
		{
			"buffer":0,
			"byteLength":26112,
			"byteOffset":164512,
			"target":34962
		},
		{
			"buffer":0,
			"byteLength":26112,
			"byteOffset":190624,
			"target":34962
		},
		{
			"buffer":0,
			"byteLength":17408,
			"byteOffset":216736,
			"target":34962
		},
		{
			"buffer":0,
			"byteLength":14016,
			"byteOffset":234144,
			"target":34963
		}
	],
	"samplers":[
		{
			"magFilter":9729,
			"minFilter":9987
		}
	],
	"buffers":[
		{
			"byteLength":248160,
			"uri":"Column_Pipes.bin"
		}
	]
}
