{
	"asset":{
		"generator":"Khronos glTF Blender I/O v4.0.44",
		"version":"2.0"
	},
	"scene":0,
	"scenes":[
		{
			"name":"Scene",
			"nodes":[
				0
			]
		}
	],
	"nodes":[
		{
			"mesh":0,
			"name":"BottomSimple_Corner_Round_Outer"
		}
	],
	"materials":[
		{
			"doubleSided":true,
			"name":"MI_Trim_03_Dark",
			"normalTexture":{
				"index":0
			},
			"pbrMetallicRoughness":{
				"baseColorTexture":{
					"index":1
				},
				"metallicRoughnessTexture":{
					"index":2
				}
			}
		}
	],
	"meshes":[
		{
			"name":"Plane.170",
			"primitives":[
				{
					"attributes":{
						"POSITION":0,
						"NORMAL":1,
						"TEXCOORD_0":2
					},
					"indices":3,
					"material":0
				}
			]
		}
	],
	"textures":[
		{
			"sampler":0,
			"source":0
		},
		{
			"sampler":0,
			"source":1
		},
		{
			"sampler":0,
			"source":2
		}
	],
	"images":[
		{
			"mimeType":"image/png",
			"name":"T_Trim_03_Normal",
			"uri":"T_Trim_03_Normal.png"
		},
		{
			"mimeType":"image/png",
			"name":"T_Trim_03_Cables",
			"uri":"T_Trim_03_Cables.png"
		},
		{
			"mimeType":"image/png",
			"name":"T_Trim_03_ORM",
			"uri":"T_Trim_03_ORM.png"
		}
	],
	"accessors":[
		{
			"bufferView":0,
			"componentType":5126,
			"count":162,
			"max":[
				2.753304215730168e-07,
				0.020000457763671875,
				-1.890683051897213e-05
			],
			"min":[
				-4.600003242492676,
				-8.344650268554688e-07,
				-4.600000381469727
			],
			"type":"VEC3"
		},
		{
			"bufferView":1,
			"componentType":5126,
			"count":162,
			"type":"VEC3"
		},
		{
			"bufferView":2,
			"componentType":5126,
			"count":162,
			"type":"VEC2"
		},
		{
			"bufferView":3,
			"componentType":5123,
			"count":480,
			"type":"SCALAR"
		}
	],
	"bufferViews":[
		{
			"buffer":0,
			"byteLength":1944,
			"byteOffset":0,
			"target":34962
		},
		{
			"buffer":0,
			"byteLength":1944,
			"byteOffset":1944,
			"target":34962
		},
		{
			"buffer":0,
			"byteLength":1296,
			"byteOffset":3888,
			"target":34962
		},
		{
			"buffer":0,
			"byteLength":960,
			"byteOffset":5184,
			"target":34963
		}
	],
	"samplers":[
		{
			"magFilter":9729,
			"minFilter":9987
		}
	],
	"buffers":[
		{
			"byteLength":6144,
			"uri":"BottomSimple_Corner_Round_Outer.bin"
		}
	]
}
