{
	"asset":{
		"generator":"Khronos glTF Blender I/O v4.0.44",
		"version":"2.0"
	},
	"extensionsUsed":[
		"KHR_materials_specular",
		"KHR_materials_ior"
	],
	"scene":0,
	"scenes":[
		{
			"name":"Scene",
			"nodes":[
				0
			]
		}
	],
	"nodes":[
		{
			"mesh":0,
			"name":"TopPlastic_Corner_Round_Outer"
		}
	],
	"materials":[
		{
			"doubleSided":true,
			"name":"MI_Trim_02",
			"normalTexture":{
				"index":0
			},
			"pbrMetallicRoughness":{
				"baseColorTexture":{
					"index":1
				},
				"metallicRoughnessTexture":{
					"index":2
				}
			}
		},
		{
			"doubleSided":true,
			"extensions":{
				"KHR_materials_specular":{
					"specularFactor":0
				},
				"KHR_materials_ior":{
					"ior":1.4500000476837158
				}
			},
			"name":"MI_Trim_01",
			"normalTexture":{
				"index":3
			},
			"pbrMetallicRoughness":{
				"baseColorTexture":{
					"index":4
				},
				"metallicRoughnessTexture":{
					"index":5
				}
			}
		},
		{
			"doubleSided":true,
			"name":"MI_Trim_02_Variation",
			"pbrMetallicRoughness":{}
		}
	],
	"meshes":[
		{
			"name":"Plane.070",
			"primitives":[
				{
					"attributes":{
						"POSITION":0,
						"NORMAL":1,
						"TEXCOORD_0":2
					},
					"indices":3,
					"material":0
				},
				{
					"attributes":{
						"POSITION":4,
						"NORMAL":5,
						"TEXCOORD_0":6
					},
					"indices":7,
					"material":1
				},
				{
					"attributes":{
						"POSITION":8,
						"NORMAL":9,
						"TEXCOORD_0":10
					},
					"indices":11,
					"material":2
				}
			]
		}
	],
	"textures":[
		{
			"sampler":0,
			"source":0
		},
		{
			"sampler":0,
			"source":1
		},
		{
			"sampler":0,
			"source":2
		},
		{
			"sampler":0,
			"source":3
		},
		{
			"sampler":0,
			"source":4
		},
		{
			"sampler":0,
			"source":5
		}
	],
	"images":[
		{
			"mimeType":"image/png",
			"name":"T_Trim_02_Normal",
			"uri":"T_Trim_02_Normal.png"
		},
		{
			"mimeType":"image/png",
			"name":"T_Trim_02_BaseColor_Red",
			"uri":"T_Trim_02_BaseColor_Red.png"
		},
		{
			"mimeType":"image/png",
			"name":"T_Trim_02_ORM",
			"uri":"T_Trim_02_ORM.png"
		},
		{
			"mimeType":"image/png",
			"name":"T_Trim_01_Normal",
			"uri":"T_Trim_01_Normal.png"
		},
		{
			"mimeType":"image/png",
			"name":"T_Trim_01_BaseColor_Red",
			"uri":"T_Trim_01_BaseColor_Red.png"
		},
		{
			"mimeType":"image/png",
			"name":"T_Trim_01_ORM",
			"uri":"T_Trim_01_ORM.png"
		}
	],
	"accessors":[
		{
			"bufferView":0,
			"componentType":5126,
			"count":72,
			"max":[
				1.4821793001829064e-06,
				3.5000007152557373,
				-2.224610398116056e-05
			],
			"min":[
				-4.000000476837158,
				3,
				-4
			],
			"type":"VEC3"
		},
		{
			"bufferView":1,
			"componentType":5126,
			"count":72,
			"type":"VEC3"
		},
		{
			"bufferView":2,
			"componentType":5126,
			"count":72,
			"type":"VEC2"
		},
		{
			"bufferView":3,
			"componentType":5123,
			"count":192,
			"type":"SCALAR"
		},
		{
			"bufferView":4,
			"componentType":5126,
			"count":81,
			"max":[
				1.5735154192952905e-06,
				3.5177481174468994,
				-2.224765376013238e-05
			],
			"min":[
				-4.097383499145508,
				3.499999523162842,
				-4.09738302230835
			],
			"type":"VEC3"
		},
		{
			"bufferView":5,
			"componentType":5126,
			"count":81,
			"type":"VEC3"
		},
		{
			"bufferView":6,
			"componentType":5126,
			"count":81,
			"type":"VEC2"
		},
		{
			"bufferView":7,
			"componentType":5123,
			"count":204,
			"type":"SCALAR"
		},
		{
			"bufferView":8,
			"componentType":5126,
			"count":400,
			"max":[
				1.7268174588025431e-06,
				5.017747402191162,
				-2.2741880457033403e-05
			],
			"min":[
				-4.567863464355469,
				3.499999761581421,
				-4.567863464355469
			],
			"type":"VEC3"
		},
		{
			"bufferView":9,
			"componentType":5126,
			"count":400,
			"type":"VEC3"
		},
		{
			"bufferView":10,
			"componentType":5126,
			"count":400,
			"type":"VEC2"
		},
		{
			"bufferView":11,
			"componentType":5123,
			"count":1296,
			"type":"SCALAR"
		}
	],
	"bufferViews":[
		{
			"buffer":0,
			"byteLength":864,
			"byteOffset":0,
			"target":34962
		},
		{
			"buffer":0,
			"byteLength":864,
			"byteOffset":864,
			"target":34962
		},
		{
			"buffer":0,
			"byteLength":576,
			"byteOffset":1728,
			"target":34962
		},
		{
			"buffer":0,
			"byteLength":384,
			"byteOffset":2304,
			"target":34963
		},
		{
			"buffer":0,
			"byteLength":972,
			"byteOffset":2688,
			"target":34962
		},
		{
			"buffer":0,
			"byteLength":972,
			"byteOffset":3660,
			"target":34962
		},
		{
			"buffer":0,
			"byteLength":648,
			"byteOffset":4632,
			"target":34962
		},
		{
			"buffer":0,
			"byteLength":408,
			"byteOffset":5280,
			"target":34963
		},
		{
			"buffer":0,
			"byteLength":4800,
			"byteOffset":5688,
			"target":34962
		},
		{
			"buffer":0,
			"byteLength":4800,
			"byteOffset":10488,
			"target":34962
		},
		{
			"buffer":0,
			"byteLength":3200,
			"byteOffset":15288,
			"target":34962
		},
		{
			"buffer":0,
			"byteLength":2592,
			"byteOffset":18488,
			"target":34963
		}
	],
	"samplers":[
		{
			"magFilter":9729,
			"minFilter":9987
		}
	],
	"buffers":[
		{
			"byteLength":21080,
			"uri":"TopPlastic_Corner_Round_Outer.bin"
		}
	]
}
