{
	"asset":{
		"generator":"Khronos glTF Blender I/O v4.0.44",
		"version":"2.0"
	},
	"extensionsUsed":[
		"KHR_materials_specular",
		"KHR_materials_ior"
	],
	"scene":0,
	"scenes":[
		{
			"name":"Scene",
			"nodes":[
				0
			]
		}
	],
	"nodes":[
		{
			"mesh":0,
			"name":"WallAstra_Corner_Round_Inner"
		}
	],
	"materials":[
		{
			"doubleSided":true,
			"name":"MI_Trim_03",
			"normalTexture":{
				"index":0
			},
			"pbrMetallicRoughness":{
				"baseColorTexture":{
					"index":1
				},
				"metallicRoughnessTexture":{
					"index":2
				}
			}
		},
		{
			"doubleSided":true,
			"name":"MI_Trim_02",
			"normalTexture":{
				"index":3
			},
			"pbrMetallicRoughness":{
				"baseColorTexture":{
					"index":4
				},
				"metallicRoughnessTexture":{
					"index":5
				}
			}
		},
		{
			"doubleSided":true,
			"extensions":{
				"KHR_materials_specular":{
					"specularFactor":0
				},
				"KHR_materials_ior":{
					"ior":1.4500000476837158
				}
			},
			"name":"MI_Trim_01",
			"normalTexture":{
				"index":6
			},
			"pbrMetallicRoughness":{
				"baseColorTexture":{
					"index":7
				},
				"metallicRoughnessTexture":{
					"index":8
				}
			}
		},
		{
			"doubleSided":true,
			"name":"MI_Decal_Red",
			"pbrMetallicRoughness":{
				"baseColorTexture":{
					"index":9
				},
				"metallicFactor":0,
				"roughnessFactor":0.5
			}
		},
		{
			"doubleSided":true,
			"name":"MI_Trim_03_Dark",
			"normalTexture":{
				"index":10
			},
			"pbrMetallicRoughness":{
				"baseColorTexture":{
					"index":11
				},
				"metallicRoughnessTexture":{
					"index":12
				}
			}
		}
	],
	"meshes":[
		{
			"name":"Plane.131",
			"primitives":[
				{
					"attributes":{
						"POSITION":0,
						"NORMAL":1,
						"TEXCOORD_0":2
					},
					"indices":3,
					"material":0
				},
				{
					"attributes":{
						"POSITION":4,
						"NORMAL":5,
						"TEXCOORD_0":6
					},
					"indices":7,
					"material":1
				},
				{
					"attributes":{
						"POSITION":8,
						"NORMAL":9,
						"TEXCOORD_0":10
					},
					"indices":11,
					"material":2
				},
				{
					"attributes":{
						"POSITION":12,
						"NORMAL":13,
						"TEXCOORD_0":14
					},
					"indices":15,
					"material":3
				},
				{
					"attributes":{
						"POSITION":16,
						"NORMAL":17,
						"TEXCOORD_0":18
					},
					"indices":19,
					"material":4
				}
			]
		}
	],
	"textures":[
		{
			"sampler":0,
			"source":0
		},
		{
			"sampler":0,
			"source":1
		},
		{
			"sampler":0,
			"source":2
		},
		{
			"sampler":0,
			"source":3
		},
		{
			"sampler":0,
			"source":4
		},
		{
			"sampler":0,
			"source":5
		},
		{
			"sampler":0,
			"source":6
		},
		{
			"sampler":0,
			"source":7
		},
		{
			"sampler":0,
			"source":8
		},
		{
			"sampler":0,
			"source":9
		},
		{
			"sampler":0,
			"source":0
		},
		{
			"sampler":0,
			"source":10
		},
		{
			"sampler":0,
			"source":2
		}
	],
	"images":[
		{
			"mimeType":"image/png",
			"name":"T_Trim_03_Normal",
			"uri":"T_Trim_03_Normal.png"
		},
		{
			"mimeType":"image/png",
			"name":"T_Trim_03_BaseColor",
			"uri":"T_Trim_03_BaseColor.png"
		},
		{
			"mimeType":"image/png",
			"name":"T_Trim_03_ORM",
			"uri":"T_Trim_03_ORM.png"
		},
		{
			"mimeType":"image/png",
			"name":"T_Trim_02_Normal",
			"uri":"T_Trim_02_Normal.png"
		},
		{
			"mimeType":"image/png",
			"name":"T_Trim_02_BaseColor_Red",
			"uri":"T_Trim_02_BaseColor_Red.png"
		},
		{
			"mimeType":"image/png",
			"name":"T_Trim_02_ORM",
			"uri":"T_Trim_02_ORM.png"
		},
		{
			"mimeType":"image/png",
			"name":"T_Trim_01_Normal",
			"uri":"T_Trim_01_Normal.png"
		},
		{
			"mimeType":"image/png",
			"name":"T_Trim_01_BaseColor_Red",
			"uri":"T_Trim_01_BaseColor_Red.png"
		},
		{
			"mimeType":"image/png",
			"name":"T_Trim_01_ORM",
			"uri":"T_Trim_01_ORM.png"
		},
		{
			"mimeType":"image/png",
			"name":"T_Decals",
			"uri":"T_Decals.png"
		},
		{
			"mimeType":"image/png",
			"name":"T_Trim_03_Cables",
			"uri":"T_Trim_03_Cables.png"
		}
	],
	"accessors":[
		{
			"bufferView":0,
			"componentType":5126,
			"count":462,
			"max":[
				1.9073486328125e-06,
				3.0373218059539795,
				-2.0742416381835938e-05
			],
			"min":[
				-4.465093612670898,
				0.19871610403060913,
				-4.468453407287598
			],
			"type":"VEC3"
		},
		{
			"bufferView":1,
			"componentType":5126,
			"count":462,
			"type":"VEC3"
		},
		{
			"bufferView":2,
			"componentType":5126,
			"count":462,
			"type":"VEC2"
		},
		{
			"bufferView":3,
			"componentType":5123,
			"count":1398,
			"type":"SCALAR"
		},
		{
			"bufferView":4,
			"componentType":5126,
			"count":180,
			"max":[
				1.9073486328125e-06,
				3.0373220443725586,
				-2.2292137145996094e-05
			],
			"min":[
				-4.200000762939453,
				-0.0064650774002075195,
				-4.199999809265137
			],
			"type":"VEC3"
		},
		{
			"bufferView":5,
			"componentType":5126,
			"count":180,
			"type":"VEC3"
		},
		{
			"bufferView":6,
			"componentType":5126,
			"count":180,
			"type":"VEC2"
		},
		{
			"bufferView":7,
			"componentType":5123,
			"count":540,
			"type":"SCALAR"
		},
		{
			"bufferView":8,
			"componentType":5126,
			"count":52,
			"max":[
				-1.3113188743591309,
				0.08160066604614258,
				-1.3002533912658691
			],
			"min":[
				-3.362394094467163,
				0.006236672401428223,
				-3.3563034534454346
			],
			"type":"VEC3"
		},
		{
			"bufferView":9,
			"componentType":5126,
			"count":52,
			"type":"VEC3"
		},
		{
			"bufferView":10,
			"componentType":5126,
			"count":52,
			"type":"VEC2"
		},
		{
			"bufferView":11,
			"componentType":5123,
			"count":96,
			"type":"SCALAR"
		},
		{
			"bufferView":12,
			"componentType":5126,
			"count":32,
			"max":[
				-0.5100892782211304,
				1.4798997640609741,
				-0.5101135969161987
			],
			"min":[
				-4.099149703979492,
				1.2144479751586914,
				-4.099151611328125
			],
			"type":"VEC3"
		},
		{
			"bufferView":13,
			"componentType":5126,
			"count":32,
			"type":"VEC3"
		},
		{
			"bufferView":14,
			"componentType":5126,
			"count":32,
			"type":"VEC2"
		},
		{
			"bufferView":15,
			"componentType":5123,
			"count":48,
			"type":"SCALAR"
		},
		{
			"bufferView":16,
			"componentType":5126,
			"count":272,
			"max":[
				1.6689300537109375e-06,
				0.8000003695487976,
				-2.0265579223632812e-05
			],
			"min":[
				-4.100000381469727,
				1.0948225082074714e-07,
				-4.100000381469727
			],
			"type":"VEC3"
		},
		{
			"bufferView":17,
			"componentType":5126,
			"count":272,
			"type":"VEC3"
		},
		{
			"bufferView":18,
			"componentType":5126,
			"count":272,
			"type":"VEC2"
		},
		{
			"bufferView":19,
			"componentType":5123,
			"count":960,
			"type":"SCALAR"
		}
	],
	"bufferViews":[
		{
			"buffer":0,
			"byteLength":5544,
			"byteOffset":0,
			"target":34962
		},
		{
			"buffer":0,
			"byteLength":5544,
			"byteOffset":5544,
			"target":34962
		},
		{
			"buffer":0,
			"byteLength":3696,
			"byteOffset":11088,
			"target":34962
		},
		{
			"buffer":0,
			"byteLength":2796,
			"byteOffset":14784,
			"target":34963
		},
		{
			"buffer":0,
			"byteLength":2160,
			"byteOffset":17580,
			"target":34962
		},
		{
			"buffer":0,
			"byteLength":2160,
			"byteOffset":19740,
			"target":34962
		},
		{
			"buffer":0,
			"byteLength":1440,
			"byteOffset":21900,
			"target":34962
		},
		{
			"buffer":0,
			"byteLength":1080,
			"byteOffset":23340,
			"target":34963
		},
		{
			"buffer":0,
			"byteLength":624,
			"byteOffset":24420,
			"target":34962
		},
		{
			"buffer":0,
			"byteLength":624,
			"byteOffset":25044,
			"target":34962
		},
		{
			"buffer":0,
			"byteLength":416,
			"byteOffset":25668,
			"target":34962
		},
		{
			"buffer":0,
			"byteLength":192,
			"byteOffset":26084,
			"target":34963
		},
		{
			"buffer":0,
			"byteLength":384,
			"byteOffset":26276,
			"target":34962
		},
		{
			"buffer":0,
			"byteLength":384,
			"byteOffset":26660,
			"target":34962
		},
		{
			"buffer":0,
			"byteLength":256,
			"byteOffset":27044,
			"target":34962
		},
		{
			"buffer":0,
			"byteLength":96,
			"byteOffset":27300,
			"target":34963
		},
		{
			"buffer":0,
			"byteLength":3264,
			"byteOffset":27396,
			"target":34962
		},
		{
			"buffer":0,
			"byteLength":3264,
			"byteOffset":30660,
			"target":34962
		},
		{
			"buffer":0,
			"byteLength":2176,
			"byteOffset":33924,
			"target":34962
		},
		{
			"buffer":0,
			"byteLength":1920,
			"byteOffset":36100,
			"target":34963
		}
	],
	"samplers":[
		{
			"magFilter":9729,
			"minFilter":9987
		}
	],
	"buffers":[
		{
			"byteLength":38020,
			"uri":"WallAstra_Corner_Round_Inner.bin"
		}
	]
}
