{
	"asset":{
		"generator":"Khronos glTF Blender I/O v4.0.44",
		"version":"2.0"
	},
	"scene":0,
	"scenes":[
		{
			"name":"Scene",
			"nodes":[
				0
			]
		}
	],
	"nodes":[
		{
			"mesh":0,
			"name":"WallAstra_Straight_Window"
		}
	],
	"materials":[
		{
			"doubleSided":true,
			"name":"M_Glass",
			"pbrMetallicRoughness":{
				"baseColorFactor":[
					0.800000011920929,
					0.800000011920929,
					0.800000011920929,
					1
				],
				"metallicFactor":0,
				"roughnessFactor":0.5
			}
		},
		{
			"doubleSided":true,
			"name":"MI_Trim_03",
			"normalTexture":{
				"index":0
			},
			"pbrMetallicRoughness":{
				"baseColorTexture":{
					"index":1
				},
				"metallicRoughnessTexture":{
					"index":2
				}
			}
		},
		{
			"doubleSided":true,
			"name":"MI_Trim_03_Dark",
			"normalTexture":{
				"index":3
			},
			"pbrMetallicRoughness":{
				"baseColorTexture":{
					"index":4
				},
				"metallicRoughnessTexture":{
					"index":5
				}
			}
		},
		{
			"doubleSided":true,
			"name":"MI_Trim_02",
			"normalTexture":{
				"index":6
			},
			"pbrMetallicRoughness":{
				"baseColorTexture":{
					"index":7
				},
				"metallicRoughnessTexture":{
					"index":8
				}
			}
		},
		{
			"doubleSided":true,
			"name":"MI_Trim_03_Cables",
			"normalTexture":{
				"index":9
			},
			"pbrMetallicRoughness":{
				"baseColorTexture":{
					"index":10
				},
				"metallicRoughnessTexture":{
					"index":11
				}
			}
		}
	],
	"meshes":[
		{
			"name":"Plane.157",
			"primitives":[
				{
					"attributes":{
						"POSITION":0,
						"NORMAL":1,
						"TEXCOORD_0":2
					},
					"indices":3,
					"material":0
				},
				{
					"attributes":{
						"POSITION":4,
						"NORMAL":5,
						"TEXCOORD_0":6
					},
					"indices":7,
					"material":1
				},
				{
					"attributes":{
						"POSITION":8,
						"NORMAL":9,
						"TEXCOORD_0":10
					},
					"indices":11,
					"material":2
				},
				{
					"attributes":{
						"POSITION":12,
						"NORMAL":13,
						"TEXCOORD_0":14
					},
					"indices":15,
					"material":3
				},
				{
					"attributes":{
						"POSITION":16,
						"NORMAL":17,
						"TEXCOORD_0":18
					},
					"indices":19,
					"material":4
				}
			]
		}
	],
	"textures":[
		{
			"sampler":0,
			"source":0
		},
		{
			"sampler":0,
			"source":1
		},
		{
			"sampler":0,
			"source":2
		},
		{
			"sampler":0,
			"source":0
		},
		{
			"sampler":0,
			"source":3
		},
		{
			"sampler":0,
			"source":2
		},
		{
			"sampler":0,
			"source":4
		},
		{
			"sampler":0,
			"source":5
		},
		{
			"sampler":0,
			"source":6
		},
		{
			"sampler":0,
			"source":0
		},
		{
			"sampler":0,
			"source":3
		},
		{
			"sampler":0,
			"source":2
		}
	],
	"images":[
		{
			"mimeType":"image/png",
			"name":"T_Trim_03_Normal",
			"uri":"T_Trim_03_Normal.png"
		},
		{
			"mimeType":"image/png",
			"name":"T_Trim_03_BaseColor",
			"uri":"T_Trim_03_BaseColor.png"
		},
		{
			"mimeType":"image/png",
			"name":"T_Trim_03_ORM",
			"uri":"T_Trim_03_ORM.png"
		},
		{
			"mimeType":"image/png",
			"name":"T_Trim_03_Cables",
			"uri":"T_Trim_03_Cables.png"
		},
		{
			"mimeType":"image/png",
			"name":"T_Trim_02_Normal",
			"uri":"T_Trim_02_Normal.png"
		},
		{
			"mimeType":"image/png",
			"name":"T_Trim_02_BaseColor_Red",
			"uri":"T_Trim_02_BaseColor_Red.png"
		},
		{
			"mimeType":"image/png",
			"name":"T_Trim_02_ORM",
			"uri":"T_Trim_02_ORM.png"
		}
	],
	"accessors":[
		{
			"bufferView":0,
			"componentType":5126,
			"count":12,
			"max":[
				-2.1976983547210693,
				2.5655908584594727,
				1.6048650741577148
			],
			"min":[
				-2.477565288543701,
				1.0920376777648926,
				-1.6048650741577148
			],
			"type":"VEC3"
		},
		{
			"bufferView":1,
			"componentType":5126,
			"count":12,
			"type":"VEC3"
		},
		{
			"bufferView":2,
			"componentType":5126,
			"count":12,
			"type":"VEC2"
		},
		{
			"bufferView":3,
			"componentType":5123,
			"count":24,
			"type":"SCALAR"
		},
		{
			"bufferView":4,
			"componentType":5126,
			"count":270,
			"max":[
				-2,
				3,
				2.000000476837158
			],
			"min":[
				-2.415534734725952,
				0.7999998927116394,
				-2.000000476837158
			],
			"type":"VEC3"
		},
		{
			"bufferView":5,
			"componentType":5126,
			"count":270,
			"type":"VEC3"
		},
		{
			"bufferView":6,
			"componentType":5126,
			"count":270,
			"type":"VEC2"
		},
		{
			"bufferView":7,
			"componentType":5123,
			"count":666,
			"type":"SCALAR"
		},
		{
			"bufferView":8,
			"componentType":5126,
			"count":56,
			"max":[
				-2,
				0.8000001311302185,
				2
			],
			"min":[
				-2.1000001430511475,
				-2.5648702717262495e-07,
				-2
			],
			"type":"VEC3"
		},
		{
			"bufferView":9,
			"componentType":5126,
			"count":56,
			"type":"VEC3"
		},
		{
			"bufferView":10,
			"componentType":5126,
			"count":56,
			"type":"VEC2"
		},
		{
			"bufferView":11,
			"componentType":5123,
			"count":180,
			"type":"SCALAR"
		},
		{
			"bufferView":12,
			"componentType":5126,
			"count":154,
			"max":[
				-2,
				3,
				1.999999761581421
			],
			"min":[
				-2.4974968433380127,
				1.11777663230896,
				-1.999999761581421
			],
			"type":"VEC3"
		},
		{
			"bufferView":13,
			"componentType":5126,
			"count":154,
			"type":"VEC3"
		},
		{
			"bufferView":14,
			"componentType":5126,
			"count":154,
			"type":"VEC2"
		},
		{
			"bufferView":15,
			"componentType":5123,
			"count":450,
			"type":"SCALAR"
		},
		{
			"bufferView":16,
			"componentType":5126,
			"count":96,
			"max":[
				-2.117954969406128,
				2.5473644733428955,
				1.1358212232589722
			],
			"min":[
				-2.480388879776001,
				1.1128275394439697,
				-1.135820984840393
			],
			"type":"VEC3"
		},
		{
			"bufferView":17,
			"componentType":5126,
			"count":96,
			"type":"VEC3"
		},
		{
			"bufferView":18,
			"componentType":5126,
			"count":96,
			"type":"VEC2"
		},
		{
			"bufferView":19,
			"componentType":5123,
			"count":144,
			"type":"SCALAR"
		}
	],
	"bufferViews":[
		{
			"buffer":0,
			"byteLength":144,
			"byteOffset":0,
			"target":34962
		},
		{
			"buffer":0,
			"byteLength":144,
			"byteOffset":144,
			"target":34962
		},
		{
			"buffer":0,
			"byteLength":96,
			"byteOffset":288,
			"target":34962
		},
		{
			"buffer":0,
			"byteLength":48,
			"byteOffset":384,
			"target":34963
		},
		{
			"buffer":0,
			"byteLength":3240,
			"byteOffset":432,
			"target":34962
		},
		{
			"buffer":0,
			"byteLength":3240,
			"byteOffset":3672,
			"target":34962
		},
		{
			"buffer":0,
			"byteLength":2160,
			"byteOffset":6912,
			"target":34962
		},
		{
			"buffer":0,
			"byteLength":1332,
			"byteOffset":9072,
			"target":34963
		},
		{
			"buffer":0,
			"byteLength":672,
			"byteOffset":10404,
			"target":34962
		},
		{
			"buffer":0,
			"byteLength":672,
			"byteOffset":11076,
			"target":34962
		},
		{
			"buffer":0,
			"byteLength":448,
			"byteOffset":11748,
			"target":34962
		},
		{
			"buffer":0,
			"byteLength":360,
			"byteOffset":12196,
			"target":34963
		},
		{
			"buffer":0,
			"byteLength":1848,
			"byteOffset":12556,
			"target":34962
		},
		{
			"buffer":0,
			"byteLength":1848,
			"byteOffset":14404,
			"target":34962
		},
		{
			"buffer":0,
			"byteLength":1232,
			"byteOffset":16252,
			"target":34962
		},
		{
			"buffer":0,
			"byteLength":900,
			"byteOffset":17484,
			"target":34963
		},
		{
			"buffer":0,
			"byteLength":1152,
			"byteOffset":18384,
			"target":34962
		},
		{
			"buffer":0,
			"byteLength":1152,
			"byteOffset":19536,
			"target":34962
		},
		{
			"buffer":0,
			"byteLength":768,
			"byteOffset":20688,
			"target":34962
		},
		{
			"buffer":0,
			"byteLength":288,
			"byteOffset":21456,
			"target":34963
		}
	],
	"samplers":[
		{
			"magFilter":9729,
			"minFilter":9987
		}
	],
	"buffers":[
		{
			"byteLength":21744,
			"uri":"WallAstra_Straight_Window.bin"
		}
	]
}
