{
	"asset":{
		"generator":"Khronos glTF Blender I/O v4.0.44",
		"version":"2.0"
	},
	"scene":0,
	"scenes":[
		{
			"name":"Scene",
			"nodes":[
				0
			]
		}
	],
	"nodes":[
		{
			"mesh":0,
			"name":"Prop_Rail_Round_Small"
		}
	],
	"materials":[
		{
			"doubleSided":true,
			"name":"MI_Trim_02_Rails",
			"normalTexture":{
				"index":0
			},
			"pbrMetallicRoughness":{
				"baseColorTexture":{
					"index":1
				},
				"metallicRoughnessTexture":{
					"index":2
				}
			}
		}
	],
	"meshes":[
		{
			"name":"Cylinder.026",
			"primitives":[
				{
					"attributes":{
						"POSITION":0,
						"NORMAL":1,
						"TEXCOORD_0":2
					},
					"indices":3,
					"material":0
				}
			]
		}
	],
	"textures":[
		{
			"sampler":0,
			"source":0
		},
		{
			"sampler":0,
			"source":1
		},
		{
			"sampler":0,
			"source":2
		}
	],
	"images":[
		{
			"mimeType":"image/png",
			"name":"T_Trim_02_Normal",
			"uri":"T_Trim_02_Normal.png"
		},
		{
			"mimeType":"image/png",
			"name":"T_Trim_02_BaseColor_Red",
			"uri":"T_Trim_02_BaseColor_Red.png"
		},
		{
			"mimeType":"image/png",
			"name":"T_Trim_02_ORM",
			"uri":"T_Trim_02_ORM.png"
		}
	],
	"accessors":[
		{
			"bufferView":0,
			"componentType":5126,
			"count":952,
			"max":[
				2.0278232097625732,
				0.8623189926147461,
				-0.06363175809383392
			],
			"min":[
				0.034122273325920105,
				5.681067705154419e-08,
				-2.029832601547241
			],
			"type":"VEC3"
		},
		{
			"bufferView":1,
			"componentType":5126,
			"count":952,
			"type":"VEC3"
		},
		{
			"bufferView":2,
			"componentType":5126,
			"count":952,
			"type":"VEC2"
		},
		{
			"bufferView":3,
			"componentType":5123,
			"count":4776,
			"type":"SCALAR"
		}
	],
	"bufferViews":[
		{
			"buffer":0,
			"byteLength":11424,
			"byteOffset":0,
			"target":34962
		},
		{
			"buffer":0,
			"byteLength":11424,
			"byteOffset":11424,
			"target":34962
		},
		{
			"buffer":0,
			"byteLength":7616,
			"byteOffset":22848,
			"target":34962
		},
		{
			"buffer":0,
			"byteLength":9552,
			"byteOffset":30464,
			"target":34963
		}
	],
	"samplers":[
		{
			"magFilter":9729,
			"minFilter":9987
		}
	],
	"buffers":[
		{
			"byteLength":40016,
			"uri":"Prop_Rail_Round_Small.bin"
		}
	]
}
