{
	"asset":{
		"generator":"Khronos glTF Blender I/O v4.0.44",
		"version":"2.0"
	},
	"extensionsUsed":[
		"KHR_materials_specular",
		"KHR_materials_ior"
	],
	"scene":0,
	"scenes":[
		{
			"name":"Scene",
			"nodes":[
				0
			]
		}
	],
	"nodes":[
		{
			"mesh":0,
			"name":"BottomMetal_Corner_Round_Inner"
		}
	],
	"materials":[
		{
			"doubleSided":true,
			"name":"MI_Trim_02",
			"normalTexture":{
				"index":0
			},
			"pbrMetallicRoughness":{
				"baseColorTexture":{
					"index":1
				},
				"metallicRoughnessTexture":{
					"index":2
				}
			}
		},
		{
			"doubleSided":true,
			"extensions":{
				"KHR_materials_specular":{
					"specularFactor":0
				},
				"KHR_materials_ior":{
					"ior":1.4500000476837158
				}
			},
			"name":"MI_Trim_01",
			"normalTexture":{
				"index":3
			},
			"pbrMetallicRoughness":{
				"baseColorTexture":{
					"index":4
				},
				"metallicRoughnessTexture":{
					"index":5
				}
			}
		}
	],
	"meshes":[
		{
			"name":"Plane.082",
			"primitives":[
				{
					"attributes":{
						"POSITION":0,
						"NORMAL":1,
						"TEXCOORD_0":2
					},
					"indices":3,
					"material":0
				},
				{
					"attributes":{
						"POSITION":4,
						"NORMAL":5,
						"TEXCOORD_0":6
					},
					"indices":7,
					"material":1
				}
			]
		}
	],
	"textures":[
		{
			"sampler":0,
			"source":0
		},
		{
			"sampler":0,
			"source":1
		},
		{
			"sampler":0,
			"source":2
		},
		{
			"sampler":0,
			"source":3
		},
		{
			"sampler":0,
			"source":4
		},
		{
			"sampler":0,
			"source":5
		}
	],
	"images":[
		{
			"mimeType":"image/png",
			"name":"T_Trim_02_Normal",
			"uri":"T_Trim_02_Normal.png"
		},
		{
			"mimeType":"image/png",
			"name":"T_Trim_02_BaseColor_Red",
			"uri":"T_Trim_02_BaseColor_Red.png"
		},
		{
			"mimeType":"image/png",
			"name":"T_Trim_02_ORM",
			"uri":"T_Trim_02_ORM.png"
		},
		{
			"mimeType":"image/png",
			"name":"T_Trim_01_Normal",
			"uri":"T_Trim_01_Normal.png"
		},
		{
			"mimeType":"image/png",
			"name":"T_Trim_01_BaseColor_Red",
			"uri":"T_Trim_01_BaseColor_Red.png"
		},
		{
			"mimeType":"image/png",
			"name":"T_Trim_01_ORM",
			"uri":"T_Trim_01_ORM.png"
		}
	],
	"accessors":[
		{
			"bufferView":0,
			"componentType":5126,
			"count":107,
			"max":[
				1.305252339989238e-06,
				0.020000025629997253,
				-1.9133945897920057e-05
			],
			"min":[
				-3.799997091293335,
				-8.940520501710125e-08,
				-3.799999713897705
			],
			"type":"VEC3"
		},
		{
			"bufferView":1,
			"componentType":5126,
			"count":107,
			"type":"VEC3"
		},
		{
			"bufferView":2,
			"componentType":5126,
			"count":107,
			"type":"VEC2"
		},
		{
			"bufferView":3,
			"componentType":5123,
			"count":285,
			"type":"SCALAR"
		},
		{
			"bufferView":4,
			"componentType":5126,
			"count":107,
			"max":[
				1.305252339989238e-06,
				0.02000000886619091,
				-2.1202573407208547e-05
			],
			"min":[
				-3.9999969005584717,
				-1.7052535056759355e-13,
				-4
			],
			"type":"VEC3"
		},
		{
			"bufferView":5,
			"componentType":5126,
			"count":107,
			"type":"VEC3"
		},
		{
			"bufferView":6,
			"componentType":5126,
			"count":107,
			"type":"VEC2"
		},
		{
			"bufferView":7,
			"componentType":5123,
			"count":285,
			"type":"SCALAR"
		}
	],
	"bufferViews":[
		{
			"buffer":0,
			"byteLength":1284,
			"byteOffset":0,
			"target":34962
		},
		{
			"buffer":0,
			"byteLength":1284,
			"byteOffset":1284,
			"target":34962
		},
		{
			"buffer":0,
			"byteLength":856,
			"byteOffset":2568,
			"target":34962
		},
		{
			"buffer":0,
			"byteLength":570,
			"byteOffset":3424,
			"target":34963
		},
		{
			"buffer":0,
			"byteLength":1284,
			"byteOffset":3996,
			"target":34962
		},
		{
			"buffer":0,
			"byteLength":1284,
			"byteOffset":5280,
			"target":34962
		},
		{
			"buffer":0,
			"byteLength":856,
			"byteOffset":6564,
			"target":34962
		},
		{
			"buffer":0,
			"byteLength":570,
			"byteOffset":7420,
			"target":34963
		}
	],
	"samplers":[
		{
			"magFilter":9729,
			"minFilter":9987
		}
	],
	"buffers":[
		{
			"byteLength":7992,
			"uri":"BottomMetal_Corner_Round_Inner.bin"
		}
	]
}
