{
	"asset":{
		"generator":"Khronos glTF Blender I/O v4.0.44",
		"version":"2.0"
	},
	"extensionsUsed":[
		"KHR_materials_specular",
		"KHR_materials_ior"
	],
	"scene":0,
	"scenes":[
		{
			"name":"Scene",
			"nodes":[
				0
			]
		}
	],
	"nodes":[
		{
			"mesh":0,
			"name":"WallAstra_Corner_Square_Outer"
		}
	],
	"materials":[
		{
			"doubleSided":true,
			"name":"MI_Trim_03",
			"normalTexture":{
				"index":0
			},
			"pbrMetallicRoughness":{
				"baseColorTexture":{
					"index":1
				},
				"metallicRoughnessTexture":{
					"index":2
				}
			}
		},
		{
			"doubleSided":true,
			"name":"MI_Trim_02",
			"normalTexture":{
				"index":3
			},
			"pbrMetallicRoughness":{
				"baseColorTexture":{
					"index":4
				},
				"metallicRoughnessTexture":{
					"index":5
				}
			}
		},
		{
			"doubleSided":true,
			"extensions":{
				"KHR_materials_specular":{
					"specularFactor":0
				},
				"KHR_materials_ior":{
					"ior":1.4500000476837158
				}
			},
			"name":"MI_Trim_01",
			"normalTexture":{
				"index":6
			},
			"pbrMetallicRoughness":{
				"baseColorTexture":{
					"index":7
				},
				"metallicRoughnessTexture":{
					"index":8
				}
			}
		},
		{
			"doubleSided":true,
			"name":"MI_Decal_Red",
			"pbrMetallicRoughness":{
				"baseColorTexture":{
					"index":9
				},
				"metallicFactor":0,
				"roughnessFactor":0.5
			}
		},
		{
			"doubleSided":true,
			"name":"MI_Trim_03_Dark",
			"normalTexture":{
				"index":10
			},
			"pbrMetallicRoughness":{
				"baseColorTexture":{
					"index":11
				},
				"metallicRoughnessTexture":{
					"index":12
				}
			}
		}
	],
	"meshes":[
		{
			"name":"Cube.052",
			"primitives":[
				{
					"attributes":{
						"POSITION":0,
						"NORMAL":1,
						"TEXCOORD_0":2
					},
					"indices":3,
					"material":0
				},
				{
					"attributes":{
						"POSITION":4,
						"NORMAL":5,
						"TEXCOORD_0":6
					},
					"indices":7,
					"material":1
				},
				{
					"attributes":{
						"POSITION":8,
						"NORMAL":9,
						"TEXCOORD_0":10
					},
					"indices":11,
					"material":2
				},
				{
					"attributes":{
						"POSITION":12,
						"NORMAL":13,
						"TEXCOORD_0":14
					},
					"indices":15,
					"material":3
				},
				{
					"attributes":{
						"POSITION":16,
						"NORMAL":17,
						"TEXCOORD_0":18
					},
					"indices":19,
					"material":4
				}
			]
		}
	],
	"textures":[
		{
			"sampler":0,
			"source":0
		},
		{
			"sampler":0,
			"source":1
		},
		{
			"sampler":0,
			"source":2
		},
		{
			"sampler":0,
			"source":3
		},
		{
			"sampler":0,
			"source":4
		},
		{
			"sampler":0,
			"source":5
		},
		{
			"sampler":0,
			"source":6
		},
		{
			"sampler":0,
			"source":7
		},
		{
			"sampler":0,
			"source":8
		},
		{
			"sampler":0,
			"source":9
		},
		{
			"sampler":0,
			"source":0
		},
		{
			"sampler":0,
			"source":10
		},
		{
			"sampler":0,
			"source":2
		}
	],
	"images":[
		{
			"mimeType":"image/png",
			"name":"T_Trim_03_Normal",
			"uri":"T_Trim_03_Normal.png"
		},
		{
			"mimeType":"image/png",
			"name":"T_Trim_03_BaseColor",
			"uri":"T_Trim_03_BaseColor.png"
		},
		{
			"mimeType":"image/png",
			"name":"T_Trim_03_ORM",
			"uri":"T_Trim_03_ORM.png"
		},
		{
			"mimeType":"image/png",
			"name":"T_Trim_02_Normal",
			"uri":"T_Trim_02_Normal.png"
		},
		{
			"mimeType":"image/png",
			"name":"T_Trim_02_BaseColor_Red",
			"uri":"T_Trim_02_BaseColor_Red.png"
		},
		{
			"mimeType":"image/png",
			"name":"T_Trim_02_ORM",
			"uri":"T_Trim_02_ORM.png"
		},
		{
			"mimeType":"image/png",
			"name":"T_Trim_01_Normal",
			"uri":"T_Trim_01_Normal.png"
		},
		{
			"mimeType":"image/png",
			"name":"T_Trim_01_BaseColor_Red",
			"uri":"T_Trim_01_BaseColor_Red.png"
		},
		{
			"mimeType":"image/png",
			"name":"T_Trim_01_ORM",
			"uri":"T_Trim_01_ORM.png"
		},
		{
			"mimeType":"image/png",
			"name":"T_Decals",
			"uri":"T_Decals.png"
		},
		{
			"mimeType":"image/png",
			"name":"T_Trim_03_Cables",
			"uri":"T_Trim_03_Cables.png"
		}
	],
	"accessors":[
		{
			"bufferView":0,
			"componentType":5126,
			"count":356,
			"max":[
				1.761019461810065e-06,
				3.0214955806732178,
				-1.2707810128631536e-06
			],
			"min":[
				-4.398754596710205,
				0.19871608912944794,
				-4.398756504058838
			],
			"type":"VEC3"
		},
		{
			"bufferView":1,
			"componentType":5126,
			"count":356,
			"type":"VEC3"
		},
		{
			"bufferView":2,
			"componentType":5126,
			"count":356,
			"type":"VEC2"
		},
		{
			"bufferView":3,
			"componentType":5123,
			"count":1014,
			"type":"SCALAR"
		},
		{
			"bufferView":4,
			"componentType":5126,
			"count":104,
			"max":[
				9.457376108912285e-07,
				2.999999523162842,
				-1.9534527382347733e-06
			],
			"min":[
				-4.400604248046875,
				-0.0064650774002075195,
				-4.400606155395508
			],
			"type":"VEC3"
		},
		{
			"bufferView":5,
			"componentType":5126,
			"count":104,
			"type":"VEC3"
		},
		{
			"bufferView":6,
			"componentType":5126,
			"count":104,
			"type":"VEC2"
		},
		{
			"bufferView":7,
			"componentType":5123,
			"count":324,
			"type":"SCALAR"
		},
		{
			"bufferView":8,
			"componentType":5126,
			"count":52,
			"max":[
				-1.928619623184204,
				0.08160072565078735,
				-1.9286226034164429
			],
			"min":[
				-4.435269832611084,
				0.006236732937395573,
				-4.435271739959717
			],
			"type":"VEC3"
		},
		{
			"bufferView":9,
			"componentType":5126,
			"count":52,
			"type":"VEC3"
		},
		{
			"bufferView":10,
			"componentType":5126,
			"count":52,
			"type":"VEC2"
		},
		{
			"bufferView":11,
			"componentType":5123,
			"count":96,
			"type":"SCALAR"
		},
		{
			"bufferView":12,
			"componentType":5126,
			"count":28,
			"max":[
				-0.6338052153587341,
				1.4798996448516846,
				-0.6338080763816833
			],
			"min":[
				-3.888023614883423,
				1.2144479751586914,
				-3.888025999069214
			],
			"type":"VEC3"
		},
		{
			"bufferView":13,
			"componentType":5126,
			"count":28,
			"type":"VEC3"
		},
		{
			"bufferView":14,
			"componentType":5126,
			"count":28,
			"type":"VEC2"
		},
		{
			"bufferView":15,
			"componentType":5123,
			"count":48,
			"type":"SCALAR"
		},
		{
			"bufferView":16,
			"componentType":5126,
			"count":168,
			"max":[
				1.747618398439954e-06,
				0.8000002503395081,
				-1.2707810128631536e-06
			],
			"min":[
				-3.9999990463256836,
				1.7881393432617188e-07,
				-4.000001430511475
			],
			"type":"VEC3"
		},
		{
			"bufferView":17,
			"componentType":5126,
			"count":168,
			"type":"VEC3"
		},
		{
			"bufferView":18,
			"componentType":5126,
			"count":168,
			"type":"VEC2"
		},
		{
			"bufferView":19,
			"componentType":5123,
			"count":576,
			"type":"SCALAR"
		}
	],
	"bufferViews":[
		{
			"buffer":0,
			"byteLength":4272,
			"byteOffset":0,
			"target":34962
		},
		{
			"buffer":0,
			"byteLength":4272,
			"byteOffset":4272,
			"target":34962
		},
		{
			"buffer":0,
			"byteLength":2848,
			"byteOffset":8544,
			"target":34962
		},
		{
			"buffer":0,
			"byteLength":2028,
			"byteOffset":11392,
			"target":34963
		},
		{
			"buffer":0,
			"byteLength":1248,
			"byteOffset":13420,
			"target":34962
		},
		{
			"buffer":0,
			"byteLength":1248,
			"byteOffset":14668,
			"target":34962
		},
		{
			"buffer":0,
			"byteLength":832,
			"byteOffset":15916,
			"target":34962
		},
		{
			"buffer":0,
			"byteLength":648,
			"byteOffset":16748,
			"target":34963
		},
		{
			"buffer":0,
			"byteLength":624,
			"byteOffset":17396,
			"target":34962
		},
		{
			"buffer":0,
			"byteLength":624,
			"byteOffset":18020,
			"target":34962
		},
		{
			"buffer":0,
			"byteLength":416,
			"byteOffset":18644,
			"target":34962
		},
		{
			"buffer":0,
			"byteLength":192,
			"byteOffset":19060,
			"target":34963
		},
		{
			"buffer":0,
			"byteLength":336,
			"byteOffset":19252,
			"target":34962
		},
		{
			"buffer":0,
			"byteLength":336,
			"byteOffset":19588,
			"target":34962
		},
		{
			"buffer":0,
			"byteLength":224,
			"byteOffset":19924,
			"target":34962
		},
		{
			"buffer":0,
			"byteLength":96,
			"byteOffset":20148,
			"target":34963
		},
		{
			"buffer":0,
			"byteLength":2016,
			"byteOffset":20244,
			"target":34962
		},
		{
			"buffer":0,
			"byteLength":2016,
			"byteOffset":22260,
			"target":34962
		},
		{
			"buffer":0,
			"byteLength":1344,
			"byteOffset":24276,
			"target":34962
		},
		{
			"buffer":0,
			"byteLength":1152,
			"byteOffset":25620,
			"target":34963
		}
	],
	"samplers":[
		{
			"magFilter":9729,
			"minFilter":9987
		}
	],
	"buffers":[
		{
			"byteLength":26772,
			"uri":"WallAstra_Corner_Square_Outer.bin"
		}
	]
}
