# Blender v3.6.0 OBJ File: 'AllModules_Unreal.blend'
# www.blender.org
mtllib Column_Astra.mtl
o Column_Astra_Plane.108
v -0.163885 0.198716 -0.326529
v -0.163885 2.895998 -0.839862
v -0.083497 0.324214 0.332891
v -0.163885 0.293434 0.171162
v -0.114260 0.321871 0.320580
v -0.140340 0.315198 0.285522
v -0.157766 0.305213 0.233053
v -0.163885 2.990716 -0.342171
v -0.083496 3.021496 -0.180441
v -0.157766 3.002495 -0.280280
v -0.140340 3.012481 -0.227811
v -0.114260 3.019153 -0.192752
v -0.000000 0.324214 0.332891
v 0.000000 3.021496 -0.180441
v 0.163885 0.198716 -0.326529
v 0.163885 2.895998 -0.839862
v 0.083496 0.324214 0.332891
v 0.163885 0.293434 0.171162
v 0.114260 0.321871 0.320580
v 0.140340 0.315198 0.285522
v 0.157766 0.305213 0.233053
v 0.163885 2.990716 -0.342171
v 0.083496 3.021496 -0.180441
v 0.157766 3.002495 -0.280280
v 0.140340 3.012481 -0.227811
v 0.114260 3.019153 -0.192752
v -0.140102 0.198716 -0.326529
v -0.071379 0.313680 0.277542
v -0.140102 0.285484 0.129388
v -0.097678 0.311533 0.266265
v -0.119973 0.305421 0.234149
v -0.134870 0.296274 0.186084
v -0.000000 0.313680 0.277542
v 0.140102 0.198716 -0.326529
v 0.071379 0.313680 0.277542
v 0.140102 0.285484 0.129388
v 0.097678 0.311533 0.266265
v 0.119973 0.305421 0.234149
v 0.134870 0.296274 0.186084
v -0.140102 -0.006465 -0.273423
v -0.071379 0.006237 0.334741
v -0.140102 0.003121 0.185583
v -0.097678 0.006000 0.323387
v -0.119973 0.005324 0.291053
v -0.134870 0.004314 0.242663
v -0.000000 0.006237 0.334741
v 0.140102 -0.006465 -0.273423
v 0.071379 0.006237 0.334741
v 0.140102 0.003121 0.185583
v 0.097678 0.006000 0.323387
v 0.119973 0.005324 0.291053
v 0.134870 0.004314 0.242663
v -0.138906 2.895998 -0.839862
v -0.138906 2.983282 -0.381235
v -0.070770 3.011645 -0.232200
v -0.133719 2.994136 -0.324201
v -0.118949 3.003338 -0.275851
v -0.096844 3.009486 -0.243545
v 0.000000 3.011645 -0.232200
v 0.138906 2.895998 -0.839862
v 0.138906 2.983282 -0.381235
v 0.070770 3.011645 -0.232200
v 0.133719 2.994136 -0.324201
v 0.118949 3.003338 -0.275851
v 0.096844 3.009486 -0.243545
v -0.119973 0.078888 0.277104
v -0.134870 0.075882 0.228794
v 0.119973 0.078888 0.277104
v 0.097678 0.080896 0.309384
v -0.140102 0.072337 0.171808
v -0.140102 0.043831 -0.286440
v -0.097678 0.080896 0.309384
v 0.071379 0.081601 0.320720
v 0.140102 0.072337 0.171808
v 0.134870 0.075882 0.228794
v -0.071379 0.081601 0.320720
v -0.000000 0.081601 0.320720
v 0.140102 0.043831 -0.286440
v -0.000000 0.006961 0.369407
v -0.061730 0.006961 0.369407
v 0.061730 0.006961 0.369407
v 0.061730 0.073552 0.357251
v -0.000000 0.073552 0.357251
v -0.061730 0.073552 0.357251
vt 1.000490 0.304256
vt 0.003362 0.304256
vt 0.003362 0.183178
vt 1.000490 0.183178
vt 1.000490 0.341299
vt 0.003362 0.341299
vt 0.003362 0.335925
vt 1.000490 0.335925
vt 1.000490 0.312173
vt 0.003362 0.312173
vt 1.000490 0.320090
vt 0.003362 0.320090
vt 1.000490 0.328007
vt 0.003362 0.328007
vt 1.000490 0.304256
vt 1.000490 0.183178
vt 0.003362 0.183178
vt 0.003362 0.304256
vt 1.000490 0.335925
vt 0.003362 0.335925
vt 0.003362 0.312173
vt 1.000490 0.312173
vt 0.003362 0.320090
vt 1.000490 0.320090
vt 0.003362 0.328007
vt 1.000490 0.328007
vt 1.000490 0.335925
vt 1.000490 0.328007
vt 1.000490 0.335925
vt 1.000490 0.341299
vt 1.000490 0.320090
vt 1.000490 0.312173
vt 1.000490 0.183178
vt 1.000490 0.304256
vt 1.000490 0.304256
vt 1.000490 0.328007
vt 1.000490 0.320090
vt 1.000490 0.312173
vt 1.000490 0.183178
vt 0.003362 0.312173
vt 0.003362 0.320090
vt 0.003362 0.335925
vt 0.003362 0.328007
vt 0.003362 0.335925
vt 0.003362 0.341299
vt 0.003362 0.312173
vt 0.003362 0.304256
vt 0.003362 0.320090
vt 0.003362 0.183178
vt 0.003362 0.304256
vt 0.003362 0.328007
vt 0.003362 0.183178
vt 0.435104 0.378818
vt 0.411296 0.378834
vt 0.411486 0.370041
vt 0.435181 0.370041
vt 0.566564 0.378818
vt 0.548073 0.378813
vt 0.548062 0.370041
vt 0.566488 0.370041
vt 0.384353 0.378857
vt 0.168614 0.379054
vt 0.170077 0.370041
vt 0.384684 0.370041
vt 0.453595 0.378813
vt 0.453606 0.370041
vt 0.534552 0.378813
vt 0.534552 0.370041
vt 0.617315 0.378857
vt 0.590373 0.378834
vt 0.590182 0.370041
vt 0.616984 0.370041
vt 0.467116 0.378813
vt 0.467116 0.370041
vt 0.833055 0.379054
vt 0.831591 0.370041
vt 0.837562 0.406810
vt 0.618334 0.406007
vt 0.500834 0.405826
vt 0.467116 0.405826
vt 0.500834 0.378813
vt 0.590959 0.405911
vt 0.566800 0.405848
vt 0.410709 0.405911
vt 0.383335 0.406007
vt 0.534552 0.405826
vt 0.453561 0.405826
vt 0.548107 0.405826
vt 0.434869 0.405848
vt 0.164106 0.406810
vt 0.474514 0.958052
vt 0.554491 0.958052
vt 0.554491 0.985342
vt 0.474514 0.985342
vt 0.394537 0.958052
vt 0.394537 0.985342
vt 0.499396 0.958052
vt 0.579373 0.958052
vt 0.579373 0.985342
vt 0.499396 0.985342
vt 0.535085 0.743855
vt 0.501367 0.743855
vt 0.501367 0.723702
vt 0.535085 0.723702
vt 0.467649 0.743855
vt 0.467649 0.723702
vt 0.394537 0.958052
vt 0.419419 0.958052
vt 0.419419 0.985342
vt 0.394537 0.985342
vt 0.604256 0.958052
vt 0.604256 0.985342
vn -0.9988 0.0090 0.0475
vn -1.0000 0.0000 -0.0000
vn 0.0000 0.1870 0.9824
vn -0.1922 0.1835 0.9640
vn -0.9788 0.0383 0.2010
vn -0.8901 0.0852 0.4477
vn -0.6157 0.1473 0.7741
vn 0.9988 0.0090 0.0475
vn 1.0000 0.0000 0.0000
vn 0.1922 0.1835 0.9640
vn 0.9788 0.0383 0.2010
vn 0.8901 0.0852 0.4477
vn 0.6157 0.1473 0.7741
vn -0.0000 -0.9824 0.1870
vn 0.0000 0.9824 -0.1870
vn -0.8992 0.0814 0.4298
vn -0.9809 0.0368 0.1911
vn -0.9784 0.0391 0.2030
vn -0.8916 0.0842 0.4448
vn 0.8992 0.0814 0.4298
vn 0.6331 0.1424 0.7609
vn 0.6166 0.1448 0.7738
vn 0.8916 0.0842 0.4448
vn -0.9989 0.0088 0.0450
vn -0.9987 0.0099 0.0504
vn -0.6331 0.1424 0.7609
vn -0.6166 0.1448 0.7738
vn 0.2682 0.1765 0.9471
vn 0.3930 0.1686 0.9040
vn 0.9989 0.0088 0.0450
vn 0.9809 0.0368 0.1911
vn 0.9784 0.0391 0.2030
vn 0.9987 0.0099 0.0504
vn -0.2682 0.1765 0.9471
vn -0.3930 0.1686 0.9040
vn 0.9990 0.0087 0.0445
vn 0.0000 0.1829 0.9831
vn -0.2026 0.1793 0.9627
vn 0.9811 0.0366 0.1898
vn 0.9002 0.0811 0.4279
vn -0.9811 0.0366 0.1898
vn -0.9990 0.0087 0.0445
vn 0.2026 0.1793 0.9627
vn -0.6348 0.1422 0.7595
vn 0.6348 0.1422 0.7595
vn -0.9002 0.0811 0.4279
vn 0.0000 -0.9998 0.0209
vn 0.0000 0.9766 0.2152
vn 0.0000 0.1796 0.9837
vn 0.9627 0.0491 0.2660
vn -0.9627 0.0491 0.2660
usemtl MI_Trim_03
s 1
f 4/1/1 8/2/1 2/3/2 1/4/2
f 13/5/3 14/6/3 9/7/4 3/8/4
f 8/2/1 4/1/1 7/9/5 10/10/5
f 10/10/5 7/9/5 6/11/6 11/12/6
f 11/12/6 6/11/6 5/13/7 12/14/7
f 12/14/7 5/13/7 3/8/4 9/7/4
f 18/15/8 15/16/9 16/17/9 22/18/8
f 13/5/3 17/19/10 23/20/10 14/6/3
f 22/18/8 24/21/11 21/22/11 18/15/8
f 24/21/11 25/23/12 20/24/12 21/22/11
f 25/23/12 26/25/13 19/26/13 20/24/12
f 19/26/14 17/19/14 35/27/14 37/28/14
f 13/5/14 3/8/14 28/29/14 33/30/14
f 20/24/14 19/26/14 37/28/14 38/31/14
f 21/22/14 20/24/14 38/31/14 39/32/14
f 4/1/14 1/4/14 27/33/14 29/34/14
f 18/15/14 21/22/14 39/32/14 36/35/14
f 3/8/14 5/13/14 30/36/14 28/29/14
f 5/13/14 6/11/14 31/37/14 30/36/14
f 17/19/14 13/5/14 33/30/14 35/27/14
f 6/11/14 7/9/14 32/38/14 31/37/14
f 7/9/14 4/1/14 29/34/14 32/38/14
f 15/16/14 18/15/14 36/35/14 34/39/14
f 25/23/15 24/21/15 63/40/15 64/41/15
f 12/14/15 9/7/15 55/42/15 58/43/15
f 14/6/15 23/20/15 62/44/15 59/45/15
f 8/2/15 10/10/15 56/46/15 54/47/15
f 11/12/15 12/14/15 58/43/15 57/48/15
f 10/10/15 11/12/15 57/48/15 56/46/15
f 22/18/15 16/17/15 60/49/15 61/50/15
f 9/7/15 14/6/15 59/45/15 55/42/15
f 23/20/15 26/25/15 65/51/15 62/44/15
f 24/21/15 22/18/15 61/50/15 63/40/15
f 26/25/15 25/23/15 64/41/15 65/51/15
f 2/3/15 8/2/15 54/47/15 53/52/15
f 54/47/15 56/46/15 57/48/15 58/43/15 55/42/15 59/45/15 62/44/15 65/51/15 64/41/15 63/40/15 61/50/15 60/49/15 53/52/15
f 26/25/13 23/20/10 17/19/10 19/26/13
usemtl MI_Trim_02
f 66/53/16 67/54/17 45/55/18 44/56/19
f 68/57/20 69/58/21 50/59/22 51/60/23
f 70/61/24 71/62/2 40/63/2 42/64/25
f 72/65/26 66/53/16 44/56/19 43/66/27
f 69/58/21 73/67/28 48/68/29 50/59/22
f 74/69/30 75/70/31 52/71/32 49/72/33
f 76/73/34 72/65/26 43/66/27 41/74/35
f 67/54/17 70/61/24 42/64/25 45/55/18
f 75/70/31 68/57/20 51/60/23 52/71/32
f 78/75/9 74/69/30 49/72/33 47/76/9
f 34/77/9 36/78/36 74/69/30 78/75/9
f 33/79/37 28/80/38 76/73/34 77/81/37
f 39/82/39 38/83/40 68/57/20 75/70/31
f 32/84/41 29/85/42 70/61/24 67/54/17
f 35/86/43 33/79/37 77/81/37 73/67/28
f 28/80/38 30/87/44 72/65/26 76/73/34
f 36/78/36 39/82/39 75/70/31 74/69/30
f 37/88/45 35/86/43 73/67/28 69/58/21
f 30/87/44 31/89/46 66/53/16 72/65/26
f 29/85/42 27/90/2 71/62/2 70/61/24
f 38/83/40 37/88/45 69/58/21 68/57/20
f 31/89/46 32/84/41 67/54/17 66/53/16
usemtl MI_Trim_01
s off
f 46/91/47 48/92/47 81/93/47 79/94/47
f 41/95/47 46/91/47 79/94/47 80/96/47
s 1
f 77/97/48 76/98/48 84/99/48 83/100/48
f 82/101/49 83/102/49 79/103/49 81/104/49
f 83/102/49 84/105/49 80/106/49 79/103/49
f 48/107/50 73/108/50 82/109/50 81/110/50
f 76/98/51 41/111/51 80/112/51 84/99/51
f 73/108/48 77/97/48 83/100/48 82/109/48
