{
	"asset":{
		"generator":"Khronos glTF Blender I/O v4.0.44",
		"version":"2.0"
	},
	"scene":0,
	"scenes":[
		{
			"name":"Scene",
			"nodes":[
				11
			]
		}
	],
	"nodes":[
		{
			"name":"Spine_6",
			"rotation":[
				-0.09716282784938812,
				1.1864518256743395e-07,
				-3.474814036508178e-08,
				0.9952684640884399
			],
			"translation":[
				-1.7670940259022563e-14,
				0.2223144769668579,
				3.725290298461914e-08
			]
		},
		{
			"children":[
				0
			],
			"name":"Spine_5",
			"rotation":[
				-0.10994503647089005,
				-4.467978518087924e-14,
				-2.6212939374659072e-08,
				0.9939376711845398
			],
			"scale":[
				1,
				0.9999999403953552,
				1
			],
			"translation":[
				-5.481789711557754e-16,
				0.21801047027111053,
				7.450580596923828e-09
			]
		},
		{
			"children":[
				1
			],
			"name":"Spine_4",
			"rotation":[
				-0.06136959791183472,
				1.189846514648707e-07,
				-7.315828831622184e-09,
				0.9981151223182678
			],
			"scale":[
				1,
				1,
				0.9999999403953552
			],
			"translation":[
				-1.6543612251060553e-24,
				0.1972671002149582,
				-7.450580596923828e-09
			]
		},
		{
			"children":[
				2
			],
			"name":"Spine_3",
			"rotation":[
				-0.1489918828010559,
				-3.325156947222761e-23,
				3.3082840444874576e-17,
				0.9888384342193604
			],
			"translation":[
				-2.481541837659083e-24,
				0.2595878839492798,
				-2.561137080192566e-09
			]
		},
		{
			"children":[
				3
			],
			"name":"Spine_2",
			"rotation":[
				-0.12393195927143097,
				-6.37470180135339e-17,
				9.422887504901919e-17,
				0.9922906756401062
			],
			"translation":[
				0,
				0.29584527015686035,
				3.725290298461914e-09
			]
		},
		{
			"name":"Eyes.L",
			"rotation":[
				0.989220380783081,
				1.7456365242196625e-08,
				1.179242588023044e-07,
				0.1464344561100006
			],
			"scale":[
				1,
				0.9999999403953552,
				1.0000017881393433
			],
			"translation":[
				0.18659871816635132,
				0.1525430828332901,
				-0.2618483603000641
			]
		},
		{
			"name":"Eyes.R",
			"rotation":[
				0.989220380783081,
				-1.7456365242196625e-08,
				-1.179242588023044e-07,
				0.1464344561100006
			],
			"scale":[
				1,
				0.9999999403953552,
				1.0000017881393433
			],
			"translation":[
				-0.18659871816635132,
				0.1525430828332901,
				-0.2618483603000641
			]
		},
		{
			"children":[
				4,
				5,
				6
			],
			"name":"Spine_1",
			"rotation":[
				-0.9892203211784363,
				2.8322442489411503e-17,
				2.8322472267913555e-17,
				0.14643464982509613
			],
			"scale":[
				1,
				1,
				0.9999999403953552
			],
			"translation":[
				5.4009851506698584e-17,
				0.4898851811885834,
				-0.018438847735524178
			]
		},
		{
			"children":[
				7
			],
			"name":"Root"
		},
		{
			"mesh":0,
			"name":"Alien_Oculichrysalis",
			"skin":0
		},
		{
			"mesh":1,
			"name":"Eyes",
			"skin":0
		},
		{
			"children":[
				9,
				10,
				8
			],
			"name":"Alien_Armature"
		}
	],
	"animations":[
		{
			"channels":[
				{
					"sampler":0,
					"target":{
						"node":8,
						"path":"translation"
					}
				},
				{
					"sampler":1,
					"target":{
						"node":8,
						"path":"rotation"
					}
				},
				{
					"sampler":2,
					"target":{
						"node":8,
						"path":"scale"
					}
				},
				{
					"sampler":3,
					"target":{
						"node":7,
						"path":"translation"
					}
				},
				{
					"sampler":4,
					"target":{
						"node":7,
						"path":"rotation"
					}
				},
				{
					"sampler":5,
					"target":{
						"node":7,
						"path":"scale"
					}
				},
				{
					"sampler":6,
					"target":{
						"node":4,
						"path":"translation"
					}
				},
				{
					"sampler":7,
					"target":{
						"node":4,
						"path":"rotation"
					}
				},
				{
					"sampler":8,
					"target":{
						"node":4,
						"path":"scale"
					}
				},
				{
					"sampler":9,
					"target":{
						"node":3,
						"path":"translation"
					}
				},
				{
					"sampler":10,
					"target":{
						"node":3,
						"path":"rotation"
					}
				},
				{
					"sampler":11,
					"target":{
						"node":3,
						"path":"scale"
					}
				},
				{
					"sampler":12,
					"target":{
						"node":2,
						"path":"translation"
					}
				},
				{
					"sampler":13,
					"target":{
						"node":2,
						"path":"rotation"
					}
				},
				{
					"sampler":14,
					"target":{
						"node":2,
						"path":"scale"
					}
				},
				{
					"sampler":15,
					"target":{
						"node":1,
						"path":"translation"
					}
				},
				{
					"sampler":16,
					"target":{
						"node":1,
						"path":"rotation"
					}
				},
				{
					"sampler":17,
					"target":{
						"node":1,
						"path":"scale"
					}
				},
				{
					"sampler":18,
					"target":{
						"node":0,
						"path":"translation"
					}
				},
				{
					"sampler":19,
					"target":{
						"node":0,
						"path":"rotation"
					}
				},
				{
					"sampler":20,
					"target":{
						"node":0,
						"path":"scale"
					}
				},
				{
					"sampler":21,
					"target":{
						"node":5,
						"path":"translation"
					}
				},
				{
					"sampler":22,
					"target":{
						"node":5,
						"path":"rotation"
					}
				},
				{
					"sampler":23,
					"target":{
						"node":5,
						"path":"scale"
					}
				},
				{
					"sampler":24,
					"target":{
						"node":6,
						"path":"translation"
					}
				},
				{
					"sampler":25,
					"target":{
						"node":6,
						"path":"rotation"
					}
				},
				{
					"sampler":26,
					"target":{
						"node":6,
						"path":"scale"
					}
				}
			],
			"name":"Alien_Idle",
			"samplers":[
				{
					"input":14,
					"interpolation":"STEP",
					"output":15
				},
				{
					"input":14,
					"interpolation":"STEP",
					"output":16
				},
				{
					"input":14,
					"interpolation":"STEP",
					"output":17
				},
				{
					"input":18,
					"interpolation":"LINEAR",
					"output":19
				},
				{
					"input":18,
					"interpolation":"LINEAR",
					"output":20
				},
				{
					"input":14,
					"interpolation":"STEP",
					"output":21
				},
				{
					"input":14,
					"interpolation":"STEP",
					"output":22
				},
				{
					"input":18,
					"interpolation":"LINEAR",
					"output":23
				},
				{
					"input":14,
					"interpolation":"STEP",
					"output":24
				},
				{
					"input":14,
					"interpolation":"STEP",
					"output":25
				},
				{
					"input":18,
					"interpolation":"LINEAR",
					"output":26
				},
				{
					"input":14,
					"interpolation":"STEP",
					"output":27
				},
				{
					"input":14,
					"interpolation":"STEP",
					"output":28
				},
				{
					"input":18,
					"interpolation":"LINEAR",
					"output":29
				},
				{
					"input":14,
					"interpolation":"STEP",
					"output":30
				},
				{
					"input":14,
					"interpolation":"STEP",
					"output":31
				},
				{
					"input":18,
					"interpolation":"LINEAR",
					"output":32
				},
				{
					"input":14,
					"interpolation":"STEP",
					"output":33
				},
				{
					"input":14,
					"interpolation":"STEP",
					"output":34
				},
				{
					"input":18,
					"interpolation":"LINEAR",
					"output":35
				},
				{
					"input":14,
					"interpolation":"STEP",
					"output":36
				},
				{
					"input":14,
					"interpolation":"STEP",
					"output":37
				},
				{
					"input":14,
					"interpolation":"STEP",
					"output":38
				},
				{
					"input":14,
					"interpolation":"STEP",
					"output":39
				},
				{
					"input":14,
					"interpolation":"STEP",
					"output":40
				},
				{
					"input":14,
					"interpolation":"STEP",
					"output":41
				},
				{
					"input":14,
					"interpolation":"STEP",
					"output":42
				}
			]
		}
	],
	"materials":[
		{
			"doubleSided":true,
			"name":"M_Alien_Orange",
			"pbrMetallicRoughness":{
				"baseColorFactor":[
					0.33500367403030396,
					0.05269434303045273,
					0.013306817039847374,
					1
				],
				"metallicFactor":0,
				"roughnessFactor":0.437007874250412
			}
		},
		{
			"doubleSided":true,
			"name":"M_Alien_Eyes",
			"pbrMetallicRoughness":{
				"baseColorFactor":[
					0.0010511603904888034,
					0.00290103442966938,
					0.004038436338305473,
					1
				],
				"metallicFactor":0,
				"roughnessFactor":0.5
			}
		}
	],
	"meshes":[
		{
			"name":"Oculichrysalis",
			"primitives":[
				{
					"attributes":{
						"COLOR_0":0,
						"POSITION":1,
						"NORMAL":2,
						"TEXCOORD_0":3,
						"JOINTS_0":4,
						"WEIGHTS_0":5
					},
					"indices":6,
					"material":0
				}
			]
		},
		{
			"name":"Sphere.004",
			"primitives":[
				{
					"attributes":{
						"POSITION":8,
						"NORMAL":9,
						"TEXCOORD_0":10,
						"JOINTS_0":11,
						"WEIGHTS_0":12
					},
					"indices":13,
					"material":1
				}
			]
		}
	],
	"skins":[
		{
			"inverseBindMatrices":7,
			"joints":[
				8,
				7,
				4,
				3,
				2,
				1,
				0,
				5,
				6
			],
			"name":"Alien_Armature"
		}
	],
	"accessors":[
		{
			"bufferView":0,
			"componentType":5123,
			"count":2646,
			"normalized":true,
			"type":"VEC4"
		},
		{
			"bufferView":1,
			"componentType":5126,
			"count":2646,
			"max":[
				0.40460774302482605,
				0.6556020379066467,
				0.40230169892311096
			],
			"min":[
				-0.40460774302482605,
				-0.8716927170753479,
				-0.4190417230129242
			],
			"type":"VEC3"
		},
		{
			"bufferView":2,
			"componentType":5126,
			"count":2646,
			"type":"VEC3"
		},
		{
			"bufferView":3,
			"componentType":5126,
			"count":2646,
			"type":"VEC2"
		},
		{
			"bufferView":4,
			"componentType":5121,
			"count":2646,
			"type":"VEC4"
		},
		{
			"bufferView":5,
			"componentType":5126,
			"count":2646,
			"type":"VEC4"
		},
		{
			"bufferView":6,
			"componentType":5123,
			"count":15864,
			"type":"SCALAR"
		},
		{
			"bufferView":7,
			"componentType":5126,
			"count":9,
			"type":"MAT4"
		},
		{
			"bufferView":8,
			"componentType":5126,
			"count":584,
			"max":[
				0.2761332392692566,
				0.3562678396701813,
				0.2646765112876892
			],
			"min":[
				-0.2761332392692566,
				0.2150152176618576,
				0.06809879094362259
			],
			"type":"VEC3"
		},
		{
			"bufferView":9,
			"componentType":5126,
			"count":584,
			"type":"VEC3"
		},
		{
			"bufferView":10,
			"componentType":5126,
			"count":584,
			"type":"VEC2"
		},
		{
			"bufferView":11,
			"componentType":5121,
			"count":584,
			"type":"VEC4"
		},
		{
			"bufferView":12,
			"componentType":5126,
			"count":584,
			"type":"VEC4"
		},
		{
			"bufferView":13,
			"componentType":5123,
			"count":3456,
			"type":"SCALAR"
		},
		{
			"bufferView":14,
			"componentType":5126,
			"count":2,
			"max":[
				3.3333333333333335
			],
			"min":[
				0
			],
			"type":"SCALAR"
		},
		{
			"bufferView":15,
			"componentType":5126,
			"count":2,
			"type":"VEC3"
		},
		{
			"bufferView":16,
			"componentType":5126,
			"count":2,
			"type":"VEC4"
		},
		{
			"bufferView":17,
			"componentType":5126,
			"count":2,
			"type":"VEC3"
		},
		{
			"bufferView":18,
			"componentType":5126,
			"count":101,
			"max":[
				3.3333333333333335
			],
			"min":[
				0
			],
			"type":"SCALAR"
		},
		{
			"bufferView":19,
			"componentType":5126,
			"count":101,
			"type":"VEC3"
		},
		{
			"bufferView":20,
			"componentType":5126,
			"count":101,
			"type":"VEC4"
		},
		{
			"bufferView":21,
			"componentType":5126,
			"count":2,
			"type":"VEC3"
		},
		{
			"bufferView":22,
			"componentType":5126,
			"count":2,
			"type":"VEC3"
		},
		{
			"bufferView":23,
			"componentType":5126,
			"count":101,
			"type":"VEC4"
		},
		{
			"bufferView":24,
			"componentType":5126,
			"count":2,
			"type":"VEC3"
		},
		{
			"bufferView":25,
			"componentType":5126,
			"count":2,
			"type":"VEC3"
		},
		{
			"bufferView":26,
			"componentType":5126,
			"count":101,
			"type":"VEC4"
		},
		{
			"bufferView":27,
			"componentType":5126,
			"count":2,
			"type":"VEC3"
		},
		{
			"bufferView":28,
			"componentType":5126,
			"count":2,
			"type":"VEC3"
		},
		{
			"bufferView":29,
			"componentType":5126,
			"count":101,
			"type":"VEC4"
		},
		{
			"bufferView":30,
			"componentType":5126,
			"count":2,
			"type":"VEC3"
		},
		{
			"bufferView":31,
			"componentType":5126,
			"count":2,
			"type":"VEC3"
		},
		{
			"bufferView":32,
			"componentType":5126,
			"count":101,
			"type":"VEC4"
		},
		{
			"bufferView":33,
			"componentType":5126,
			"count":2,
			"type":"VEC3"
		},
		{
			"bufferView":34,
			"componentType":5126,
			"count":2,
			"type":"VEC3"
		},
		{
			"bufferView":35,
			"componentType":5126,
			"count":101,
			"type":"VEC4"
		},
		{
			"bufferView":36,
			"componentType":5126,
			"count":2,
			"type":"VEC3"
		},
		{
			"bufferView":37,
			"componentType":5126,
			"count":2,
			"type":"VEC3"
		},
		{
			"bufferView":38,
			"componentType":5126,
			"count":2,
			"type":"VEC4"
		},
		{
			"bufferView":39,
			"componentType":5126,
			"count":2,
			"type":"VEC3"
		},
		{
			"bufferView":40,
			"componentType":5126,
			"count":2,
			"type":"VEC3"
		},
		{
			"bufferView":41,
			"componentType":5126,
			"count":2,
			"type":"VEC4"
		},
		{
			"bufferView":42,
			"componentType":5126,
			"count":2,
			"type":"VEC3"
		}
	],
	"bufferViews":[
		{
			"buffer":0,
			"byteLength":21168,
			"byteOffset":0,
			"target":34962
		},
		{
			"buffer":0,
			"byteLength":31752,
			"byteOffset":21168,
			"target":34962
		},
		{
			"buffer":0,
			"byteLength":31752,
			"byteOffset":52920,
			"target":34962
		},
		{
			"buffer":0,
			"byteLength":21168,
			"byteOffset":84672,
			"target":34962
		},
		{
			"buffer":0,
			"byteLength":10584,
			"byteOffset":105840,
			"target":34962
		},
		{
			"buffer":0,
			"byteLength":42336,
			"byteOffset":116424,
			"target":34962
		},
		{
			"buffer":0,
			"byteLength":31728,
			"byteOffset":158760,
			"target":34963
		},
		{
			"buffer":0,
			"byteLength":576,
			"byteOffset":190488
		},
		{
			"buffer":0,
			"byteLength":7008,
			"byteOffset":191064,
			"target":34962
		},
		{
			"buffer":0,
			"byteLength":7008,
			"byteOffset":198072,
			"target":34962
		},
		{
			"buffer":0,
			"byteLength":4672,
			"byteOffset":205080,
			"target":34962
		},
		{
			"buffer":0,
			"byteLength":2336,
			"byteOffset":209752,
			"target":34962
		},
		{
			"buffer":0,
			"byteLength":9344,
			"byteOffset":212088,
			"target":34962
		},
		{
			"buffer":0,
			"byteLength":6912,
			"byteOffset":221432,
			"target":34963
		},
		{
			"buffer":0,
			"byteLength":8,
			"byteOffset":228344
		},
		{
			"buffer":0,
			"byteLength":24,
			"byteOffset":228352
		},
		{
			"buffer":0,
			"byteLength":32,
			"byteOffset":228376
		},
		{
			"buffer":0,
			"byteLength":24,
			"byteOffset":228408
		},
		{
			"buffer":0,
			"byteLength":404,
			"byteOffset":228432
		},
		{
			"buffer":0,
			"byteLength":1212,
			"byteOffset":228836
		},
		{
			"buffer":0,
			"byteLength":1616,
			"byteOffset":230048
		},
		{
			"buffer":0,
			"byteLength":24,
			"byteOffset":231664
		},
		{
			"buffer":0,
			"byteLength":24,
			"byteOffset":231688
		},
		{
			"buffer":0,
			"byteLength":1616,
			"byteOffset":231712
		},
		{
			"buffer":0,
			"byteLength":24,
			"byteOffset":233328
		},
		{
			"buffer":0,
			"byteLength":24,
			"byteOffset":233352
		},
		{
			"buffer":0,
			"byteLength":1616,
			"byteOffset":233376
		},
		{
			"buffer":0,
			"byteLength":24,
			"byteOffset":234992
		},
		{
			"buffer":0,
			"byteLength":24,
			"byteOffset":235016
		},
		{
			"buffer":0,
			"byteLength":1616,
			"byteOffset":235040
		},
		{
			"buffer":0,
			"byteLength":24,
			"byteOffset":236656
		},
		{
			"buffer":0,
			"byteLength":24,
			"byteOffset":236680
		},
		{
			"buffer":0,
			"byteLength":1616,
			"byteOffset":236704
		},
		{
			"buffer":0,
			"byteLength":24,
			"byteOffset":238320
		},
		{
			"buffer":0,
			"byteLength":24,
			"byteOffset":238344
		},
		{
			"buffer":0,
			"byteLength":1616,
			"byteOffset":238368
		},
		{
			"buffer":0,
			"byteLength":24,
			"byteOffset":239984
		},
		{
			"buffer":0,
			"byteLength":24,
			"byteOffset":240008
		},
		{
			"buffer":0,
			"byteLength":32,
			"byteOffset":240032
		},
		{
			"buffer":0,
			"byteLength":24,
			"byteOffset":240064
		},
		{
			"buffer":0,
			"byteLength":24,
			"byteOffset":240088
		},
		{
			"buffer":0,
			"byteLength":32,
			"byteOffset":240112
		},
		{
			"buffer":0,
			"byteLength":24,
			"byteOffset":240144
		}
	],
	"buffers":[
		{
			"byteLength":240168,
			"uri":"Alien_Oculichrysalis.bin"
		}
	]
}
