# Blender v3.6.0 OBJ File: 'AllModules_Unreal.blend'
# www.blender.org
mtllib BottomMetal_Straight.mtl
o BottomMetal_Straight_Plane.112
v -1.400000 0.000000 2.000000
v -2.000000 0.000000 2.000000
v -1.400000 0.000000 0.000000
v -1.400000 -0.000000 -2.000000
v -2.000000 0.000000 0.000000
v -2.000000 -0.000000 -2.000000
v -1.800000 0.020000 2.000000
v -1.800000 0.020000 0.000000
v -1.800000 0.020000 -2.000000
v -1.400000 0.020000 2.000000
v -1.400000 0.020000 0.000000
v -1.400000 0.020000 -2.000000
v -2.000000 0.020000 0.000000
v -2.000000 0.020000 2.000000
v -2.000000 0.020000 -2.000000
vt 0.327468 0.026098
vt 0.327468 0.000558
vt 0.534509 0.000558
vt 0.534509 0.026098
vt 0.741550 0.000558
vt 0.741550 0.026098
vt 0.741550 0.026098
vt 0.534509 0.026098
vt 0.327468 0.026098
vt 0.259241 0.944692
vt 0.500000 0.944692
vt 0.500000 0.938121
vt 0.259241 0.938121
vt 0.500000 0.999850
vt 0.753002 0.938138
vt 0.753002 0.999850
vt 0.246998 0.999850
vt 0.246998 0.938138
vt 0.740759 0.944692
vt 0.740759 0.938121
vn 0.0000 1.0000 -0.0000
vn -1.0000 0.0000 0.0000
vn 1.0000 0.0000 0.0000
usemtl MI_Trim_01
s 1
f 14/1/1 7/2/1 8/3/1 13/4/1
f 13/4/1 8/3/1 9/5/1 15/6/1
f 6/7/2 5/8/2 13/4/2 15/6/2
f 5/8/2 2/9/2 14/1/2 13/4/2
usemtl MI_Trim_02
f 1/10/3 3/11/3 11/12/3 10/13/3
f 8/14/1 11/12/1 12/15/1 9/16/1
f 7/17/1 10/18/1 11/12/1 8/14/1
f 3/11/3 4/19/3 12/20/3 11/12/3
