# Blender v3.6.0 OBJ File: 'AllModules_Unreal.blend'
# www.blender.org
mtllib BottomSimple_Corner_Round_Outer.mtl
o BottomSimple_Corner_Round_Outer_Plane.170
v 0.000000 0.000000 -4.600000
v -1.761316 -0.000000 -4.250387
v -3.252921 -0.000001 -3.252944
v -1.608212 0.020000 -3.880847
v -3.252921 0.020000 -3.252944
v -1.761315 0.020000 -4.250387
v 0.000000 0.020000 -4.600000
v -1.330880 -0.000000 -4.407948
v -0.887976 -0.000000 -4.521740
v -0.441349 0.000000 -4.585929
v -0.402609 0.020000 -4.187810
v -1.330880 0.020000 -4.407949
v -0.887976 0.020000 -4.521740
v -0.441349 0.020000 -4.585929
v -2.925168 0.000000 -3.557947
v -2.564865 -0.000000 -3.828288
v -2.175538 0.000000 -4.060318
v -1.986788 0.020000 -3.707653
v -2.925168 0.020000 -3.557947
v -2.564865 0.020000 -3.828289
v -2.175538 0.020000 -4.060318
v -1.531660 0.020000 -3.696078
v -0.000000 0.020000 -4.200000
v -0.000001 0.020000 -4.000000
v -2.544324 0.020000 -3.094310
v -2.231197 0.020000 -3.329623
v -1.892413 0.020000 -3.531320
v -2.671272 0.020000 -3.248856
v -2.342419 0.020000 -3.495844
v -1.215038 0.020000 -4.025090
v -0.810451 0.020000 -4.129324
v -1.157118 0.020000 -3.833660
v -0.771689 0.020000 -3.933115
v -0.383239 0.020000 -3.988750
v -1.512251 -0.000000 -3.649231
v -0.000001 0.000000 -3.949293
v -0.000001 0.020000 -3.949292
v -1.868486 0.000000 -3.486613
v -0.378328 -0.000000 -3.938281
v -2.792803 -0.000001 -2.792824
v -1.868486 0.020000 -3.486613
v -1.512251 0.020000 -3.649231
v -0.378328 0.020000 -3.938281
v -2.792803 0.020000 -2.792824
v -2.512138 -0.000000 -3.055127
v -2.202998 -0.000000 -3.287480
v -2.512138 0.020000 -3.055127
v -2.202998 0.020000 -3.287480
v -0.761862 -0.000000 -3.883370
v -1.142433 0.000000 -3.785125
v -1.142433 0.020000 -3.785125
v -0.761862 0.019999 -3.883370
v -4.600002 -0.000000 -0.000022
v -4.250373 -0.000000 -1.761346
v -3.880835 0.020000 -1.608240
v -4.600003 0.019999 -0.000022
v -4.250373 0.020000 -1.761346
v -3.828269 -0.000000 -2.564892
v -4.060304 0.000000 -2.175565
v -3.557926 -0.000000 -2.925193
v -3.707639 0.020000 -1.986813
v -4.060304 0.020000 -2.175565
v -3.828269 0.020000 -2.564892
v -3.557925 0.020000 -2.925193
v -4.585928 -0.000001 -0.441374
v -4.521733 -0.000000 -0.888006
v -4.407939 -0.000001 -1.330910
v -4.187808 0.019999 -0.402631
v -4.129317 0.019999 -0.810479
v -4.585927 0.019999 -0.441374
v -4.521732 0.019999 -0.888006
v -4.407938 0.020000 -1.330910
v -3.696065 0.020000 -1.531687
v -4.000003 0.019999 -0.000019
v -4.200004 0.019999 -0.000020
v -2.970078 0.020000 -2.970100
v -2.828657 0.020000 -2.828678
v -3.988747 0.019999 -0.383260
v -3.933110 0.019999 -0.771716
v -3.833652 0.020000 -1.157145
v -4.025081 0.019999 -1.215067
v -3.495828 0.019999 -2.342444
v -3.248837 0.020000 -2.671295
v -3.531306 0.020000 -1.892437
v -3.329607 0.019999 -2.231220
v -3.094292 0.020000 -2.544346
v -3.785118 -0.000000 -1.142459
v -3.649220 -0.000000 -1.512278
v -3.055110 0.000000 -2.512160
v -3.949296 -0.000001 -0.000019
v -3.785118 0.019999 -1.142460
v -3.649220 0.020000 -1.512277
v -3.055110 0.020000 -2.512159
v -3.949296 0.019999 -0.000019
v -3.938278 -0.000001 -0.378348
v -3.883364 -0.000001 -0.761888
v -3.938278 0.019999 -0.378348
v -3.883364 0.019999 -0.761888
v -3.486599 -0.000000 -1.868509
v -3.287464 -0.000001 -2.203020
v -3.486599 0.020000 -1.868509
v -3.287464 0.019999 -2.203020
vt 0.546651 0.357565
vt 0.546651 0.361202
vt 0.464165 0.361202
vt 0.464165 0.357565
vt 0.216772 0.433941
vt 0.136959 0.433941
vt 0.136959 0.361202
vt 0.216772 0.361202
vt 0.546651 0.433941
vt 0.464165 0.433941
vt 0.216772 0.357565
vt 0.136959 0.357565
vt 0.381188 0.361202
vt 0.381188 0.357565
vt 0.298408 0.361202
vt 0.298408 0.357565
vt 0.381188 0.433941
vt 0.298408 0.433941
vt 0.791125 0.433941
vt 0.710155 0.433941
vt 0.710155 0.361202
vt 0.791125 0.361202
vt 0.628666 0.433941
vt 0.628666 0.361202
vt 0.791125 0.357565
vt 0.710155 0.357565
vt 0.628666 0.357565
vt 0.467189 0.071839
vt 0.467189 0.062759
vt 0.423927 0.062759
vt 0.423927 0.071839
vt 0.433821 0.308612
vt 0.505984 0.308612
vt 0.505984 0.268583
vt 0.433821 0.268583
vt 0.722474 0.308612
vt 0.794637 0.308612
vt 0.794637 0.268583
vt 0.722474 0.268583
vt 0.596974 0.071839
vt 0.596974 0.062759
vt 0.553713 0.062759
vt 0.553713 0.071839
vt 0.510451 0.071839
vt 0.510451 0.062759
vt 0.217332 0.308612
vt 0.289495 0.308612
vt 0.289495 0.268583
vt 0.217332 0.268583
vt 0.361658 0.308612
vt 0.361658 0.268583
vt 0.640236 0.071839
vt 0.640236 0.062759
vt 0.578147 0.308612
vt 0.578147 0.268583
vt 0.650311 0.308612
vt 0.650311 0.268583
vt 0.683498 0.071839
vt 0.683498 0.062759
vt 0.581841 0.372748
vt 0.581841 0.382856
vt 0.514498 0.382856
vt 0.514498 0.372748
vt 0.312469 0.372748
vt 0.312469 0.382856
vt 0.245125 0.382856
vt 0.245125 0.372748
vt 0.447155 0.382856
vt 0.447155 0.372748
vt 0.379812 0.382856
vt 0.379812 0.372748
vt 0.783870 0.372748
vt 0.783870 0.382856
vt 0.716527 0.382856
vt 0.716527 0.372748
vt 0.649184 0.382856
vt 0.649184 0.372748
vt 0.380665 0.062759
vt 0.380665 0.071839
vt 0.337404 0.062759
vt 0.337404 0.071839
vt 0.546323 0.357565
vt 0.546323 0.361202
vt 0.463345 0.361202
vt 0.463345 0.357565
vt 0.217356 0.357565
vt 0.217356 0.361202
vt 0.136386 0.361202
vt 0.136386 0.357565
vt 0.380860 0.361202
vt 0.380860 0.357565
vt 0.298845 0.361202
vt 0.298845 0.357565
vt 0.790553 0.357565
vt 0.790553 0.361202
vt 0.710740 0.361202
vt 0.710740 0.357565
vt 0.629103 0.361202
vt 0.629103 0.357565
vt 0.467189 0.071839
vt 0.467189 0.062759
vt 0.423927 0.062759
vt 0.423927 0.071839
vt 0.433821 0.308612
vt 0.505984 0.308612
vt 0.505984 0.268583
vt 0.433821 0.268583
vt 0.722474 0.308612
vt 0.794637 0.308612
vt 0.794637 0.268583
vt 0.722474 0.268583
vt 0.596974 0.071839
vt 0.596974 0.062759
vt 0.553713 0.062759
vt 0.553713 0.071839
vt 0.510451 0.071839
vt 0.510451 0.062759
vt 0.217332 0.308612
vt 0.289495 0.308612
vt 0.289495 0.268583
vt 0.217332 0.268583
vt 0.361658 0.308612
vt 0.361658 0.268583
vt 0.640236 0.071839
vt 0.640236 0.062759
vt 0.578147 0.308612
vt 0.578147 0.268583
vt 0.650311 0.308612
vt 0.650311 0.268583
vt 0.683498 0.071839
vt 0.683498 0.062759
vt 0.581841 0.372748
vt 0.581841 0.382856
vt 0.514498 0.382856
vt 0.514498 0.372748
vt 0.312469 0.372748
vt 0.312469 0.382856
vt 0.245125 0.382856
vt 0.245125 0.372748
vt 0.447155 0.382856
vt 0.447155 0.372748
vt 0.379812 0.382856
vt 0.379812 0.372748
vt 0.783870 0.372748
vt 0.783870 0.382856
vt 0.716527 0.382856
vt 0.716527 0.372748
vt 0.649184 0.382856
vt 0.649184 0.372748
vt 0.380665 0.062759
vt 0.380665 0.071839
vt 0.337404 0.062759
vt 0.337404 0.071839
vt 0.629103 0.433941
vt 0.546323 0.433941
vt 0.710740 0.433941
vt 0.790553 0.433941
vt 0.298845 0.433941
vt 0.217356 0.433941
vt 0.380860 0.433941
vt 0.463345 0.433941
vt 0.136386 0.433941
vn -0.4652 0.0000 -0.8852
vn -0.3344 0.6952 -0.6363
vn -0.2725 0.6983 -0.6619
vn -0.3807 -0.0000 -0.9247
vn -0.0000 1.0000 0.0000
vn -0.0228 0.6998 -0.7140
vn -0.0627 0.6948 -0.7164
vn -0.0872 0.0000 -0.9962
vn -0.0319 0.0000 -0.9995
vn -0.2130 0.6961 -0.6856
vn -0.2967 -0.0000 -0.9550
vn -0.1408 0.6951 -0.7050
vn -0.1958 -0.0000 -0.9806
vn -0.4611 0.6954 -0.5512
vn -0.5056 0.6991 -0.5056
vn -0.4002 0.6953 -0.5969
vn -0.7071 0.0000 -0.7071
vn -0.6416 -0.0000 -0.7670
vn -0.5568 -0.0000 -0.8306
vn 0.2978 0.0000 0.9546
vn 0.3804 0.0000 0.9248
vn 0.6427 0.0000 0.7661
vn 0.7071 0.0000 0.7071
vn 0.4641 0.0000 0.8858
vn 0.5570 0.0000 0.8305
vn 0.0291 -0.0000 0.9996
vn 0.0855 -0.0000 0.9963
vn 0.1961 0.0000 0.9806
vn -0.9550 0.0000 -0.2967
vn -0.6856 0.6961 -0.2130
vn -0.6619 0.6983 -0.2725
vn -0.9247 0.0000 -0.3807
vn -0.7670 0.0000 -0.6416
vn -0.5512 0.6954 -0.4611
vn -0.6363 0.6952 -0.3344
vn -0.8852 0.0000 -0.4652
vn -0.5969 0.6954 -0.4002
vn -0.8306 0.0000 -0.5569
vn -0.9995 0.0000 -0.0319
vn -0.7140 0.6998 -0.0228
vn -0.7164 0.6949 -0.0627
vn -0.9962 0.0000 -0.0872
vn -0.7050 0.6951 -0.1408
vn -0.9806 0.0001 -0.1958
vn 0.8858 0.0000 0.4641
vn 0.9248 -0.0000 0.3804
vn 0.9963 0.0000 0.0856
vn 0.9996 0.0000 0.0291
vn 0.9546 -0.0000 0.2978
vn 0.9806 0.0000 0.1961
vn 0.7661 0.0000 0.6427
vn 0.8305 0.0000 0.5570
usemtl MI_Trim_03_Dark
s 1
f 17/1/1 21/2/2 6/3/3 2/4/4
f 11/5/5 23/6/5 7/7/6 14/8/7
f 18/9/5 4/10/5 6/3/3 21/2/2
f 10/11/8 14/8/7 7/7/6 1/12/9
f 2/4/4 6/3/3 12/13/10 8/14/11
f 8/14/11 12/13/10 13/15/12 9/16/13
f 9/16/13 13/15/12 14/8/7 10/11/8
f 4/10/5 30/17/5 12/13/10 6/3/3
f 30/17/5 31/18/5 13/15/12 12/13/10
f 31/18/5 11/5/5 14/8/7 13/15/12
f 76/19/5 28/20/5 19/21/14 5/22/15
f 28/20/5 29/23/5 20/24/16 19/21/14
f 29/23/5 18/9/5 21/2/2 20/24/16
f 3/25/17 5/22/15 19/21/14 15/26/18
f 15/26/18 19/21/14 20/24/16 16/27/19
f 16/27/19 20/24/16 21/2/2 17/1/1
f 32/28/5 51/29/5 52/30/5 33/31/5
f 27/32/5 22/33/5 4/34/5 18/35/5
f 34/36/5 24/37/5 23/38/5 11/39/5
f 26/40/5 48/41/5 41/42/5 27/43/5
f 22/44/5 42/45/5 51/29/5 32/28/5
f 77/46/5 25/47/5 28/48/5 76/49/5
f 25/47/5 26/50/5 29/51/5 28/48/5
f 26/50/5 27/32/5 18/35/5 29/51/5
f 25/52/5 47/53/5 48/41/5 26/40/5
f 27/43/5 41/42/5 42/45/5 22/44/5
f 22/33/5 32/54/5 30/55/5 4/34/5
f 32/54/5 33/56/5 31/57/5 30/55/5
f 33/56/5 34/36/5 11/39/5 31/57/5
f 77/58/5 44/59/5 47/53/5 25/52/5
f 50/60/20 51/61/20 42/62/21 35/63/21
f 45/64/22 47/65/22 44/66/23 40/67/23
f 35/63/21 42/62/21 41/68/24 38/69/24
f 38/69/24 41/68/24 48/70/25 46/71/25
f 46/71/25 48/70/25 47/65/22 45/64/22
f 36/72/26 37/73/26 43/74/27 39/75/27
f 39/75/27 43/74/27 52/76/28 49/77/28
f 49/77/28 52/76/28 51/61/20 50/60/20
f 33/31/5 52/30/5 43/78/5 34/79/5
f 34/79/5 43/78/5 37/80/5 24/81/5
f 67/82/29 72/83/30 57/84/31 54/85/32
f 60/86/33 64/87/34 5/88/15 3/89/17
f 54/85/32 57/84/31 62/90/35 59/91/36
f 59/91/36 62/90/35 63/92/37 58/93/38
f 58/93/38 63/92/37 64/87/34 60/86/33
f 53/94/39 56/95/40 70/96/41 65/97/42
f 65/97/42 70/96/41 71/98/43 66/99/44
f 66/99/44 71/98/43 72/83/30 67/82/29
f 84/100/5 101/101/5 102/102/5 85/103/5
f 80/104/5 73/105/5 55/106/5 81/107/5
f 86/108/5 77/109/5 76/110/5 83/111/5
f 79/112/5 98/113/5 91/114/5 80/115/5
f 73/116/5 92/117/5 101/101/5 84/100/5
f 74/118/5 78/119/5 68/120/5 75/121/5
f 78/119/5 79/122/5 69/123/5 68/120/5
f 79/122/5 80/104/5 81/107/5 69/123/5
f 78/124/5 97/125/5 98/113/5 79/112/5
f 80/115/5 91/114/5 92/117/5 73/116/5
f 73/105/5 84/126/5 61/127/5 55/106/5
f 84/126/5 85/128/5 82/129/5 61/127/5
f 85/128/5 86/108/5 83/111/5 82/129/5
f 74/130/5 94/131/5 97/125/5 78/124/5
f 99/132/45 101/133/45 92/134/46 88/135/46
f 95/136/47 97/137/47 94/138/48 90/139/48
f 88/135/46 92/134/46 91/140/49 87/141/49
f 87/141/49 91/140/49 98/142/50 96/143/50
f 96/143/50 98/142/50 97/137/47 95/136/47
f 40/144/23 44/145/23 93/146/51 89/147/51
f 89/147/51 93/146/51 102/148/52 100/149/52
f 100/149/52 102/148/52 101/133/45 99/132/45
f 85/103/5 102/102/5 93/150/5 86/151/5
f 86/151/5 93/150/5 44/152/5 77/153/5
f 69/154/5 81/155/5 72/83/30 71/98/43
f 68/156/5 69/154/5 71/98/43 70/96/41
f 75/157/5 68/156/5 70/96/41 56/95/40
f 82/158/5 83/159/5 64/87/34 63/92/37
f 61/160/5 82/158/5 63/92/37 62/90/35
f 55/161/5 61/160/5 62/90/35 57/84/31
f 81/155/5 55/161/5 57/84/31 72/83/30
f 83/159/5 76/162/5 5/88/15 64/87/34
