# Blender v3.6.0 OBJ File: 'AllModules_Unreal.blend'
# www.blender.org
mtllib BottomSimple_Corner_Square_Outer_2.mtl
o BottomSimple_Corner_Square_Outer_2_Plane.199
v -4.600000 0.000000 -4.599998
v -4.600000 0.020000 -4.599998
v -4.000001 0.020000 -3.999999
v -4.200001 0.020000 -4.199998
v -4.000001 0.000000 -4.599998
v -4.000001 0.020000 -4.599998
v -4.000001 0.020000 -4.199998
v -4.200001 0.020000 -3.999999
v -4.600001 0.000000 -3.999998
v -4.600001 0.020000 -3.999998
vt 0.195405 0.357681
vt 0.195405 0.360895
vt 0.231984 0.360895
vt 0.231984 0.357681
vt 0.195405 0.434054
vt 0.231984 0.434054
vt 0.558384 0.268578
vt 0.544170 0.268578
vt 0.544170 0.308827
vt 0.158826 0.357681
vt 0.158826 0.360895
vt 0.158826 0.434054
vt 0.558384 0.268578
vn -0.7071 0.0000 -0.7071
vn -0.5773 0.5774 -0.5774
vn 0.0000 0.7071 -0.7071
vn 0.0000 0.0000 -1.0000
vn 0.0000 1.0000 -0.0000
vn -1.0000 0.0000 -0.0000
vn -0.7071 0.7071 -0.0000
usemtl MI_Trim_03_Dark
s 1
f 1/1/1 2/2/2 6/3/3 5/4/4
f 4/5/5 7/6/5 6/3/3 2/2/2
f 7/7/5 4/8/5 3/9/5
f 1/1/1 9/10/6 10/11/7 2/2/2
f 4/5/5 2/2/2 10/11/7 8/12/5
f 8/13/5 3/9/5 4/8/5
