# Blender v3.6.0 OBJ File: 'AllModules_Unreal.blend'
# www.blender.org
mtllib BottomSimple_Corner_Square_Inner.mtl
o BottomSimple_Corner_Square_Inner_Plane.183
v -4.000000 0.000000 -2.000000
v -4.000000 0.000000 0.000000
v -3.800000 0.020000 -2.000000
v -4.000000 0.020000 -2.000000
v -4.000000 0.020000 0.000000
v -4.000000 0.020000 -4.000000
v -4.000000 0.000000 -4.000000
v -2.000000 0.000000 -4.000000
v -0.000000 -0.000000 -4.000000
v -2.000000 0.020000 -4.000000
v -0.000000 0.020000 -4.000000
v -3.824894 0.020000 -4.000000
v -4.000000 0.020000 -3.848004
v -3.400000 -0.000000 -3.400000
v -3.400000 0.000000 -2.000000
v -3.400000 0.000000 0.000000
v -3.800000 0.020000 -3.800000
v -3.400000 0.020000 0.000000
v -3.400000 0.020000 -2.000000
v -3.800000 0.020000 0.000000
v -0.000000 -0.000000 -3.400000
v -2.000000 0.000000 -3.400000
v -3.400001 0.020000 -3.400000
v -2.000000 0.020000 -3.400000
v -0.000000 0.020000 -3.400000
v -2.000000 0.020000 -3.800000
v -0.000000 0.020000 -3.800000
vt 0.217448 0.309087
vt 0.217448 0.268496
vt 0.511019 0.268496
vt 0.511019 0.309087
vt 0.804590 0.268496
vt 0.812775 0.309087
vt 0.741550 0.026098
vt 0.534509 0.026098
vt 0.534509 0.026098
vt 0.725816 0.026098
vt 0.741550 0.026098
vt 0.327468 0.026098
vt 0.327468 0.026098
vt 0.215005 0.309087
vt 0.225712 0.268496
vt 0.226697 0.309087
vt 0.511019 0.309087
vt 0.511019 0.268496
vt 0.804590 0.268496
vt 0.804590 0.309087
vt 0.741550 0.026098
vt 0.534509 0.026098
vt 0.534509 0.026098
vt 0.741550 0.026098
vt 0.327468 0.026098
vt 0.327468 0.026098
vt 0.345595 0.026098
vt 0.213037 0.309087
vt 0.217448 0.268496
vt 0.801217 0.309087
vt 0.801537 0.268496
vt 0.814478 0.309087
vt 0.730112 0.357583
vt 0.365514 0.357583
vt 0.365514 0.361229
vt 0.730112 0.361229
vt 0.365514 0.434149
vt 0.110294 0.361229
vt 0.037374 0.434149
vt 0.730112 0.434149
vt 0.110294 0.357583
vt 0.364848 0.434149
vt 0.364848 0.361229
vt 0.729447 0.361229
vt 0.729447 0.434149
vt 0.036709 0.434149
vt 0.109629 0.361229
vt 0.364848 0.357583
vt 0.729447 0.357583
vt 0.109629 0.357583
vn 0.0000 1.0000 -0.0000
vn -0.7071 0.0000 -0.7071
vn -1.0000 0.0000 0.0000
vn 0.0000 0.0000 -1.0000
vn 1.0000 0.0000 0.0000
vn 0.7071 0.7071 -0.0000
vn 0.3015 0.9045 0.3015
vn 0.7071 0.0000 0.7071
vn 0.0000 0.7071 0.7071
vn -0.0000 0.0000 1.0000
usemtl MI_Trim_03_Dark
s 1
f 5/1/1 20/2/1 3/3/1 4/4/1
f 4/4/1 3/3/1 17/5/1 13/6/1
f 7/7/2 1/8/3 4/9/3 13/10/3 6/11/2
f 1/8/3 2/12/3 5/13/3 4/9/3
f 6/14/1 17/15/1 12/16/1
f 10/17/1 26/18/1 27/19/1 11/20/1
f 9/21/4 8/22/4 10/23/4 11/24/4
f 8/22/4 7/25/2 6/26/2 12/27/4 10/23/4
f 12/28/1 17/29/1 26/18/1 10/17/1
f 13/30/1 17/31/1 6/32/1
f 16/33/5 15/34/5 19/35/6 18/36/6
f 3/37/1 19/35/6 23/38/7 17/39/1
f 20/40/1 18/36/6 19/35/6 3/37/1
f 15/34/5 14/41/8 23/38/7 19/35/6
f 26/42/1 24/43/9 25/44/9 27/45/1
f 17/46/1 23/47/7 24/43/9 26/42/1
f 22/48/10 21/49/10 25/44/9 24/43/9
f 14/50/8 22/48/10 24/43/9 23/47/7
