# Blender v3.6.0 OBJ File: 'AllModules_Unreal.blend'
# www.blender.org
mtllib BottomMetal_Corner_Square_Inner.mtl
o BottomMetal_Corner_Square_Inner_Plane.116
v -4.000000 0.000000 -2.000000
v -4.000000 0.000000 0.000000
v -3.800000 0.020000 -2.000000
v -3.800000 0.020000 -3.800000
v -4.000000 0.020000 -2.000000
v -4.000000 0.020000 0.000000
v -3.800000 0.020000 0.000000
v -4.000000 0.020000 -4.000000
v -4.000000 0.000000 -4.000000
v -2.000000 0.000000 -4.000000
v -0.000000 -0.000000 -4.000000
v -2.000000 0.020000 -3.800000
v -2.000000 0.020000 -4.000000
v -0.000000 0.020000 -3.800000
v -0.000000 0.020000 -4.000000
v -3.824894 0.020000 -4.000000
v -4.000000 0.020000 -3.848004
v -3.400000 -0.000000 -3.400000
v -3.400000 0.000000 -2.000000
v -3.400000 0.000000 0.000000
v -3.800000 0.020000 -2.000000
v -3.800000 0.020000 -3.800000
v -3.400000 0.020000 0.000000
v -3.400000 0.020000 -2.000000
v -3.800000 0.020000 0.000000
v -0.000000 -0.000000 -3.400000
v -2.000000 0.000000 -3.400000
v -3.400001 0.020000 -3.400000
v -2.000000 0.020000 -3.400000
v -0.000000 0.020000 -3.400000
v -2.000000 0.020000 -3.800000
v -0.000000 0.020000 -3.800000
vt 0.327468 0.026098
vt 0.327468 0.000558
vt 0.534509 0.000558
vt 0.534509 0.026098
vt 0.741550 0.000558
vt 0.747323 0.026098
vt 0.741550 0.026098
vt 0.534509 0.026098
vt 0.725816 0.026098
vt 0.741550 0.026098
vt 0.327468 0.026098
vt 0.309541 0.026098
vt 0.317092 0.000558
vt 0.317787 0.026098
vt 0.534509 0.026098
vt 0.534509 0.000558
vt 0.741550 0.000558
vt 0.741550 0.026098
vt 0.741550 0.026098
vt 0.534509 0.026098
vt 0.327468 0.026098
vt 0.327468 0.026098
vt 0.345595 0.026098
vt 0.324357 0.026098
vt 0.327468 0.000558
vt 0.739172 0.026098
vt 0.739397 0.000558
vt 0.748524 0.026098
vt 0.260613 0.944675
vt 0.500000 0.944675
vt 0.500000 0.938138
vt 0.260613 0.938138
vt 0.500000 0.999850
vt 0.753002 0.938138
vt 0.804067 0.999850
vt 0.246998 0.999850
vt 0.246998 0.938138
vt 0.739387 0.944675
vt 0.739387 0.938138
vt 0.500000 0.999850
vt 0.500000 0.938138
vt 0.753002 0.938138
vt 0.753002 0.999850
vt 0.195932 0.999850
vt 0.246998 0.938138
vt 0.500000 0.938138
vt 0.739387 0.938138
vt 0.739387 0.938138
vt 0.260613 0.938138
vt 0.260613 0.938138
vn 0.0000 1.0000 -0.0000
vn -0.4787 -0.7065 -0.5213
vn -1.0000 0.0000 0.0000
vn -0.6201 -0.6864 -0.3799
vn 0.0000 0.0000 -1.0000
vn 1.0000 0.0000 0.0000
vn 0.6994 -0.6484 0.3006
vn 0.2938 -0.6442 0.7062
vn -0.0000 0.0000 1.0000
usemtl MI_Trim_01
s 1
f 6/1/1 7/2/1 3/3/1 5/4/1
f 5/4/1 3/3/1 4/5/1 17/6/1
f 9/7/2 1/8/3 5/4/3 17/9/3 8/10/4
f 1/8/3 2/11/3 6/1/3 5/4/3
f 8/12/1 4/13/1 16/14/1
f 13/15/1 12/16/1 14/17/1 15/18/1
f 11/19/5 10/20/5 13/15/5 15/18/5
f 10/20/5 9/21/2 8/22/4 16/23/5 13/15/5
f 16/24/1 4/25/1 12/16/1 13/15/1
f 17/26/1 4/27/1 8/28/1
usemtl MI_Trim_02
f 20/29/6 19/30/6 24/31/6 23/32/6
f 21/33/1 24/31/1 28/34/1 22/35/1
f 25/36/1 23/37/1 24/31/1 21/33/1
f 19/30/6 18/38/7 28/39/8 24/31/6
f 31/40/1 29/41/1 30/42/1 32/43/1
f 22/44/1 28/45/1 29/41/1 31/40/1
f 27/46/9 26/47/9 30/48/9 29/41/9
f 18/49/7 27/46/9 29/41/9 28/50/8
