# Blender v3.6.0 OBJ File: 'AllModules_Unreal.blend'
# www.blender.org
mtllib BottomSimple_Corner_Round_Inner.mtl
o BottomSimple_Corner_Round_Inner_Plane.163
v -1.300764 0.000000 -3.140396
v -2.403916 -0.000000 -2.403928
v 0.000001 -0.000000 -3.400000
v -1.453868 0.020000 -3.509935
v 0.000001 0.020000 -3.800000
v -2.403916 0.020000 -2.403928
v -1.300764 0.020000 -3.140396
v 0.000001 0.020000 -3.400000
v -0.985946 0.000000 -3.249227
v -0.662509 0.000000 -3.326573
v -0.333456 0.000000 -3.376462
v -0.372198 0.020000 -3.774582
v -0.985946 0.020000 -3.249227
v -0.662509 0.020000 -3.326573
v -0.333456 0.020000 -3.376462
v -1.884031 -0.000000 -2.820572
v -1.599462 -0.000000 -2.993006
v -2.152748 0.000000 -2.623865
v -2.406643 0.020000 -2.932956
v -2.106476 0.020000 -3.153015
v -2.152748 0.020000 -2.623865
v -1.884031 0.020000 -2.820572
v -1.599462 0.020000 -2.993006
v -1.530420 0.000000 -3.694705
v -2.828179 -0.000000 -2.828193
v 0.000001 0.000000 -4.000000
v -1.530420 0.020000 -3.694705
v -2.828179 0.020000 -2.828193
v -2.686758 0.020000 -2.686772
v 0.000001 0.020000 -4.000000
v -2.217698 0.000000 -3.319237
v -1.882586 -0.000000 -3.522005
v -2.533591 0.000000 -3.087501
v -2.533591 0.020000 -3.087501
v -2.217698 0.020000 -3.319237
v -1.882586 0.020000 -3.522005
v -1.788211 0.020000 -3.345672
v -1.159708 -0.000000 -3.823516
v -0.778796 0.000000 -3.915197
v -0.391568 0.000000 -3.973642
v -1.101787 0.020000 -3.632086
v -0.740034 0.020000 -3.718989
v -1.159708 0.020000 -3.823516
v -0.778796 0.020000 -3.915197
v -0.391568 0.020000 -3.973642
v -3.140390 -0.000000 -1.300782
v -3.399997 -0.000000 -0.000019
v -3.799997 0.020000 -0.000021
v -3.509928 0.020000 -1.453889
v -3.399997 0.020000 -0.000019
v -3.140390 0.020000 -1.300782
v -2.992997 -0.000000 -1.599479
v -2.623854 0.000000 -2.152761
v -2.820563 -0.000000 -1.884046
v -3.345662 0.020000 -1.788231
v -3.153005 0.020000 -2.106492
v -2.932944 0.020000 -2.406659
v -2.992997 0.020000 -1.599479
v -2.820563 0.020000 -1.884046
v -2.623854 0.020000 -2.152761
v -3.376461 -0.000000 -0.333476
v -3.326570 -0.000000 -0.662527
v -3.249222 -0.000000 -0.985963
v -3.718984 0.020000 -0.740054
v -3.632080 0.020000 -1.101806
v -3.376461 0.020000 -0.333476
v -3.326569 0.020000 -0.662527
v -3.249222 0.020000 -0.985962
v -3.694698 -0.000000 -1.530442
v -3.999997 -0.000000 -0.000022
v -3.694698 0.020000 -1.530442
v -3.999997 0.020000 -0.000022
v -3.973639 0.000000 -0.391590
v -3.915192 0.000000 -0.778817
v -3.823509 -0.000000 -1.159728
v -3.973639 0.020000 -0.391590
v -3.915192 0.020000 -0.778817
v -3.823509 0.020000 -1.159728
v -3.774580 0.020000 -0.372218
v -3.521995 -0.000000 -1.882607
v -3.087488 -0.000000 -2.533608
v -3.319226 0.000000 -2.217716
v -3.521995 0.020000 -1.882607
v -3.319226 0.020000 -2.217716
v -3.087488 0.020000 -2.533608
vt 0.586269 0.026098
vt 0.534509 0.026098
vt 0.534509 0.026098
vt 0.586269 0.026098
vt 0.379228 0.026098
vt 0.327468 0.026098
vt 0.327468 0.026098
vt 0.379228 0.026098
vt 0.482749 0.026098
vt 0.482749 0.026098
vt 0.430988 0.026098
vt 0.430988 0.026098
vt 0.741550 0.026098
vt 0.689790 0.026098
vt 0.689790 0.026098
vt 0.741550 0.026098
vt 0.638030 0.026098
vt 0.638030 0.026098
vt 0.586269 0.026098
vt 0.534509 0.026098
vt 0.534509 0.026098
vt 0.586269 0.026098
vt 0.379228 0.026098
vt 0.327468 0.026098
vt 0.327468 0.026098
vt 0.379228 0.026098
vt 0.482749 0.026098
vt 0.482749 0.026098
vt 0.430988 0.026098
vt 0.430988 0.026098
vt 0.741550 0.026098
vt 0.689790 0.026098
vt 0.689790 0.026098
vt 0.741550 0.026098
vt 0.638030 0.026098
vt 0.638030 0.026098
vt 0.440770 0.357412
vt 0.507036 0.357412
vt 0.507036 0.361062
vt 0.440770 0.361062
vt 0.705689 0.434051
vt 0.705689 0.361062
vt 0.772079 0.361062
vt 0.772079 0.434051
vt 0.440770 0.434051
vt 0.507036 0.434051
vt 0.705689 0.357412
vt 0.772079 0.357412
vt 0.573326 0.357412
vt 0.573326 0.361062
vt 0.639505 0.357412
vt 0.639505 0.361062
vt 0.573326 0.434051
vt 0.639505 0.434051
vt 0.242015 0.434051
vt 0.242015 0.361062
vt 0.308368 0.361062
vt 0.308368 0.434051
vt 0.374586 0.361062
vt 0.374586 0.434051
vt 0.242015 0.357412
vt 0.308368 0.357412
vt 0.374586 0.357412
vt 0.432255 0.308801
vt 0.432255 0.268478
vt 0.504456 0.268478
vt 0.504456 0.308801
vt 0.721059 0.308801
vt 0.721059 0.268478
vt 0.793260 0.268478
vt 0.793260 0.308801
vt 0.215652 0.308801
vt 0.215652 0.268478
vt 0.287853 0.268478
vt 0.287853 0.308801
vt 0.360054 0.268478
vt 0.360054 0.308801
vt 0.576657 0.268478
vt 0.576657 0.308801
vt 0.648858 0.268478
vt 0.648858 0.308801
vt 0.440756 0.357412
vt 0.507046 0.357412
vt 0.507046 0.361062
vt 0.440756 0.361062
vt 0.705713 0.434051
vt 0.705713 0.361062
vt 0.772067 0.361062
vt 0.772067 0.434051
vt 0.440756 0.434051
vt 0.507046 0.434051
vt 0.705713 0.357412
vt 0.772067 0.357412
vt 0.573313 0.357412
vt 0.573313 0.361062
vt 0.639496 0.357412
vt 0.639496 0.361062
vt 0.573313 0.434051
vt 0.639496 0.434051
vt 0.242003 0.434051
vt 0.242003 0.361062
vt 0.308393 0.361062
vt 0.308393 0.434051
vt 0.374577 0.361062
vt 0.374577 0.434051
vt 0.242003 0.357412
vt 0.308393 0.357412
vt 0.374577 0.357412
vt 0.432255 0.308801
vt 0.432255 0.268478
vt 0.504456 0.268478
vt 0.504456 0.308801
vt 0.721059 0.308801
vt 0.721059 0.268478
vt 0.793260 0.268478
vt 0.793260 0.308801
vt 0.215652 0.308801
vt 0.215652 0.268478
vt 0.287853 0.268478
vt 0.287853 0.308801
vt 0.360054 0.268478
vt 0.360054 0.308801
vt 0.576657 0.268478
vt 0.576657 0.308801
vt 0.648858 0.268478
vt 0.648858 0.308801
vn -0.2815 0.0000 -0.9596
vn -0.3850 0.0000 -0.9229
vn -0.6267 0.0000 -0.7792
vn -0.7071 0.0000 -0.7071
vn -0.4795 0.0000 -0.8776
vn -0.5551 0.0000 -0.8318
vn -0.0672 0.0000 -0.9977
vn -0.1083 0.0000 -0.9941
vn -0.1918 0.0000 -0.9814
vn -0.8776 0.0000 -0.4795
vn -0.9229 0.0000 -0.3850
vn -0.9941 0.0000 -0.1083
vn -0.9977 0.0000 -0.0672
vn -0.9596 0.0000 -0.2815
vn -0.9814 0.0000 -0.1918
vn -0.7792 0.0000 -0.6267
vn -0.8318 0.0000 -0.5551
vn 0.4808 -0.0000 0.8768
vn 0.3854 -0.0000 0.9228
vn 0.2668 0.7215 0.6389
vn 0.3352 0.7170 0.6112
vn 0.0000 1.0000 0.0000
vn 0.0769 0.7162 0.6936
vn 0.0487 0.7224 0.6897
vn 0.1102 -0.0000 0.9939
vn 0.0704 -0.0000 0.9975
vn 0.2800 -0.0000 0.9600
vn 0.1948 0.7183 0.6679
vn 0.1914 -0.0000 0.9815
vn 0.1335 0.7167 0.6845
vn 0.4890 0.7223 0.4890
vn 0.4359 0.7171 0.5439
vn 0.3868 0.7170 0.5798
vn 0.7071 0.0000 0.7071
vn 0.6253 0.0000 0.7804
vn 0.5550 0.0000 0.8319
vn 0.9600 0.0000 0.2800
vn 0.9228 0.0000 0.3854
vn 0.6389 0.7215 0.2668
vn 0.6679 0.7183 0.1948
vn 0.5439 0.7171 0.4359
vn 0.7804 0.0000 0.6253
vn 0.8768 0.0000 0.4808
vn 0.6112 0.7170 0.3352
vn 0.8319 0.0000 0.5550
vn 0.5798 0.7170 0.3868
vn 0.6897 0.7224 0.0487
vn 0.6936 0.7162 0.0769
vn 0.6845 0.7167 0.1335
vn 0.9975 0.0000 0.0704
vn 0.9939 0.0000 0.1102
vn 0.9815 0.0000 0.1914
usemtl MI_Trim_01
s 1
f 38/1/1 24/2/2 27/3/2 43/4/1
f 33/5/3 25/6/4 28/7/4 34/8/3
f 24/2/2 32/9/5 36/10/5 27/3/2
f 32/9/5 31/11/6 35/12/6 36/10/5
f 31/11/6 33/5/3 34/8/3 35/12/6
f 26/13/7 40/14/8 45/15/8 30/16/7
f 40/14/8 39/17/9 44/18/9 45/15/8
f 39/17/9 38/1/1 43/4/1 44/18/9
f 80/19/10 69/20/11 71/21/11 83/22/10
f 73/23/12 70/24/13 72/25/13 76/26/12
f 69/20/11 75/27/14 78/28/14 71/21/11
f 75/27/14 74/29/15 77/30/15 78/28/14
f 74/29/15 73/23/12 76/26/12 77/30/15
f 25/31/4 81/32/16 85/33/16 28/34/4
f 81/32/16 82/35/17 84/36/17 85/33/16
f 82/35/17 80/19/10 83/22/10 84/36/17
usemtl MI_Trim_03_Dark
f 17/37/18 1/38/19 7/39/20 23/40/21
f 12/41/22 15/42/23 8/43/24 5/44/22
f 37/45/22 23/40/21 7/39/20 4/46/22
f 11/47/25 3/48/26 8/43/24 15/42/23
f 1/38/19 9/49/27 13/50/28 7/39/20
f 9/49/27 10/51/29 14/52/30 13/50/28
f 10/51/29 11/47/25 15/42/23 14/52/30
f 4/46/22 7/39/20 13/50/28 41/53/22
f 41/53/22 13/50/28 14/52/30 42/54/22
f 42/54/22 14/52/30 15/42/23 12/41/22
f 29/55/22 6/56/31 21/57/32 19/58/22
f 19/58/22 21/57/32 22/59/33 20/60/22
f 20/60/22 22/59/33 23/40/21 37/45/22
f 2/61/34 18/62/35 21/57/32 6/56/31
f 18/62/35 16/63/36 22/59/33 21/57/32
f 16/63/36 17/37/18 23/40/21 22/59/33
f 36/64/22 37/65/22 4/66/22 27/67/22
f 45/68/22 12/69/22 5/70/22 30/71/22
f 28/72/22 29/73/22 19/74/22 34/75/22
f 34/75/22 19/74/22 20/76/22 35/77/22
f 35/77/22 20/76/22 37/65/22 36/64/22
f 27/67/22 4/66/22 41/78/22 43/79/22
f 43/79/22 41/78/22 42/80/22 44/81/22
f 44/81/22 42/80/22 12/69/22 45/68/22
f 63/82/37 46/83/38 51/84/39 68/85/40
f 57/86/22 60/87/41 6/88/31 29/89/22
f 65/90/22 68/85/40 51/84/39 49/91/22
f 53/92/42 2/93/34 6/88/31 60/87/41
f 46/83/38 52/94/43 58/95/44 51/84/39
f 52/94/43 54/96/45 59/97/46 58/95/44
f 54/96/45 53/92/42 60/87/41 59/97/46
f 49/91/22 51/84/39 58/95/44 55/98/22
f 55/98/22 58/95/44 59/97/46 56/99/22
f 56/99/22 59/97/46 60/87/41 57/86/22
f 48/100/22 50/101/47 66/102/48 79/103/22
f 79/103/22 66/102/48 67/104/49 64/105/22
f 64/105/22 67/104/49 68/85/40 65/90/22
f 47/106/50 61/107/51 66/102/48 50/101/47
f 61/107/51 62/108/52 67/104/49 66/102/48
f 62/108/52 63/82/37 68/85/40 67/104/49
f 78/109/22 65/110/22 49/111/22 71/112/22
f 85/113/22 57/114/22 29/115/22 28/116/22
f 72/117/22 48/118/22 79/119/22 76/120/22
f 76/120/22 79/119/22 64/121/22 77/122/22
f 77/122/22 64/121/22 65/110/22 78/109/22
f 71/112/22 49/111/22 55/123/22 83/124/22
f 83/124/22 55/123/22 56/125/22 84/126/22
f 84/126/22 56/125/22 57/114/22 85/113/22
