# Blender v3.6.0 OBJ File: 'AllModules_Unreal.blend'
# www.blender.org
mtllib ShortWall_Metal2_Corner_Inner.mtl
o ShortWall_Metal2_Corner_Inner_Plane.291
v -4.000001 0.001853 -0.000016
v -4.000001 2.001853 -0.000017
v -3.973643 0.001853 -0.391585
v -3.915196 0.001853 -0.778815
v -3.973643 2.001852 -0.391586
v -3.915195 2.001853 -0.778815
v -3.823512 2.001852 -1.159726
v -3.694701 2.001852 -1.530439
v -3.823513 0.001852 -1.159725
v -3.694701 0.001852 -1.530439
v -3.521997 0.001852 -1.882606
v -3.319228 0.001852 -2.217715
v -3.521997 2.001852 -1.882606
v -3.319228 2.001853 -2.217716
v -3.087490 2.001852 -2.533608
v -3.087490 0.001852 -2.533607
v -2.828183 0.001852 -2.828193
v -2.828183 2.001852 -2.828194
v -1.530425 0.001852 -3.694705
v -1.530424 2.001852 -3.694705
v -0.000001 0.001852 -4.000000
v -0.000001 2.001852 -4.000000
v -1.882592 0.001852 -3.522004
v -2.217703 0.001852 -3.319237
v -2.533597 0.001852 -3.087500
v -1.882592 2.001852 -3.522005
v -2.217703 2.001852 -3.319237
v -2.533597 2.001852 -3.087500
v -1.159711 0.001852 -3.823517
v -0.778800 0.001852 -3.915198
v -0.391570 0.001852 -3.973643
v -1.159711 2.001852 -3.823517
v -0.778800 2.001852 -3.915198
v -0.391570 2.001852 -3.973643
vt 0.139037 1.000526
vt 0.139037 0.664098
vt 0.229640 0.664098
vt 0.229640 1.000526
vt 0.320242 0.664098
vt 0.320242 1.000526
vt 0.410845 0.664098
vt 0.410845 1.000526
vt 0.501447 0.664098
vt 0.501447 1.000526
vt 0.592049 1.000526
vt 0.592049 0.664098
vt 0.682652 1.000526
vt 0.682652 0.664098
vt 0.773254 1.000526
vt 0.773254 0.664098
vt 0.863856 1.000526
vt 0.863856 0.664098
vt 0.592049 1.000526
vt 0.501447 1.000526
vt 0.501447 0.664098
vt 0.592049 0.664098
vt 0.410845 1.000526
vt 0.410845 0.664098
vt 0.139037 1.000526
vt 0.139037 0.664098
vt 0.229640 0.664098
vt 0.229640 1.000526
vt 0.320242 0.664098
vt 0.320242 1.000526
vt 0.863856 1.000526
vt 0.773254 1.000526
vt 0.773254 0.664098
vt 0.863856 0.664098
vt 0.682652 1.000526
vt 0.682652 0.664098
vn 0.9977 -0.0000 0.0672
vn 0.9941 -0.0000 0.1083
vn 0.9814 -0.0000 0.1918
vn 0.9596 -0.0000 0.2815
vn 0.9229 0.0000 0.3850
vn 0.8776 0.0000 0.4795
vn 0.8318 0.0000 0.5551
vn 0.7792 -0.0000 0.6267
vn 0.7455 0.0217 0.6661
vn 0.7475 0.0122 0.6641
vn 0.2815 -0.0000 0.9596
vn 0.3850 -0.0000 0.9229
vn 0.4795 0.0000 0.8776
vn 0.6267 0.0000 0.7792
vn 0.5551 0.0000 0.8318
vn 0.0672 -0.0000 0.9977
vn 0.1083 -0.0000 0.9941
vn 0.1918 -0.0000 0.9814
usemtl MI_Trim_01
s 1
f 2/1/1 1/2/1 3/3/2 5/4/2
f 5/4/2 3/3/2 4/5/3 6/6/3
f 6/6/3 4/5/3 9/7/4 7/8/4
f 7/8/4 9/7/4 10/9/5 8/10/5
f 13/11/6 8/10/5 10/9/5 11/12/6
f 14/13/7 13/11/6 11/12/6 12/14/7
f 15/15/8 14/13/7 12/14/7 16/16/8
f 18/17/9 15/15/8 16/16/8 17/18/10
f 32/19/11 20/20/12 19/21/12 29/22/11
f 26/23/13 23/24/13 19/21/12 20/20/12
f 18/25/9 17/26/10 25/27/14 28/28/14
f 28/28/14 25/27/14 24/29/15 27/30/15
f 27/30/15 24/29/15 23/24/13 26/23/13
f 22/31/16 34/32/17 31/33/17 21/34/16
f 34/32/17 33/35/18 30/36/18 31/33/17
f 33/35/18 32/19/11 29/22/11 30/36/18
