# Blender v3.6.0 OBJ File: 'AllModules_Unreal.blend'
# www.blender.org
mtllib ShortWall_Metal2_Corner_Outer.mtl
o ShortWall_Metal2_Corner_Outer_Plane.278
v -0.000016 0.001853 -4.000001
v -0.000017 2.001853 -4.000001
v -0.391586 0.001853 -3.973643
v -0.778815 0.001853 -3.915196
v -0.391586 2.001852 -3.973643
v -0.778815 2.001853 -3.915195
v -1.159726 2.001852 -3.823512
v -1.530439 2.001852 -3.694701
v -1.159725 0.001852 -3.823513
v -1.530439 0.001852 -3.694701
v -1.882606 0.001852 -3.521997
v -2.217715 0.001852 -3.319228
v -1.882606 2.001852 -3.521997
v -2.217716 2.001853 -3.319228
v -2.533608 2.001852 -3.087490
v -2.533607 0.001852 -3.087490
v -2.828194 0.001852 -2.828183
v -2.828194 2.001852 -2.828183
v -3.694705 0.001852 -1.530424
v -3.694705 2.001852 -1.530424
v -4.000000 0.001852 -0.000001
v -4.000000 2.001852 -0.000001
v -3.522004 0.001852 -1.882592
v -3.319237 0.001852 -2.217703
v -3.087500 0.001852 -2.533597
v -3.522005 2.001852 -1.882592
v -3.319237 2.001852 -2.217703
v -3.087500 2.001852 -2.533597
v -3.823517 0.001852 -1.159711
v -3.915198 0.001852 -0.778800
v -3.973643 0.001852 -0.391570
v -3.823517 2.001852 -1.159711
v -3.915198 2.001852 -0.778799
v -3.973643 2.001852 -0.391570
vt 0.139037 1.000526
vt 0.139037 0.664098
vt 0.229640 0.664098
vt 0.229640 1.000526
vt 0.320242 0.664098
vt 0.320242 1.000526
vt 0.410845 0.664098
vt 0.410845 1.000526
vt 0.501447 0.664098
vt 0.501447 1.000526
vt 0.592049 1.000526
vt 0.592049 0.664098
vt 0.682652 1.000526
vt 0.682652 0.664098
vt 0.773254 1.000526
vt 0.773254 0.664098
vt 0.863856 1.000526
vt 0.863856 0.664098
vt 0.592049 1.000526
vt 0.501447 1.000526
vt 0.501447 0.664098
vt 0.592049 0.664098
vt 0.410845 1.000526
vt 0.410845 0.664098
vt 0.139037 1.000526
vt 0.139037 0.664098
vt 0.229640 0.664098
vt 0.229640 1.000526
vt 0.320242 0.664098
vt 0.320242 1.000526
vt 0.863856 1.000526
vt 0.773254 1.000526
vt 0.773254 0.664098
vt 0.863856 0.664098
vt 0.682652 1.000526
vt 0.682652 0.664098
vn -0.0672 0.0000 -0.9977
vn -0.1083 0.0000 -0.9941
vn -0.1918 0.0000 -0.9814
vn -0.2815 0.0000 -0.9596
vn -0.3850 -0.0000 -0.9229
vn -0.4795 -0.0000 -0.8776
vn -0.5551 -0.0000 -0.8318
vn -0.6267 -0.0000 -0.7792
vn -0.7476 0.0229 -0.6637
vn -0.7497 0.0128 -0.6617
vn -0.9596 0.0000 -0.2815
vn -0.9229 0.0000 -0.3850
vn -0.8776 -0.0000 -0.4795
vn -0.7792 -0.0000 -0.6267
vn -0.8318 -0.0000 -0.5551
vn -0.9977 -0.0000 -0.0672
vn -0.9941 -0.0000 -0.1083
vn -0.9814 0.0000 -0.1918
usemtl MI_Trim_01
s 1
f 2/1/1 1/2/1 3/3/2 5/4/2
f 5/4/2 3/3/2 4/5/3 6/6/3
f 6/6/3 4/5/3 9/7/4 7/8/4
f 7/8/4 9/7/4 10/9/5 8/10/5
f 13/11/6 8/10/5 10/9/5 11/12/6
f 14/13/7 13/11/6 11/12/6 12/14/7
f 15/15/8 14/13/7 12/14/7 16/16/8
f 18/17/9 15/15/8 16/16/8 17/18/10
f 32/19/11 20/20/12 19/21/12 29/22/11
f 26/23/13 23/24/13 19/21/12 20/20/12
f 18/25/9 17/26/10 25/27/14 28/28/14
f 28/28/14 25/27/14 24/29/15 27/30/15
f 27/30/15 24/29/15 23/24/13 26/23/13
f 22/31/16 34/32/17 31/33/17 21/34/16
f 34/32/17 33/35/18 30/36/18 31/33/17
f 33/35/18 32/19/11 29/22/11 30/36/18
