# Blender v3.6.0 OBJ File: 'AllModules_Unreal.blend'
# www.blender.org
mtllib ShortWall_Band2_Straight.mtl
o ShortWall_Band2_Straight_Plane.245
v -1.992499 1.885055 1.939894
v -1.992499 1.642072 1.939894
v -1.992499 1.885054 1.550691
v -1.992499 1.642072 1.550691
v -1.999999 0.001852 2.000000
v -2.000000 0.001851 -2.000000
v -1.999999 2.000000 2.000000
v -2.000000 2.000000 -2.000000
vt 0.500325 0.750453
vt 0.500325 0.408906
vt 1.159675 0.408906
vt 1.159675 0.750453
vt 0.799616 0.579130
vt 0.799616 0.490855
vt 0.941012 0.490855
vt 0.941012 0.579130
vn 1.0000 0.0000 -0.0000
usemtl MI_Trim_02
s 1
f 7/1/1 5/2/1 6/3/1 8/4/1
usemtl M_Decal_White
f 1/5/1 2/6/1 4/7/1 3/8/1
