# Blender v3.6.0 OBJ File: 'AllModules_Unreal.blend'
# www.blender.org
mtllib ShortWall_MetalPlates_Corner_Inner.mtl
o ShortWall_MetalPlates_Corner_Inner_Plane.293
v -4.000001 0.001853 -0.000016
v -3.973643 0.001853 -0.391585
v -4.000001 0.501853 -0.000016
v -4.000001 1.000001 -0.000016
v -3.973643 0.501853 -0.391585
v -3.915196 0.501853 -0.778815
v -3.973644 1.000001 -0.391585
v -3.915196 1.000001 -0.778815
v -3.823513 1.000001 -1.159725
v -3.694701 1.000001 -1.530439
v -3.823513 0.501852 -1.159725
v -3.694701 0.501852 -1.530439
v -3.823513 0.001852 -1.159725
v -3.694701 0.001852 -1.530439
v -3.915196 0.001853 -0.778815
v -3.521997 0.001852 -1.882606
v -3.319228 0.001852 -2.217715
v -3.521997 0.501852 -1.882606
v -3.319228 0.501852 -2.217715
v -3.521998 1.000001 -1.882606
v -3.319228 1.000001 -2.217716
v -3.087490 1.000002 -2.533608
v -2.828183 1.000001 -2.828193
v -3.087490 0.501852 -2.533607
v -2.828183 0.501852 -2.828193
v -3.087490 0.001852 -2.533607
v -2.828183 0.001852 -2.828193
v -2.533597 0.001852 -3.087500
v -2.533597 0.501852 -3.087500
v -2.217703 0.501852 -3.319237
v -2.533597 1.000001 -3.087500
v -2.217703 1.000001 -3.319237
v -1.882592 1.000001 -3.522005
v -1.530424 1.000001 -3.694706
v -1.882592 0.501852 -3.522005
v -1.530424 0.501852 -3.694706
v -1.882592 0.001852 -3.522004
v -1.530425 0.001852 -3.694705
v -2.217703 0.001852 -3.319237
v -1.159711 0.001852 -3.823517
v -0.778800 0.001852 -3.915198
v -1.159711 0.501852 -3.823517
v -0.778800 0.501852 -3.915198
v -1.159711 1.000001 -3.823517
v -0.778800 1.000001 -3.915198
v -0.391570 1.000001 -3.973643
v -0.000001 1.000001 -4.000000
v -0.391570 0.501852 -3.973643
v -0.000001 0.501852 -4.000000
v -0.391570 0.001852 -3.973643
v -0.000001 0.001852 -4.000000
vt 1.000000 0.590197
vt 1.000000 0.754417
vt 0.875000 0.754417
vt 0.875000 0.590197
vt 1.000000 0.753840
vt 0.875000 0.753840
vt 0.750000 0.754417
vt 0.750000 0.590197
vt 0.750000 0.753840
vt 0.625000 0.590197
vt 0.625000 0.753840
vt 0.500000 0.590197
vt 0.500000 0.753840
vt 0.625000 0.754417
vt 0.500000 0.754418
vt 0.375000 0.754417
vt 0.375000 0.590197
vt 0.250000 0.754418
vt 0.250000 0.590197
vt 0.375000 0.753840
vt 0.250000 0.753840
vt 0.125000 0.590198
vt 0.125000 0.753840
vt 0.000000 0.590198
vt -0.000000 0.753840
vt 0.125000 0.754418
vt -0.000000 0.754418
vt 1.000000 0.590197
vt 1.000000 0.754417
vt 0.875000 0.754417
vt 0.875000 0.590197
vt 1.000000 0.753840
vt 0.875000 0.753840
vt 0.750000 0.754417
vt 0.750000 0.590197
vt 0.750000 0.753840
vt 0.625000 0.590197
vt 0.625000 0.753840
vt 0.500000 0.590197
vt 0.500000 0.753840
vt 0.625000 0.754417
vt 0.500000 0.754418
vt 0.375000 0.754417
vt 0.375000 0.590197
vt 0.250000 0.754418
vt 0.250000 0.590197
vt 0.375000 0.753840
vt 0.250000 0.753840
vt 0.125000 0.590198
vt 0.125000 0.753840
vt 0.000000 0.590198
vt -0.000000 0.753840
vt 0.125000 0.754418
vt -0.000000 0.754418
vn 0.9977 0.0000 0.0672
vn 0.9941 -0.0000 0.1083
vn 0.9814 -0.0000 0.1918
vn 0.9596 0.0000 0.2815
vn 0.9229 0.0000 0.3850
vn 0.8776 0.0000 0.4795
vn 0.8318 0.0000 0.5551
vn 0.7792 0.0000 0.6267
vn 0.7489 -0.0026 0.6626
vn 0.7483 -0.0050 0.6634
vn 0.7482 0.0060 0.6634
vn 0.6267 0.0000 0.7792
vn 0.5551 0.0000 0.8318
vn 0.4795 0.0000 0.8776
vn 0.3850 0.0000 0.9229
vn 0.2815 0.0000 0.9596
vn 0.1918 0.0000 0.9814
vn 0.1083 -0.0000 0.9941
vn 0.0672 0.0000 0.9977
usemtl MI_Trim_02
s 1
f 3/1/1 1/2/1 2/3/2 5/4/2
f 4/5/1 3/1/1 5/4/2 7/6/2
f 5/4/2 2/3/2 15/7/3 6/8/3
f 7/6/2 5/4/2 6/8/3 8/9/3
f 8/9/3 6/8/3 11/10/4 9/11/4
f 9/11/4 11/10/4 12/12/5 10/13/5
f 6/8/3 15/7/3 13/14/4 11/10/4
f 11/10/4 13/14/4 14/15/5 12/12/5
f 12/12/5 14/15/5 16/16/6 18/17/6
f 18/17/6 16/16/6 17/18/7 19/19/7
f 10/13/5 12/12/5 18/17/6 20/20/6
f 20/20/6 18/17/6 19/19/7 21/21/7
f 21/21/7 19/19/7 24/22/8 22/23/8
f 22/23/8 24/22/8 25/24/9 23/25/10
f 24/22/8 26/26/8 27/27/11 25/24/9
f 19/19/7 17/18/7 26/26/8 24/22/8
f 25/28/9 27/29/11 28/30/12 29/31/12
f 23/32/10 25/28/9 29/31/12 31/33/12
f 29/31/12 28/30/12 39/34/13 30/35/13
f 31/33/12 29/31/12 30/35/13 32/36/13
f 32/36/13 30/35/13 35/37/14 33/38/14
f 33/38/14 35/37/14 36/39/15 34/40/15
f 30/35/13 39/34/13 37/41/14 35/37/14
f 35/37/14 37/41/14 38/42/15 36/39/15
f 36/39/15 38/42/15 40/43/16 42/44/16
f 42/44/16 40/43/16 41/45/17 43/46/17
f 34/40/15 36/39/15 42/44/16 44/47/16
f 44/47/16 42/44/16 43/46/17 45/48/17
f 45/48/17 43/46/17 48/49/18 46/50/18
f 46/50/18 48/49/18 49/51/19 47/52/19
f 48/49/18 50/53/18 51/54/19 49/51/19
f 43/46/17 41/45/17 50/53/18 48/49/18
