# Blender v3.6.0 OBJ File: 'AllModules_Unreal.blend'
# www.blender.org
mtllib ShortWall_AccentStrip_Straight.mtl
o ShortWall_AccentStrip_Straight_Plane.239
v -1.999999 0.001852 2.000000
v -2.000000 0.001851 -2.000000
v -1.999999 0.725632 2.000000
v -1.999999 1.000000 2.000000
v -2.000000 0.725632 -2.000000
v -2.000000 1.000000 -2.000000
vt 0.314586 0.596408
vt 0.314586 0.536532
vt 0.687465 0.536532
vt 0.687465 0.596408
vt 0.661583 0.529135
vt 0.661583 0.570578
vt 0.340468 0.570578
vt 0.340468 0.529135
vn 1.0000 0.0000 -0.0000
usemtl MI_Trim_01
s 1
f 3/1/1 1/2/1 2/3/1 5/4/1
f 4/5/1 3/6/1 5/7/1 6/8/1
