# Blender v3.6.0 OBJ File: 'AllModules_Unreal.blend'
# www.blender.org
mtllib ShortWall_Band2_Corner_Inner.mtl
o ShortWall_Band2_Corner_Inner_Plane.290
v -2.533597 0.001852 -3.087500
v -2.533597 2.000000 -3.087500
v -2.217703 2.000000 -3.319237
v -1.882592 2.000000 -3.522005
v -2.217703 0.001852 -3.319237
v -1.882592 0.001852 -3.522004
v -1.530425 0.001852 -3.694705
v -1.159711 0.001852 -3.823517
v -1.530425 2.000000 -3.694705
v -1.159711 2.000000 -3.823517
v -0.778800 2.000001 -3.915198
v -0.391570 2.000000 -3.973642
v -0.778800 0.001852 -3.915198
v -0.391570 0.001852 -3.973643
v -0.000001 0.001852 -4.000000
v -0.000001 2.000000 -4.000000
v -2.798011 1.885055 -2.864731
v -2.798011 1.642072 -2.864731
v -2.568280 1.885055 -3.066959
v -2.568281 1.642073 -3.066959
v -4.004333 1.885056 -0.047176
v -4.004333 1.642073 -0.047176
v -3.983786 1.885056 -0.352540
v -3.983787 1.642073 -0.352540
v -4.000001 0.001853 -0.000016
v -3.973643 0.001853 -0.391585
v -4.000001 2.000001 -0.000017
v -3.973643 2.000001 -0.391586
v -3.915195 2.000001 -0.778815
v -3.823512 2.000001 -1.159726
v -3.915196 0.001853 -0.778815
v -3.823513 0.001852 -1.159725
v -3.694701 0.001852 -1.530439
v -3.521997 0.001852 -1.882606
v -3.694701 2.000001 -1.530439
v -3.521997 2.000001 -1.882606
v -3.319228 2.000001 -2.217715
v -3.087490 2.000001 -2.533607
v -3.319228 0.001852 -2.217715
v -3.087490 0.001852 -2.533607
v -2.828183 0.001852 -2.828193
v -2.828183 2.000001 -2.828194
vt 0.500325 0.750453
vt 0.500325 0.408906
vt 0.582744 0.408906
vt 0.582744 0.750453
vt 0.665163 0.408906
vt 0.665163 0.750453
vt 0.747581 0.408906
vt 0.747581 0.750453
vt 0.830000 0.408906
vt 0.830000 0.750453
vt 0.912419 0.408906
vt 0.912419 0.750453
vt 0.994838 0.408906
vt 0.994838 0.750453
vt 1.077256 0.408906
vt 1.077256 0.750453
vt 1.159675 0.408906
vt 1.159675 0.750453
vt 0.500325 0.750453
vt 0.500325 0.408906
vt 0.582744 0.408906
vt 0.582744 0.750453
vt 0.665163 0.408906
vt 0.665163 0.750453
vt 0.747581 0.408906
vt 0.747581 0.750453
vt 0.830000 0.408906
vt 0.830000 0.750453
vt 0.912419 0.408906
vt 0.912419 0.750453
vt 0.994838 0.408906
vt 0.994838 0.750453
vt 1.077256 0.408906
vt 1.077256 0.750453
vt 1.159675 0.408906
vt 1.159675 0.750453
vt 0.799616 0.579130
vt 0.799616 0.490855
vt 0.941012 0.490855
vt 0.941012 0.579130
vt 0.799616 0.579130
vt 0.799616 0.490855
vt 0.941012 0.490855
vt 0.941012 0.579130
vn 0.7471 0.0150 0.6646
vn 0.7480 0.0081 0.6636
vn 0.6267 0.0000 0.7792
vn 0.5551 0.0000 0.8318
vn 0.4795 0.0000 0.8776
vn 0.3850 0.0000 0.9229
vn 0.2815 -0.0000 0.9596
vn 0.1918 -0.0000 0.9814
vn 0.1083 -0.0000 0.9941
vn 0.0672 -0.0000 0.9977
vn 0.9977 -0.0000 0.0672
vn 0.9941 -0.0000 0.1083
vn 0.9814 -0.0000 0.1918
vn 0.9596 -0.0000 0.2815
vn 0.9229 0.0000 0.3850
vn 0.8776 0.0000 0.4795
vn 0.8318 0.0000 0.5551
vn 0.7792 0.0000 0.6267
vn 0.6607 0.0000 0.7506
vn 0.9977 -0.0000 0.0671
usemtl MI_Trim_02
s 1
f 42/1/1 41/2/2 1/3/3 2/4/3
f 2/4/3 1/3/3 5/5/4 3/6/4
f 3/6/4 5/5/4 6/7/5 4/8/5
f 4/8/5 6/7/5 7/9/6 9/10/6
f 9/10/6 7/9/6 8/11/7 10/12/7
f 10/12/7 8/11/7 13/13/8 11/14/8
f 11/14/8 13/13/8 14/15/9 12/16/9
f 12/16/9 14/15/9 15/17/10 16/18/10
f 27/19/11 25/20/11 26/21/12 28/22/12
f 28/22/12 26/21/12 31/23/13 29/24/13
f 29/24/13 31/23/13 32/25/14 30/26/14
f 30/26/14 32/25/14 33/27/15 35/28/15
f 35/28/15 33/27/15 34/29/16 36/30/16
f 36/30/16 34/29/16 39/31/17 37/32/17
f 37/32/17 39/31/17 40/33/18 38/34/18
f 38/34/18 40/33/18 41/35/2 42/36/1
usemtl M_Decal_White
f 17/37/19 18/38/19 20/39/19 19/40/19
f 21/41/20 22/42/20 24/43/20 23/44/20
