# Blender v3.6.0 OBJ File: 'AllModules_Unreal.blend'
# www.blender.org
mtllib TopAstra_Curve_Round_Outer.mtl
o TopAstra_Curve_Round_Outer_Plane.251
v -1.672135 3.000000 -3.627637
v -1.530420 3.000000 -3.694706
v -2.828180 3.000000 -2.828195
v -1.672135 5.000000 -3.627636
v -2.828180 5.000001 -2.828195
v -1.694597 3.072018 -3.712639
v -1.563377 3.072018 -3.774252
v -1.676517 5.000000 -3.701943
v -1.556612 5.000001 -3.757924
v -1.672135 4.304094 -3.627636
v -2.828180 4.304094 -2.828195
v -1.682798 4.329152 -3.705669
v -1.558966 4.329153 -3.763606
v -2.583952 3.217202 -3.047152
v -2.321404 3.217202 -3.252785
v -2.611131 3.065886 -3.023229
v -0.691831 3.120127 -3.936023
v -0.669074 3.217202 -3.940674
v -0.337981 3.217202 -3.980242
v -0.286376 3.065884 -3.983716
v -1.382135 3.000000 -3.746231
v 0.000001 3.000000 -4.000000
v -1.382134 5.000000 -3.746231
v 0.000002 5.000000 -4.000000
v -1.426296 3.072018 -3.822016
v -1.431463 5.000000 -3.801510
v -1.382134 4.304093 -3.746231
v 0.000002 4.304093 -4.000000
v -1.429676 4.329152 -3.808641
v -2.563051 3.000000 -3.061572
v -2.282740 3.000000 -3.275300
v -1.987813 3.000000 -3.469191
v -2.563051 5.000000 -3.061572
v -2.282740 5.000000 -3.275301
v -1.987813 5.000000 -3.469191
v -1.987813 4.304094 -3.469191
v -2.282740 4.304093 -3.275300
v -2.563051 4.304093 -3.061572
v -0.352411 3.000000 -3.976277
v -0.701895 3.000000 -3.930918
v -1.047949 3.000000 -3.860177
v -0.352411 5.000000 -3.976277
v -0.701895 5.000001 -3.930918
v -1.047949 5.000000 -3.860177
v -1.047949 4.304093 -3.860177
v -0.701895 4.304094 -3.930918
v -0.352411 4.304093 -3.976277
v -0.352190 3.217202 -3.979286
v -0.352190 3.065884 -3.979285
v -2.565721 3.065885 -3.063200
v -2.565721 3.217202 -3.063200
v -2.293269 3.117862 -3.271791
v -2.293267 3.065884 -3.271793
v -0.691831 3.065885 -3.936023
v -1.530420 5.000000 -3.694706
v -3.746224 3.000000 -1.382157
v -3.694699 3.000000 -1.530443
v -4.000000 3.000000 -0.000022
v -3.746223 5.000001 -1.382157
v -4.000000 5.000000 -0.000022
v -3.822010 3.072018 -1.426317
v -3.774246 3.072018 -1.563400
v -3.801504 5.000000 -1.431484
v -3.757918 5.000000 -1.556635
v -3.746223 4.304094 -1.382157
v -4.000000 4.304093 -0.000022
v -3.808635 4.329153 -1.429697
v -3.763600 4.329153 -1.558989
v -3.980952 3.217202 -0.327463
v -3.942787 3.217202 -0.658744
v -3.983384 3.065886 -0.291338
v -3.271691 3.120127 -2.293420
v -3.258687 3.217202 -2.312667
v -3.054119 3.217202 -2.576038
v -3.019945 3.065884 -2.614862
v -3.627626 3.000000 -1.672158
v -3.627626 5.000000 -1.672158
v -3.712629 3.072018 -1.694619
v -3.701933 4.999999 -1.676538
v -3.627626 4.304094 -1.672158
v -3.705660 4.329152 -1.682819
v -3.976278 3.000000 -0.352433
v -3.930915 3.000000 -0.701919
v -3.860174 3.000000 -1.047970
v -3.976278 5.000000 -0.352433
v -3.930914 5.000000 -0.701919
v -3.860173 5.000000 -1.047970
v -3.860173 4.304094 -1.047970
v -3.930914 4.304093 -0.701919
v -3.976278 4.304093 -0.352433
v -3.061557 3.000000 -2.563068
v -3.275289 3.000000 -2.282758
v -3.469181 3.000001 -1.987834
v -3.061557 5.000000 -2.563068
v -3.275289 5.000000 -2.282758
v -3.469182 5.000000 -1.987834
v -3.469181 4.304094 -1.987834
v -3.275289 4.304093 -2.282758
v -3.061557 4.304093 -2.563068
v -3.063527 3.217202 -2.565350
v -3.063527 3.065884 -2.565350
v -3.979321 3.065885 -0.351695
v -3.979321 3.217202 -0.351695
v -3.935987 3.117862 -0.692014
v -3.935987 3.065884 -0.692014
v -3.271691 3.065886 -2.293420
v -3.694700 5.000000 -1.530443
vt 0.152047 0.825000
vt 0.152047 0.925000
vt 0.500000 0.925000
vt 0.500000 0.825000
vt 0.688181 0.938069
vt 1.038972 0.938069
vt 1.038972 0.991622
vt 0.688181 0.991622
vt -0.062775 0.938069
vt 0.030816 0.938069
vt 0.030816 0.991622
vt -0.062775 0.991622
vt -0.500000 0.825000
vt -0.500000 0.925000
vt 0.500000 0.925000
vt 0.152047 0.925000
vt 0.688181 0.938069
vt 0.688181 0.991622
vt 1.038972 0.991622
vt 1.038972 0.938069
vt 0.030816 0.991622
vt 0.030816 0.938069
vt -0.500000 0.925000
vt 0.138901 0.592910
vt 0.138901 0.561252
vt 0.046374 0.561252
vt 0.062114 0.592910
vt 0.215688 0.592910
vt 0.231429 0.561252
vt 0.152047 0.825000
vt 0.152047 0.925000
vt 0.500000 0.925000
vt 0.500000 0.825000
vt 0.688181 0.938069
vt 1.038972 0.938069
vt 1.038972 0.991622
vt 0.688181 0.991622
vt -0.062775 0.938069
vt 0.030816 0.938069
vt 0.030816 0.991622
vt -0.062775 0.991622
vt -0.500000 0.825000
vt -0.500000 0.925000
vt 0.500000 0.925000
vt 0.152047 0.925000
vt 0.688181 0.938069
vt 0.688181 0.991622
vt 1.038972 0.991622
vt 1.038972 0.938069
vt 0.030816 0.991622
vt 0.030816 0.938069
vt -0.500000 0.925000
vt 0.138901 0.592910
vt 0.138901 0.561252
vt 0.046374 0.561252
vt 0.062114 0.592910
vt 0.215688 0.592910
vt 0.231429 0.561252
vt 0.952000 0.110308
vt 0.969416 0.070284
vt 0.969416 0.049342
vt 0.793056 0.049343
vt 0.793056 0.110308
vt 0.952000 0.110308
vt 0.978529 0.049342
vt 0.944696 0.049342
vt 0.944696 0.110308
vt 0.768684 0.049343
vt 0.768684 0.071197
vt 0.780599 0.110308
vt 0.762027 0.049343
vt 0.780599 0.110308
vt 0.952000 0.110308
vt 0.969416 0.070284
vt 0.969416 0.049342
vt 0.793056 0.049343
vt 0.793056 0.110308
vt 0.952000 0.110308
vt 0.978529 0.049342
vt 0.944696 0.049342
vt 0.944696 0.110308
vt 0.768684 0.049343
vt 0.768684 0.071197
vt 0.780599 0.110308
vt 0.762027 0.049343
vt 0.780599 0.110308
vt 0.089390 0.345976
vt 0.089390 0.493703
vt -0.006136 0.493703
vt -0.006136 0.345976
vt 0.880369 0.349076
vt 0.880369 0.072242
vt 0.975895 0.072242
vt 0.975895 0.349076
vt 0.089390 0.345976
vt -0.006136 0.345976
vt -0.006136 0.493703
vt 0.089390 0.493703
vt 0.880369 0.349076
vt 0.975895 0.349076
vt 0.975895 0.072242
vt 0.880369 0.072242
vt 0.593790 0.349076
vt 0.593790 0.072242
vt 0.689316 0.072242
vt 0.689316 0.349076
vt 0.784842 0.072242
vt 0.784842 0.349076
vt 0.375969 0.345976
vt 0.375969 0.493703
vt 0.280443 0.493703
vt 0.280443 0.345976
vt 0.184916 0.493703
vt 0.184916 0.345976
vt 0.593790 0.349076
vt 0.689316 0.349076
vt 0.689316 0.072242
vt 0.593790 0.072242
vt 0.784842 0.349076
vt 0.784842 0.072242
vt 0.375969 0.345976
vt 0.280443 0.345976
vt 0.280443 0.493703
vt 0.375969 0.493703
vt 0.184916 0.345976
vt 0.184916 0.493703
vt 0.089390 0.345976
vt 0.089390 0.493703
vt -0.006136 0.493703
vt -0.006136 0.345976
vt 0.880369 0.349076
vt 0.880369 0.072242
vt 0.975895 0.072242
vt 0.975895 0.349076
vt 0.089390 0.345976
vt -0.006136 0.345976
vt -0.006136 0.493703
vt 0.089390 0.493703
vt 0.880369 0.349076
vt 0.975895 0.349076
vt 0.975895 0.072242
vt 0.880369 0.072242
vt 0.593790 0.349076
vt 0.593790 0.072242
vt 0.689316 0.072242
vt 0.689316 0.349076
vt 0.784842 0.072242
vt 0.784842 0.349076
vt 0.375969 0.345976
vt 0.375969 0.493703
vt 0.280443 0.493703
vt 0.280443 0.345976
vt 0.184916 0.493703
vt 0.184916 0.345976
vt 0.689316 0.349076
vt 0.689316 0.072242
vt 0.784842 0.349076
vt 0.784842 0.072242
vt 0.280443 0.345976
vt 0.280443 0.493703
vt 0.184916 0.345976
vt 0.184916 0.493703
vn -0.3769 0.0091 -0.9262
vn -0.4239 0.0091 -0.9057
vn -0.4234 0.0091 -0.9059
vn -0.3766 0.0091 -0.9263
vn -0.9870 0.0041 0.1604
vn -0.9951 0.0043 0.0990
vn -0.9901 0.0042 0.1405
vn -0.2422 -0.7676 -0.5934
vn -0.2734 -0.7675 -0.5798
vn -0.2424 -0.7676 -0.5933
vn -0.9795 0.0040 0.2014
vn -0.3772 0.0091 -0.9261
vn -0.4244 0.0091 -0.9054
vn -0.3289 0.0092 -0.9443
vn 0.8107 0.0041 -0.5855
vn 0.7986 0.0042 -0.6018
vn 0.7725 0.0043 -0.6350
vn -0.2109 -0.7668 -0.6063
vn 0.8345 0.0040 -0.5510
vn -0.3290 0.0092 -0.9443
vn 0.0000 1.0000 0.0000
vn -0.9262 0.0091 -0.3769
vn -0.9443 0.0092 -0.3289
vn -0.9263 0.0091 -0.3767
vn -0.5854 0.0041 0.8107
vn -0.6349 0.0043 0.7726
vn -0.6018 0.0042 0.7986
vn -0.5934 -0.7676 -0.2422
vn -0.6063 -0.7668 -0.2109
vn -0.5933 -0.7676 -0.2424
vn -0.5509 0.0040 0.8345
vn -0.9261 0.0091 -0.3772
vn -0.9443 0.0092 -0.3290
vn -0.9059 0.0091 -0.4234
vn -0.9057 0.0091 -0.4239
vn 0.1604 0.0041 -0.9870
vn 0.1405 0.0042 -0.9901
vn 0.0990 0.0043 -0.9951
vn -0.5798 -0.7675 -0.2734
vn 0.2014 0.0040 -0.9795
vn -0.9054 0.0091 -0.4244
vn -0.6095 -0.0069 -0.7928
vn -0.6354 -0.0034 -0.7721
vn -0.0672 -0.0000 -0.9977
vn -0.0960 -0.0029 -0.9954
vn -0.1247 -0.0059 -0.9922
vn -0.6607 0.0000 -0.7506
vn -0.9923 -0.0087 -0.1238
vn -0.9954 -0.0043 -0.0955
vn -0.7506 0.0000 -0.6607
vn -0.7724 -0.0023 -0.6352
vn -0.7932 -0.0046 -0.6089
vn -0.9977 0.0000 -0.0672
vn -0.4998 0.0000 -0.8661
vn -0.4486 0.0000 -0.8937
vn -0.2620 0.0000 -0.9651
vn -0.3227 0.0000 -0.9465
vn -0.7071 0.0000 -0.7071
vn -0.6339 0.0000 -0.7734
vn -0.5782 -0.0000 -0.8159
vn -0.0980 0.0000 -0.9952
vn -0.1646 0.0000 -0.9864
vn -0.9651 0.0000 -0.2620
vn -0.9465 0.0000 -0.3227
vn -0.8661 0.0000 -0.4998
vn -0.8937 0.0000 -0.4486
vn -0.9952 0.0000 -0.0980
vn -0.9864 0.0000 -0.1646
vn -0.7734 0.0000 -0.6339
vn -0.8159 0.0000 -0.5782
usemtl MI_Trim_03
s 1
f 13/1/1 12/2/2 8/3/3 9/4/4
f 10/5/5 4/6/6 8/7/6 12/8/7
f 2/9/8 1/10/9 6/11/9 7/12/10
f 1/10/11 10/5/5 12/8/7 6/11/11
f 7/13/12 6/14/13 12/2/2 13/1/1
f 13/1/1 9/4/4 26/15/14 29/16/14
f 27/17/15 29/18/16 26/19/17 23/20/17
f 2/9/8 7/12/10 25/21/18 21/22/18
f 21/22/19 25/21/19 29/18/16 27/17/15
f 7/13/12 13/1/1 29/16/14 25/23/20
f 9/24/21 55/25/21 23/26/21 26/27/21
f 55/25/21 9/24/21 8/28/21 4/29/21
f 68/30/22 67/31/23 63/32/23 64/33/24
f 65/34/25 59/35/26 63/36/26 67/37/27
f 57/38/28 56/39/29 61/40/29 62/41/30
f 56/39/31 65/34/25 67/37/27 61/40/31
f 62/42/32 61/43/33 67/31/23 68/30/22
f 68/30/22 64/33/24 79/44/34 81/45/35
f 80/46/36 81/47/37 79/48/38 77/49/38
f 57/38/28 62/41/30 78/50/39 76/51/39
f 76/51/40 78/50/40 81/47/37 80/46/36
f 62/42/32 68/30/22 81/45/35 78/52/41
f 64/53/21 107/54/21 77/55/21 79/56/21
f 107/54/21 64/53/21 63/57/21 59/58/21
usemtl M_Decal_White
f 15/59/42 52/60/42 53/61/42 50/62/43 51/63/43
f 19/64/44 20/65/44 49/66/45 48/67/45
f 49/66/45 54/68/46 17/69/46 18/70/46 48/67/45
f 50/62/43 16/71/47 14/72/47 51/63/43
f 70/73/48 104/74/48 105/75/48 102/76/49 103/77/49
f 74/78/50 75/79/50 101/80/51 100/81/51
f 101/80/51 106/82/52 72/83/52 73/84/52 100/81/51
f 102/76/49 71/85/53 69/86/53 103/77/49
usemtl MI_Trim_03_Dark
f 36/87/54 35/88/54 4/89/55 10/90/55
f 32/91/54 36/92/54 10/93/55 1/94/55
f 45/95/56 27/96/57 23/97/57 44/98/56
f 41/99/56 21/100/57 27/101/57 45/102/56
f 3/103/58 11/104/58 38/105/59 30/106/59
f 30/106/59 38/105/59 37/107/60 31/108/60
f 31/108/60 37/107/60 36/92/54 32/91/54
f 11/109/58 5/110/58 33/111/59 38/112/59
f 38/112/59 33/111/59 34/113/60 37/114/60
f 37/114/60 34/113/60 35/88/54 36/87/54
f 22/115/44 39/116/61 47/117/61 28/118/44
f 39/116/61 40/119/62 46/120/62 47/117/61
f 40/119/62 41/99/56 45/102/56 46/120/62
f 28/121/44 47/122/61 42/123/61 24/124/44
f 47/122/61 46/125/62 43/126/62 42/123/61
f 46/125/62 45/95/56 44/98/56 43/126/62
f 88/127/63 87/128/63 59/129/64 65/130/64
f 84/131/63 88/132/63 65/133/64 56/134/64
f 97/135/65 80/136/66 77/137/66 96/138/65
f 93/139/65 76/140/66 80/141/66 97/142/65
f 58/143/53 66/144/53 90/145/67 82/146/67
f 82/146/67 90/145/67 89/147/68 83/148/68
f 83/148/68 89/147/68 88/132/63 84/131/63
f 66/149/53 60/150/53 85/151/67 90/152/67
f 90/152/67 85/151/67 86/153/68 89/154/68
f 89/154/68 86/153/68 87/128/63 88/127/63
f 3/103/58 91/155/69 99/156/69 11/104/58
f 91/155/69 92/157/70 98/158/70 99/156/69
f 92/157/70 93/139/65 97/142/65 98/158/70
f 11/109/58 99/159/69 94/160/69 5/110/58
f 99/159/69 98/161/70 95/162/70 94/160/69
f 98/161/70 97/135/65 96/138/65 95/162/70
