# Blender v3.6.0 OBJ File: 'AllModules_Unreal.blend'
# www.blender.org
mtllib WallWindow_Cap_B.mtl
o WallWindow_Cap_B_Plane.166
v -2.001249 1.070851 2.196998
v -2.001457 1.019645 2.190239
v -2.001846 0.971939 2.170491
v -2.002389 0.930983 2.139100
v -2.003050 0.899568 2.098205
v -2.003783 0.879835 2.050593
v -2.004540 0.873130 1.999510
v -2.001237 1.122065 2.190309
v -2.001420 1.169800 2.170625
v -2.001788 1.210800 2.139290
v -2.002314 1.242273 2.098438
v -2.002963 1.262074 2.050853
v -2.003690 1.268852 1.999778
v -2.006980 1.071131 1.802289
v -2.006993 1.019916 1.808979
v -2.006809 0.972182 1.828662
v -2.006442 0.931181 1.859998
v -2.005916 0.899708 1.900850
v -2.005267 0.879908 1.948435
v -2.006773 1.122336 1.809048
v -2.006384 1.170043 1.828797
v -2.005841 1.210998 1.860188
v -2.005179 1.242413 1.901083
v -2.004446 1.262146 1.948694
v -1.927351 1.070715 2.163381
v -1.927524 1.027952 2.157736
v -1.927850 0.988111 2.141244
v -1.928303 0.953907 2.115028
v -1.928855 0.927671 2.080876
v -1.929468 0.911192 2.041113
v -1.930099 0.905592 1.998452
v -1.929744 1.070832 1.998564
v -1.927341 1.113486 2.157794
v -1.927494 1.153350 2.141356
v -1.927801 1.187591 2.115187
v -1.928241 1.213875 2.081069
v -1.928782 1.230411 2.041330
v -1.929389 1.236071 1.998677
v -1.932137 1.070949 1.833747
v -1.932148 1.028178 1.839334
v -1.931994 0.988313 1.855772
v -1.931687 0.954072 1.881942
v -1.931248 0.927789 1.916058
v -1.930706 0.911253 1.955797
v -1.931964 1.113712 1.839392
v -1.931639 1.153553 1.855884
v -1.931186 1.187757 1.882100
v -1.930634 1.213992 1.916253
v -1.930021 1.230471 1.956015
v -2.096125 0.972141 2.171860
v -2.124582 0.931185 2.140469
v -2.125242 0.899770 2.099574
v -2.125976 0.880037 2.051962
v -2.126732 0.873331 2.000878
v -2.100721 0.931383 1.861367
v -2.128108 0.899910 1.902219
v -2.127459 0.880110 1.949804
v -2.074570 0.931275 1.860633
v -2.050614 1.170137 1.829439
v -2.048239 1.268947 2.000425
v -2.045861 1.169895 2.171271
v -2.050625 0.972276 1.829298
v -2.049612 1.242508 1.901728
v -2.045495 1.070946 2.197641
v -2.046848 1.242368 2.099084
v -2.070233 0.972033 2.171130
v -2.045568 1.122160 2.190953
v -2.050909 1.122431 1.809689
v -2.050179 1.211093 1.860831
v -2.050999 1.071225 1.802928
v -2.046275 1.210895 2.139936
v -2.045561 1.019740 2.190879
v -2.050886 1.020010 1.809616
v -2.047521 1.262169 2.051500
v -2.048941 1.262241 1.949340
vt 0.711448 0.298566
vt 0.715023 0.307197
vt 0.706388 0.309511
vt 0.703706 0.303036
vt 0.655150 0.291154
vt 0.661472 0.297475
vt 0.657205 0.303036
vt 0.649463 0.298566
vt 0.716242 0.316459
vt 0.715023 0.325722
vt 0.706388 0.323408
vt 0.707303 0.316459
vt 0.705761 0.291154
vt 0.699439 0.297475
vt 0.680456 0.316459
vt 0.680456 0.289612
vt 0.687404 0.290527
vt 0.693879 0.293209
vt 0.653608 0.316459
vt 0.654523 0.309511
vt 0.667032 0.293209
vt 0.673507 0.290527
vt 0.703706 0.329883
vt 0.699439 0.335443
vt 0.693879 0.339709
vt 0.687404 0.342392
vt 0.680456 0.343306
vt 0.673507 0.342392
vt 0.667032 0.339709
vt 0.661472 0.335443
vt 0.657205 0.329883
vt 0.654523 0.323408
vt 0.645888 0.307197
vt 0.655150 0.341764
vt 0.649463 0.334353
vt 0.689718 0.351027
vt 0.680456 0.352246
vt 0.644669 0.316459
vt 0.645888 0.325722
vt 0.698349 0.347452
vt 0.680456 0.280672
vt 0.689718 0.281892
vt 0.671193 0.281892
vt 0.705761 0.341764
vt 0.698349 0.285467
vt 0.662562 0.285467
vt 0.711448 0.334353
vt 0.671193 0.351027
vt 0.662562 0.347452
vt 0.221212 0.304257
vt 0.221212 0.323336
vt 0.243277 0.323339
vt 0.243277 0.304257
vt 0.464240 0.304256
vt 0.464240 0.344632
vt 0.486305 0.344633
vt 0.486305 0.304257
vt 0.618852 0.304256
vt 0.618852 0.323108
vt 0.640969 0.323158
vt 0.640969 0.304256
vt 0.596734 0.304256
vt 0.596734 0.323054
vt 0.663079 0.323198
vt 0.663079 0.304256
vt 0.574624 0.304256
vt 0.574624 0.323021
vt 0.331642 0.304257
vt 0.331642 0.323242
vt 0.353759 0.323205
vt 0.353759 0.304257
vt 0.685177 0.323245
vt 0.685177 0.304256
vt 0.375876 0.323145
vt 0.375876 0.304257
vt 0.552526 0.304256
vt 0.552526 0.322994
vt 0.309531 0.304257
vt 0.309531 0.323289
vt 0.707262 0.323285
vt 0.707262 0.304256
vt 0.397986 0.323105
vt 0.397986 0.304257
vt 0.530442 0.304257
vt 0.530442 0.344632
vt 0.552526 0.344632
vt 0.287433 0.304257
vt 0.287433 0.323309
vt 0.729333 0.323312
vt 0.729333 0.304256
vt 0.397987 0.344633
vt 0.420085 0.344633
vt 0.420085 0.304257
vt 0.508370 0.304256
vt 0.508370 0.344632
vt 0.265349 0.304257
vt 0.265349 0.323329
vt 0.751398 0.323335
vt 0.751398 0.304256
vt 0.442169 0.344632
vt 0.442169 0.304256
vn 0.2064 -0.8485 0.4872
vn 0.2033 -0.9465 0.2506
vn 0.4031 -0.8855 0.2311
vn 0.4064 -0.7939 0.4524
vn 0.2132 0.6909 0.6908
vn 0.4120 0.6455 0.6431
vn 0.4098 0.7915 0.4535
vn 0.2107 0.8469 0.4882
vn 0.2000 -0.9798 -0.0035
vn 0.1967 -0.9461 -0.2574
vn 0.3962 -0.8851 -0.2440
vn 0.3996 -0.9166 -0.0065
vn 0.2095 -0.6928 0.6901
vn 0.4092 -0.6482 0.6422
vn 0.9999 -0.0021 -0.0145
vn 0.2075 0.9453 0.2517
vn 0.4069 0.8834 0.2323
vn 0.1930 0.6918 -0.6958
vn 0.1964 0.8476 -0.4929
vn 0.3964 0.7921 -0.4641
vn 0.3932 0.6465 -0.6538
vn 0.1872 -0.2527 -0.9493
vn 0.1872 0.0003 -0.9823
vn 0.3875 -0.0002 -0.9219
vn 0.3875 -0.2368 -0.8910
vn 0.2039 0.9790 -0.0023
vn 0.4036 0.9149 -0.0052
vn 0.2001 0.9457 -0.2563
vn 0.4000 0.8838 -0.2428
vn 0.1888 -0.4881 -0.8521
vn 0.3885 -0.4575 -0.7999
vn 0.2156 -0.0011 0.9765
vn 0.2140 -0.2547 0.9431
vn 0.4132 -0.2380 0.8790
vn 0.4141 -0.0015 0.9102
vn 0.2157 0.2519 0.9434
vn 0.4142 0.2351 0.8793
vn 0.1911 -0.6912 -0.6970
vn 0.3904 -0.6473 -0.6547
vn 0.2118 -0.4905 0.8453
vn 0.4115 -0.4586 0.7876
vn 0.2149 0.4879 0.8461
vn 0.4135 0.4557 0.7882
vn 0.1935 -0.8477 -0.4939
vn 0.3930 -0.7932 -0.4651
vn 0.1882 0.2532 -0.9489
vn 0.3885 0.2363 -0.8906
vn 0.1902 0.4891 -0.8512
vn 0.3904 0.4569 -0.7993
vn 0.0022 1.0000 0.0007
vn 0.0058 0.9656 0.2600
vn 0.0013 -0.9660 0.2585
vn -0.0017 -1.0000 -0.0010
vn -0.0145 0.0009 -0.9999
vn -0.0135 0.2591 -0.9658
vn -0.0146 -0.2574 -0.9662
vn -0.0115 0.4999 -0.8660
vn -0.0120 -0.5113 -0.8593
vn 0.0146 0.2577 0.9661
vn 0.0145 -0.0005 0.9999
vn -0.0088 0.7069 -0.7073
vn 0.0118 -0.2756 0.9612
vn -0.0095 -0.7474 -0.6643
vn 0.0137 0.4986 0.8667
vn -0.0054 0.8659 -0.5001
vn 0.0092 -0.5527 0.8333
vn -0.0073 -0.8772 -0.4801
vn -0.0092 -0.7920 -0.6104
vn 0.0118 0.7058 0.7083
vn -0.0017 0.9660 -0.2586
vn 0.0089 -0.6086 0.7934
vn 0.0069 -0.7242 0.6896
vn -0.0045 -0.9655 -0.2603
vn 0.0091 0.8652 0.5014
vn 0.0042 -0.8660 0.5000
usemtl MI_Trim_02
s 1
f 5/1/1 6/2/2 30/3/3 29/4/4
f 10/5/5 35/6/6 36/7/7 11/8/8
f 7/9/9 19/10/10 44/11/11 31/12/12
f 4/13/13 5/1/1 29/4/4 28/14/14
f 31/12/15 32/15/15 25/16/15 26/17/15 27/18/15 28/14/15 29/4/15 30/3/15
f 38/19/15 37/20/15 36/7/15 35/6/15 34/21/15 33/22/15 25/16/15 32/15/15
f 31/12/15 44/11/15 43/23/15 42/24/15 41/25/15 40/26/15 39/27/15 32/15/15
f 38/19/15 32/15/15 39/27/15 45/28/15 46/29/15 47/30/15 48/31/15 49/32/15
f 12/33/16 11/8/8 36/7/7 37/20/17
f 22/34/18 23/35/19 48/31/20 47/30/21
f 15/36/22 14/37/23 39/27/24 40/26/25
f 6/2/2 7/9/9 31/12/12 30/3/3
f 13/38/26 12/33/16 37/20/17 38/19/27
f 23/35/19 24/39/28 49/32/29 48/31/20
f 16/40/30 15/36/22 40/26/25 41/25/31
f 24/39/28 13/38/26 38/19/27 49/32/29
f 1/41/32 2/42/33 26/17/34 25/16/35
f 8/43/36 1/41/32 25/16/35 33/22/37
f 17/44/38 16/40/30 41/25/31 42/24/39
f 2/42/33 3/45/40 27/18/41 26/17/34
f 9/46/42 8/43/36 33/22/37 34/21/43
f 18/47/44 17/44/38 42/24/39 43/23/45
f 14/37/23 20/48/46 45/28/47 39/27/24
f 3/45/40 4/13/13 28/14/14 27/18/41
f 10/5/5 9/46/42 34/21/43 35/6/6
f 19/10/10 18/47/44 43/23/45 44/11/11
f 20/48/46 21/49/48 46/29/49 45/28/47
f 21/49/48 22/34/18 47/30/21 46/29/49
usemtl MI_Trim_01
f 13/50/26 60/51/50 74/52/51 12/53/16
f 6/54/2 53/55/52 54/56/53 7/57/9
f 14/58/23 70/59/54 68/60/55 20/61/46
f 15/62/22 73/63/56 70/59/54 14/58/23
f 20/61/46 68/60/55 59/64/57 21/65/48
f 16/66/30 62/67/58 73/63/56 15/62/22
f 8/68/36 67/69/59 64/70/60 1/71/32
f 21/65/48 59/64/57 69/72/61 22/73/18
f 1/71/32 64/70/60 72/74/62 2/75/33
f 17/76/38 58/77/63 62/67/58 16/66/30
f 9/78/42 61/79/64 67/69/59 8/68/36
f 22/73/18 69/72/61 63/80/65 23/81/19
f 2/75/33 72/74/62 66/82/66 3/83/40
f 18/84/44 56/85/67 55/86/68 58/77/63 17/76/38
f 10/87/5 71/88/69 61/79/64 9/78/42
f 23/81/19 63/80/65 75/89/70 24/90/28
f 3/83/40 66/82/66 50/91/71 51/92/72 4/93/13
f 19/94/10 57/95/73 56/85/67 18/84/44
f 11/96/8 65/97/74 71/88/69 10/87/5
f 24/90/28 75/89/70 60/98/50 13/99/26
f 4/93/13 51/92/72 52/100/75 5/101/1
f 7/57/9 54/56/53 57/95/73 19/94/10
f 12/53/16 74/52/51 65/97/74 11/96/8
f 5/101/1 52/100/75 53/55/52 6/54/2
