# Blender v3.6.0 OBJ File: 'AllModules_Unreal.blend'
# www.blender.org
mtllib WallBand_Corner_Round_Inner.mtl
o WallBand_Corner_Round_Inner_Plane.081
v -1.882587 -0.000000 -3.522007
v 0.000001 0.800000 -4.200000
v -2.828180 0.000000 -2.828195
v 0.000001 0.000000 -4.000000
v -2.217699 0.000000 -3.319238
v -2.969601 0.800000 -2.969617
v -1.530420 0.000000 -3.694706
v -1.606972 0.800000 -3.879476
v -2.828180 1.000000 -2.828195
v 0.000001 1.000000 -4.000000
v -2.828180 3.000000 -2.828196
v 0.000001 3.000000 -4.000000
v -2.533592 0.000000 -3.087502
v -1.530420 1.000000 -3.694706
v -1.530420 3.000000 -3.694706
v -2.660540 0.800000 -3.242048
v -2.328921 0.800000 -3.485460
v -1.976962 0.800000 -3.698339
v -2.533592 1.000000 -3.087502
v -2.217699 1.000000 -3.319238
v -1.882587 1.000000 -3.522006
v -2.533593 3.000000 -3.087503
v -2.217699 3.000000 -3.319238
v -1.882587 3.000000 -3.522007
v -1.159708 0.000000 -3.823517
v -0.778796 -0.000000 -3.915198
v -0.391566 -0.000000 -3.973642
v -1.159708 1.000000 -3.823517
v -0.778796 1.000000 -3.915197
v -0.391566 1.000000 -3.973642
v -1.159708 3.000000 -3.823517
v -0.778796 3.000000 -3.915198
v -0.391566 3.000000 -3.973642
v -1.217629 0.800000 -4.014946
v -0.817558 0.800000 -4.111406
v -0.410936 0.800000 -4.172702
v -3.823511 0.000000 -1.159728
v -4.000000 0.000000 -0.000022
v -3.915195 0.000000 -0.778818
v -4.200000 0.800000 -0.000023
v -3.694700 0.000000 -1.530443
v -3.879469 0.800000 -1.606996
v -4.000000 1.000000 -0.000022
v -4.000000 3.000000 -0.000022
v -3.973642 0.000000 -0.391590
v -3.694700 1.000000 -1.530443
v -3.694700 3.000000 -1.530443
v -4.172702 0.800000 -0.410961
v -4.111402 0.800000 -0.817581
v -4.014940 0.800000 -1.217650
v -3.973642 1.000000 -0.391590
v -3.915195 1.000000 -0.778818
v -3.823511 1.000000 -1.159728
v -3.973643 3.000000 -0.391590
v -3.915195 3.000000 -0.778818
v -3.823511 3.000000 -1.159728
v -3.521997 0.000000 -1.882608
v -3.319227 -0.000000 -2.217717
v -3.087489 0.000000 -2.533609
v -3.521996 1.000000 -1.882608
v -3.319227 1.000000 -2.217717
v -3.087489 1.000000 -2.533608
v -3.521997 3.000000 -1.882608
v -3.319227 3.000000 -2.217717
v -3.087490 3.000000 -2.533609
v -3.698329 0.800000 -1.976984
v -3.485448 0.800000 -2.328940
v -3.242034 0.800000 -2.660557
v -3.991302 2.844916 -0.042820
v -3.991302 2.601933 -0.042820
v -3.962258 2.844915 -0.430938
v -3.962258 2.601933 -0.430938
v -2.805562 2.844916 -2.837429
v -2.805562 2.601933 -2.837429
v -2.514927 2.844915 -3.096291
v -2.514927 2.601933 -3.096291
vt 0.753336 0.408906
vt 0.753336 0.362340
vt 0.837782 0.362340
vt 0.837782 0.408906
vt 1.077256 0.750453
vt 1.077256 0.408906
vt 1.159675 0.408906
vt 1.159675 0.750453
vt 0.747581 0.750453
vt 0.747581 0.408906
vt 0.830000 0.408906
vt 0.830000 0.750453
vt 0.415555 0.408906
vt 0.415555 0.362340
vt 0.500000 0.362340
vt 0.500000 0.408906
vt 0.162218 0.408906
vt 0.162218 0.362340
vt 0.246664 0.362340
vt 0.246664 0.408906
vt 0.331109 0.362340
vt 0.331109 0.408906
vt 0.500325 0.750453
vt 0.500325 0.408906
vt 0.582744 0.408906
vt 0.582744 0.750453
vt 0.665163 0.408906
vt 0.665163 0.750453
vt 0.912419 0.408906
vt 0.912419 0.750453
vt 0.994838 0.408906
vt 0.994838 0.750453
vt 0.584445 0.362340
vt 0.584445 0.408906
vt 0.668891 0.362340
vt 0.668891 0.408906
vt 0.753336 0.408906
vt 0.753336 0.362340
vt 0.837782 0.362340
vt 0.837782 0.408906
vt 1.077256 0.750453
vt 1.077256 0.408906
vt 1.159675 0.408906
vt 1.159675 0.750453
vt 0.747581 0.750453
vt 0.747581 0.408906
vt 0.830000 0.408906
vt 0.830000 0.750453
vt 0.415555 0.408906
vt 0.415555 0.362340
vt 0.500000 0.362340
vt 0.500000 0.408906
vt 0.162218 0.408906
vt 0.162218 0.362340
vt 0.246664 0.362340
vt 0.246664 0.408906
vt 0.331109 0.362340
vt 0.331109 0.408906
vt 0.500325 0.750453
vt 0.500325 0.408906
vt 0.582744 0.408906
vt 0.582744 0.750453
vt 0.665163 0.408906
vt 0.665163 0.750453
vt 0.912419 0.408906
vt 0.912419 0.750453
vt 0.994838 0.408906
vt 0.994838 0.750453
vt 0.584445 0.362340
vt 0.584445 0.408906
vt 0.668891 0.362340
vt 0.668891 0.408906
vt 0.432516 0.655519
vt 0.432516 0.605123
vt 0.501354 0.605123
vt 0.501354 0.655519
vt 0.705838 0.655519
vt 0.705838 0.605123
vt 0.773999 0.605123
vt 0.773999 0.655519
vt 0.226001 0.655519
vt 0.226001 0.605123
vt 0.294840 0.605123
vt 0.294840 0.655519
vt 0.363678 0.605123
vt 0.363678 0.655519
vt 0.569515 0.605123
vt 0.569515 0.655519
vt 0.637676 0.605123
vt 0.637676 0.655519
vt 0.432516 0.655519
vt 0.432516 0.605123
vt 0.501354 0.605123
vt 0.501354 0.655519
vt 0.705838 0.655519
vt 0.705838 0.605123
vt 0.773999 0.605123
vt 0.773999 0.655519
vt 0.226001 0.655519
vt 0.226001 0.605123
vt 0.294840 0.605123
vt 0.294840 0.655519
vt 0.363678 0.605123
vt 0.363678 0.655519
vt 0.569515 0.605123
vt 0.569515 0.655519
vt 0.637676 0.605123
vt 0.637676 0.655519
vt 0.799616 0.579130
vt 0.799616 0.490855
vt 0.941012 0.490855
vt 0.941012 0.579130
vt 0.799616 0.579130
vt 0.799616 0.490855
vt 0.941012 0.490855
vt 0.941012 0.579130
vn 0.0765 -0.7070 0.7031
vn 0.0763 -0.7070 0.7031
vn 0.0472 -0.7066 0.7060
vn 0.1083 0.0000 0.9941
vn 0.0672 0.0000 0.9977
vn 0.4795 0.0000 0.8776
vn 0.3850 0.0000 0.9229
vn 0.3390 -0.7070 0.6206
vn 0.3388 -0.7070 0.6207
vn 0.2721 -0.7073 0.6525
vn 0.2721 -0.7073 0.6524
vn 0.4998 -0.7074 0.4998
vn 0.4435 -0.7070 0.5509
vn 0.4433 -0.7070 0.5511
vn 0.3926 -0.7070 0.5882
vn 0.7071 0.0000 0.7071
vn 0.6267 0.0000 0.7792
vn 0.5551 0.0000 0.8318
vn 0.2815 0.0000 0.9596
vn 0.1918 0.0000 0.9814
vn 0.1993 -0.7071 0.6785
vn 0.1990 -0.7071 0.6785
vn 0.1357 -0.7070 0.6941
vn 0.5511 -0.7070 0.4433
vn 0.5509 -0.7070 0.4435
vn 0.7792 0.0000 0.6267
vn 0.9596 0.0000 0.2815
vn 0.9229 0.0000 0.3850
vn 0.6785 -0.7071 0.1990
vn 0.6785 -0.7071 0.1993
vn 0.6525 -0.7073 0.2721
vn 0.6524 -0.7073 0.2721
vn 0.7060 -0.7066 0.0472
vn 0.7031 -0.7070 0.0763
vn 0.7031 -0.7070 0.0766
vn 0.6941 -0.7070 0.1357
vn 0.9977 0.0000 0.0672
vn 0.9941 0.0000 0.1083
vn 0.9814 0.0000 0.1918
vn 0.8776 0.0000 0.4795
vn 0.8318 0.0000 0.5551
vn 0.6207 -0.7070 0.3388
vn 0.6206 -0.7070 0.3391
vn 0.5882 -0.7070 0.3926
vn 0.4649 0.2425 0.8515
vn 0.4650 0.2425 0.8514
vn 0.3734 0.2427 0.8954
vn 0.1047 0.2424 0.9645
vn 0.1049 0.2424 0.9645
vn 0.0647 0.2422 0.9681
vn 0.6860 0.2427 0.6860
vn 0.6082 0.2425 0.7559
vn 0.6083 0.2425 0.7558
vn 0.5386 0.2425 0.8069
vn 0.2732 0.2425 0.9309
vn 0.2733 0.2425 0.9309
vn 0.1861 0.2425 0.9521
vn 0.9309 0.2425 0.2733
vn 0.9309 0.2425 0.2732
vn 0.8954 0.2427 0.3734
vn 0.7558 0.2425 0.6083
vn 0.7559 0.2425 0.6082
vn 0.9681 0.2422 0.0647
vn 0.9645 0.2424 0.1049
vn 0.9645 0.2424 0.1047
vn 0.9521 0.2425 0.1861
vn 0.9521 0.2425 0.1862
vn 0.8514 0.2425 0.4650
vn 0.8515 0.2425 0.4649
vn 0.8069 0.2425 0.5386
vn 0.9972 0.0000 0.0746
vn 0.6651 0.0000 0.7467
usemtl MI_Trim_02
s 1
f 30/1/1 36/2/2 2/3/3 10/4/3
f 33/5/4 30/6/4 10/7/5 12/8/5
f 24/9/6 21/10/6 14/11/7 15/12/7
f 21/13/8 18/14/9 8/15/10 14/16/11
f 9/17/12 6/18/12 16/19/13 19/20/14
f 19/20/14 16/19/13 17/21/15 20/22/15
f 20/22/15 17/21/15 18/14/9 21/13/8
f 11/23/16 9/24/16 19/25/17 22/26/17
f 22/26/17 19/25/17 20/27/18 23/28/18
f 23/28/18 20/27/18 21/10/6 24/9/6
f 15/12/7 14/11/7 28/29/19 31/30/19
f 31/30/19 28/29/19 29/31/20 32/32/20
f 32/32/20 29/31/20 30/6/4 33/5/4
f 14/16/11 8/15/10 34/33/21 28/34/22
f 28/34/22 34/33/21 35/35/23 29/36/23
f 29/36/23 35/35/23 36/2/2 30/1/1
f 62/37/24 68/38/25 6/39/12 9/40/12
f 65/41/26 62/42/26 9/43/16 11/44/16
f 56/45/27 53/46/27 46/47/28 47/48/28
f 53/49/29 50/50/30 42/51/31 46/52/32
f 43/53/33 40/54/33 48/55/34 51/56/35
f 51/56/35 48/55/34 49/57/36 52/58/36
f 52/58/36 49/57/36 50/50/30 53/49/29
f 44/59/37 43/60/37 51/61/38 54/62/38
f 54/62/38 51/61/38 52/63/39 55/64/39
f 55/64/39 52/63/39 53/46/27 56/45/27
f 47/48/28 46/47/28 60/65/40 63/66/40
f 63/66/40 60/65/40 61/67/41 64/68/41
f 64/68/41 61/67/41 62/42/26 65/41/26
f 46/52/32 42/51/31 66/69/42 60/70/43
f 60/70/43 66/69/42 67/71/44 61/72/44
f 61/72/44 67/71/44 68/38/25 62/37/24
usemtl MI_Trim_01
f 18/73/45 1/74/46 7/75/47 8/76/47
f 36/77/48 27/78/49 4/79/50 2/80/50
f 6/81/51 3/82/51 13/83/52 16/84/53
f 16/84/53 13/83/52 5/85/54 17/86/54
f 17/86/54 5/85/54 1/74/46 18/73/45
f 8/76/47 7/75/47 25/87/55 34/88/56
f 34/88/56 25/87/55 26/89/57 35/90/57
f 35/90/57 26/89/57 27/78/49 36/77/48
f 50/91/58 37/92/59 41/93/60 42/94/60
f 68/95/61 59/96/62 3/97/51 6/98/51
f 40/99/63 38/100/63 45/101/64 48/102/65
f 48/102/65 45/101/64 39/103/66 49/104/67
f 49/104/67 39/103/66 37/92/59 50/91/58
f 42/94/60 41/93/60 57/105/68 66/106/69
f 66/106/69 57/105/68 58/107/70 67/108/70
f 67/108/70 58/107/70 59/96/62 68/95/61
usemtl M_Decal_White
f 69/109/71 70/110/71 72/111/71 71/112/71
f 73/113/72 74/114/72 76/115/72 75/116/72
