# Blender v3.6.0 OBJ File: 'AllModules_Unreal.blend'
# www.blender.org
mtllib WallBand_Straight_Broken.mtl
o WallBand_Straight_Broken_Plane.039
v -2.200000 0.800000 2.000000
v -2.200000 0.800000 -2.000000
v -2.000000 0.000000 2.000000
v -2.000000 -0.000000 -2.000000
v -2.200000 0.800000 -2.000000
v -2.200000 0.800000 2.000000
v -2.000000 0.000000 0.000000
v -2.200000 0.800000 0.000000
v -2.000000 1.000000 2.000000
v -2.000000 1.000000 -2.000000
v -2.000000 3.000000 2.000000
v -2.000000 3.000000 -2.000000
v -2.000000 2.976367 1.976367
v -2.000000 1.023633 -1.976367
v -2.000000 1.023633 1.976367
v -2.000000 2.976367 -1.976367
v -2.185397 2.976367 1.976367
v -2.185397 1.023633 1.976367
v -2.185397 1.023633 -1.976367
v -2.185398 2.976367 -1.976367
v -1.709352 -0.002008 1.177461
v -1.521038 0.154022 -2.791412
v -1.938171 1.984860 1.177213
v -1.911140 1.987474 -2.822695
v -1.912570 1.831691 1.117178
v -1.884770 1.590303 1.117208
v -1.909940 1.831945 0.727984
v -1.882140 1.590558 0.728015
v -1.770499 -0.007995 1.177043
v -1.561182 0.111254 -2.809698
v -1.999318 1.978872 1.176796
v -1.972288 1.981487 -2.823112
v -1.705012 -0.001588 0.535321
v -1.932122 1.985445 0.282207
v -1.993269 1.979457 0.281655
v -1.766159 -0.007575 0.534769
v -1.684681 -0.011732 -2.250949
v -1.731740 0.267090 -2.812989
v -1.645097 0.030480 -2.230132
v -1.692383 0.310577 -2.794719
v -1.727984 -0.007640 -2.016978
v -1.750575 -0.005609 -1.779011
v -1.792290 0.418538 -2.822917
v -1.757899 0.315008 -2.817740
v -1.689446 0.000378 -1.775942
v -1.673243 0.011033 -2.014261
v -1.731264 0.425583 -2.822500
v -1.700560 0.326363 -2.801609
v -1.836169 1.146291 1.177354
v -1.897226 1.139515 1.176937
v -1.829722 1.327626 -2.822576
v -1.895768 1.173880 0.384387
v -1.890778 1.320850 -2.822993
v -1.834712 1.180656 0.384838
v -1.845363 1.239875 -2.822739
v -1.841213 0.950659 -2.822900
v -1.854892 1.094888 -2.822898
v -1.843484 0.707845 1.177018
v -1.853484 0.998830 1.177141
v -1.857696 0.852786 1.177017
v -1.913028 1.038523 0.400934
v -1.905049 0.745494 0.437718
v -1.918491 0.891531 0.419185
v -1.902239 0.943613 -2.823317
v -1.906439 1.232825 -2.823156
v -1.915932 1.087841 -2.823315
v -1.904496 0.700801 1.176601
v -1.914541 0.991781 1.176724
v -1.918727 0.845740 1.176600
v -1.844036 0.752538 0.438135
v -1.851969 1.045572 0.401351
v -1.857459 0.898577 0.419602
vt 0.162218 0.408906
vt 0.162218 0.362340
vt 0.837782 0.362340
vt 0.837782 0.408906
vt 1.155779 0.412942
vt 0.504221 0.412942
vt 0.500325 0.408906
vt 1.159675 0.408906
vt 0.504221 0.746417
vt 0.500325 0.750453
vt 1.155779 0.746417
vt 1.159675 0.750453
vt 1.159675 0.448546
vt 1.061002 0.408906
vt 1.159675 0.408906
vt 1.798631 0.945566
vt 1.800664 0.991636
vt 2.247486 0.991636
vt 2.247486 0.945566
vt 1.159675 0.454644
vt 1.024298 0.408906
vt -0.577793 0.945569
vt -0.577806 0.991633
vt -0.526122 0.991633
vt -0.551016 0.945569
vt -0.751843 0.945566
vt -0.751843 0.991636
vt -0.270234 0.991636
vt -0.270335 0.945566
vt 0.114413 0.991633
vt 0.114603 0.945569
vt 0.006047 0.945569
vt 0.006060 0.991633
vt 0.622122 0.539384
vt 1.159675 0.573009
vt 1.159675 0.481779
vt 0.984490 0.408906
vt 0.606198 0.408906
vt -0.751843 0.945566
vt -0.751843 0.991636
vt 1.576265 0.991636
vt 1.576366 0.945566
vt 2.247486 0.991636
vt 2.247486 0.945566
vt 1.450585 0.991636
vt 1.448545 0.945566
vt 0.500325 0.531775
vt 0.500325 0.408906
vt -0.431076 0.945569
vt -0.431089 0.991633
vt -0.030513 0.991633
vt -0.030500 0.945569
vt -0.751843 0.945569
vt -0.751058 0.991633
vt 1.061449 0.408906
vt 1.159675 0.448364
vt 1.159675 0.408906
vt 0.185289 0.945569
vt 0.185277 0.991633
vt 0.249499 0.991633
vt 0.249309 0.945569
vt 0.622122 0.539566
vt 0.606176 0.408906
vt 0.984042 0.408906
vt 1.159675 0.481960
vt 1.159675 0.573191
vt 1.023676 0.408906
vt 1.159675 0.460135
vt 1.628838 0.991636
vt 1.631667 0.945566
vt 0.748607 0.991633
vt 0.747821 0.945569
vt 0.630964 0.612013
vt 1.159675 0.636917
vt 1.159675 0.750453
vt 0.647859 0.750453
vt 0.630969 0.611878
vt 1.159675 0.636782
vt 1.159675 0.622155
vt 0.628208 0.589253
vt 0.500325 0.606195
vt 0.500325 0.581518
vt 0.628208 0.589434
vt -0.211550 0.991633
vt -0.211563 0.945569
vt -0.751058 0.945569
vt -0.751843 0.991633
vt 1.159675 0.622337
vt 0.500325 0.606059
vt 0.500325 0.581336
vt 0.500325 0.531957
vt 0.500325 0.408906
vt 0.500325 0.750453
vt 0.500325 0.750453
vt 0.647881 0.750453
vt 1.159675 0.750453
vt 0.747821 0.991633
vt 0.748607 0.945569
vt 0.079114 0.979374
vt 0.079123 0.945569
vt 0.500325 0.556765
vt 0.625295 0.564576
vt 1.159662 0.597975
vt 0.625295 0.564758
vt 1.159662 0.598157
vt -0.101835 0.955337
vt -0.101825 0.991633
vt 0.500325 0.556947
vt 0.226001 0.655519
vt 0.226001 0.605123
vt 0.501354 0.605123
vt 0.501354 0.655519
vt 0.773999 0.605123
vt 0.773999 0.655519
vt 0.183764 0.500578
vt 0.803433 0.500578
vt 0.803433 0.527075
vt 0.183764 0.527075
vt 0.170540 0.459896
vt 0.170540 0.106534
vt 0.860955 0.106534
vt 0.860955 0.459896
vt 0.183764 0.500578
vt 0.489893 0.500578
vt 0.489893 0.527075
vt 0.183764 0.527075
vt 0.803433 0.527075
vt 0.183764 0.527075
vt 0.183764 0.500578
vt 0.803433 0.500578
vt 0.489893 0.527075
vt 0.183764 0.527075
vt 0.183764 0.500578
vt 0.489893 0.500578
vt 0.799616 0.579130
vt 0.799616 0.490855
vt 0.941012 0.490855
vt 0.941012 0.579130
vn 0.7071 -0.7071 0.0000
vn 1.0000 -0.0000 -0.0000
vn 0.8036 0.5575 0.2084
vn 0.8463 0.5024 0.1771
vn 0.6409 0.7077 0.2974
vn 0.6275 -0.7778 0.0345
vn 0.6436 -0.7647 0.0307
vn 0.7270 -0.6865 0.0096
vn 0.9315 0.3480 0.1060
vn 0.9442 0.3162 0.0923
vn 0.2770 0.1029 -0.9554
vn 0.2670 0.1197 -0.9562
vn 0.2283 -0.0427 -0.9726
vn 0.2560 -0.0297 -0.9662
vn 0.0974 -0.9952 0.0000
vn 0.0975 -0.9952 -0.0001
vn -0.0068 -0.0007 1.0000
vn -0.9905 -0.1376 -0.0086
vn -0.9909 -0.1341 -0.0097
vn -0.9727 -0.2281 -0.0416
vn -0.9804 -0.1956 -0.0233
vn -0.9834 -0.1811 -0.0108
vn -0.0974 0.9952 -0.0000
vn 0.1531 -0.9882 -0.0005
vn 0.1527 -0.9883 -0.0005
vn -0.9899 -0.1414 -0.0072
vn -0.9829 -0.1841 -0.0087
vn 0.0847 -0.0425 -0.9955
vn 0.0716 -0.0352 -0.9968
vn 0.0068 0.0007 -1.0000
vn 0.2107 0.2104 -0.9546
vn -0.8468 -0.5018 -0.1763
vn -0.7986 -0.5635 -0.2114
vn -0.6409 -0.7077 -0.2974
vn 0.9905 0.1375 0.0086
vn 0.9834 0.1811 0.0108
vn 0.9813 0.1915 0.0214
vn 0.9752 0.2184 0.0372
vn 0.9909 0.1340 0.0097
vn -0.9368 -0.3354 -0.0996
vn -0.9218 -0.3703 -0.1148
vn 0.3672 -0.9298 0.0264
vn 0.3828 -0.9234 0.0291
vn 1.0000 -0.0072 0.0008
vn 1.0000 -0.0087 0.0007
vn 0.9925 0.1217 0.0070
vn 0.9926 0.1213 0.0069
vn -1.0000 0.0071 -0.0008
vn -1.0000 0.0086 -0.0007
vn -0.9949 0.1006 0.0039
vn -0.9961 0.0879 0.0032
vn 1.0000 -0.0037 0.0011
vn 0.9971 -0.0758 -0.0026
vn 0.9961 -0.0881 -0.0032
vn 0.9949 -0.1009 -0.0039
vn -1.0000 0.0036 -0.0011
vn -0.9971 0.0756 0.0026
vn 0.9899 0.1413 0.0072
vn 0.9829 0.1840 0.0087
vn 0.9926 0.1209 0.0069
vn -0.9926 -0.1209 -0.0069
vn -0.9926 -0.1213 -0.0069
vn -0.9925 -0.1217 -0.0070
vn -0.9994 -0.0335 -0.0025
vn -0.9996 -0.0266 -0.0024
vn -0.9998 -0.0184 -0.0023
vn 0.9996 0.0265 0.0024
vn 0.9998 0.0182 0.0022
vn 0.9994 0.0334 0.0025
vn 0.9701 0.2425 -0.0000
vn 0.0000 1.0000 -0.0000
vn 0.0000 0.0000 1.0000
vn 0.0000 -1.0000 0.0000
vn 0.0000 -0.0000 -1.0000
vn 0.9934 0.1144 0.0068
usemtl MI_Trim_02
s 1
f 9/1/1 1/2/1 2/3/1 10/4/1
f 14/5/2 15/6/2 9/7/2 10/8/2
f 15/6/2 13/9/2 11/10/2 9/7/2
f 16/11/2 14/5/2 10/8/2 12/12/2
f 13/9/2 16/11/2 12/12/2 11/10/2
f 40/13/3 39/14/4 22/15/5
f 39/16/6 37/17/7 30/18/8 22/19/8
f 48/20/9 46/21/10 39/14/4 40/13/3
f 40/22/11 38/23/12 44/24/13 48/25/14
f 21/26/15 29/27/15 36/28/16 33/29/16
f 49/30/17 50/31/17 68/32/17 59/33/17
f 62/34/18 64/35/19 43/36/20 42/37/21 36/38/22
f 24/39/23 32/40/23 35/41/23 34/42/23
f 34/42/23 35/41/23 31/43/23 23/44/23
f 42/45/24 45/46/25 33/29/16 36/28/16
f 67/47/26 62/34/18 36/38/22 29/48/27
f 47/49/28 43/50/29 64/51/30 56/52/30
f 22/53/31 30/54/31 38/23/12 40/22/11
f 37/55/32 38/56/33 30/57/34
f 55/58/30 65/59/30 53/60/30 51/61/30
f 70/62/35 33/63/36 45/64/37 47/65/38 56/66/39
f 38/56/33 37/55/32 41/67/40 44/68/41
f 42/37/21 43/36/20 44/68/41 41/67/40
f 43/50/29 47/49/28 48/25/14 44/24/13
f 47/65/38 45/64/37 46/21/10 48/20/9
f 45/46/25 42/45/24 41/69/42 46/70/43
f 37/17/7 39/16/6 46/70/43 41/69/42
f 51/61/30 53/60/30 32/71/30 24/72/30
f 54/73/44 51/74/45 24/75/46 34/76/47
f 52/77/48 53/78/49 65/79/50 61/80/51
f 49/81/52 59/82/53 71/83/54 54/73/44
f 58/84/17 67/85/17 29/86/17 21/87/17
f 54/73/44 71/83/54 55/88/55 51/74/45
f 50/89/56 52/77/48 61/80/51 68/90/57
f 70/62/35 58/91/58 21/92/59 33/63/36
f 23/93/60 49/81/52 54/73/44 34/76/47
f 31/94/61 35/95/62 52/77/48 50/89/56
f 52/77/48 35/95/62 32/96/63 53/78/49
f 23/97/17 31/98/17 50/31/17 49/30/17
f 56/52/30 64/51/30 66/99/30 57/100/30
f 57/100/30 66/99/30 65/59/30 55/58/30
f 62/34/18 67/47/26 69/101/64 63/102/65
f 63/102/65 69/101/64 68/90/57 61/80/51
f 62/34/18 63/102/65 66/103/66 64/35/19
f 63/102/65 61/80/51 65/79/50 66/103/66
f 55/88/55 71/83/54 72/104/67 57/105/68
f 59/33/17 68/32/17 69/106/17 60/107/17
f 60/107/17 69/106/17 67/85/17 58/84/17
f 71/83/54 59/82/53 60/108/69 72/104/67
f 72/104/67 60/108/69 58/91/58 70/62/35
f 57/105/68 72/104/67 70/62/35 56/66/39
usemtl MI_Trim_01
f 6/109/70 3/110/70 7/111/70 8/112/70
f 8/112/70 7/111/70 4/113/70 5/114/70
f 15/115/71 14/116/71 19/117/71 18/118/71
f 17/119/2 18/120/2 19/121/2 20/122/2
f 14/123/72 16/124/72 20/125/72 19/126/72
f 16/127/73 13/128/73 17/129/73 20/130/73
f 13/131/74 15/132/74 18/133/74 17/134/74
usemtl M_Decal_White
f 25/135/75 26/136/75 28/137/75 27/138/75
