# Blender v3.6.0 OBJ File: 'AllModules_Unreal.blend'
# www.blender.org
mtllib WallAstra_Straight_Flat.mtl
o WallAstra_Straight_Flat_Plane.162
v -2.090514 2.738936 0.000000
v -2.100000 0.800000 0.000000
v -2.100000 0.800000 2.000000
v -2.090514 2.738936 2.000000
v -2.090514 2.738936 1.960965
v -2.100000 0.800000 1.960965
v -2.074594 0.913402 0.000000
v -2.074594 0.913402 1.960965
v -2.074594 0.913402 2.000000
v -2.100000 0.800000 1.151600
v -2.074594 0.913402 1.151600
v -2.090514 2.738936 1.151600
v -2.074594 0.913402 1.862860
v -2.090514 2.738936 1.862860
v -2.100000 0.800000 1.862860
v -2.100000 0.800000 1.783259
v -2.074594 0.913402 1.783259
v -2.090514 2.738936 1.783258
v -2.100000 0.800000 -2.000000
v -2.090514 2.738936 -2.000000
v -2.090514 2.738936 -1.960965
v -2.100000 0.800000 -1.960965
v -2.074594 0.913402 -1.960965
v -2.074594 0.913402 -2.000000
v -2.100000 0.800000 -1.151600
v -2.074594 0.913402 -1.151600
v -2.090514 2.738936 -1.151600
v -2.074594 0.913402 -1.862860
v -2.090514 2.738936 -1.862860
v -2.100000 0.800000 -1.862860
v -2.100000 0.800000 -1.783259
v -2.074594 0.913402 -1.783259
v -2.090514 2.738936 -1.783258
v -2.100000 0.800000 0.000000
v -2.100000 0.800000 2.000000
v -2.000000 -0.000000 0.000000
v -2.000000 0.000000 2.000000
v -2.100000 0.800000 1.375622
v -2.000000 0.000000 1.375622
v -2.100000 0.800000 -2.000000
v -2.000000 0.000000 -2.000000
v -2.100000 0.800000 -1.375622
v -2.000000 0.000000 -1.375622
v -2.000000 0.304051 1.375622
v -2.000000 0.304051 2.000000
v -2.000000 0.304051 0.000000
v -2.000000 0.304051 -1.375622
v -2.000000 0.304051 -2.000000
v -2.100000 0.800000 1.233009
v -2.000000 0.304051 1.233009
v -2.000000 -0.000000 1.233009
v -2.100000 0.800000 0.259509
v -2.000000 -0.000000 0.259509
v -2.000000 0.304051 0.259509
v -2.000000 0.508580 2.000000
v -2.000000 0.508580 1.375622
v -2.000000 0.508579 0.000000
v -2.000000 0.508580 -1.375622
v -2.000000 0.508580 -2.000000
v -2.000000 0.508580 1.233009
v -2.000000 0.508579 0.259509
v -2.000000 0.719906 -2.000000
v -2.000000 0.719906 1.375622
v -2.000000 0.719905 0.000000
v -2.000000 0.719906 -1.375622
v -2.000000 0.719906 1.233009
v -2.000000 0.719905 0.259509
v -2.000000 0.719906 2.000000
v -2.000000 0.650958 2.000000
v -2.000000 0.650958 -2.000000
v -2.000000 0.650958 1.375622
v -2.000000 0.650958 0.000000
v -2.000000 0.650958 -1.375622
v -2.000000 0.650958 1.233009
v -2.000000 0.650958 0.259509
v -2.086237 2.810340 -0.000000
v -2.090514 2.738936 0.000000
v -2.090514 2.738936 2.000000
v -2.086237 2.810340 0.199791
v -2.090514 2.738936 0.199582
v -2.086237 2.810340 2.000000
v -2.000000 3.000000 0.200000
v -2.000000 3.000000 0.000000
v -2.000000 3.000000 2.000000
v -2.086237 2.810340 0.342520
v -2.000000 3.000000 0.342520
v -2.090514 2.738936 0.468626
v -2.090514 2.738936 -2.000000
v -2.086237 2.810340 -0.199791
v -2.090514 2.738936 -0.199582
v -2.086237 2.810340 -2.000000
v -2.000000 3.000000 -0.200000
v -2.000000 3.000000 -2.000000
v -2.086237 2.810340 -0.342520
v -2.000000 3.000000 -0.342520
v -2.090514 2.738936 -0.468626
vt 0.522271 0.694005
vt 0.522271 0.715593
vt 0.308345 0.715593
vt 0.308345 0.694005
vt 0.672622 0.694005
vt 0.672622 0.354874
vt 0.679873 0.354874
vt 0.679873 0.694005
vt 0.654397 0.715593
vt 0.654397 0.694005
vt 0.672622 0.715593
vt 0.679873 0.715593
vt 0.308345 0.354874
vt 0.522271 0.354874
vt 0.654397 0.354874
vt 0.639610 0.715593
vt 0.639610 0.694005
vt 0.639610 0.354874
vt 0.522271 0.694005
vt 0.522271 0.715593
vt 0.672622 0.694005
vt 0.679873 0.694005
vt 0.679873 0.354874
vt 0.672622 0.354874
vt 0.654397 0.715593
vt 0.672622 0.715593
vt 0.654397 0.694005
vt 0.679873 0.715593
vt 0.522271 0.354874
vt 0.654397 0.354874
vt 0.639610 0.715593
vt 0.639610 0.694005
vt 0.639610 0.354874
vt 0.830285 0.282518
vt 0.843431 0.307802
vt 0.894221 0.284155
vt 0.861879 0.343285
vt 0.920115 0.307674
vt 0.774202 0.333822
vt 0.790267 0.304302
vt 0.823107 0.322213
vt 0.806733 0.351525
vt 0.801744 0.283213
vt 0.844415 0.282284
vt 0.355079 0.381685
vt 0.341876 0.352320
vt 0.685076 0.352320
vt 0.685076 0.381685
vt 0.830285 0.282518
vt 0.894221 0.284155
vt 0.843431 0.307802
vt 0.823107 0.322213
vt 0.790267 0.304302
vt 0.844415 0.282284
vt 0.801744 0.283213
vt 0.355079 0.381685
vt 0.685076 0.381685
vt 0.685076 0.352320
vt 0.341876 0.352320
vt 0.846616 0.928508
vt 0.846616 0.902538
vt 1.000000 0.902538
vt 1.000000 0.928508
vt 0.000000 0.928508
vt 0.000000 0.902538
vt 0.158805 0.902538
vt 0.158805 0.928508
vt 0.846616 0.795474
vt 0.846616 0.717195
vt 1.000000 0.717195
vt 1.000000 0.795474
vt 0.158805 0.795474
vt 0.000000 0.795474
vt -0.000000 0.717195
vt 0.158805 0.717195
vt 0.437833 0.928508
vt 0.437833 0.902538
vt 0.502710 0.902538
vt 0.502710 0.928508
vt 0.194458 0.902538
vt 0.194458 0.928508
vt 0.158804 0.848131
vt 0.000000 0.848131
vt 0.502710 0.795474
vt 0.502710 0.717195
vt 0.846616 0.848131
vt 1.000000 0.848131
vt 0.437833 0.717195
vt 0.437833 0.795474
vt 0.194458 0.884787
vt 0.194458 0.848131
vt 0.437833 0.848131
vt 0.437833 0.884787
vt 0.194458 0.717195
vt 0.194458 0.795474
vt 0.158805 0.884787
vt 0.846616 0.884787
vt 1.000000 0.884787
vt 0.502710 0.848131
vt 0.502710 0.884787
vt 0.000000 0.884787
vt 0.491888 0.296278
vt 0.491888 0.272406
vt 0.618184 0.272406
vt 0.618184 0.296278
vt 0.308267 0.296278
vt 0.308267 0.272406
vt 0.365591 0.272406
vt 0.365591 0.296278
vt 0.468062 0.296278
vt 0.468062 0.272406
vt 0.675509 0.272406
vt 0.675509 0.296278
vt 0.378685 0.272406
vt 0.378685 0.296278
vt 1.000000 0.440793
vt 0.619224 0.440793
vt 0.619224 0.370083
vt 1.000000 0.370083
vt 0.586482 0.370083
vt 1.000000 0.440793
vt 1.000000 0.370083
vt 0.619224 0.370083
vt 0.619224 0.440793
vt 0.586482 0.370083
vn 0.9944 -0.1056 0.0000
vn 0.9758 -0.2186 0.0000
vn 1.0000 0.0087 0.0000
vn 0.9706 -0.2409 0.0000
vn 0.9103 -0.4139 0.0000
vn 0.9982 -0.0598 0.0000
vn 0.6251 0.7805 0.0000
vn 1.0000 0.0000 0.0000
usemtl MI_Trim_03
s 1
f 11/1/1 10/2/2 2/3/2 7/4/1
f 8/5/1 5/6/3 4/7/3 9/8/1
f 15/9/2 13/10/1 8/5/1 6/11/2
f 6/11/2 8/5/1 9/8/1 3/12/2
f 7/4/1 1/13/3 12/14/3 11/1/1
f 13/10/1 14/15/3 5/6/3 8/5/1
f 16/16/2 17/17/1 13/10/1 15/9/2
f 18/18/3 14/15/3 13/10/1 17/17/1
f 10/2/2 11/1/1 17/17/1 16/16/2
f 11/1/1 12/14/3 18/18/3 17/17/1
f 26/19/1 7/4/1 2/3/2 25/20/2
f 23/21/1 24/22/1 20/23/3 21/24/3
f 30/25/2 22/26/2 23/21/1 28/27/1
f 22/26/2 19/28/2 24/22/1 23/21/1
f 7/4/1 26/19/1 27/29/3 1/13/3
f 28/27/1 23/21/1 21/24/3 29/30/3
f 31/31/2 30/25/2 28/27/1 32/32/1
f 33/33/3 32/32/1 28/27/1 29/30/3
f 25/20/2 31/31/2 32/32/1 26/19/1
f 26/19/1 32/32/1 33/33/3 27/29/3
f 85/34/4 79/35/4 82/36/5
f 79/35/4 76/37/4 83/38/5 82/36/5
f 76/39/4 79/40/4 80/41/6 77/42/6
f 79/40/4 85/43/4 87/44/6 80/41/6
f 87/45/6 85/46/4 81/47/4 78/48/6
f 94/49/4 92/50/5 89/51/4
f 89/51/4 92/50/5 83/38/5 76/37/4
f 76/39/4 77/42/6 90/52/6 89/53/4
f 89/53/4 90/52/6 96/54/6 94/55/4
f 96/56/6 88/57/6 91/58/4 94/59/4
usemtl MI_Trim_03_Dark
f 42/60/7 65/61/7 62/62/7 40/63/7
f 35/64/7 68/65/7 63/66/7 38/67/7
f 47/68/8 43/69/8 41/70/8 48/71/8
f 44/72/8 45/73/8 37/74/8 39/75/8
f 52/76/7 67/77/7 64/78/7 34/79/7
f 38/67/7 63/66/7 66/80/7 49/81/7
f 56/82/8 55/83/8 45/73/8 44/72/8
f 43/69/8 47/68/8 46/84/8 36/85/8
f 58/86/8 47/68/8 48/71/8 59/87/8
f 53/88/8 36/85/8 46/84/8 54/89/8
f 49/81/7 66/80/7 67/77/7 52/76/7
f 74/90/8 60/91/8 61/92/8 75/93/8
f 39/75/8 51/94/8 50/95/8 44/72/8
f 51/94/8 53/88/8 54/89/8 50/95/8
f 71/96/8 56/82/8 60/91/8 74/90/8
f 73/97/8 58/86/8 59/87/8 70/98/8
f 75/93/8 61/92/8 57/99/8 72/100/8
f 54/89/8 46/84/8 57/99/8 61/92/8
f 47/68/8 58/86/8 57/99/8 46/84/8
f 44/72/8 50/95/8 60/91/8 56/82/8
f 50/95/8 54/89/8 61/92/8 60/91/8
f 69/101/8 55/83/8 56/82/8 71/96/8
f 72/100/8 57/99/8 58/86/8 73/97/8
f 34/79/7 64/78/7 65/61/7 42/60/7
f 64/102/8 72/103/8 73/104/8 65/105/8
f 68/106/8 69/107/8 71/108/8 63/109/8
f 67/110/8 75/111/8 72/103/8 64/102/8
f 65/105/8 73/104/8 70/112/8 62/113/8
f 63/109/8 71/108/8 74/114/8 66/115/8
f 66/115/8 74/114/8 75/111/8 67/110/8
usemtl MI_Trim_02
f 81/116/4 85/117/4 86/118/5 84/119/5
f 82/120/5 86/118/5 85/117/4
f 91/121/4 93/122/5 95/123/5 94/124/4
f 92/125/5 94/124/4 95/123/5
