# Blender v3.6.0 OBJ File: 'AllModules_Unreal.blend'
# www.blender.org
mtllib WallBand_Corner_Square_Inner.mtl
o WallBand_Corner_Square_Inner_Plane.104
v -4.200000 0.800000 0.000000
v -4.200000 0.800000 -4.200000
v -4.000000 0.000000 0.000000
v -4.000000 -0.000000 -4.000000
v -4.200000 0.800000 -4.200000
v -4.200000 0.800000 0.000000
v -4.000000 0.000000 -2.000000
v -4.200000 0.800000 -2.000000
v -4.000000 1.000000 0.000000
v -4.000000 1.000000 -4.000000
v -4.000000 3.000000 -0.000000
v -4.000000 3.000000 -4.000000
v -3.992499 2.844916 -0.060106
v -3.992499 2.601933 -0.060106
v -3.992499 2.844915 -0.449309
v -3.992499 2.601933 -0.449309
v -4.200000 0.800000 -4.200000
v -0.000000 0.800000 -4.200000
v -0.000000 -0.000000 -4.000000
v -0.000000 0.800000 -4.200000
v -2.000000 0.000000 -4.000000
v -2.000000 0.800000 -4.200000
v -4.000000 1.000000 -4.000000
v -0.000000 1.000000 -4.000000
v -4.000000 3.000000 -4.000000
v 0.000000 3.000000 -4.000000
v -3.939893 2.844916 -3.992499
v -3.939893 2.601933 -3.992499
v -3.550691 2.844915 -3.992499
v -3.550691 2.601933 -3.992499
vt 0.162218 0.408906
vt 0.162218 0.362340
vt 0.837782 0.362340
vt 0.837782 0.408906
vt 0.500325 0.750453
vt 0.500325 0.408906
vt 1.159675 0.408906
vt 1.159675 0.750453
vt 0.162218 0.408906
vt 0.162218 0.362340
vt 0.837782 0.362340
vt 0.837782 0.408906
vt 0.500325 0.750453
vt 0.500325 0.408906
vt 1.159675 0.408906
vt 1.159675 0.750453
vt 0.226001 0.655519
vt 0.226001 0.605123
vt 0.501354 0.605123
vt 0.501354 0.655519
vt 0.744185 0.605123
vt 0.773999 0.655519
vt 0.226001 0.655519
vt 0.255815 0.605123
vt 0.501354 0.605123
vt 0.501354 0.655519
vt 0.773999 0.605123
vt 0.773999 0.655519
vt 0.799616 0.579130
vt 0.799616 0.490855
vt 0.941012 0.490855
vt 0.941012 0.579130
vt 0.799616 0.579130
vt 0.799616 0.490855
vt 0.941012 0.490855
vt 0.941012 0.579130
vn 0.7071 -0.7071 0.0000
vn 1.0000 0.0000 -0.0000
vn -0.0000 -0.7071 0.7071
vn 0.0000 0.0000 1.0000
vn 0.9701 0.2425 -0.0000
vn 0.0000 0.2425 0.9701
usemtl MI_Trim_02
s 1
f 9/1/1 1/2/1 2/3/1 10/4/1
f 11/5/2 9/6/2 10/7/2 12/8/2
f 23/9/3 17/10/3 18/11/3 24/12/3
f 25/13/4 23/14/4 24/15/4 26/16/4
usemtl MI_Trim_01
f 6/17/5 3/18/5 7/19/5 8/20/5
f 8/20/5 7/19/5 4/21/5 5/22/5
f 5/23/6 4/24/6 21/25/6 22/26/6
f 22/26/6 21/25/6 19/27/6 20/28/6
usemtl M_Decal_White
f 13/29/2 14/30/2 16/31/2 15/32/2
f 27/33/4 28/34/4 30/35/4 29/36/4
