# Blender v3.6.0 OBJ File: 'AllModules_Unreal.blend'
# www.blender.org
mtllib WallBand_Corner_Square_Outer.mtl
o WallBand_Corner_Square_Outer_Plane.002
v 0.000000 0.800000 -3.800000
v -3.800000 0.800000 -3.799999
v 0.000000 0.000000 -4.000000
v -4.000000 0.000000 -4.000000
v -3.800000 0.800000 -3.799999
v 0.000000 0.800000 -3.800000
v -2.000000 0.000000 -4.000000
v -2.000000 0.800000 -3.800000
v 0.000000 1.000000 -4.000000
v -4.000000 1.000000 -4.000000
v 0.000000 3.000000 -4.000000
v -4.000000 3.000000 -3.999999
v -0.060106 2.844916 -4.007501
v -0.060106 2.601932 -4.007501
v -0.449309 2.844915 -4.007501
v -0.449309 2.601933 -4.007501
v -3.800000 0.800000 0.000001
v -3.800000 0.800000 -3.800000
v -4.000000 0.000000 0.000001
v -4.000000 0.000000 -3.999999
v -3.800000 0.800000 -3.800000
v -3.800000 0.800000 0.000001
v -4.000000 0.000000 -1.999999
v -3.800000 0.800000 -1.999999
v -4.000000 1.000000 0.000001
v -4.000000 1.000000 -3.999999
v -4.000000 3.000000 0.000001
v -4.000000 3.000000 -3.999999
v -4.007501 2.844916 -0.060106
v -4.007501 2.601932 -0.060106
v -4.007501 2.844915 -0.449308
v -4.007501 2.601933 -0.449308
v -3.588295 0.800000 -3.799999
v -3.800000 0.800000 -3.564645
vt 0.162218 0.408906
vt 0.162218 0.362340
vt 0.837782 0.362340
vt 0.837782 0.408906
vt 0.500325 0.750453
vt 0.500325 0.408906
vt 1.159675 0.408906
vt 1.159675 0.750453
vt 0.162218 0.408906
vt 0.837782 0.408906
vt 0.837782 0.362340
vt 0.162218 0.362340
vt 0.500325 0.750453
vt 1.159675 0.750453
vt 1.159675 0.408906
vt 0.500325 0.408906
vt 0.226001 0.655519
vt 0.226001 0.605123
vt 0.501354 0.605123
vt 0.501354 0.655519
vt 0.498254 0.655519
vt 0.760860 0.605123
vt 0.710823 0.655519
vt 0.226001 0.655519
vt 0.501354 0.655519
vt 0.501354 0.605123
vt 0.226001 0.605123
vt 0.498254 0.655519
vt 0.707658 0.655519
vt 0.760860 0.605123
vt 0.715164 0.655519
vt 0.715164 0.655519
vt 0.799616 0.579130
vt 0.799616 0.490855
vt 0.941012 0.490855
vt 0.941012 0.579130
vt 0.799616 0.579130
vt 0.941012 0.579130
vt 0.941012 0.490855
vt 0.799616 0.490855
vn -0.0000 -0.7071 -0.7071
vn -0.0000 0.0000 -1.0000
vn -0.7071 -0.7071 -0.0000
vn -1.0000 0.0000 -0.0000
vn -0.0000 0.2425 -0.9701
vn -0.9701 0.2425 -0.0000
usemtl MI_Trim_02
s off
f 9/1/1 1/2/1 2/3/1 10/4/1
f 11/5/2 9/6/2 10/7/2 12/8/2
f 25/9/3 26/10/3 18/11/3 17/12/3
f 27/13/4 28/14/4 26/15/4 25/16/4
usemtl MI_Trim_01
f 6/17/5 3/18/5 7/19/5 8/20/5
f 8/21/5 7/19/5 4/22/5 33/23/5
f 22/24/6 24/25/6 23/26/6 19/27/6
f 24/28/6 34/29/6 20/30/6 23/26/6
f 33/23/5 4/22/5 5/31/5
f 20/30/6 34/29/6 21/32/6
usemtl M_Decal_White
f 13/33/2 14/34/2 16/35/2 15/36/2
f 29/37/4 31/38/4 32/39/4 30/40/4
