{
	"asset":{
		"generator":"Khronos glTF Blender I/O v4.0.44",
		"version":"2.0"
	},
	"scene":0,
	"scenes":[
		{
			"name":"Scene",
			"nodes":[
				0
			]
		}
	],
	"nodes":[
		{
			"mesh":0,
			"name":"Platform_Window_Wide"
		}
	],
	"materials":[
		{
			"doubleSided":true,
			"name":"M_Glass",
			"pbrMetallicRoughness":{
				"baseColorFactor":[
					0.800000011920929,
					0.800000011920929,
					0.800000011920929,
					1
				],
				"metallicFactor":0,
				"roughnessFactor":0.5
			}
		},
		{
			"doubleSided":true,
			"name":"MI_Trim_03",
			"normalTexture":{
				"index":0
			},
			"pbrMetallicRoughness":{
				"baseColorTexture":{
					"index":1
				},
				"metallicRoughnessTexture":{
					"index":2
				}
			}
		},
		{
			"doubleSided":true,
			"name":"MI_Trim_02",
			"normalTexture":{
				"index":3
			},
			"pbrMetallicRoughness":{
				"baseColorTexture":{
					"index":4
				},
				"metallicRoughnessTexture":{
					"index":5
				}
			}
		},
		{
			"doubleSided":true,
			"name":"MI_Trim_03_Cables",
			"normalTexture":{
				"index":6
			},
			"pbrMetallicRoughness":{
				"baseColorTexture":{
					"index":7
				},
				"metallicRoughnessTexture":{
					"index":8
				}
			}
		}
	],
	"meshes":[
		{
			"name":"Plane.028",
			"primitives":[
				{
					"attributes":{
						"POSITION":0,
						"NORMAL":1,
						"TEXCOORD_0":2
					},
					"indices":3,
					"material":0
				},
				{
					"attributes":{
						"POSITION":4,
						"NORMAL":5,
						"TEXCOORD_0":6
					},
					"indices":7,
					"material":1
				},
				{
					"attributes":{
						"POSITION":8,
						"NORMAL":9,
						"TEXCOORD_0":10
					},
					"indices":11,
					"material":2
				},
				{
					"attributes":{
						"POSITION":12,
						"NORMAL":13,
						"TEXCOORD_0":14
					},
					"indices":15,
					"material":3
				}
			]
		}
	],
	"textures":[
		{
			"sampler":0,
			"source":0
		},
		{
			"sampler":0,
			"source":1
		},
		{
			"sampler":0,
			"source":2
		},
		{
			"sampler":0,
			"source":3
		},
		{
			"sampler":0,
			"source":4
		},
		{
			"sampler":0,
			"source":5
		},
		{
			"sampler":0,
			"source":0
		},
		{
			"sampler":0,
			"source":6
		},
		{
			"sampler":0,
			"source":2
		}
	],
	"images":[
		{
			"mimeType":"image/png",
			"name":"T_Trim_03_Normal",
			"uri":"T_Trim_03_Normal.png"
		},
		{
			"mimeType":"image/png",
			"name":"T_Trim_03_BaseColor",
			"uri":"T_Trim_03_BaseColor.png"
		},
		{
			"mimeType":"image/png",
			"name":"T_Trim_03_ORM",
			"uri":"T_Trim_03_ORM.png"
		},
		{
			"mimeType":"image/png",
			"name":"T_Trim_02_Normal",
			"uri":"T_Trim_02_Normal.png"
		},
		{
			"mimeType":"image/png",
			"name":"T_Trim_02_BaseColor_Red",
			"uri":"T_Trim_02_BaseColor_Red.png"
		},
		{
			"mimeType":"image/png",
			"name":"T_Trim_02_ORM",
			"uri":"T_Trim_02_ORM.png"
		},
		{
			"mimeType":"image/png",
			"name":"T_Trim_03_Cables",
			"uri":"T_Trim_03_Cables.png"
		}
	],
	"accessors":[
		{
			"bufferView":0,
			"componentType":5126,
			"count":15,
			"max":[
				1.244635820388794,
				-0.08963072299957275,
				1.6048650741577148
			],
			"min":[
				-1.244635820388794,
				-0.08963239192962646,
				-1.6048650741577148
			],
			"type":"VEC3"
		},
		{
			"bufferView":1,
			"componentType":5126,
			"count":15,
			"type":"VEC3"
		},
		{
			"bufferView":2,
			"componentType":5126,
			"count":15,
			"type":"VEC2"
		},
		{
			"bufferView":3,
			"componentType":5123,
			"count":48,
			"type":"SCALAR"
		},
		{
			"bufferView":4,
			"componentType":5126,
			"count":312,
			"max":[
				1.999999761581421,
				1.4842270275039482e-06,
				2
			],
			"min":[
				-1.999999761581421,
				-0.051211196929216385,
				-2
			],
			"type":"VEC3"
		},
		{
			"bufferView":5,
			"componentType":5126,
			"count":312,
			"type":"VEC3"
		},
		{
			"bufferView":6,
			"componentType":5126,
			"count":312,
			"type":"VEC2"
		},
		{
			"bufferView":7,
			"componentType":5123,
			"count":768,
			"type":"SCALAR"
		},
		{
			"bufferView":8,
			"componentType":5126,
			"count":204,
			"max":[
				1.999999761581421,
				1.4842270275039482e-06,
				2
			],
			"min":[
				-1.999999761581421,
				-0.41330698132514954,
				-2
			],
			"type":"VEC3"
		},
		{
			"bufferView":9,
			"componentType":5126,
			"count":204,
			"type":"VEC3"
		},
		{
			"bufferView":10,
			"componentType":5126,
			"count":204,
			"type":"VEC2"
		},
		{
			"bufferView":11,
			"componentType":5123,
			"count":564,
			"type":"SCALAR"
		},
		{
			"bufferView":12,
			"componentType":5126,
			"count":96,
			"max":[
				1.2097618579864502,
				-0.013825670816004276,
				1.1358213424682617
			],
			"min":[
				-1.2097618579864502,
				-0.11440823972225189,
				-1.1358213424682617
			],
			"type":"VEC3"
		},
		{
			"bufferView":13,
			"componentType":5126,
			"count":96,
			"type":"VEC3"
		},
		{
			"bufferView":14,
			"componentType":5126,
			"count":96,
			"type":"VEC2"
		},
		{
			"bufferView":15,
			"componentType":5123,
			"count":144,
			"type":"SCALAR"
		}
	],
	"bufferViews":[
		{
			"buffer":0,
			"byteLength":180,
			"byteOffset":0,
			"target":34962
		},
		{
			"buffer":0,
			"byteLength":180,
			"byteOffset":180,
			"target":34962
		},
		{
			"buffer":0,
			"byteLength":120,
			"byteOffset":360,
			"target":34962
		},
		{
			"buffer":0,
			"byteLength":96,
			"byteOffset":480,
			"target":34963
		},
		{
			"buffer":0,
			"byteLength":3744,
			"byteOffset":576,
			"target":34962
		},
		{
			"buffer":0,
			"byteLength":3744,
			"byteOffset":4320,
			"target":34962
		},
		{
			"buffer":0,
			"byteLength":2496,
			"byteOffset":8064,
			"target":34962
		},
		{
			"buffer":0,
			"byteLength":1536,
			"byteOffset":10560,
			"target":34963
		},
		{
			"buffer":0,
			"byteLength":2448,
			"byteOffset":12096,
			"target":34962
		},
		{
			"buffer":0,
			"byteLength":2448,
			"byteOffset":14544,
			"target":34962
		},
		{
			"buffer":0,
			"byteLength":1632,
			"byteOffset":16992,
			"target":34962
		},
		{
			"buffer":0,
			"byteLength":1128,
			"byteOffset":18624,
			"target":34963
		},
		{
			"buffer":0,
			"byteLength":1152,
			"byteOffset":19752,
			"target":34962
		},
		{
			"buffer":0,
			"byteLength":1152,
			"byteOffset":20904,
			"target":34962
		},
		{
			"buffer":0,
			"byteLength":768,
			"byteOffset":22056,
			"target":34962
		},
		{
			"buffer":0,
			"byteLength":288,
			"byteOffset":22824,
			"target":34963
		}
	],
	"samplers":[
		{
			"magFilter":9729,
			"minFilter":9987
		}
	],
	"buffers":[
		{
			"byteLength":23112,
			"uri":"Platform_Window_Wide.bin"
		}
	]
}
