{
	"asset":{
		"generator":"Khronos glTF Blender I/O v4.0.44",
		"version":"2.0"
	},
	"extensionsUsed":[
		"KHR_materials_specular",
		"KHR_materials_ior"
	],
	"scene":0,
	"scenes":[
		{
			"name":"Scene",
			"nodes":[
				0
			]
		}
	],
	"nodes":[
		{
			"mesh":0,
			"name":"TopCables_Corner_Round_Inner"
		}
	],
	"materials":[
		{
			"doubleSided":true,
			"name":"MI_Trim_02",
			"normalTexture":{
				"index":0
			},
			"pbrMetallicRoughness":{
				"baseColorTexture":{
					"index":1
				},
				"metallicRoughnessTexture":{
					"index":2
				}
			}
		},
		{
			"doubleSided":true,
			"extensions":{
				"KHR_materials_specular":{
					"specularFactor":0
				},
				"KHR_materials_ior":{
					"ior":1.4500000476837158
				}
			},
			"name":"MI_Trim_01",
			"normalTexture":{
				"index":3
			},
			"pbrMetallicRoughness":{
				"baseColorTexture":{
					"index":4
				},
				"metallicRoughnessTexture":{
					"index":5
				}
			}
		},
		{
			"doubleSided":true,
			"name":"MI_Trim_03_Dark",
			"normalTexture":{
				"index":6
			},
			"pbrMetallicRoughness":{
				"baseColorTexture":{
					"index":7
				},
				"metallicRoughnessTexture":{
					"index":8
				}
			}
		},
		{
			"doubleSided":true,
			"name":"MI_Trim_03_Cables_Blue",
			"pbrMetallicRoughness":{}
		}
	],
	"meshes":[
		{
			"name":"Plane.089",
			"primitives":[
				{
					"attributes":{
						"POSITION":0,
						"NORMAL":1,
						"TEXCOORD_0":2
					},
					"indices":3,
					"material":0
				},
				{
					"attributes":{
						"POSITION":4,
						"NORMAL":5,
						"TEXCOORD_0":6
					},
					"indices":7,
					"material":1
				},
				{
					"attributes":{
						"POSITION":8,
						"NORMAL":9,
						"TEXCOORD_0":10
					},
					"indices":11,
					"material":2
				},
				{
					"attributes":{
						"POSITION":12,
						"NORMAL":13,
						"TEXCOORD_0":14
					},
					"indices":15,
					"material":3
				}
			]
		}
	],
	"textures":[
		{
			"sampler":0,
			"source":0
		},
		{
			"sampler":0,
			"source":1
		},
		{
			"sampler":0,
			"source":2
		},
		{
			"sampler":0,
			"source":3
		},
		{
			"sampler":0,
			"source":4
		},
		{
			"sampler":0,
			"source":5
		},
		{
			"sampler":0,
			"source":6
		},
		{
			"sampler":0,
			"source":7
		},
		{
			"sampler":0,
			"source":8
		}
	],
	"images":[
		{
			"mimeType":"image/png",
			"name":"T_Trim_02_Normal",
			"uri":"T_Trim_02_Normal.png"
		},
		{
			"mimeType":"image/png",
			"name":"T_Trim_02_BaseColor_Red",
			"uri":"T_Trim_02_BaseColor_Red.png"
		},
		{
			"mimeType":"image/png",
			"name":"T_Trim_02_ORM",
			"uri":"T_Trim_02_ORM.png"
		},
		{
			"mimeType":"image/png",
			"name":"T_Trim_01_Normal",
			"uri":"T_Trim_01_Normal.png"
		},
		{
			"mimeType":"image/png",
			"name":"T_Trim_01_BaseColor_Red",
			"uri":"T_Trim_01_BaseColor_Red.png"
		},
		{
			"mimeType":"image/png",
			"name":"T_Trim_01_ORM",
			"uri":"T_Trim_01_ORM.png"
		},
		{
			"mimeType":"image/png",
			"name":"T_Trim_03_Normal",
			"uri":"T_Trim_03_Normal.png"
		},
		{
			"mimeType":"image/png",
			"name":"T_Trim_03_Cables",
			"uri":"T_Trim_03_Cables.png"
		},
		{
			"mimeType":"image/png",
			"name":"T_Trim_03_ORM",
			"uri":"T_Trim_03_ORM.png"
		}
	],
	"accessors":[
		{
			"bufferView":0,
			"componentType":5126,
			"count":406,
			"max":[
				1.7100486502386048e-06,
				5.000000953674316,
				-2.113562004524283e-05
			],
			"min":[
				-4.160669326782227,
				3.3322980403900146,
				-4.160668849945068
			],
			"type":"VEC3"
		},
		{
			"bufferView":1,
			"componentType":5126,
			"count":406,
			"type":"VEC3"
		},
		{
			"bufferView":2,
			"componentType":5126,
			"count":406,
			"type":"VEC2"
		},
		{
			"bufferView":3,
			"componentType":5123,
			"count":1200,
			"type":"SCALAR"
		},
		{
			"bufferView":4,
			"componentType":5126,
			"count":1076,
			"max":[
				1.834683303059137e-06,
				5.000000953674316,
				-2.0381776266731322e-05
			],
			"min":[
				-4.080936908721924,
				2.999999761581421,
				-4.0809407234191895
			],
			"type":"VEC3"
		},
		{
			"bufferView":5,
			"componentType":5126,
			"count":1076,
			"type":"VEC3"
		},
		{
			"bufferView":6,
			"componentType":5126,
			"count":1076,
			"type":"VEC2"
		},
		{
			"bufferView":7,
			"componentType":5123,
			"count":3132,
			"type":"SCALAR"
		},
		{
			"bufferView":8,
			"componentType":5126,
			"count":60,
			"max":[
				-0.6514102220535278,
				3.332298994064331,
				-0.6514319777488708
			],
			"min":[
				-3.974947214126587,
				3.3322980403900146,
				-3.974949598312378
			],
			"type":"VEC3"
		},
		{
			"bufferView":9,
			"componentType":5126,
			"count":60,
			"type":"VEC3"
		},
		{
			"bufferView":10,
			"componentType":5126,
			"count":60,
			"type":"VEC2"
		},
		{
			"bufferView":11,
			"componentType":5123,
			"count":168,
			"type":"SCALAR"
		},
		{
			"bufferView":12,
			"componentType":5126,
			"count":1378,
			"max":[
				-0.13644421100616455,
				3.6935038566589355,
				-0.1821330040693283
			],
			"min":[
				-4.0632524490356445,
				3.4643595218658447,
				-4.0395708084106445
			],
			"type":"VEC3"
		},
		{
			"bufferView":13,
			"componentType":5126,
			"count":1378,
			"type":"VEC3"
		},
		{
			"bufferView":14,
			"componentType":5126,
			"count":1378,
			"type":"VEC2"
		},
		{
			"bufferView":15,
			"componentType":5123,
			"count":6912,
			"type":"SCALAR"
		}
	],
	"bufferViews":[
		{
			"buffer":0,
			"byteLength":4872,
			"byteOffset":0,
			"target":34962
		},
		{
			"buffer":0,
			"byteLength":4872,
			"byteOffset":4872,
			"target":34962
		},
		{
			"buffer":0,
			"byteLength":3248,
			"byteOffset":9744,
			"target":34962
		},
		{
			"buffer":0,
			"byteLength":2400,
			"byteOffset":12992,
			"target":34963
		},
		{
			"buffer":0,
			"byteLength":12912,
			"byteOffset":15392,
			"target":34962
		},
		{
			"buffer":0,
			"byteLength":12912,
			"byteOffset":28304,
			"target":34962
		},
		{
			"buffer":0,
			"byteLength":8608,
			"byteOffset":41216,
			"target":34962
		},
		{
			"buffer":0,
			"byteLength":6264,
			"byteOffset":49824,
			"target":34963
		},
		{
			"buffer":0,
			"byteLength":720,
			"byteOffset":56088,
			"target":34962
		},
		{
			"buffer":0,
			"byteLength":720,
			"byteOffset":56808,
			"target":34962
		},
		{
			"buffer":0,
			"byteLength":480,
			"byteOffset":57528,
			"target":34962
		},
		{
			"buffer":0,
			"byteLength":336,
			"byteOffset":58008,
			"target":34963
		},
		{
			"buffer":0,
			"byteLength":16536,
			"byteOffset":58344,
			"target":34962
		},
		{
			"buffer":0,
			"byteLength":16536,
			"byteOffset":74880,
			"target":34962
		},
		{
			"buffer":0,
			"byteLength":11024,
			"byteOffset":91416,
			"target":34962
		},
		{
			"buffer":0,
			"byteLength":13824,
			"byteOffset":102440,
			"target":34963
		}
	],
	"samplers":[
		{
			"magFilter":9729,
			"minFilter":9987
		}
	],
	"buffers":[
		{
			"byteLength":116264,
			"uri":"TopCables_Corner_Round_Inner.bin"
		}
	]
}
